<?xml version="1.0" encoding="utf-8" standalone="no"?>
<!DOCTYPE svg PUBLIC "-//W3C//DTD SVG 1.1//EN"
  "http://www.w3.org/Graphics/SVG/1.1/DTD/svg11.dtd">
<!-- Created with matplotlib (https://matplotlib.org/) -->
<svg height="345.6pt" version="1.1" viewBox="0 0 460.8 345.6" width="460.8pt" xmlns="http://www.w3.org/2000/svg" xmlns:xlink="http://www.w3.org/1999/xlink">
 <metadata>
  <rdf:RDF xmlns:cc="http://creativecommons.org/ns#" xmlns:dc="http://purl.org/dc/elements/1.1/" xmlns:rdf="http://www.w3.org/1999/02/22-rdf-syntax-ns#">
   <cc:Work>
    <dc:type rdf:resource="http://purl.org/dc/dcmitype/StillImage"/>
    <dc:date>2020-09-06T11:17:37.276551</dc:date>
    <dc:format>image/svg+xml</dc:format>
    <dc:creator>
     <cc:Agent>
      <dc:title>Matplotlib v3.3.1, https://matplotlib.org/</dc:title>
     </cc:Agent>
    </dc:creator>
   </cc:Work>
  </rdf:RDF>
 </metadata>
 <defs>
  <style type="text/css">*{stroke-linecap:butt;stroke-linejoin:round;}</style>
 </defs>
 <g id="figure_1">
  <g id="patch_1">
   <path d="M 0 345.6 
L 460.8 345.6 
L 460.8 0 
L 0 0 
z
" style="fill:#ffffff;"/>
  </g>
  <g id="axes_1">
   <g id="patch_2">
    <path d="M 57.6 307.584 
L 414.72 307.584 
L 414.72 41.472 
L 57.6 41.472 
z
" style="fill:#ffffff;"/>
   </g>
   <g id="matplotlib.axis_1">
    <g id="xtick_1">
     <g id="line2d_1">
      <defs>
       <path d="M 0 0 
L 0 3.5 
" id="mfc63b208f8" style="stroke:#000000;stroke-width:0.8;"/>
      </defs>
      <g>
       <use style="stroke:#000000;stroke-width:0.8;" x="73.832727" xlink:href="#mfc63b208f8" y="307.584"/>
      </g>
     </g>
     <g id="text_1">
      <!-- 0.0 -->
      <g transform="translate(65.881165 322.182437)scale(0.1 -0.1)">
       <defs>
        <path d="M 31.78125 66.40625 
Q 24.171875 66.40625 20.328125 58.90625 
Q 16.5 51.421875 16.5 36.375 
Q 16.5 21.390625 20.328125 13.890625 
Q 24.171875 6.390625 31.78125 6.390625 
Q 39.453125 6.390625 43.28125 13.890625 
Q 47.125 21.390625 47.125 36.375 
Q 47.125 51.421875 43.28125 58.90625 
Q 39.453125 66.40625 31.78125 66.40625 
z
M 31.78125 74.21875 
Q 44.046875 74.21875 50.515625 64.515625 
Q 56.984375 54.828125 56.984375 36.375 
Q 56.984375 17.96875 50.515625 8.265625 
Q 44.046875 -1.421875 31.78125 -1.421875 
Q 19.53125 -1.421875 13.0625 8.265625 
Q 6.59375 17.96875 6.59375 36.375 
Q 6.59375 54.828125 13.0625 64.515625 
Q 19.53125 74.21875 31.78125 74.21875 
z
" id="DejaVuSans-48"/>
        <path d="M 10.6875 12.40625 
L 21 12.40625 
L 21 0 
L 10.6875 0 
z
" id="DejaVuSans-46"/>
       </defs>
       <use xlink:href="#DejaVuSans-48"/>
       <use x="63.623047" xlink:href="#DejaVuSans-46"/>
       <use x="95.410156" xlink:href="#DejaVuSans-48"/>
      </g>
     </g>
    </g>
    <g id="xtick_2">
     <g id="line2d_2">
      <g>
       <use style="stroke:#000000;stroke-width:0.8;" x="138.763636" xlink:href="#mfc63b208f8" y="307.584"/>
      </g>
     </g>
     <g id="text_2">
      <!-- 0.2 -->
      <g transform="translate(130.812074 322.182437)scale(0.1 -0.1)">
       <defs>
        <path d="M 19.1875 8.296875 
L 53.609375 8.296875 
L 53.609375 0 
L 7.328125 0 
L 7.328125 8.296875 
Q 12.9375 14.109375 22.625 23.890625 
Q 32.328125 33.6875 34.8125 36.53125 
Q 39.546875 41.84375 41.421875 45.53125 
Q 43.3125 49.21875 43.3125 52.78125 
Q 43.3125 58.59375 39.234375 62.25 
Q 35.15625 65.921875 28.609375 65.921875 
Q 23.96875 65.921875 18.8125 64.3125 
Q 13.671875 62.703125 7.8125 59.421875 
L 7.8125 69.390625 
Q 13.765625 71.78125 18.9375 73 
Q 24.125 74.21875 28.421875 74.21875 
Q 39.75 74.21875 46.484375 68.546875 
Q 53.21875 62.890625 53.21875 53.421875 
Q 53.21875 48.921875 51.53125 44.890625 
Q 49.859375 40.875 45.40625 35.40625 
Q 44.1875 33.984375 37.640625 27.21875 
Q 31.109375 20.453125 19.1875 8.296875 
z
" id="DejaVuSans-50"/>
       </defs>
       <use xlink:href="#DejaVuSans-48"/>
       <use x="63.623047" xlink:href="#DejaVuSans-46"/>
       <use x="95.410156" xlink:href="#DejaVuSans-50"/>
      </g>
     </g>
    </g>
    <g id="xtick_3">
     <g id="line2d_3">
      <g>
       <use style="stroke:#000000;stroke-width:0.8;" x="203.694545" xlink:href="#mfc63b208f8" y="307.584"/>
      </g>
     </g>
     <g id="text_3">
      <!-- 0.4 -->
      <g transform="translate(195.742983 322.182437)scale(0.1 -0.1)">
       <defs>
        <path d="M 37.796875 64.3125 
L 12.890625 25.390625 
L 37.796875 25.390625 
z
M 35.203125 72.90625 
L 47.609375 72.90625 
L 47.609375 25.390625 
L 58.015625 25.390625 
L 58.015625 17.1875 
L 47.609375 17.1875 
L 47.609375 0 
L 37.796875 0 
L 37.796875 17.1875 
L 4.890625 17.1875 
L 4.890625 26.703125 
z
" id="DejaVuSans-52"/>
       </defs>
       <use xlink:href="#DejaVuSans-48"/>
       <use x="63.623047" xlink:href="#DejaVuSans-46"/>
       <use x="95.410156" xlink:href="#DejaVuSans-52"/>
      </g>
     </g>
    </g>
    <g id="xtick_4">
     <g id="line2d_4">
      <g>
       <use style="stroke:#000000;stroke-width:0.8;" x="268.625455" xlink:href="#mfc63b208f8" y="307.584"/>
      </g>
     </g>
     <g id="text_4">
      <!-- 0.6 -->
      <g transform="translate(260.673892 322.182437)scale(0.1 -0.1)">
       <defs>
        <path d="M 33.015625 40.375 
Q 26.375 40.375 22.484375 35.828125 
Q 18.609375 31.296875 18.609375 23.390625 
Q 18.609375 15.53125 22.484375 10.953125 
Q 26.375 6.390625 33.015625 6.390625 
Q 39.65625 6.390625 43.53125 10.953125 
Q 47.40625 15.53125 47.40625 23.390625 
Q 47.40625 31.296875 43.53125 35.828125 
Q 39.65625 40.375 33.015625 40.375 
z
M 52.59375 71.296875 
L 52.59375 62.3125 
Q 48.875 64.0625 45.09375 64.984375 
Q 41.3125 65.921875 37.59375 65.921875 
Q 27.828125 65.921875 22.671875 59.328125 
Q 17.53125 52.734375 16.796875 39.40625 
Q 19.671875 43.65625 24.015625 45.921875 
Q 28.375 48.1875 33.59375 48.1875 
Q 44.578125 48.1875 50.953125 41.515625 
Q 57.328125 34.859375 57.328125 23.390625 
Q 57.328125 12.15625 50.6875 5.359375 
Q 44.046875 -1.421875 33.015625 -1.421875 
Q 20.359375 -1.421875 13.671875 8.265625 
Q 6.984375 17.96875 6.984375 36.375 
Q 6.984375 53.65625 15.1875 63.9375 
Q 23.390625 74.21875 37.203125 74.21875 
Q 40.921875 74.21875 44.703125 73.484375 
Q 48.484375 72.75 52.59375 71.296875 
z
" id="DejaVuSans-54"/>
       </defs>
       <use xlink:href="#DejaVuSans-48"/>
       <use x="63.623047" xlink:href="#DejaVuSans-46"/>
       <use x="95.410156" xlink:href="#DejaVuSans-54"/>
      </g>
     </g>
    </g>
    <g id="xtick_5">
     <g id="line2d_5">
      <g>
       <use style="stroke:#000000;stroke-width:0.8;" x="333.556364" xlink:href="#mfc63b208f8" y="307.584"/>
      </g>
     </g>
     <g id="text_5">
      <!-- 0.8 -->
      <g transform="translate(325.604801 322.182437)scale(0.1 -0.1)">
       <defs>
        <path d="M 31.78125 34.625 
Q 24.75 34.625 20.71875 30.859375 
Q 16.703125 27.09375 16.703125 20.515625 
Q 16.703125 13.921875 20.71875 10.15625 
Q 24.75 6.390625 31.78125 6.390625 
Q 38.8125 6.390625 42.859375 10.171875 
Q 46.921875 13.96875 46.921875 20.515625 
Q 46.921875 27.09375 42.890625 30.859375 
Q 38.875 34.625 31.78125 34.625 
z
M 21.921875 38.8125 
Q 15.578125 40.375 12.03125 44.71875 
Q 8.5 49.078125 8.5 55.328125 
Q 8.5 64.0625 14.71875 69.140625 
Q 20.953125 74.21875 31.78125 74.21875 
Q 42.671875 74.21875 48.875 69.140625 
Q 55.078125 64.0625 55.078125 55.328125 
Q 55.078125 49.078125 51.53125 44.71875 
Q 48 40.375 41.703125 38.8125 
Q 48.828125 37.15625 52.796875 32.3125 
Q 56.78125 27.484375 56.78125 20.515625 
Q 56.78125 9.90625 50.3125 4.234375 
Q 43.84375 -1.421875 31.78125 -1.421875 
Q 19.734375 -1.421875 13.25 4.234375 
Q 6.78125 9.90625 6.78125 20.515625 
Q 6.78125 27.484375 10.78125 32.3125 
Q 14.796875 37.15625 21.921875 38.8125 
z
M 18.3125 54.390625 
Q 18.3125 48.734375 21.84375 45.5625 
Q 25.390625 42.390625 31.78125 42.390625 
Q 38.140625 42.390625 41.71875 45.5625 
Q 45.3125 48.734375 45.3125 54.390625 
Q 45.3125 60.0625 41.71875 63.234375 
Q 38.140625 66.40625 31.78125 66.40625 
Q 25.390625 66.40625 21.84375 63.234375 
Q 18.3125 60.0625 18.3125 54.390625 
z
" id="DejaVuSans-56"/>
       </defs>
       <use xlink:href="#DejaVuSans-48"/>
       <use x="63.623047" xlink:href="#DejaVuSans-46"/>
       <use x="95.410156" xlink:href="#DejaVuSans-56"/>
      </g>
     </g>
    </g>
    <g id="xtick_6">
     <g id="line2d_6">
      <g>
       <use style="stroke:#000000;stroke-width:0.8;" x="398.487273" xlink:href="#mfc63b208f8" y="307.584"/>
      </g>
     </g>
     <g id="text_6">
      <!-- 1.0 -->
      <g transform="translate(390.53571 322.182437)scale(0.1 -0.1)">
       <defs>
        <path d="M 12.40625 8.296875 
L 28.515625 8.296875 
L 28.515625 63.921875 
L 10.984375 60.40625 
L 10.984375 69.390625 
L 28.421875 72.90625 
L 38.28125 72.90625 
L 38.28125 8.296875 
L 54.390625 8.296875 
L 54.390625 0 
L 12.40625 0 
z
" id="DejaVuSans-49"/>
       </defs>
       <use xlink:href="#DejaVuSans-49"/>
       <use x="63.623047" xlink:href="#DejaVuSans-46"/>
       <use x="95.410156" xlink:href="#DejaVuSans-48"/>
      </g>
     </g>
    </g>
    <g id="text_7">
     <!-- x -->
     <g transform="translate(233.200625 335.860562)scale(0.1 -0.1)">
      <defs>
       <path d="M 54.890625 54.6875 
L 35.109375 28.078125 
L 55.90625 0 
L 45.3125 0 
L 29.390625 21.484375 
L 13.484375 0 
L 2.875 0 
L 24.125 28.609375 
L 4.6875 54.6875 
L 15.28125 54.6875 
L 29.78125 35.203125 
L 44.28125 54.6875 
z
" id="DejaVuSans-120"/>
      </defs>
      <use xlink:href="#DejaVuSans-120"/>
     </g>
    </g>
   </g>
   <g id="matplotlib.axis_2">
    <g id="ytick_1">
     <g id="line2d_7">
      <defs>
       <path d="M 0 0 
L -3.5 0 
" id="m38dd372330" style="stroke:#000000;stroke-width:0.8;"/>
      </defs>
      <g>
       <use style="stroke:#000000;stroke-width:0.8;" x="57.6" xlink:href="#m38dd372330" y="295.488"/>
      </g>
     </g>
     <g id="text_8">
      <!-- 0.0 -->
      <g transform="translate(34.696875 299.287219)scale(0.1 -0.1)">
       <use xlink:href="#DejaVuSans-48"/>
       <use x="63.623047" xlink:href="#DejaVuSans-46"/>
       <use x="95.410156" xlink:href="#DejaVuSans-48"/>
      </g>
     </g>
    </g>
    <g id="ytick_2">
     <g id="line2d_8">
      <g>
       <use style="stroke:#000000;stroke-width:0.8;" x="57.6" xlink:href="#m38dd372330" y="247.103957"/>
      </g>
     </g>
     <g id="text_9">
      <!-- 0.2 -->
      <g transform="translate(34.696875 250.903175)scale(0.1 -0.1)">
       <use xlink:href="#DejaVuSans-48"/>
       <use x="63.623047" xlink:href="#DejaVuSans-46"/>
       <use x="95.410156" xlink:href="#DejaVuSans-50"/>
      </g>
     </g>
    </g>
    <g id="ytick_3">
     <g id="line2d_9">
      <g>
       <use style="stroke:#000000;stroke-width:0.8;" x="57.6" xlink:href="#m38dd372330" y="198.719913"/>
      </g>
     </g>
     <g id="text_10">
      <!-- 0.4 -->
      <g transform="translate(34.696875 202.519132)scale(0.1 -0.1)">
       <use xlink:href="#DejaVuSans-48"/>
       <use x="63.623047" xlink:href="#DejaVuSans-46"/>
       <use x="95.410156" xlink:href="#DejaVuSans-52"/>
      </g>
     </g>
    </g>
    <g id="ytick_4">
     <g id="line2d_10">
      <g>
       <use style="stroke:#000000;stroke-width:0.8;" x="57.6" xlink:href="#m38dd372330" y="150.33587"/>
      </g>
     </g>
     <g id="text_11">
      <!-- 0.6 -->
      <g transform="translate(34.696875 154.135089)scale(0.1 -0.1)">
       <use xlink:href="#DejaVuSans-48"/>
       <use x="63.623047" xlink:href="#DejaVuSans-46"/>
       <use x="95.410156" xlink:href="#DejaVuSans-54"/>
      </g>
     </g>
    </g>
    <g id="ytick_5">
     <g id="line2d_11">
      <g>
       <use style="stroke:#000000;stroke-width:0.8;" x="57.6" xlink:href="#m38dd372330" y="101.951827"/>
      </g>
     </g>
     <g id="text_12">
      <!-- 0.8 -->
      <g transform="translate(34.696875 105.751046)scale(0.1 -0.1)">
       <use xlink:href="#DejaVuSans-48"/>
       <use x="63.623047" xlink:href="#DejaVuSans-46"/>
       <use x="95.410156" xlink:href="#DejaVuSans-56"/>
      </g>
     </g>
    </g>
    <g id="ytick_6">
     <g id="line2d_12">
      <g>
       <use style="stroke:#000000;stroke-width:0.8;" x="57.6" xlink:href="#m38dd372330" y="53.567784"/>
      </g>
     </g>
     <g id="text_13">
      <!-- 1.0 -->
      <g transform="translate(34.696875 57.367002)scale(0.1 -0.1)">
       <use xlink:href="#DejaVuSans-49"/>
       <use x="63.623047" xlink:href="#DejaVuSans-46"/>
       <use x="95.410156" xlink:href="#DejaVuSans-48"/>
      </g>
     </g>
    </g>
    <g id="text_14">
     <!-- y -->
     <g transform="translate(27.7375 172.448312)scale(0.1 -0.1)">
      <defs>
       <path d="M 32.171875 -5.078125 
Q 28.375 -14.84375 24.75 -17.8125 
Q 21.140625 -20.796875 15.09375 -20.796875 
L 7.90625 -20.796875 
L 7.90625 -13.28125 
L 13.1875 -13.28125 
Q 16.890625 -13.28125 18.9375 -11.515625 
Q 21 -9.765625 23.484375 -3.21875 
L 25.09375 0.875 
L 2.984375 54.6875 
L 12.5 54.6875 
L 29.59375 11.921875 
L 46.6875 54.6875 
L 56.203125 54.6875 
z
" id="DejaVuSans-121"/>
      </defs>
      <use xlink:href="#DejaVuSans-121"/>
     </g>
    </g>
   </g>
   <g id="line2d_13">
    <path clip-path="url(#pd7f72017bf)" d="M 73.832727 125.638821 
L 80.33883 112.231044 
L 85.543713 102.029026 
L 90.097985 93.612267 
L 94.001647 86.855012 
L 97.905309 80.582629 
L 101.158361 75.766969 
L 104.411412 71.358143 
L 107.664464 67.384701 
L 110.266906 64.537067 
L 112.869346 61.996916 
L 115.471788 59.775148 
L 118.07423 57.88134 
L 120.676672 56.32368 
L 122.628503 55.380194 
L 124.580333 54.631977 
L 126.532163 54.080861 
L 128.483994 53.72823 
L 130.435824 53.574936 
L 132.387655 53.621367 
L 134.339485 53.867408 
L 136.291316 54.312453 
L 138.243146 54.955393 
L 140.194981 55.794655 
L 142.146812 56.828149 
L 144.749249 58.503862 
L 147.351691 60.513027 
L 149.954133 62.846949 
L 152.556576 65.495608 
L 155.159018 68.447683 
L 157.761455 71.690672 
L 161.014509 76.132678 
L 164.267563 80.979167 
L 167.520617 86.199224 
L 171.424278 92.910221 
L 175.327939 100.052695 
L 179.882206 108.848747 
L 185.087091 119.389855 
L 191.593189 133.079794 
L 216.316387 185.661594 
L 222.171879 197.304458 
L 227.376763 207.166109 
L 231.931031 215.365912 
L 236.485308 223.130533 
L 241.039586 230.435825 
L 244.943247 236.31968 
L 248.846907 241.848827 
L 252.750568 247.021646 
L 256.654229 251.840038 
L 260.55789 256.309034 
L 264.461551 260.436441 
L 268.365212 264.23245 
L 272.268873 267.709271 
L 276.172533 270.880761 
L 280.076194 273.762041 
L 283.979855 276.369211 
L 287.883516 278.719002 
L 291.787177 280.828498 
L 295.690838 282.714884 
L 300.245115 284.656451 
L 304.799393 286.344092 
L 309.353651 287.803409 
L 314.558545 289.222859 
L 319.76342 290.410021 
L 325.618911 291.506954 
L 332.125019 292.476562 
L 339.281743 293.296076 
L 347.089065 293.957486 
L 356.1976 294.498084 
L 367.257986 294.918744 
L 381.571396 295.220547 
L 398.487273 295.384564 
L 398.487273 295.384564 
" style="fill:none;stroke:#ff0000;stroke-linecap:square;stroke-width:1.5;"/>
   </g>
   <g id="line2d_14">
    <path clip-path="url(#pd7f72017bf)" d="M 73.832727 134.860365 
L 84.893103 184.770573 
L 88.796765 201.121808 
L 92.049817 213.819183 
L 95.302867 225.533294 
L 97.905309 234.139996 
L 100.507751 242.041765 
L 103.110191 249.232086 
L 105.712633 255.718477 
L 108.315073 261.52023 
L 110.917515 266.666484 
L 113.519957 271.193945 
L 116.1224 275.14493 
L 118.07423 277.757439 
L 120.02606 280.091713 
L 122.628503 282.806647 
L 125.23094 285.111551 
L 127.833382 287.053397 
L 130.435824 288.676947 
L 133.038266 290.024169 
L 135.640709 291.133752 
L 138.893758 292.23973 
L 142.146812 293.089657 
L 146.050473 293.843968 
L 150.604745 294.44946 
L 155.809625 294.88864 
L 162.315733 295.197502 
L 171.424278 295.389671 
L 188.340145 295.477388 
L 273.570086 295.488 
L 398.487273 295.488 
L 398.487273 295.488 
" style="fill:none;stroke:#008000;stroke-linecap:square;stroke-width:1.5;"/>
   </g>
   <g id="line2d_15">
    <path clip-path="url(#pd7f72017bf)" d="M 73.832727 246.237326 
L 76.435169 240.450216 
L 79.68822 232.607275 
L 82.941272 224.096399 
L 86.194323 214.940953 
L 89.447374 205.18021 
L 93.351036 192.748812 
L 97.905309 177.423586 
L 103.760803 156.844238 
L 114.170567 120.043509 
L 118.07423 107.001543 
L 121.327279 96.77295 
L 124.580333 87.300634 
L 127.182775 80.373459 
L 129.785213 74.107248 
L 131.737043 69.883857 
L 133.688878 66.099009 
L 135.640709 62.777303 
L 137.592539 59.94057 
L 139.54437 57.607599 
L 140.845588 56.339989 
L 142.146812 55.307029 
L 143.44803 54.511847 
L 144.749249 53.956824 
L 146.050473 53.643602 
L 147.351691 53.573148 
L 148.652915 53.745664 
L 149.954133 54.160644 
L 151.255352 54.816821 
L 152.556576 55.712233 
L 153.857794 56.844198 
L 155.159018 58.209327 
L 157.110848 60.685124 
L 159.062679 63.659723 
L 161.014509 67.113469 
L 162.96634 71.023753 
L 164.91817 75.365225 
L 167.520617 81.776353 
L 170.123054 88.832872 
L 173.376108 98.443529 
L 176.629153 108.783239 
L 180.532823 121.921888 
L 186.388314 142.532052 
L 196.798073 179.30229 
L 201.352351 194.532931 
L 205.256012 206.860753 
L 209.159673 218.383553 
L 212.412727 227.305474 
L 215.665771 235.572396 
L 218.918825 243.166577 
L 221.521272 248.754564 
L 224.123709 253.913139 
L 226.726146 258.650642 
L 229.328593 262.97922 
L 231.931031 266.914205 
L 234.533478 270.473626 
L 237.135925 273.677483 
L 239.738353 276.547241 
L 242.3408 279.105389 
L 244.943247 281.37486 
L 247.545674 283.378696 
L 250.148121 285.139698 
L 252.750568 286.680075 
L 256.003613 288.327798 
L 259.256657 289.703713 
L 262.50972 290.844484 
L 266.413381 291.949947 
L 270.317042 292.816503 
L 274.87132 293.584965 
L 280.076194 294.215815 
L 285.931686 294.694683 
L 293.08841 295.054723 
L 302.847562 295.30716 
L 317.811589 295.445561 
L 354.24577 295.487286 
L 398.487273 295.487998 
L 398.487273 295.487998 
" style="fill:none;stroke:#0000ff;stroke-linecap:square;stroke-width:1.5;"/>
   </g>
   <g id="line2d_16">
    <path clip-path="url(#pd7f72017bf)" d="M 73.832727 295.447803 
L 86.194323 295.26454 
L 92.700426 294.976915 
L 97.905309 294.533815 
L 101.80897 293.996985 
L 105.062021 293.35594 
L 108.315073 292.478744 
L 110.917515 291.56053 
L 113.519957 290.404702 
L 116.1224 288.963348 
L 118.07423 287.662902 
L 120.02606 286.147175 
L 121.977891 284.390022 
L 123.929721 282.364014 
L 125.881552 280.04077 
L 127.833382 277.391326 
L 129.785213 274.386659 
L 131.737043 270.998248 
L 133.688878 267.198713 
L 135.640709 262.962598 
L 137.592539 258.267132 
L 139.54437 253.093124 
L 141.4962 247.425822 
L 144.098642 239.086777 
L 146.701084 229.850441 
L 149.303522 219.735813 
L 151.905964 208.788441 
L 155.159018 194.049702 
L 159.062679 175.107681 
L 164.91817 145.239787 
L 170.773661 115.71213 
L 174.026715 100.458476 
L 176.629153 89.272294 
L 178.580983 81.636916 
L 180.532823 74.75646 
L 182.484653 68.720717 
L 184.436484 63.610004 
L 185.737698 60.751469 
L 187.038921 58.352485 
L 188.340145 56.427819 
L 189.641359 54.98938 
L 190.942582 54.046081 
L 191.593189 53.762073 
L 192.243806 53.603804 
L 192.894413 53.571533 
L 193.545029 53.665318 
L 194.195636 53.885 
L 195.49686 54.700484 
L 196.798073 56.01291 
L 198.099297 57.81413 
L 199.40052 60.092999 
L 200.701734 62.835442 
L 202.002958 66.024777 
L 203.954788 71.603708 
L 205.906619 78.069096 
L 207.858449 85.335708 
L 210.460896 96.108106 
L 213.063333 107.898887 
L 216.316387 123.687983 
L 222.171879 153.571356 
L 228.02737 183.102135 
L 231.931031 201.520077 
L 235.184085 215.692371 
L 237.786522 226.128635 
L 240.388969 235.700586 
L 242.991416 244.379472 
L 245.593844 252.161227 
L 248.196291 259.063157 
L 250.148121 263.68248 
L 252.099952 267.84593 
L 254.051782 271.576786 
L 256.003613 274.900859 
L 257.955443 277.845775 
L 259.907273 280.440171 
L 261.859104 282.713099 
L 263.810934 284.693453 
L 265.762765 286.409495 
L 267.714595 287.888458 
L 270.317042 289.536183 
L 272.919489 290.865355 
L 275.521917 291.927499 
L 278.124364 292.768368 
L 281.377408 293.568593 
L 284.630472 294.150895 
L 288.534133 294.636283 
L 293.739007 295.03462 
L 300.245115 295.291302 
L 310.654884 295.441605 
L 334.727466 295.487014 
L 398.487273 295.488 
L 398.487273 295.488 
" style="fill:none;stroke:#bf00bf;stroke-linecap:square;stroke-width:1.5;"/>
   </g>
   <g id="line2d_17">
    <path clip-path="url(#pd7f72017bf)" d="M 73.832727 249.169188 
L 77.085779 242.845803 
L 80.33883 235.966779 
L 83.591882 228.534872 
L 86.844933 220.562213 
L 90.748595 210.313685 
L 94.652258 199.379398 
L 99.20653 185.869546 
L 104.411412 169.655664 
L 112.869346 142.407351 
L 120.02606 119.642486 
L 124.580333 105.902209 
L 128.483994 94.893013 
L 131.737043 86.420738 
L 134.339485 80.186567 
L 136.941927 74.496764 
L 139.54437 69.403714 
L 141.4962 66.004416 
L 143.44803 62.985896 
L 145.399861 60.36439 
L 147.351691 58.154173 
L 149.303522 56.367329 
L 150.604745 55.416271 
L 151.905964 54.660138 
L 153.207187 54.100803 
L 154.508406 53.739636 
L 155.809625 53.577546 
L 157.110848 53.614907 
L 158.412072 53.851647 
L 159.713286 54.287162 
L 161.014509 54.920397 
L 162.315733 55.749782 
L 163.616946 56.773268 
L 165.568777 58.666846 
L 167.520617 60.980985 
L 169.472447 63.703053 
L 171.424278 66.818257 
L 173.376108 70.309869 
L 175.978546 75.518448 
L 178.580983 81.314292 
L 181.18343 87.644281 
L 184.436484 96.220954 
L 187.689528 105.425945 
L 191.593189 117.130165 
L 196.798073 133.503643 
L 213.063333 185.372244 
L 217.617611 198.908426 
L 221.521272 209.869721 
L 225.424933 220.148292 
L 228.677977 228.147555 
L 231.931031 235.606985 
L 235.184085 242.513894 
L 238.437139 248.865097 
L 241.690183 254.66579 
L 244.943247 259.928587 
L 247.545674 263.763879 
L 250.148121 267.278755 
L 252.750568 270.486815 
L 255.352996 273.403007 
L 257.955443 276.04332 
L 260.55789 278.424371 
L 263.810934 281.06202 
L 267.063998 283.354669 
L 270.317042 285.33542 
L 273.570086 287.036494 
L 276.82315 288.488732 
L 280.076194 289.721225 
L 283.979855 290.948229 
L 287.883516 291.940591 
L 292.437794 292.852519 
L 297.642668 293.634468 
L 303.49816 294.260045 
L 310.004267 294.725941 
L 318.462206 295.090581 
L 329.522572 295.327055 
L 347.089065 295.454116 
L 393.932995 295.487745 
L 398.487273 295.48785 
L 398.487273 295.48785 
" style="fill:none;stroke:#bfbf00;stroke-linecap:square;stroke-width:1.5;"/>
   </g>
   <g id="line2d_18">
    <path clip-path="url(#pd7f72017bf)" d="M 73.832727 267.260966 
L 76.435169 263.503288 
L 79.03761 259.380831 
L 81.640051 254.879416 
L 84.242492 249.987527 
L 86.844933 244.696919 
L 90.097985 237.516471 
L 93.351036 229.706974 
L 96.604088 221.280935 
L 99.857139 212.264004 
L 103.760803 200.720807 
L 107.664464 188.482054 
L 112.218736 173.497974 
L 119.375449 149.03421 
L 127.833382 120.240754 
L 132.387655 105.595029 
L 135.640709 95.797379 
L 138.893758 86.719439 
L 141.4962 80.070345 
L 144.098642 74.04037 
L 146.050473 69.962328 
L 148.002303 66.292505 
L 149.954133 63.053135 
L 151.905964 60.264015 
L 153.857794 57.942364 
L 155.159018 56.661545 
L 156.460241 55.59852 
L 157.761455 54.756273 
L 159.062679 54.137126 
L 160.363902 53.742837 
L 161.665116 53.574503 
L 162.96634 53.632585 
L 164.267563 53.916939 
L 165.568777 54.426757 
L 166.87 55.160627 
L 168.171224 56.116471 
L 169.472447 57.291637 
L 170.773661 58.682823 
L 172.725492 61.166118 
L 174.677322 64.1113 
L 176.629153 67.500245 
L 178.580983 71.312288 
L 180.532823 75.52449 
L 183.13526 81.719497 
L 185.737698 88.516593 
L 188.990752 97.75397 
L 192.243806 107.681267 
L 196.147467 120.296789 
L 202.002958 140.123248 
L 213.71394 180.054675 
L 218.268218 194.734177 
L 222.171879 206.636241 
L 226.07554 217.789791 
L 229.328593 226.452946 
L 232.581647 234.50807 
L 235.834692 241.937551 
L 239.087755 248.736276 
L 241.690183 253.7246 
L 244.29263 258.320153 
L 246.895077 262.533677 
L 249.497505 266.37873 
L 252.099952 269.871287 
L 254.702399 273.029071 
L 257.304826 275.871176 
L 259.907273 278.417686 
L 262.50972 280.689154 
L 265.112168 282.70633 
L 267.714595 284.489799 
L 270.967659 286.421264 
L 274.220703 288.057129 
L 277.473747 289.43338 
L 280.726811 290.583526 
L 284.630472 291.708409 
L 288.534133 292.59973 
L 293.08841 293.399967 
L 298.293285 294.066948 
L 304.148776 294.582654 
L 311.305501 294.979458 
L 320.414036 295.25372 
L 334.076849 295.420781 
L 362.053092 295.484222 
L 398.487273 295.487954 
L 398.487273 295.487954 
" style="fill:none;stroke:#00bfbf;stroke-linecap:square;stroke-width:1.5;"/>
   </g>
   <g id="line2d_19">
    <path clip-path="url(#pd7f72017bf)" d="M 73.832727 295.487689 
L 128.483994 295.374496 
L 141.4962 295.126504 
L 149.954133 294.758506 
L 156.460241 294.269765 
L 161.665116 293.682976 
L 166.219393 292.973311 
L 170.773661 292.025108 
L 174.677322 290.974364 
L 177.930376 289.895567 
L 181.18343 288.599886 
L 184.436484 287.054165 
L 187.689528 285.222624 
L 190.291975 283.52607 
L 192.894413 281.601923 
L 195.49686 279.429305 
L 198.099297 276.987092 
L 200.701734 274.254189 
L 203.304181 271.209873 
L 205.906619 267.834229 
L 208.509066 264.108495 
L 211.111503 260.015678 
L 213.71394 255.540874 
L 216.316387 250.671938 
L 218.918825 245.399974 
L 222.171879 238.235817 
L 225.424933 230.433778 
L 228.677977 222.005475 
L 231.931031 212.975826 
L 235.834692 201.403048 
L 239.738353 189.119082 
L 244.29263 174.063625 
L 250.798738 151.713481 
L 259.907273 120.460508 
L 264.461551 105.708684 
L 267.714595 95.841806 
L 270.967659 86.703347 
L 273.570086 80.014094 
L 276.172533 73.952627 
L 278.124364 69.857397 
L 280.076194 66.176413 
L 282.028025 62.932226 
L 283.979855 60.144967 
L 285.931686 57.832068 
L 287.232919 56.560969 
L 288.534133 55.510821 
L 289.835347 54.684594 
L 291.13658 54.084595 
L 292.437794 53.712556 
L 293.739007 53.569528 
L 295.040241 53.655916 
L 296.341454 53.971474 
L 297.642668 54.515308 
L 298.943901 55.285875 
L 300.245115 56.28097 
L 301.546329 57.497808 
L 303.49816 59.73114 
L 305.44999 62.441428 
L 307.40182 65.6117 
L 309.353651 69.222259 
L 311.305501 73.250971 
L 313.907928 79.230319 
L 316.510375 85.845757 
L 319.112822 93.028476 
L 322.365867 102.693177 
L 326.269527 115.101014 
L 330.823805 130.362527 
L 348.390279 190.179721 
L 352.29394 202.408257 
L 356.1976 213.916147 
L 359.450645 222.886453 
L 362.703708 231.252312 
L 365.956753 238.990076 
L 369.209816 246.089529 
L 372.462861 252.552127 
L 375.065308 257.271439 
L 377.667735 261.600813 
L 380.270182 265.553549 
L 382.872629 269.145368 
L 385.475057 272.393976 
L 388.077504 275.318647 
L 390.679951 277.939645 
L 393.282398 280.277864 
L 395.884826 282.354445 
L 398.487273 284.190474 
L 398.487273 284.190474 
" style="fill:none;stroke:#ff0000;stroke-linecap:square;stroke-width:1.5;"/>
   </g>
   <g id="line2d_20">
    <path clip-path="url(#pd7f72017bf)" d="M 73.832727 295.487928 
L 142.146812 295.379586 
L 155.809625 295.137599 
L 164.91817 294.762105 
L 172.074885 294.239754 
L 177.930376 293.581021 
L 182.484653 292.868869 
L 187.038921 291.929238 
L 190.942582 290.899145 
L 194.846243 289.61744 
L 198.099297 288.323179 
L 201.352351 286.791414 
L 204.605395 284.989912 
L 207.858449 282.884549 
L 210.460896 280.957584 
L 213.063333 278.794718 
L 215.665771 276.377115 
L 218.268218 273.68604 
L 220.870655 270.703191 
L 223.473102 267.410966 
L 226.07554 263.792902 
L 228.677977 259.833984 
L 231.280424 255.521109 
L 233.882861 250.843534 
L 237.135925 244.471812 
L 240.388969 237.509637 
L 243.642013 229.957766 
L 246.895077 221.827314 
L 250.148121 213.141074 
L 254.051782 202.034199 
L 257.955443 190.263635 
L 262.50972 175.845127 
L 269.015828 154.409854 
L 279.425578 120.036602 
L 283.979855 105.85386 
L 287.232919 96.34179 
L 290.485963 87.496625 
L 293.08841 80.987199 
L 295.690838 75.049307 
L 298.293285 69.740858 
L 300.245115 66.204618 
L 302.196946 63.07237 
L 304.148776 60.362083 
L 306.100607 58.089414 
L 308.052437 56.267603 
L 309.353651 55.308947 
L 310.654884 54.557961 
L 311.956098 54.01665 
L 313.257331 53.686413 
L 314.558545 53.56813 
L 315.859759 53.662117 
L 317.160992 53.968114 
L 318.462206 54.48533 
L 319.76342 55.212393 
L 321.064653 56.147401 
L 322.365867 57.287917 
L 324.317697 59.377341 
L 326.269527 61.91011 
L 328.221358 64.871557 
L 330.173188 68.244612 
L 332.125019 72.010051 
L 334.727466 77.604051 
L 337.329913 83.802447 
L 339.93234 90.545167 
L 343.185404 99.641607 
L 347.089065 111.363895 
L 351.643323 125.857926 
L 358.800048 149.568167 
L 367.257986 177.463399 
L 372.462861 193.800842 
L 376.366521 205.386043 
L 380.270182 216.279443 
L 383.523227 224.77215 
L 386.77629 232.699669 
L 390.029334 240.043382 
L 393.282398 246.79603 
L 396.535442 252.960139 
L 398.487273 256.38053 
L 398.487273 256.38053 
" style="fill:none;stroke:#008000;stroke-linecap:square;stroke-width:1.5;"/>
   </g>
   <g id="line2d_21">
    <path clip-path="url(#pd7f72017bf)" d="M 73.832727 295.487999 
L 168.171224 295.377456 
L 180.532823 295.128485 
L 188.340145 294.768139 
L 194.846243 294.241926 
L 200.051127 293.592679 
L 204.605395 292.791139 
L 208.509066 291.877647 
L 211.76211 290.918385 
L 215.015164 289.743403 
L 218.268218 288.315192 
L 220.870655 286.962725 
L 223.473102 285.399198 
L 226.07554 283.600728 
L 228.677977 281.542415 
L 231.280424 279.198675 
L 233.882861 276.543591 
L 236.485308 273.551314 
L 239.087755 270.196614 
L 241.690183 266.455423 
L 244.29263 262.305375 
L 246.895077 257.726639 
L 249.497505 252.702581 
L 252.099952 247.220347 
L 254.702399 241.271897 
L 257.304826 234.854615 
L 260.55789 226.179529 
L 263.810934 216.799708 
L 267.063998 206.755282 
L 270.967659 193.91051 
L 275.521917 178.018033 
L 281.377408 156.621873 
L 291.787177 118.402374 
L 295.690838 104.946581 
L 298.943901 94.463454 
L 301.546329 86.687081 
L 304.148776 79.55075 
L 306.751223 73.139349 
L 308.703054 68.853781 
L 310.654884 65.04987 
L 312.606714 61.75445 
L 314.558545 58.991012 
L 315.859759 57.454232 
L 317.160992 56.167718 
L 318.462206 55.135681 
L 319.76342 54.361408 
L 321.064653 53.847451 
L 322.365867 53.595469 
L 323.66708 53.606284 
L 324.968314 53.879852 
L 326.269527 54.415308 
L 327.570741 55.210879 
L 328.871974 56.263998 
L 330.173188 57.571247 
L 331.474402 59.128402 
L 333.426233 61.921573 
L 335.378063 65.245515 
L 337.329913 69.076592 
L 339.281743 73.387755 
L 341.233574 78.14901 
L 343.836001 85.140684 
L 346.438448 92.790712 
L 349.691493 103.14278 
L 353.595153 116.482265 
L 358.149431 132.903053 
L 373.113477 187.576945 
L 377.017138 200.785811 
L 380.920799 213.186914 
L 384.173843 222.816374 
L 387.426907 231.753673 
L 390.679951 239.970246 
L 393.282398 246.016594 
L 395.884826 251.59567 
L 398.487273 256.714555 
L 398.487273 256.714555 
" style="fill:none;stroke:#0000ff;stroke-linecap:square;stroke-width:1.5;"/>
   </g>
   <g id="line2d_22">
    <path clip-path="url(#pd7f72017bf)" d="M 73.832727 295.488 
L 261.859104 295.379486 
L 276.172533 295.132953 
L 285.281069 294.770991 
L 292.437794 294.27697 
L 298.293285 293.662375 
L 303.49816 292.89485 
L 308.052437 292.000345 
L 311.956098 291.027411 
L 315.859759 289.824873 
L 319.112822 288.617261 
L 322.365867 287.194618 
L 325.618911 285.528409 
L 328.871974 283.58837 
L 332.125019 281.342878 
L 334.727466 279.304655 
L 337.329913 277.033169 
L 339.93234 274.511554 
L 342.534787 271.723192 
L 345.137235 268.652046 
L 347.739662 265.282949 
L 350.342109 261.601812 
L 352.944556 257.596114 
L 355.546984 253.255225 
L 358.800048 247.34504 
L 362.053092 240.887402 
L 365.306155 233.879038 
L 368.5592 226.325311 
L 371.812244 218.24103 
L 375.715905 207.875747 
L 379.619566 196.847819 
L 384.173843 183.263641 
L 389.378737 167.018181 
L 398.487273 137.768504 
L 398.487273 137.768504 
" style="fill:none;stroke:#bf00bf;stroke-linecap:square;stroke-width:1.5;"/>
   </g>
   <g id="patch_3">
    <path d="M 57.6 307.584 
L 57.6 41.472 
" style="fill:none;stroke:#000000;stroke-linecap:square;stroke-linejoin:miter;stroke-width:0.8;"/>
   </g>
   <g id="patch_4">
    <path d="M 414.72 307.584 
L 414.72 41.472 
" style="fill:none;stroke:#000000;stroke-linecap:square;stroke-linejoin:miter;stroke-width:0.8;"/>
   </g>
   <g id="patch_5">
    <path d="M 57.6 307.584 
L 414.72 307.584 
" style="fill:none;stroke:#000000;stroke-linecap:square;stroke-linejoin:miter;stroke-width:0.8;"/>
   </g>
   <g id="patch_6">
    <path d="M 57.6 41.472 
L 414.72 41.472 
" style="fill:none;stroke:#000000;stroke-linecap:square;stroke-linejoin:miter;stroke-width:0.8;"/>
   </g>
   <g id="text_15">
    <!-- Bases for Fit 1 -->
    <g transform="translate(193.600313 35.472)scale(0.12 -0.12)">
     <defs>
      <path d="M 19.671875 34.8125 
L 19.671875 8.109375 
L 35.5 8.109375 
Q 43.453125 8.109375 47.28125 11.40625 
Q 51.125 14.703125 51.125 21.484375 
Q 51.125 28.328125 47.28125 31.5625 
Q 43.453125 34.8125 35.5 34.8125 
z
M 19.671875 64.796875 
L 19.671875 42.828125 
L 34.28125 42.828125 
Q 41.5 42.828125 45.03125 45.53125 
Q 48.578125 48.25 48.578125 53.8125 
Q 48.578125 59.328125 45.03125 62.0625 
Q 41.5 64.796875 34.28125 64.796875 
z
M 9.8125 72.90625 
L 35.015625 72.90625 
Q 46.296875 72.90625 52.390625 68.21875 
Q 58.5 63.53125 58.5 54.890625 
Q 58.5 48.1875 55.375 44.234375 
Q 52.25 40.28125 46.1875 39.3125 
Q 53.46875 37.75 57.5 32.78125 
Q 61.53125 27.828125 61.53125 20.40625 
Q 61.53125 10.640625 54.890625 5.3125 
Q 48.25 0 35.984375 0 
L 9.8125 0 
z
" id="DejaVuSans-66"/>
      <path d="M 34.28125 27.484375 
Q 23.390625 27.484375 19.1875 25 
Q 14.984375 22.515625 14.984375 16.5 
Q 14.984375 11.71875 18.140625 8.90625 
Q 21.296875 6.109375 26.703125 6.109375 
Q 34.1875 6.109375 38.703125 11.40625 
Q 43.21875 16.703125 43.21875 25.484375 
L 43.21875 27.484375 
z
M 52.203125 31.203125 
L 52.203125 0 
L 43.21875 0 
L 43.21875 8.296875 
Q 40.140625 3.328125 35.546875 0.953125 
Q 30.953125 -1.421875 24.3125 -1.421875 
Q 15.921875 -1.421875 10.953125 3.296875 
Q 6 8.015625 6 15.921875 
Q 6 25.140625 12.171875 29.828125 
Q 18.359375 34.515625 30.609375 34.515625 
L 43.21875 34.515625 
L 43.21875 35.40625 
Q 43.21875 41.609375 39.140625 45 
Q 35.0625 48.390625 27.6875 48.390625 
Q 23 48.390625 18.546875 47.265625 
Q 14.109375 46.140625 10.015625 43.890625 
L 10.015625 52.203125 
Q 14.9375 54.109375 19.578125 55.046875 
Q 24.21875 56 28.609375 56 
Q 40.484375 56 46.34375 49.84375 
Q 52.203125 43.703125 52.203125 31.203125 
z
" id="DejaVuSans-97"/>
      <path d="M 44.28125 53.078125 
L 44.28125 44.578125 
Q 40.484375 46.53125 36.375 47.5 
Q 32.28125 48.484375 27.875 48.484375 
Q 21.1875 48.484375 17.84375 46.4375 
Q 14.5 44.390625 14.5 40.28125 
Q 14.5 37.15625 16.890625 35.375 
Q 19.28125 33.59375 26.515625 31.984375 
L 29.59375 31.296875 
Q 39.15625 29.25 43.1875 25.515625 
Q 47.21875 21.78125 47.21875 15.09375 
Q 47.21875 7.46875 41.1875 3.015625 
Q 35.15625 -1.421875 24.609375 -1.421875 
Q 20.21875 -1.421875 15.453125 -0.5625 
Q 10.6875 0.296875 5.421875 2 
L 5.421875 11.28125 
Q 10.40625 8.6875 15.234375 7.390625 
Q 20.0625 6.109375 24.8125 6.109375 
Q 31.15625 6.109375 34.5625 8.28125 
Q 37.984375 10.453125 37.984375 14.40625 
Q 37.984375 18.0625 35.515625 20.015625 
Q 33.0625 21.96875 24.703125 23.78125 
L 21.578125 24.515625 
Q 13.234375 26.265625 9.515625 29.90625 
Q 5.8125 33.546875 5.8125 39.890625 
Q 5.8125 47.609375 11.28125 51.796875 
Q 16.75 56 26.8125 56 
Q 31.78125 56 36.171875 55.265625 
Q 40.578125 54.546875 44.28125 53.078125 
z
" id="DejaVuSans-115"/>
      <path d="M 56.203125 29.59375 
L 56.203125 25.203125 
L 14.890625 25.203125 
Q 15.484375 15.921875 20.484375 11.0625 
Q 25.484375 6.203125 34.421875 6.203125 
Q 39.59375 6.203125 44.453125 7.46875 
Q 49.3125 8.734375 54.109375 11.28125 
L 54.109375 2.78125 
Q 49.265625 0.734375 44.1875 -0.34375 
Q 39.109375 -1.421875 33.890625 -1.421875 
Q 20.796875 -1.421875 13.15625 6.1875 
Q 5.515625 13.8125 5.515625 26.8125 
Q 5.515625 40.234375 12.765625 48.109375 
Q 20.015625 56 32.328125 56 
Q 43.359375 56 49.78125 48.890625 
Q 56.203125 41.796875 56.203125 29.59375 
z
M 47.21875 32.234375 
Q 47.125 39.59375 43.09375 43.984375 
Q 39.0625 48.390625 32.421875 48.390625 
Q 24.90625 48.390625 20.390625 44.140625 
Q 15.875 39.890625 15.1875 32.171875 
z
" id="DejaVuSans-101"/>
      <path id="DejaVuSans-32"/>
      <path d="M 37.109375 75.984375 
L 37.109375 68.5 
L 28.515625 68.5 
Q 23.6875 68.5 21.796875 66.546875 
Q 19.921875 64.59375 19.921875 59.515625 
L 19.921875 54.6875 
L 34.71875 54.6875 
L 34.71875 47.703125 
L 19.921875 47.703125 
L 19.921875 0 
L 10.890625 0 
L 10.890625 47.703125 
L 2.296875 47.703125 
L 2.296875 54.6875 
L 10.890625 54.6875 
L 10.890625 58.5 
Q 10.890625 67.625 15.140625 71.796875 
Q 19.390625 75.984375 28.609375 75.984375 
z
" id="DejaVuSans-102"/>
      <path d="M 30.609375 48.390625 
Q 23.390625 48.390625 19.1875 42.75 
Q 14.984375 37.109375 14.984375 27.296875 
Q 14.984375 17.484375 19.15625 11.84375 
Q 23.34375 6.203125 30.609375 6.203125 
Q 37.796875 6.203125 41.984375 11.859375 
Q 46.1875 17.53125 46.1875 27.296875 
Q 46.1875 37.015625 41.984375 42.703125 
Q 37.796875 48.390625 30.609375 48.390625 
z
M 30.609375 56 
Q 42.328125 56 49.015625 48.375 
Q 55.71875 40.765625 55.71875 27.296875 
Q 55.71875 13.875 49.015625 6.21875 
Q 42.328125 -1.421875 30.609375 -1.421875 
Q 18.84375 -1.421875 12.171875 6.21875 
Q 5.515625 13.875 5.515625 27.296875 
Q 5.515625 40.765625 12.171875 48.375 
Q 18.84375 56 30.609375 56 
z
" id="DejaVuSans-111"/>
      <path d="M 41.109375 46.296875 
Q 39.59375 47.171875 37.8125 47.578125 
Q 36.03125 48 33.890625 48 
Q 26.265625 48 22.1875 43.046875 
Q 18.109375 38.09375 18.109375 28.8125 
L 18.109375 0 
L 9.078125 0 
L 9.078125 54.6875 
L 18.109375 54.6875 
L 18.109375 46.1875 
Q 20.953125 51.171875 25.484375 53.578125 
Q 30.03125 56 36.53125 56 
Q 37.453125 56 38.578125 55.875 
Q 39.703125 55.765625 41.0625 55.515625 
z
" id="DejaVuSans-114"/>
      <path d="M 9.8125 72.90625 
L 51.703125 72.90625 
L 51.703125 64.59375 
L 19.671875 64.59375 
L 19.671875 43.109375 
L 48.578125 43.109375 
L 48.578125 34.8125 
L 19.671875 34.8125 
L 19.671875 0 
L 9.8125 0 
z
" id="DejaVuSans-70"/>
      <path d="M 9.421875 54.6875 
L 18.40625 54.6875 
L 18.40625 0 
L 9.421875 0 
z
M 9.421875 75.984375 
L 18.40625 75.984375 
L 18.40625 64.59375 
L 9.421875 64.59375 
z
" id="DejaVuSans-105"/>
      <path d="M 18.3125 70.21875 
L 18.3125 54.6875 
L 36.8125 54.6875 
L 36.8125 47.703125 
L 18.3125 47.703125 
L 18.3125 18.015625 
Q 18.3125 11.328125 20.140625 9.421875 
Q 21.96875 7.515625 27.59375 7.515625 
L 36.8125 7.515625 
L 36.8125 0 
L 27.59375 0 
Q 17.1875 0 13.234375 3.875 
Q 9.28125 7.765625 9.28125 18.015625 
L 9.28125 47.703125 
L 2.6875 47.703125 
L 2.6875 54.6875 
L 9.28125 54.6875 
L 9.28125 70.21875 
z
" id="DejaVuSans-116"/>
     </defs>
     <use xlink:href="#DejaVuSans-66"/>
     <use x="68.603516" xlink:href="#DejaVuSans-97"/>
     <use x="129.882812" xlink:href="#DejaVuSans-115"/>
     <use x="181.982422" xlink:href="#DejaVuSans-101"/>
     <use x="243.505859" xlink:href="#DejaVuSans-115"/>
     <use x="295.605469" xlink:href="#DejaVuSans-32"/>
     <use x="327.392578" xlink:href="#DejaVuSans-102"/>
     <use x="362.597656" xlink:href="#DejaVuSans-111"/>
     <use x="423.779297" xlink:href="#DejaVuSans-114"/>
     <use x="464.892578" xlink:href="#DejaVuSans-32"/>
     <use x="496.679688" xlink:href="#DejaVuSans-70"/>
     <use x="546.949219" xlink:href="#DejaVuSans-105"/>
     <use x="574.732422" xlink:href="#DejaVuSans-116"/>
     <use x="613.941406" xlink:href="#DejaVuSans-32"/>
     <use x="645.728516" xlink:href="#DejaVuSans-49"/>
    </g>
   </g>
  </g>
 </g>
 <defs>
  <clipPath id="pd7f72017bf">
   <rect height="266.112" width="357.12" x="57.6" y="41.472"/>
  </clipPath>
 </defs>
</svg>
