<?xml version="1.0" encoding="utf-8" standalone="no"?>
<!DOCTYPE svg PUBLIC "-//W3C//DTD SVG 1.1//EN"
  "http://www.w3.org/Graphics/SVG/1.1/DTD/svg11.dtd">
<!-- Created with matplotlib (https://matplotlib.org/) -->
<svg height="345.6pt" version="1.1" viewBox="0 0 460.8 345.6" width="460.8pt" xmlns="http://www.w3.org/2000/svg" xmlns:xlink="http://www.w3.org/1999/xlink">
 <metadata>
  <rdf:RDF xmlns:cc="http://creativecommons.org/ns#" xmlns:dc="http://purl.org/dc/elements/1.1/" xmlns:rdf="http://www.w3.org/1999/02/22-rdf-syntax-ns#">
   <cc:Work>
    <dc:type rdf:resource="http://purl.org/dc/dcmitype/StillImage"/>
    <dc:date>2020-09-06T11:17:29.465366</dc:date>
    <dc:format>image/svg+xml</dc:format>
    <dc:creator>
     <cc:Agent>
      <dc:title>Matplotlib v3.3.1, https://matplotlib.org/</dc:title>
     </cc:Agent>
    </dc:creator>
   </cc:Work>
  </rdf:RDF>
 </metadata>
 <defs>
  <style type="text/css">*{stroke-linecap:butt;stroke-linejoin:round;}</style>
 </defs>
 <g id="figure_1">
  <g id="patch_1">
   <path d="M 0 345.6 
L 460.8 345.6 
L 460.8 0 
L 0 0 
z
" style="fill:#ffffff;"/>
  </g>
  <g id="axes_1">
   <g id="patch_2">
    <path d="M 57.6 307.584 
L 414.72 307.584 
L 414.72 41.472 
L 57.6 41.472 
z
" style="fill:#ffffff;"/>
   </g>
   <g id="PathCollection_1">
    <defs>
     <path d="M 0 3 
C 0.795609 3 1.55874 2.683901 2.12132 2.12132 
C 2.683901 1.55874 3 0.795609 3 0 
C 3 -0.795609 2.683901 -1.55874 2.12132 -2.12132 
C 1.55874 -2.683901 0.795609 -3 0 -3 
C -0.795609 -3 -1.55874 -2.683901 -2.12132 -2.12132 
C -2.683901 -1.55874 -3 -0.795609 -3 0 
C -3 0.795609 -2.683901 1.55874 -2.12132 2.12132 
C -1.55874 2.683901 -0.795609 3 0 3 
z
" id="mf639902119" style="stroke:#008000;"/>
    </defs>
    <g clip-path="url(#pee4d896708)">
     <use style="fill:#008000;stroke:#008000;" x="353.708627" xlink:href="#mf639902119" y="259.67919"/>
     <use style="fill:#008000;stroke:#008000;" x="156.897127" xlink:href="#mf639902119" y="73.994726"/>
     <use style="fill:#008000;stroke:#008000;" x="109.74691" xlink:href="#mf639902119" y="89.207735"/>
     <use style="fill:#008000;stroke:#008000;" x="146.165649" xlink:href="#mf639902119" y="53.723192"/>
     <use style="fill:#008000;stroke:#008000;" x="81.276368" xlink:href="#mf639902119" y="160.054825"/>
     <use style="fill:#008000;stroke:#008000;" x="328.800744" xlink:href="#mf639902119" y="279.190385"/>
     <use style="fill:#008000;stroke:#008000;" x="336.719488" xlink:href="#mf639902119" y="295.488"/>
     <use style="fill:#008000;stroke:#008000;" x="333.349642" xlink:href="#mf639902119" y="272.387878"/>
     <use style="fill:#008000;stroke:#008000;" x="288.588915" xlink:href="#mf639902119" y="282.287607"/>
     <use style="fill:#008000;stroke:#008000;" x="166.013925" xlink:href="#mf639902119" y="64.17617"/>
     <use style="fill:#008000;stroke:#008000;" x="93.474336" xlink:href="#mf639902119" y="132.99122"/>
     <use style="fill:#008000;stroke:#008000;" x="134.826707" xlink:href="#mf639902119" y="85.615048"/>
     <use style="fill:#008000;stroke:#008000;" x="261.984498" xlink:href="#mf639902119" y="216.133602"/>
     <use style="fill:#008000;stroke:#008000;" x="203.467861" xlink:href="#mf639902119" y="101.183946"/>
     <use style="fill:#008000;stroke:#008000;" x="95.795672" xlink:href="#mf639902119" y="123.168228"/>
     <use style="fill:#008000;stroke:#008000;" x="165.104471" xlink:href="#mf639902119" y="74.773507"/>
     <use style="fill:#008000;stroke:#008000;" x="101.987076" xlink:href="#mf639902119" y="121.825802"/>
     <use style="fill:#008000;stroke:#008000;" x="225.66321" xlink:href="#mf639902119" y="155.860052"/>
     <use style="fill:#008000;stroke:#008000;" x="230.50152" xlink:href="#mf639902119" y="187.857832"/>
     <use style="fill:#008000;stroke:#008000;" x="288.585161" xlink:href="#mf639902119" y="260.318553"/>
     <use style="fill:#008000;stroke:#008000;" x="378.678743" xlink:href="#mf639902119" y="219.293185"/>
     <use style="fill:#008000;stroke:#008000;" x="159.09036" xlink:href="#mf639902119" y="53.568"/>
     <use style="fill:#008000;stroke:#008000;" x="371.814972" xlink:href="#mf639902119" y="222.382495"/>
     <use style="fill:#008000;stroke:#008000;" x="195.616845" xlink:href="#mf639902119" y="92.477856"/>
     <use style="fill:#008000;stroke:#008000;" x="280.208768" xlink:href="#mf639902119" y="253.183077"/>
     <use style="fill:#008000;stroke:#008000;" x="175.554702" xlink:href="#mf639902119" y="65.264466"/>
     <use style="fill:#008000;stroke:#008000;" x="109.707512" xlink:href="#mf639902119" y="121.756185"/>
     <use style="fill:#008000;stroke:#008000;" x="272.567399" xlink:href="#mf639902119" y="236.455004"/>
     <use style="fill:#008000;stroke:#008000;" x="364.546225" xlink:href="#mf639902119" y="235.136139"/>
     <use style="fill:#008000;stroke:#008000;" x="217.890643" xlink:href="#mf639902119" y="128.348007"/>
     <use style="fill:#008000;stroke:#008000;" x="182.270555" xlink:href="#mf639902119" y="110.763714"/>
     <use style="fill:#008000;stroke:#008000;" x="117.133272" xlink:href="#mf639902119" y="104.932003"/>
     <use style="fill:#008000;stroke:#008000;" x="91.707403" xlink:href="#mf639902119" y="146.27994"/>
     <use style="fill:#008000;stroke:#008000;" x="158.991322" xlink:href="#mf639902119" y="73.199074"/>
     <use style="fill:#008000;stroke:#008000;" x="194.416353" xlink:href="#mf639902119" y="94.165172"/>
     <use style="fill:#008000;stroke:#008000;" x="107.92835" xlink:href="#mf639902119" y="120.089106"/>
     <use style="fill:#008000;stroke:#008000;" x="207.65362" xlink:href="#mf639902119" y="129.206953"/>
     <use style="fill:#008000;stroke:#008000;" x="208.082591" xlink:href="#mf639902119" y="118.715237"/>
     <use style="fill:#008000;stroke:#008000;" x="283.465875" xlink:href="#mf639902119" y="280.250205"/>
     <use style="fill:#008000;stroke:#008000;" x="126.875221" xlink:href="#mf639902119" y="93.214665"/>
     <use style="fill:#008000;stroke:#008000;" x="338.608602" xlink:href="#mf639902119" y="292.514532"/>
     <use style="fill:#008000;stroke:#008000;" x="312.60805" xlink:href="#mf639902119" y="293.468109"/>
     <use style="fill:#008000;stroke:#008000;" x="127.234413" xlink:href="#mf639902119" y="87.076705"/>
     <use style="fill:#008000;stroke:#008000;" x="262.023277" xlink:href="#mf639902119" y="226.623063"/>
     <use style="fill:#008000;stroke:#008000;" x="163.918376" xlink:href="#mf639902119" y="69.788951"/>
     <use style="fill:#008000;stroke:#008000;" x="96.208775" xlink:href="#mf639902119" y="133.628692"/>
     <use style="fill:#008000;stroke:#008000;" x="279.183904" xlink:href="#mf639902119" y="257.733394"/>
     <use style="fill:#008000;stroke:#008000;" x="130.20683" xlink:href="#mf639902119" y="89.946111"/>
     <use style="fill:#008000;stroke:#008000;" x="186.280723" xlink:href="#mf639902119" y="87.390716"/>
     <use style="fill:#008000;stroke:#008000;" x="97.092145" xlink:href="#mf639902119" y="126.928683"/>
    </g>
   </g>
   <g id="matplotlib.axis_1">
    <g id="xtick_1">
     <g id="line2d_1">
      <defs>
       <path d="M 0 0 
L 0 3.5 
" id="m4555784ca4" style="stroke:#000000;stroke-width:0.8;"/>
      </defs>
      <g>
       <use style="stroke:#000000;stroke-width:0.8;" x="73.832727" xlink:href="#m4555784ca4" y="307.584"/>
      </g>
     </g>
     <g id="text_1">
      <!-- 0.0 -->
      <g transform="translate(65.881165 322.182437)scale(0.1 -0.1)">
       <defs>
        <path d="M 31.78125 66.40625 
Q 24.171875 66.40625 20.328125 58.90625 
Q 16.5 51.421875 16.5 36.375 
Q 16.5 21.390625 20.328125 13.890625 
Q 24.171875 6.390625 31.78125 6.390625 
Q 39.453125 6.390625 43.28125 13.890625 
Q 47.125 21.390625 47.125 36.375 
Q 47.125 51.421875 43.28125 58.90625 
Q 39.453125 66.40625 31.78125 66.40625 
z
M 31.78125 74.21875 
Q 44.046875 74.21875 50.515625 64.515625 
Q 56.984375 54.828125 56.984375 36.375 
Q 56.984375 17.96875 50.515625 8.265625 
Q 44.046875 -1.421875 31.78125 -1.421875 
Q 19.53125 -1.421875 13.0625 8.265625 
Q 6.59375 17.96875 6.59375 36.375 
Q 6.59375 54.828125 13.0625 64.515625 
Q 19.53125 74.21875 31.78125 74.21875 
z
" id="DejaVuSans-48"/>
        <path d="M 10.6875 12.40625 
L 21 12.40625 
L 21 0 
L 10.6875 0 
z
" id="DejaVuSans-46"/>
       </defs>
       <use xlink:href="#DejaVuSans-48"/>
       <use x="63.623047" xlink:href="#DejaVuSans-46"/>
       <use x="95.410156" xlink:href="#DejaVuSans-48"/>
      </g>
     </g>
    </g>
    <g id="xtick_2">
     <g id="line2d_2">
      <g>
       <use style="stroke:#000000;stroke-width:0.8;" x="138.763636" xlink:href="#m4555784ca4" y="307.584"/>
      </g>
     </g>
     <g id="text_2">
      <!-- 0.2 -->
      <g transform="translate(130.812074 322.182437)scale(0.1 -0.1)">
       <defs>
        <path d="M 19.1875 8.296875 
L 53.609375 8.296875 
L 53.609375 0 
L 7.328125 0 
L 7.328125 8.296875 
Q 12.9375 14.109375 22.625 23.890625 
Q 32.328125 33.6875 34.8125 36.53125 
Q 39.546875 41.84375 41.421875 45.53125 
Q 43.3125 49.21875 43.3125 52.78125 
Q 43.3125 58.59375 39.234375 62.25 
Q 35.15625 65.921875 28.609375 65.921875 
Q 23.96875 65.921875 18.8125 64.3125 
Q 13.671875 62.703125 7.8125 59.421875 
L 7.8125 69.390625 
Q 13.765625 71.78125 18.9375 73 
Q 24.125 74.21875 28.421875 74.21875 
Q 39.75 74.21875 46.484375 68.546875 
Q 53.21875 62.890625 53.21875 53.421875 
Q 53.21875 48.921875 51.53125 44.890625 
Q 49.859375 40.875 45.40625 35.40625 
Q 44.1875 33.984375 37.640625 27.21875 
Q 31.109375 20.453125 19.1875 8.296875 
z
" id="DejaVuSans-50"/>
       </defs>
       <use xlink:href="#DejaVuSans-48"/>
       <use x="63.623047" xlink:href="#DejaVuSans-46"/>
       <use x="95.410156" xlink:href="#DejaVuSans-50"/>
      </g>
     </g>
    </g>
    <g id="xtick_3">
     <g id="line2d_3">
      <g>
       <use style="stroke:#000000;stroke-width:0.8;" x="203.694545" xlink:href="#m4555784ca4" y="307.584"/>
      </g>
     </g>
     <g id="text_3">
      <!-- 0.4 -->
      <g transform="translate(195.742983 322.182437)scale(0.1 -0.1)">
       <defs>
        <path d="M 37.796875 64.3125 
L 12.890625 25.390625 
L 37.796875 25.390625 
z
M 35.203125 72.90625 
L 47.609375 72.90625 
L 47.609375 25.390625 
L 58.015625 25.390625 
L 58.015625 17.1875 
L 47.609375 17.1875 
L 47.609375 0 
L 37.796875 0 
L 37.796875 17.1875 
L 4.890625 17.1875 
L 4.890625 26.703125 
z
" id="DejaVuSans-52"/>
       </defs>
       <use xlink:href="#DejaVuSans-48"/>
       <use x="63.623047" xlink:href="#DejaVuSans-46"/>
       <use x="95.410156" xlink:href="#DejaVuSans-52"/>
      </g>
     </g>
    </g>
    <g id="xtick_4">
     <g id="line2d_4">
      <g>
       <use style="stroke:#000000;stroke-width:0.8;" x="268.625455" xlink:href="#m4555784ca4" y="307.584"/>
      </g>
     </g>
     <g id="text_4">
      <!-- 0.6 -->
      <g transform="translate(260.673892 322.182437)scale(0.1 -0.1)">
       <defs>
        <path d="M 33.015625 40.375 
Q 26.375 40.375 22.484375 35.828125 
Q 18.609375 31.296875 18.609375 23.390625 
Q 18.609375 15.53125 22.484375 10.953125 
Q 26.375 6.390625 33.015625 6.390625 
Q 39.65625 6.390625 43.53125 10.953125 
Q 47.40625 15.53125 47.40625 23.390625 
Q 47.40625 31.296875 43.53125 35.828125 
Q 39.65625 40.375 33.015625 40.375 
z
M 52.59375 71.296875 
L 52.59375 62.3125 
Q 48.875 64.0625 45.09375 64.984375 
Q 41.3125 65.921875 37.59375 65.921875 
Q 27.828125 65.921875 22.671875 59.328125 
Q 17.53125 52.734375 16.796875 39.40625 
Q 19.671875 43.65625 24.015625 45.921875 
Q 28.375 48.1875 33.59375 48.1875 
Q 44.578125 48.1875 50.953125 41.515625 
Q 57.328125 34.859375 57.328125 23.390625 
Q 57.328125 12.15625 50.6875 5.359375 
Q 44.046875 -1.421875 33.015625 -1.421875 
Q 20.359375 -1.421875 13.671875 8.265625 
Q 6.984375 17.96875 6.984375 36.375 
Q 6.984375 53.65625 15.1875 63.9375 
Q 23.390625 74.21875 37.203125 74.21875 
Q 40.921875 74.21875 44.703125 73.484375 
Q 48.484375 72.75 52.59375 71.296875 
z
" id="DejaVuSans-54"/>
       </defs>
       <use xlink:href="#DejaVuSans-48"/>
       <use x="63.623047" xlink:href="#DejaVuSans-46"/>
       <use x="95.410156" xlink:href="#DejaVuSans-54"/>
      </g>
     </g>
    </g>
    <g id="xtick_5">
     <g id="line2d_5">
      <g>
       <use style="stroke:#000000;stroke-width:0.8;" x="333.556364" xlink:href="#m4555784ca4" y="307.584"/>
      </g>
     </g>
     <g id="text_5">
      <!-- 0.8 -->
      <g transform="translate(325.604801 322.182437)scale(0.1 -0.1)">
       <defs>
        <path d="M 31.78125 34.625 
Q 24.75 34.625 20.71875 30.859375 
Q 16.703125 27.09375 16.703125 20.515625 
Q 16.703125 13.921875 20.71875 10.15625 
Q 24.75 6.390625 31.78125 6.390625 
Q 38.8125 6.390625 42.859375 10.171875 
Q 46.921875 13.96875 46.921875 20.515625 
Q 46.921875 27.09375 42.890625 30.859375 
Q 38.875 34.625 31.78125 34.625 
z
M 21.921875 38.8125 
Q 15.578125 40.375 12.03125 44.71875 
Q 8.5 49.078125 8.5 55.328125 
Q 8.5 64.0625 14.71875 69.140625 
Q 20.953125 74.21875 31.78125 74.21875 
Q 42.671875 74.21875 48.875 69.140625 
Q 55.078125 64.0625 55.078125 55.328125 
Q 55.078125 49.078125 51.53125 44.71875 
Q 48 40.375 41.703125 38.8125 
Q 48.828125 37.15625 52.796875 32.3125 
Q 56.78125 27.484375 56.78125 20.515625 
Q 56.78125 9.90625 50.3125 4.234375 
Q 43.84375 -1.421875 31.78125 -1.421875 
Q 19.734375 -1.421875 13.25 4.234375 
Q 6.78125 9.90625 6.78125 20.515625 
Q 6.78125 27.484375 10.78125 32.3125 
Q 14.796875 37.15625 21.921875 38.8125 
z
M 18.3125 54.390625 
Q 18.3125 48.734375 21.84375 45.5625 
Q 25.390625 42.390625 31.78125 42.390625 
Q 38.140625 42.390625 41.71875 45.5625 
Q 45.3125 48.734375 45.3125 54.390625 
Q 45.3125 60.0625 41.71875 63.234375 
Q 38.140625 66.40625 31.78125 66.40625 
Q 25.390625 66.40625 21.84375 63.234375 
Q 18.3125 60.0625 18.3125 54.390625 
z
" id="DejaVuSans-56"/>
       </defs>
       <use xlink:href="#DejaVuSans-48"/>
       <use x="63.623047" xlink:href="#DejaVuSans-46"/>
       <use x="95.410156" xlink:href="#DejaVuSans-56"/>
      </g>
     </g>
    </g>
    <g id="xtick_6">
     <g id="line2d_6">
      <g>
       <use style="stroke:#000000;stroke-width:0.8;" x="398.487273" xlink:href="#m4555784ca4" y="307.584"/>
      </g>
     </g>
     <g id="text_6">
      <!-- 1.0 -->
      <g transform="translate(390.53571 322.182437)scale(0.1 -0.1)">
       <defs>
        <path d="M 12.40625 8.296875 
L 28.515625 8.296875 
L 28.515625 63.921875 
L 10.984375 60.40625 
L 10.984375 69.390625 
L 28.421875 72.90625 
L 38.28125 72.90625 
L 38.28125 8.296875 
L 54.390625 8.296875 
L 54.390625 0 
L 12.40625 0 
z
" id="DejaVuSans-49"/>
       </defs>
       <use xlink:href="#DejaVuSans-49"/>
       <use x="63.623047" xlink:href="#DejaVuSans-46"/>
       <use x="95.410156" xlink:href="#DejaVuSans-48"/>
      </g>
     </g>
    </g>
    <g id="text_7">
     <!-- x -->
     <g transform="translate(233.200625 335.860562)scale(0.1 -0.1)">
      <defs>
       <path d="M 54.890625 54.6875 
L 35.109375 28.078125 
L 55.90625 0 
L 45.3125 0 
L 29.390625 21.484375 
L 13.484375 0 
L 2.875 0 
L 24.125 28.609375 
L 4.6875 54.6875 
L 15.28125 54.6875 
L 29.78125 35.203125 
L 44.28125 54.6875 
z
" id="DejaVuSans-120"/>
      </defs>
      <use xlink:href="#DejaVuSans-120"/>
     </g>
    </g>
   </g>
   <g id="matplotlib.axis_2">
    <g id="ytick_1">
     <g id="line2d_7">
      <defs>
       <path d="M 0 0 
L -3.5 0 
" id="mdf377e1484" style="stroke:#000000;stroke-width:0.8;"/>
      </defs>
      <g>
       <use style="stroke:#000000;stroke-width:0.8;" x="57.6" xlink:href="#mdf377e1484" y="283.594903"/>
      </g>
     </g>
     <g id="text_8">
      <!-- −1.0 -->
      <g transform="translate(26.317187 287.394122)scale(0.1 -0.1)">
       <defs>
        <path d="M 10.59375 35.5 
L 73.1875 35.5 
L 73.1875 27.203125 
L 10.59375 27.203125 
z
" id="DejaVuSans-8722"/>
       </defs>
       <use xlink:href="#DejaVuSans-8722"/>
       <use x="83.789062" xlink:href="#DejaVuSans-49"/>
       <use x="147.412109" xlink:href="#DejaVuSans-46"/>
       <use x="179.199219" xlink:href="#DejaVuSans-48"/>
      </g>
     </g>
    </g>
    <g id="ytick_2">
     <g id="line2d_8">
      <g>
       <use style="stroke:#000000;stroke-width:0.8;" x="57.6" xlink:href="#mdf377e1484" y="230.393295"/>
      </g>
     </g>
     <g id="text_9">
      <!-- −0.5 -->
      <g transform="translate(26.317187 234.192514)scale(0.1 -0.1)">
       <defs>
        <path d="M 10.796875 72.90625 
L 49.515625 72.90625 
L 49.515625 64.59375 
L 19.828125 64.59375 
L 19.828125 46.734375 
Q 21.96875 47.46875 24.109375 47.828125 
Q 26.265625 48.1875 28.421875 48.1875 
Q 40.625 48.1875 47.75 41.5 
Q 54.890625 34.8125 54.890625 23.390625 
Q 54.890625 11.625 47.5625 5.09375 
Q 40.234375 -1.421875 26.90625 -1.421875 
Q 22.3125 -1.421875 17.546875 -0.640625 
Q 12.796875 0.140625 7.71875 1.703125 
L 7.71875 11.625 
Q 12.109375 9.234375 16.796875 8.0625 
Q 21.484375 6.890625 26.703125 6.890625 
Q 35.15625 6.890625 40.078125 11.328125 
Q 45.015625 15.765625 45.015625 23.390625 
Q 45.015625 31 40.078125 35.4375 
Q 35.15625 39.890625 26.703125 39.890625 
Q 22.75 39.890625 18.8125 39.015625 
Q 14.890625 38.140625 10.796875 36.28125 
z
" id="DejaVuSans-53"/>
       </defs>
       <use xlink:href="#DejaVuSans-8722"/>
       <use x="83.789062" xlink:href="#DejaVuSans-48"/>
       <use x="147.412109" xlink:href="#DejaVuSans-46"/>
       <use x="179.199219" xlink:href="#DejaVuSans-53"/>
      </g>
     </g>
    </g>
    <g id="ytick_3">
     <g id="line2d_9">
      <g>
       <use style="stroke:#000000;stroke-width:0.8;" x="57.6" xlink:href="#mdf377e1484" y="177.191687"/>
      </g>
     </g>
     <g id="text_10">
      <!-- 0.0 -->
      <g transform="translate(34.696875 180.990905)scale(0.1 -0.1)">
       <use xlink:href="#DejaVuSans-48"/>
       <use x="63.623047" xlink:href="#DejaVuSans-46"/>
       <use x="95.410156" xlink:href="#DejaVuSans-48"/>
      </g>
     </g>
    </g>
    <g id="ytick_4">
     <g id="line2d_10">
      <g>
       <use style="stroke:#000000;stroke-width:0.8;" x="57.6" xlink:href="#mdf377e1484" y="123.990078"/>
      </g>
     </g>
     <g id="text_11">
      <!-- 0.5 -->
      <g transform="translate(34.696875 127.789297)scale(0.1 -0.1)">
       <use xlink:href="#DejaVuSans-48"/>
       <use x="63.623047" xlink:href="#DejaVuSans-46"/>
       <use x="95.410156" xlink:href="#DejaVuSans-53"/>
      </g>
     </g>
    </g>
    <g id="ytick_5">
     <g id="line2d_11">
      <g>
       <use style="stroke:#000000;stroke-width:0.8;" x="57.6" xlink:href="#mdf377e1484" y="70.78847"/>
      </g>
     </g>
     <g id="text_12">
      <!-- 1.0 -->
      <g transform="translate(34.696875 74.587689)scale(0.1 -0.1)">
       <use xlink:href="#DejaVuSans-49"/>
       <use x="63.623047" xlink:href="#DejaVuSans-46"/>
       <use x="95.410156" xlink:href="#DejaVuSans-48"/>
      </g>
     </g>
    </g>
    <g id="text_13">
     <!-- y -->
     <g transform="translate(19.357812 172.448312)scale(0.1 -0.1)">
      <defs>
       <path d="M 32.171875 -5.078125 
Q 28.375 -14.84375 24.75 -17.8125 
Q 21.140625 -20.796875 15.09375 -20.796875 
L 7.90625 -20.796875 
L 7.90625 -13.28125 
L 13.1875 -13.28125 
Q 16.890625 -13.28125 18.9375 -11.515625 
Q 21 -9.765625 23.484375 -3.21875 
L 25.09375 0.875 
L 2.984375 54.6875 
L 12.5 54.6875 
L 29.59375 11.921875 
L 46.6875 54.6875 
L 56.203125 54.6875 
z
" id="DejaVuSans-121"/>
      </defs>
      <use xlink:href="#DejaVuSans-121"/>
     </g>
    </g>
   </g>
   <g id="line2d_12">
    <path clip-path="url(#pee4d896708)" d="M 73.832727 165.136068 
L 78.387 158.876405 
L 83.591882 151.321275 
L 90.097985 141.457796 
L 112.869346 106.499472 
L 118.07423 99.124099 
L 122.628503 93.073217 
L 126.532163 88.254888 
L 129.785213 84.540241 
L 133.038266 81.130854 
L 136.291316 78.055227 
L 138.893758 75.852975 
L 141.4962 73.894108 
L 144.098642 72.19041 
L 146.701084 70.752675 
L 149.303522 69.590823 
L 151.905964 68.713707 
L 154.508406 68.129318 
L 156.460241 67.887417 
L 158.412072 67.816727 
L 160.363902 67.919597 
L 162.315733 68.197991 
L 164.267563 68.653558 
L 166.219393 69.287593 
L 168.171224 70.100933 
L 170.773661 71.465086 
L 173.376108 73.148553 
L 175.978546 75.149329 
L 178.580983 77.46352 
L 181.18343 80.085139 
L 183.785867 83.005827 
L 186.388314 86.214918 
L 189.641359 90.611419 
L 192.894413 95.406529 
L 196.147467 100.563419 
L 200.051127 107.170297 
L 204.605395 115.355229 
L 209.81028 125.176893 
L 217.617611 140.442961 
L 234.533478 173.634358 
L 244.943247 193.45346 
L 261.208507 223.856586 
L 272.268873 244.17535 
L 278.124364 254.530709 
L 282.678641 262.205969 
L 286.582302 268.408499 
L 290.485963 274.164739 
L 293.739007 278.55049 
L 296.341454 281.74963 
L 298.943901 284.643599 
L 301.546329 287.206173 
L 304.148776 289.413245 
L 306.100607 290.822174 
L 308.052437 292.010942 
L 310.004267 292.972649 
L 311.956098 293.701563 
L 313.907928 294.193192 
L 315.859759 294.444365 
L 317.811589 294.453244 
L 319.76342 294.219448 
L 321.71525 293.743979 
L 323.66708 293.029247 
L 325.618911 292.079082 
L 327.570741 290.898711 
L 329.522572 289.49464 
L 332.125019 287.288253 
L 334.727466 284.719983 
L 337.329913 281.814979 
L 339.93234 278.601379 
L 343.185404 274.197147 
L 346.438448 269.422547 
L 350.342109 263.29854 
L 355.546984 254.657856 
L 375.065308 221.650516 
L 379.619566 214.614694 
L 383.523227 208.947155 
L 387.426907 203.652812 
L 391.330568 198.755248 
L 395.234228 194.267459 
L 398.487273 190.843861 
L 398.487273 190.843861 
" style="fill:none;stroke:#ff0000;stroke-dasharray:5.55,2.4;stroke-dashoffset:0;stroke-width:1.5;"/>
   </g>
   <g id="line2d_13">
    <path clip-path="url(#pee4d896708)" d="M 73.832727 177.191687 
L 86.194323 151.977969 
L 92.700426 139.195722 
L 98.555918 128.200502 
L 103.110191 120.076219 
L 107.664464 112.395366 
L 111.568124 106.210023 
L 115.471788 100.429632 
L 119.375449 95.087165 
L 122.628503 90.991699 
L 125.881552 87.237795 
L 129.134606 83.840324 
L 132.387655 80.812746 
L 134.990097 78.665111 
L 137.592539 76.76737 
L 140.194981 75.124315 
L 142.797419 73.74014 
L 145.399861 72.618332 
L 148.002303 71.761745 
L 150.604745 71.172556 
L 153.207187 70.852253 
L 155.809625 70.801649 
L 158.412072 71.020877 
L 161.014509 71.509373 
L 163.616946 72.2659 
L 166.219393 73.288549 
L 168.821831 74.574713 
L 171.424278 76.121145 
L 174.026715 77.923907 
L 176.629153 79.978433 
L 179.2316 82.279521 
L 182.484653 85.49364 
L 185.737698 89.071088 
L 188.990752 92.997733 
L 192.243806 97.257973 
L 196.147467 102.786766 
L 200.051127 108.740018 
L 203.954788 115.083806 
L 208.509066 122.930062 
L 213.71394 132.409342 
L 219.569441 143.611284 
L 226.07554 156.556651 
L 236.485308 177.861597 
L 248.196291 201.754111 
L 254.702399 214.561189 
L 260.55789 225.587251 
L 265.762765 234.871216 
L 270.317042 242.51807 
L 274.220703 248.670991 
L 278.124364 254.41612 
L 282.028025 259.72068 
L 285.281069 263.782698 
L 288.534133 267.5016 
L 291.787177 270.862667 
L 295.040241 273.852573 
L 297.642668 275.969245 
L 300.245115 277.835409 
L 302.847562 279.446315 
L 305.44999 280.797873 
L 308.052437 281.88667 
L 310.654884 282.709935 
L 313.257331 283.265588 
L 315.859759 283.552201 
L 318.462206 283.569072 
L 321.064653 283.316141 
L 323.66708 282.794064 
L 326.269527 282.004146 
L 328.871974 280.948404 
L 331.474402 279.629514 
L 334.076849 278.050813 
L 336.679296 276.216309 
L 339.281743 274.130656 
L 341.884171 271.799164 
L 345.137235 268.548114 
L 348.390279 264.935075 
L 351.643323 260.97436 
L 354.896387 256.681673 
L 358.800048 251.116248 
L 362.703708 245.129123 
L 366.607369 238.754417 
L 371.161647 230.876 
L 376.366521 221.365478 
L 382.222013 210.135771 
L 389.378737 195.851586 
L 398.487273 177.191668 
L 398.487273 177.191668 
" style="fill:none;stroke:#0000ff;stroke-linecap:square;stroke-width:1.5;"/>
   </g>
   <g id="patch_3">
    <path d="M 57.6 307.584 
L 57.6 41.472 
" style="fill:none;stroke:#000000;stroke-linecap:square;stroke-linejoin:miter;stroke-width:0.8;"/>
   </g>
   <g id="patch_4">
    <path d="M 414.72 307.584 
L 414.72 41.472 
" style="fill:none;stroke:#000000;stroke-linecap:square;stroke-linejoin:miter;stroke-width:0.8;"/>
   </g>
   <g id="patch_5">
    <path d="M 57.6 307.584 
L 414.72 307.584 
" style="fill:none;stroke:#000000;stroke-linecap:square;stroke-linejoin:miter;stroke-width:0.8;"/>
   </g>
   <g id="patch_6">
    <path d="M 57.6 41.472 
L 414.72 41.472 
" style="fill:none;stroke:#000000;stroke-linecap:square;stroke-linejoin:miter;stroke-width:0.8;"/>
   </g>
   <g id="text_14">
    <!-- Fit 1 -->
    <g transform="translate(223.400625 35.472)scale(0.12 -0.12)">
     <defs>
      <path d="M 9.8125 72.90625 
L 51.703125 72.90625 
L 51.703125 64.59375 
L 19.671875 64.59375 
L 19.671875 43.109375 
L 48.578125 43.109375 
L 48.578125 34.8125 
L 19.671875 34.8125 
L 19.671875 0 
L 9.8125 0 
z
" id="DejaVuSans-70"/>
      <path d="M 9.421875 54.6875 
L 18.40625 54.6875 
L 18.40625 0 
L 9.421875 0 
z
M 9.421875 75.984375 
L 18.40625 75.984375 
L 18.40625 64.59375 
L 9.421875 64.59375 
z
" id="DejaVuSans-105"/>
      <path d="M 18.3125 70.21875 
L 18.3125 54.6875 
L 36.8125 54.6875 
L 36.8125 47.703125 
L 18.3125 47.703125 
L 18.3125 18.015625 
Q 18.3125 11.328125 20.140625 9.421875 
Q 21.96875 7.515625 27.59375 7.515625 
L 36.8125 7.515625 
L 36.8125 0 
L 27.59375 0 
Q 17.1875 0 13.234375 3.875 
Q 9.28125 7.765625 9.28125 18.015625 
L 9.28125 47.703125 
L 2.6875 47.703125 
L 2.6875 54.6875 
L 9.28125 54.6875 
L 9.28125 70.21875 
z
" id="DejaVuSans-116"/>
      <path id="DejaVuSans-32"/>
     </defs>
     <use xlink:href="#DejaVuSans-70"/>
     <use x="50.269531" xlink:href="#DejaVuSans-105"/>
     <use x="78.052734" xlink:href="#DejaVuSans-116"/>
     <use x="117.261719" xlink:href="#DejaVuSans-32"/>
     <use x="149.048828" xlink:href="#DejaVuSans-49"/>
    </g>
   </g>
  </g>
 </g>
 <defs>
  <clipPath id="pee4d896708">
   <rect height="266.112" width="357.12" x="57.6" y="41.472"/>
  </clipPath>
 </defs>
</svg>
