<?xml version="1.0" encoding="utf-8" standalone="no"?>
<!DOCTYPE svg PUBLIC "-//W3C//DTD SVG 1.1//EN"
  "http://www.w3.org/Graphics/SVG/1.1/DTD/svg11.dtd">
<!-- Created with matplotlib (https://matplotlib.org/) -->
<svg height="345.6pt" version="1.1" viewBox="0 0 460.8 345.6" width="460.8pt" xmlns="http://www.w3.org/2000/svg" xmlns:xlink="http://www.w3.org/1999/xlink">
 <metadata>
  <rdf:RDF xmlns:cc="http://creativecommons.org/ns#" xmlns:dc="http://purl.org/dc/elements/1.1/" xmlns:rdf="http://www.w3.org/1999/02/22-rdf-syntax-ns#">
   <cc:Work>
    <dc:type rdf:resource="http://purl.org/dc/dcmitype/StillImage"/>
    <dc:date>2020-09-14T00:51:54.720832</dc:date>
    <dc:format>image/svg+xml</dc:format>
    <dc:creator>
     <cc:Agent>
      <dc:title>Matplotlib v3.3.1, https://matplotlib.org/</dc:title>
     </cc:Agent>
    </dc:creator>
   </cc:Work>
  </rdf:RDF>
 </metadata>
 <defs>
  <style type="text/css">*{stroke-linecap:butt;stroke-linejoin:round;}</style>
 </defs>
 <g id="figure_1">
  <g id="patch_1">
   <path d="M 0 345.6 
L 460.8 345.6 
L 460.8 0 
L 0 0 
z
" style="fill:#ffffff;"/>
  </g>
  <g id="axes_1">
   <g id="patch_2">
    <path d="M 57.6 307.584 
L 343.296 307.584 
L 343.296 41.472 
L 57.6 41.472 
z
" style="fill:#ffffff;"/>
   </g>
   <g id="PathCollection_1">
    <path clip-path="url(#pbfa8844079)" d="M 201.890909 307.584 
L 204.776727 307.584 
L 207.662545 307.584 
L 210.548363 307.584 
L 213.434182 307.584 
L 216.32 307.584 
L 219.205818 307.584 
L 222.091636 307.584 
L 224.977454 307.584 
L 227.863274 307.584 
L 230.749092 307.584 
L 233.634909 307.584 
L 236.520727 307.584 
L 239.406545 307.584 
L 242.292365 307.584 
L 245.17818 307.584 
L 248.064 307.584 
L 250.94982 307.584 
L 253.835635 307.584 
L 256.721455 307.584 
L 259.607271 307.584 
L 262.493091 307.584 
L 265.378911 307.584 
L 268.264726 307.584 
L 271.150546 307.584 
L 274.036362 307.584 
L 276.922182 307.584 
L 279.807997 307.584 
L 282.693821 307.584 
L 285.579637 307.584 
L 288.465452 307.584 
L 291.351277 307.584 
L 294.237092 307.584 
L 297.122908 307.584 
L 300.008723 307.584 
L 302.894548 307.584 
L 305.780363 307.584 
L 308.666179 307.584 
L 311.552003 307.584 
L 314.437818 307.584 
L 317.323634 307.584 
L 320.209458 307.584 
L 323.095274 307.584 
L 325.981089 307.584 
L 328.866905 307.584 
L 331.752729 307.584 
L 334.638545 307.584 
L 337.52436 307.584 
L 340.410185 307.584 
L 343.296 307.584 
L 343.296 304.896003 
L 343.296 302.207997 
L 343.296 299.519999 
L 343.296 296.832002 
L 343.296 294.143996 
L 343.296 291.455998 
L 343.296 288.768001 
L 343.296 286.080004 
L 343.296 283.391998 
L 343.296 280.704 
L 343.296 278.016003 
L 343.296 275.327997 
L 343.296 272.639999 
L 343.296 269.952002 
L 343.296 267.263996 
L 343.296 264.575999 
L 343.296 261.888001 
L 343.296 259.200004 
L 343.296 256.511998 
L 343.296 253.824001 
L 343.296 251.136003 
L 343.296 248.447997 
L 343.296 245.76 
L 343.296 243.071998 
L 343.296 240.384001 
L 343.296 237.695999 
L 343.296 235.008002 
L 343.296 232.32 
L 343.296 229.631998 
L 343.296 226.944001 
L 343.296 224.255999 
L 343.296 221.568002 
L 343.296 218.88 
L 343.296 216.191998 
L 343.296 213.504001 
L 343.296 210.815999 
L 343.296 208.128 
L 343.296 205.44 
L 343.296 202.752001 
L 343.296 200.064001 
L 343.296 197.375999 
L 343.296 194.688 
L 343.296 192 
L 343.296 189.312 
L 343.296 186.624 
L 343.296 183.935999 
L 343.296 181.248 
L 343.296 178.56 
L 343.296 175.872 
L 343.296 173.184 
L 343.296 170.496 
L 343.296 167.808 
L 343.296 165.120001 
L 343.296 162.432 
L 343.296 159.744 
L 343.296 157.056 
L 343.296 154.368 
L 343.296 151.680001 
L 343.296 148.991999 
L 343.296 146.303999 
L 343.296 143.616 
L 343.296 140.928 
L 343.296 138.240001 
L 343.296 135.551999 
L 343.296 132.864002 
L 343.296 130.176 
L 343.296 127.487998 
L 343.296 124.800001 
L 343.296 122.111999 
L 343.296 119.424002 
L 343.296 116.736 
L 343.296 114.047998 
L 343.296 111.360001 
L 343.296 108.671999 
L 343.296 105.984002 
L 343.296 103.296 
L 343.296 100.608003 
L 343.296 97.919997 
L 343.296 95.231999 
L 343.296 92.544002 
L 343.296 89.855996 
L 343.296 87.167999 
L 343.296 84.480001 
L 343.296 81.792004 
L 343.296 79.103998 
L 343.296 76.416001 
L 343.296 73.728003 
L 343.296 71.039997 
L 343.296 68.352 
L 343.296 65.664002 
L 343.296 62.975996 
L 343.296 60.287999 
L 343.296 57.600002 
L 343.296 54.912004 
L 343.296 52.223998 
L 343.296 49.536001 
L 343.296 46.848003 
L 343.296 44.159997 
L 343.296 41.472 
L 340.410185 41.472 
L 337.52436 41.472 
L 334.638545 41.472 
L 331.752729 41.472 
L 328.866905 41.472 
L 325.981089 41.472 
L 323.095274 41.472 
L 320.209458 41.472 
L 317.323634 41.472 
L 314.437818 41.472 
L 311.552003 41.472 
L 308.666179 41.472 
L 305.780363 41.472 
L 302.894548 41.472 
L 300.008723 41.472 
L 297.122908 41.472 
L 294.237092 41.472 
L 291.351277 41.472 
L 288.465452 41.472 
L 285.579637 41.472 
L 282.693821 41.472 
L 279.807997 41.472 
L 276.922182 41.472 
L 274.036362 41.472 
L 271.150546 41.472 
L 268.264726 41.472 
L 265.378911 41.472 
L 262.493091 41.472 
L 259.607271 41.472 
L 256.721455 41.472 
L 253.835635 41.472 
L 250.94982 41.472 
L 248.064 41.472 
L 245.17818 41.472 
L 242.292365 41.472 
L 239.406545 41.472 
L 236.520727 41.472 
L 233.634909 41.472 
L 230.749092 41.472 
L 227.863274 41.472 
L 224.977454 41.472 
L 222.091636 41.472 
L 219.205818 41.472 
L 216.32 41.472 
L 213.434182 41.472 
L 210.548363 41.472 
L 207.662545 41.472 
L 204.776727 41.472 
L 201.890909 41.472 
L 199.005091 41.472 
L 196.119273 41.472 
L 193.233455 41.472 
L 190.347637 41.472 
L 187.461818 41.472 
L 184.576 41.472 
L 181.690182 41.472 
L 178.804364 41.472 
L 177.084172 41.472 
L 178.712925 44.159997 
L 178.804364 44.298128 
L 180.364221 46.848003 
L 181.690182 48.974554 
L 182.054896 49.536001 
L 183.66607 52.223998 
L 184.576 53.640648 
L 185.422461 54.912004 
L 187.148749 57.600002 
L 187.461818 58.018079 
L 189.249146 60.287999 
L 190.347637 61.562904 
L 191.856853 62.975996 
L 193.233455 64.07503 
L 195.425615 65.664002 
L 196.119273 66.156213 
L 199.005091 67.880662 
L 199.776551 68.352 
L 201.890909 69.582999 
L 204.589077 71.039997 
L 204.776727 71.144426 
L 207.662545 72.509472 
L 210.420403 73.728003 
L 210.548363 73.786624 
L 213.434182 74.966153 
L 216.32 76.07472 
L 217.159332 76.416001 
L 219.205818 77.224105 
L 222.091636 78.262904 
L 224.316144 79.103998 
L 224.977454 79.365276 
L 227.863274 80.449194 
L 230.749092 81.49978 
L 231.520963 81.792004 
L 233.634909 82.598034 
L 236.520727 83.680887 
L 238.721762 84.480001 
L 239.406545 84.734771 
L 242.292365 85.75424 
L 245.17818 86.793639 
L 246.020089 87.167999 
L 248.064 88.110774 
L 250.94982 89.609082 
L 251.354375 89.855996 
L 253.835635 91.357191 
L 255.610471 92.544002 
L 256.721455 93.34509 
L 258.737865 95.231999 
L 259.607271 96.373223 
L 260.669206 97.919997 
L 262.477513 100.608003 
L 262.493091 100.629975 
L 264.255108 103.296 
L 265.378911 104.918601 
L 266.177618 105.984002 
L 268.264726 108.47877 
L 268.433775 108.671999 
L 270.589043 111.360001 
L 271.150546 112.147205 
L 272.431725 114.047998 
L 274.036362 116.397467 
L 274.276487 116.736 
L 276.061181 119.424002 
L 276.922182 120.740617 
L 277.775344 122.111999 
L 279.215937 124.800001 
L 279.807997 125.908736 
L 280.614846 127.487998 
L 281.903896 130.176 
L 282.693821 131.784927 
L 283.221182 132.864002 
L 284.406598 135.551999 
L 285.579637 138.19136 
L 285.601203 138.240001 
L 286.600692 140.928 
L 287.506862 143.616 
L 288.44138 146.303999 
L 288.465452 146.375696 
L 289.215563 148.991999 
L 289.934597 151.680001 
L 290.5386 154.368 
L 291.095801 157.056 
L 291.351277 158.855349 
L 291.473436 159.744 
L 291.75498 162.432 
L 292.000883 165.120001 
L 292.297786 167.808 
L 292.571846 170.496 
L 292.733486 173.184 
L 292.699598 175.872 
L 292.208119 178.56 
L 291.611695 181.248 
L 291.351277 182.680767 
L 291.126908 183.935999 
L 290.672455 186.624 
L 290.153952 189.312 
L 289.596319 192 
L 288.807683 194.688 
L 288.465452 195.470918 
L 287.669322 197.375999 
L 286.596439 200.064001 
L 285.579637 202.055151 
L 285.185444 202.752001 
L 283.778802 205.44 
L 282.693821 207.179391 
L 282.043037 208.128 
L 280.241001 210.815999 
L 279.807997 211.373054 
L 278.21536 213.504001 
L 276.922182 215.112123 
L 276.035406 216.191998 
L 274.036362 218.630844 
L 273.808411 218.88 
L 271.376621 221.568002 
L 271.150546 221.802671 
L 268.814986 224.255999 
L 268.264726 224.825567 
L 266.311129 226.944001 
L 265.378911 227.932923 
L 263.764345 229.631998 
L 262.493091 230.914195 
L 261.064119 232.32 
L 259.607271 233.840005 
L 258.464248 235.008002 
L 256.721455 236.786331 
L 255.795296 237.695999 
L 253.835635 239.637251 
L 253.047214 240.384001 
L 250.94982 242.255794 
L 249.889474 243.071998 
L 248.064 244.26229 
L 245.17818 245.337799 
L 243.902898 245.76 
L 242.292365 246.275231 
L 239.406545 247.001731 
L 236.520727 247.65836 
L 233.766476 248.447997 
L 233.634909 248.48927 
L 230.749092 249.514619 
L 228.238484 251.136003 
L 227.863274 251.397589 
L 224.977454 252.96252 
L 223.244916 253.824001 
L 222.091636 254.408397 
L 219.205818 255.659525 
L 216.767814 256.511998 
L 216.32 256.67941 
L 213.434182 257.246012 
L 210.548363 257.631526 
L 207.662545 257.754891 
L 204.776727 257.683257 
L 201.890909 257.204825 
L 201.14601 256.511998 
L 199.005091 254.233539 
L 198.903839 253.824001 
L 198.152448 251.136003 
L 196.939394 248.447997 
L 196.119273 247.412511 
L 194.581345 245.76 
L 193.233455 244.530825 
L 190.994528 243.071998 
L 190.347637 242.702555 
L 187.461818 241.780625 
L 184.576 241.468231 
L 181.690182 241.359586 
L 178.804364 241.029214 
L 175.918546 242.442872 
L 175.434875 243.071998 
L 173.245082 245.76 
L 173.032726 246.007416 
L 171.044835 248.447997 
L 170.146908 249.547252 
L 167.759386 251.136003 
L 167.261091 251.591691 
L 165.923516 251.136003 
L 164.487498 248.447997 
L 164.375273 246.607919 
L 164.333548 245.76 
L 164.281221 243.071998 
L 164.334746 240.384001 
L 164.262782 237.695999 
L 164.080788 235.008002 
L 163.893428 232.32 
L 163.54382 229.631998 
L 162.927937 226.944001 
L 162.14484 224.255999 
L 161.489455 223.327332 
L 159.990146 221.568002 
L 158.603635 220.365013 
L 157.053524 218.88 
L 155.71782 217.826491 
L 153.648591 216.191998 
L 152.832 215.58001 
L 150.177278 213.504001 
L 149.94618 213.312766 
L 147.060365 210.826717 
L 147.050341 210.815999 
L 145.146096 208.128 
L 144.174545 206.561329 
L 143.537712 205.44 
L 142.330927 202.752001 
L 141.288729 200.383077 
L 141.146725 200.064001 
L 140.136499 197.375999 
L 139.417705 194.688 
L 138.882936 192 
L 138.47977 189.312 
L 138.402909 188.490028 
L 138.233083 186.624 
L 138.125869 183.935999 
L 138.098784 181.248 
L 138.20028 178.56 
L 138.402909 176.121033 
L 138.426864 175.872 
L 138.869741 173.184 
L 139.42875 170.496 
L 140.127509 167.808 
L 141.006127 165.120001 
L 141.288729 164.500761 
L 142.254581 162.432 
L 143.654046 159.744 
L 144.174545 158.882152 
L 145.290661 157.056 
L 147.060365 154.488135 
L 147.147059 154.368 
L 149.404712 151.680001 
L 149.94618 151.10713 
L 152.190048 148.991999 
L 152.832 148.410728 
L 155.302272 146.303999 
L 155.71782 145.97208 
L 158.603635 143.780256 
L 158.828976 143.616 
L 161.489455 141.803434 
L 162.854628 140.928 
L 164.375273 139.995818 
L 167.261091 138.417405 
L 167.614966 138.240001 
L 170.146908 137.047021 
L 173.032726 135.781052 
L 173.571482 135.551999 
L 175.918546 134.660991 
L 178.804364 133.751945 
L 181.690182 132.945754 
L 182.237151 132.864002 
L 184.576 132.530198 
L 187.461818 132.418821 
L 190.347637 132.39814 
L 193.233455 132.583229 
L 195.578516 132.864002 
L 196.119273 132.920134 
L 199.005091 133.067871 
L 201.890909 133.213609 
L 204.776727 133.492721 
L 207.662545 134.108872 
L 210.548363 134.926033 
L 212.244474 135.551999 
L 213.434182 136.002738 
L 216.32 137.791915 
L 216.919768 138.240001 
L 219.205818 140.132192 
L 220.070645 140.928 
L 222.091636 143.153855 
L 222.493971 143.616 
L 224.595608 146.303999 
L 224.977454 146.829658 
L 226.566237 148.991999 
L 227.863274 150.934427 
L 228.376148 151.680001 
L 229.982913 154.368 
L 230.749092 155.809692 
L 231.47204 157.056 
L 232.699037 159.744 
L 233.627923 162.432 
L 233.634909 162.50342 
L 233.87088 165.120001 
L 233.634909 165.860889 
L 233.029449 167.808 
L 231.919944 170.496 
L 230.749092 172.189699 
L 230.022215 173.184 
L 227.863274 175.122503 
L 224.977454 175.754644 
L 222.091636 175.708891 
L 219.205818 175.549204 
L 216.32 175.294967 
L 213.434182 174.883105 
L 210.548363 174.092723 
L 207.864027 173.184 
L 207.662545 173.102604 
L 204.776727 171.879512 
L 201.890909 170.668671 
L 201.433217 170.496 
L 199.005091 169.245427 
L 196.119273 168.136686 
L 194.79707 167.808 
L 193.233455 167.284455 
L 190.347637 166.873588 
L 187.461818 166.81625 
L 184.576 166.840054 
L 181.690182 167.106379 
L 178.804364 167.488119 
L 177.963713 167.808 
L 175.918546 168.437448 
L 173.032726 169.667742 
L 171.602183 170.496 
L 170.146908 171.353335 
L 167.892074 173.184 
L 167.261091 174.024746 
L 166.201249 175.872 
L 165.189622 178.56 
L 164.648881 181.248 
L 164.657216 183.935999 
L 165.020507 186.624 
L 165.5733 189.312 
L 166.01896 192 
L 166.422362 194.688 
L 167.165385 197.375999 
L 167.261091 197.633481 
L 168.20537 200.064001 
L 169.436357 202.752001 
L 170.146908 203.942326 
L 171.13891 205.44 
L 173.032726 208.039061 
L 173.10089 208.128 
L 175.28807 210.815999 
L 175.918546 211.482708 
L 178.03355 213.504001 
L 178.804364 214.148652 
L 181.690182 216.167681 
L 181.726936 216.191998 
L 184.576 217.29115 
L 187.461818 217.394103 
L 190.347637 217.45734 
L 193.233455 217.664043 
L 196.119273 217.950827 
L 199.005091 218.230141 
L 201.890909 218.761103 
L 202.539345 218.88 
L 204.776727 219.347571 
L 207.662545 219.652378 
L 210.548363 219.89849 
L 213.434182 220.14157 
L 216.32 220.325186 
L 219.205818 220.155571 
L 222.091636 219.788754 
L 224.977454 219.365053 
L 226.699791 218.88 
L 227.863274 218.507048 
L 230.749092 217.32794 
L 233.167986 216.191998 
L 233.634909 215.93396 
L 236.520727 214.288075 
L 237.643093 213.504001 
L 239.406545 212.273357 
L 241.252651 210.815999 
L 242.292365 209.970738 
L 244.255734 208.128 
L 245.17818 207.222032 
L 247.059953 205.44 
L 248.064 204.47355 
L 249.795651 202.752001 
L 250.94982 201.570302 
L 252.362147 200.064001 
L 253.835635 198.48644 
L 254.881851 197.375999 
L 256.721455 195.462136 
L 257.47938 194.688 
L 259.607271 192.403035 
L 259.986143 192 
L 262.232592 189.312 
L 262.493091 188.987094 
L 264.214418 186.624 
L 265.378911 184.872133 
L 265.964449 183.935999 
L 267.216648 181.248 
L 267.833611 178.56 
L 268.146433 175.872 
L 268.264726 174.285112 
L 268.347797 173.184 
L 268.439965 170.496 
L 268.401316 167.808 
L 268.294376 165.120001 
L 268.264726 164.239622 
L 268.199901 162.432 
L 268.114912 159.744 
L 267.95927 157.056 
L 267.85302 154.368 
L 267.652038 151.680001 
L 267.215988 148.991999 
L 266.669192 146.303999 
L 265.933923 143.616 
L 265.378911 142.043045 
L 264.946854 140.928 
L 263.860164 138.240001 
L 262.654654 135.551999 
L 262.493091 135.25786 
L 261.102422 132.864002 
L 259.677538 130.176 
L 259.607271 130.069043 
L 257.932144 127.487998 
L 256.721455 125.66239 
L 256.105545 124.800001 
L 254.17755 122.111999 
L 253.835635 121.696766 
L 251.964807 119.424002 
L 250.94982 118.265347 
L 249.591744 116.736 
L 248.064 115.276554 
L 246.641454 114.047998 
L 245.17818 112.923637 
L 242.594023 111.360001 
L 242.292365 111.168632 
L 239.406545 109.845523 
L 236.520727 108.872071 
L 235.902068 108.671999 
L 233.634909 107.884665 
L 230.749092 107.26357 
L 227.863274 106.808155 
L 224.977454 106.256158 
L 223.85925 105.984002 
L 222.091636 105.543088 
L 219.205818 104.917103 
L 216.32 104.332114 
L 213.434182 103.779322 
L 210.548363 103.32371 
L 210.337768 103.296 
L 207.662545 102.95031 
L 204.776727 102.738666 
L 201.890909 102.621757 
L 199.005091 102.559126 
L 196.119273 102.49429 
L 193.233455 102.492562 
L 190.347637 102.318324 
L 187.461818 102.233868 
L 184.576 102.178176 
L 181.690182 102.205009 
L 178.804364 102.325896 
L 175.918546 102.477197 
L 173.032726 102.597057 
L 170.146908 102.762988 
L 167.261091 103.17958 
L 166.670658 103.296 
L 164.375273 103.763897 
L 161.489455 104.446284 
L 158.603635 105.223828 
L 156.494975 105.984002 
L 155.71782 106.296453 
L 152.832 107.433499 
L 149.94618 108.508056 
L 149.539914 108.671999 
L 147.060365 109.681918 
L 144.174545 110.90346 
L 143.210413 111.360001 
L 141.288729 112.278284 
L 138.402909 113.630832 
L 137.599266 114.047998 
L 135.517089 115.103901 
L 132.631274 116.6666 
L 132.522814 116.736 
L 129.745454 118.468672 
L 128.613007 119.424002 
L 126.859638 120.798788 
L 125.483015 122.111999 
L 123.973818 123.681961 
L 122.896362 124.800001 
L 121.088003 126.779453 
L 120.451219 127.487998 
L 118.314827 130.176 
L 118.202179 130.334512 
L 116.554688 132.864002 
L 115.316363 135.096844 
L 115.060692 135.551999 
L 113.762758 138.240001 
L 112.739352 140.928 
L 112.430548 141.807109 
L 111.806345 143.616 
L 111.044948 146.303999 
L 110.423015 148.991999 
L 109.816306 151.680001 
L 109.544723 152.798044 
L 109.166422 154.368 
L 108.643251 157.056 
L 108.229512 159.744 
L 107.862312 162.432 
L 107.524591 165.120001 
L 107.212551 167.808 
L 106.942119 170.496 
L 106.749191 173.184 
L 106.658908 174.96495 
L 106.613585 175.872 
L 106.585154 178.56 
L 106.658908 180.828348 
L 106.672915 181.248 
L 106.936842 183.935999 
L 107.304896 186.624 
L 107.937068 189.312 
L 108.722237 192 
L 109.42214 194.688 
L 109.544723 195.122396 
L 110.16877 197.375999 
L 110.87292 200.064001 
L 111.592871 202.752001 
L 112.30418 205.44 
L 112.430548 205.911804 
L 113.017758 208.128 
L 113.701241 210.815999 
L 114.442031 213.504001 
L 115.217079 216.191998 
L 115.316363 216.562397 
L 115.919109 218.88 
L 116.602058 221.568002 
L 117.322591 224.255999 
L 118.144256 226.944001 
L 118.202179 227.125184 
L 119.018884 229.631998 
L 120.02521 232.32 
L 121.088003 234.467131 
L 121.41768 235.008002 
L 123.179785 237.695999 
L 123.973818 238.801508 
L 125.204232 240.384001 
L 126.859638 242.390705 
L 127.454685 243.071998 
L 129.745454 245.557273 
L 129.952149 245.76 
L 132.631274 248.323736 
L 132.776092 248.447997 
L 135.517089 250.632881 
L 136.303248 251.136003 
L 138.402909 252.420393 
L 140.910616 253.824001 
L 141.288729 254.037435 
L 144.174545 255.433814 
L 147.060365 256.509113 
L 147.069983 256.511998 
L 149.94618 257.327557 
L 152.832 258.007775 
L 155.71782 258.434623 
L 158.603635 258.331245 
L 161.489455 257.758257 
L 162.744468 259.200004 
L 163.784342 261.888001 
L 164.375273 263.1396 
L 165.117276 264.575999 
L 167.16385 267.263996 
L 167.261091 267.367824 
L 169.962979 269.952002 
L 170.146908 270.133356 
L 172.83151 272.639999 
L 173.032726 272.770419 
L 175.352564 275.327997 
L 175.918546 275.739222 
L 178.605832 278.016003 
L 178.804364 278.159114 
L 181.690182 279.439697 
L 184.576 279.349494 
L 186.823698 278.016003 
L 187.461818 277.535866 
L 189.787609 275.327997 
L 190.347637 274.662079 
L 193.233455 273.204716 
L 196.119273 274.589237 
L 196.616365 275.327997 
L 198.082785 278.016003 
L 199.005091 280.200006 
L 199.155081 280.704 
L 199.877515 283.391998 
L 200.36713 286.080004 
L 200.664141 288.768001 
L 200.921782 291.455998 
L 200.996984 294.143996 
L 200.978234 296.832002 
L 200.929122 299.519999 
L 200.849173 302.207997 
L 200.790855 304.896003 
L 200.845801 307.584 
z
" style="fill:#21918c;"/>
   </g>
   <g id="matplotlib.axis_1">
    <g id="xtick_1">
     <g id="line2d_1">
      <defs>
       <path d="M 0 0 
L 0 3.5 
" id="mb11b4236c6" style="stroke:#000000;stroke-width:0.8;"/>
      </defs>
      <g>
       <use style="stroke:#000000;stroke-width:0.8;" x="57.6" xlink:href="#mb11b4236c6" y="307.584"/>
      </g>
     </g>
     <g id="text_1">
      <!-- −15 -->
      <g transform="translate(47.047656 322.182437)scale(0.1 -0.1)">
       <defs>
        <path d="M 10.59375 35.5 
L 73.1875 35.5 
L 73.1875 27.203125 
L 10.59375 27.203125 
z
" id="DejaVuSans-8722"/>
        <path d="M 12.40625 8.296875 
L 28.515625 8.296875 
L 28.515625 63.921875 
L 10.984375 60.40625 
L 10.984375 69.390625 
L 28.421875 72.90625 
L 38.28125 72.90625 
L 38.28125 8.296875 
L 54.390625 8.296875 
L 54.390625 0 
L 12.40625 0 
z
" id="DejaVuSans-49"/>
        <path d="M 10.796875 72.90625 
L 49.515625 72.90625 
L 49.515625 64.59375 
L 19.828125 64.59375 
L 19.828125 46.734375 
Q 21.96875 47.46875 24.109375 47.828125 
Q 26.265625 48.1875 28.421875 48.1875 
Q 40.625 48.1875 47.75 41.5 
Q 54.890625 34.8125 54.890625 23.390625 
Q 54.890625 11.625 47.5625 5.09375 
Q 40.234375 -1.421875 26.90625 -1.421875 
Q 22.3125 -1.421875 17.546875 -0.640625 
Q 12.796875 0.140625 7.71875 1.703125 
L 7.71875 11.625 
Q 12.109375 9.234375 16.796875 8.0625 
Q 21.484375 6.890625 26.703125 6.890625 
Q 35.15625 6.890625 40.078125 11.328125 
Q 45.015625 15.765625 45.015625 23.390625 
Q 45.015625 31 40.078125 35.4375 
Q 35.15625 39.890625 26.703125 39.890625 
Q 22.75 39.890625 18.8125 39.015625 
Q 14.890625 38.140625 10.796875 36.28125 
z
" id="DejaVuSans-53"/>
       </defs>
       <use xlink:href="#DejaVuSans-8722"/>
       <use x="83.789062" xlink:href="#DejaVuSans-49"/>
       <use x="147.412109" xlink:href="#DejaVuSans-53"/>
      </g>
     </g>
    </g>
    <g id="xtick_2">
     <g id="line2d_2">
      <g>
       <use style="stroke:#000000;stroke-width:0.8;" x="105.216" xlink:href="#mb11b4236c6" y="307.584"/>
      </g>
     </g>
     <g id="text_2">
      <!-- −10 -->
      <g transform="translate(94.663656 322.182437)scale(0.1 -0.1)">
       <defs>
        <path d="M 31.78125 66.40625 
Q 24.171875 66.40625 20.328125 58.90625 
Q 16.5 51.421875 16.5 36.375 
Q 16.5 21.390625 20.328125 13.890625 
Q 24.171875 6.390625 31.78125 6.390625 
Q 39.453125 6.390625 43.28125 13.890625 
Q 47.125 21.390625 47.125 36.375 
Q 47.125 51.421875 43.28125 58.90625 
Q 39.453125 66.40625 31.78125 66.40625 
z
M 31.78125 74.21875 
Q 44.046875 74.21875 50.515625 64.515625 
Q 56.984375 54.828125 56.984375 36.375 
Q 56.984375 17.96875 50.515625 8.265625 
Q 44.046875 -1.421875 31.78125 -1.421875 
Q 19.53125 -1.421875 13.0625 8.265625 
Q 6.59375 17.96875 6.59375 36.375 
Q 6.59375 54.828125 13.0625 64.515625 
Q 19.53125 74.21875 31.78125 74.21875 
z
" id="DejaVuSans-48"/>
       </defs>
       <use xlink:href="#DejaVuSans-8722"/>
       <use x="83.789062" xlink:href="#DejaVuSans-49"/>
       <use x="147.412109" xlink:href="#DejaVuSans-48"/>
      </g>
     </g>
    </g>
    <g id="xtick_3">
     <g id="line2d_3">
      <g>
       <use style="stroke:#000000;stroke-width:0.8;" x="152.832" xlink:href="#mb11b4236c6" y="307.584"/>
      </g>
     </g>
     <g id="text_3">
      <!-- −5 -->
      <g transform="translate(145.460906 322.182437)scale(0.1 -0.1)">
       <use xlink:href="#DejaVuSans-8722"/>
       <use x="83.789062" xlink:href="#DejaVuSans-53"/>
      </g>
     </g>
    </g>
    <g id="xtick_4">
     <g id="line2d_4">
      <g>
       <use style="stroke:#000000;stroke-width:0.8;" x="200.448" xlink:href="#mb11b4236c6" y="307.584"/>
      </g>
     </g>
     <g id="text_4">
      <!-- 0 -->
      <g transform="translate(197.26675 322.182437)scale(0.1 -0.1)">
       <use xlink:href="#DejaVuSans-48"/>
      </g>
     </g>
    </g>
    <g id="xtick_5">
     <g id="line2d_5">
      <g>
       <use style="stroke:#000000;stroke-width:0.8;" x="248.064" xlink:href="#mb11b4236c6" y="307.584"/>
      </g>
     </g>
     <g id="text_5">
      <!-- 5 -->
      <g transform="translate(244.88275 322.182437)scale(0.1 -0.1)">
       <use xlink:href="#DejaVuSans-53"/>
      </g>
     </g>
    </g>
    <g id="xtick_6">
     <g id="line2d_6">
      <g>
       <use style="stroke:#000000;stroke-width:0.8;" x="295.68" xlink:href="#mb11b4236c6" y="307.584"/>
      </g>
     </g>
     <g id="text_6">
      <!-- 10 -->
      <g transform="translate(289.3175 322.182437)scale(0.1 -0.1)">
       <use xlink:href="#DejaVuSans-49"/>
       <use x="63.623047" xlink:href="#DejaVuSans-48"/>
      </g>
     </g>
    </g>
    <g id="xtick_7">
     <g id="line2d_7">
      <g>
       <use style="stroke:#000000;stroke-width:0.8;" x="343.296" xlink:href="#mb11b4236c6" y="307.584"/>
      </g>
     </g>
     <g id="text_7">
      <!-- 15 -->
      <g transform="translate(336.9335 322.182437)scale(0.1 -0.1)">
       <use xlink:href="#DejaVuSans-49"/>
       <use x="63.623047" xlink:href="#DejaVuSans-53"/>
      </g>
     </g>
    </g>
    <g id="text_8">
     <!-- x -->
     <g transform="translate(197.488625 335.860562)scale(0.1 -0.1)">
      <defs>
       <path d="M 54.890625 54.6875 
L 35.109375 28.078125 
L 55.90625 0 
L 45.3125 0 
L 29.390625 21.484375 
L 13.484375 0 
L 2.875 0 
L 24.125 28.609375 
L 4.6875 54.6875 
L 15.28125 54.6875 
L 29.78125 35.203125 
L 44.28125 54.6875 
z
" id="DejaVuSans-120"/>
      </defs>
      <use xlink:href="#DejaVuSans-120"/>
     </g>
    </g>
   </g>
   <g id="matplotlib.axis_2">
    <g id="ytick_1">
     <g id="line2d_8">
      <defs>
       <path d="M 0 0 
L -3.5 0 
" id="m547229e735" style="stroke:#000000;stroke-width:0.8;"/>
      </defs>
      <g>
       <use style="stroke:#000000;stroke-width:0.8;" x="57.6" xlink:href="#m547229e735" y="307.584"/>
      </g>
     </g>
     <g id="text_9">
      <!-- −15 -->
      <g transform="translate(29.495313 311.383219)scale(0.1 -0.1)">
       <use xlink:href="#DejaVuSans-8722"/>
       <use x="83.789062" xlink:href="#DejaVuSans-49"/>
       <use x="147.412109" xlink:href="#DejaVuSans-53"/>
      </g>
     </g>
    </g>
    <g id="ytick_2">
     <g id="line2d_9">
      <g>
       <use style="stroke:#000000;stroke-width:0.8;" x="57.6" xlink:href="#m547229e735" y="263.232"/>
      </g>
     </g>
     <g id="text_10">
      <!-- −10 -->
      <g transform="translate(29.495313 267.031219)scale(0.1 -0.1)">
       <use xlink:href="#DejaVuSans-8722"/>
       <use x="83.789062" xlink:href="#DejaVuSans-49"/>
       <use x="147.412109" xlink:href="#DejaVuSans-48"/>
      </g>
     </g>
    </g>
    <g id="ytick_3">
     <g id="line2d_10">
      <g>
       <use style="stroke:#000000;stroke-width:0.8;" x="57.6" xlink:href="#m547229e735" y="218.88"/>
      </g>
     </g>
     <g id="text_11">
      <!-- −5 -->
      <g transform="translate(35.857813 222.679219)scale(0.1 -0.1)">
       <use xlink:href="#DejaVuSans-8722"/>
       <use x="83.789062" xlink:href="#DejaVuSans-53"/>
      </g>
     </g>
    </g>
    <g id="ytick_4">
     <g id="line2d_11">
      <g>
       <use style="stroke:#000000;stroke-width:0.8;" x="57.6" xlink:href="#m547229e735" y="174.528"/>
      </g>
     </g>
     <g id="text_12">
      <!-- 0 -->
      <g transform="translate(44.2375 178.327219)scale(0.1 -0.1)">
       <use xlink:href="#DejaVuSans-48"/>
      </g>
     </g>
    </g>
    <g id="ytick_5">
     <g id="line2d_12">
      <g>
       <use style="stroke:#000000;stroke-width:0.8;" x="57.6" xlink:href="#m547229e735" y="130.176"/>
      </g>
     </g>
     <g id="text_13">
      <!-- 5 -->
      <g transform="translate(44.2375 133.975219)scale(0.1 -0.1)">
       <use xlink:href="#DejaVuSans-53"/>
      </g>
     </g>
    </g>
    <g id="ytick_6">
     <g id="line2d_13">
      <g>
       <use style="stroke:#000000;stroke-width:0.8;" x="57.6" xlink:href="#m547229e735" y="85.824"/>
      </g>
     </g>
     <g id="text_14">
      <!-- 10 -->
      <g transform="translate(37.875 89.623219)scale(0.1 -0.1)">
       <use xlink:href="#DejaVuSans-49"/>
       <use x="63.623047" xlink:href="#DejaVuSans-48"/>
      </g>
     </g>
    </g>
    <g id="ytick_7">
     <g id="line2d_14">
      <g>
       <use style="stroke:#000000;stroke-width:0.8;" x="57.6" xlink:href="#m547229e735" y="41.472"/>
      </g>
     </g>
     <g id="text_15">
      <!-- 15 -->
      <g transform="translate(37.875 45.271219)scale(0.1 -0.1)">
       <use xlink:href="#DejaVuSans-49"/>
       <use x="63.623047" xlink:href="#DejaVuSans-53"/>
      </g>
     </g>
    </g>
    <g id="text_16">
     <!-- y -->
     <g transform="translate(22.535937 172.448312)scale(0.1 -0.1)">
      <defs>
       <path d="M 32.171875 -5.078125 
Q 28.375 -14.84375 24.75 -17.8125 
Q 21.140625 -20.796875 15.09375 -20.796875 
L 7.90625 -20.796875 
L 7.90625 -13.28125 
L 13.1875 -13.28125 
Q 16.890625 -13.28125 18.9375 -11.515625 
Q 21 -9.765625 23.484375 -3.21875 
L 25.09375 0.875 
L 2.984375 54.6875 
L 12.5 54.6875 
L 29.59375 11.921875 
L 46.6875 54.6875 
L 56.203125 54.6875 
z
" id="DejaVuSans-121"/>
      </defs>
      <use xlink:href="#DejaVuSans-121"/>
     </g>
    </g>
   </g>
   <g id="line2d_15">
    <defs>
     <path d="M 0 3 
C 0.795609 3 1.55874 2.683901 2.12132 2.12132 
C 2.683901 1.55874 3 0.795609 3 0 
C 3 -0.795609 2.683901 -1.55874 2.12132 -2.12132 
C 1.55874 -2.683901 0.795609 -3 0 -3 
C -0.795609 -3 -1.55874 -2.683901 -2.12132 -2.12132 
C -2.683901 -1.55874 -3 -0.795609 -3 0 
C -3 0.795609 -2.683901 1.55874 -2.12132 2.12132 
C -1.55874 2.683901 -0.795609 3 0 3 
z
" id="mcbcedf3baa" style="stroke:#000000;"/>
    </defs>
    <g clip-path="url(#pbfa8844079)">
     <use style="fill:#ff0000;stroke:#000000;" x="156.64673" xlink:href="#mcbcedf3baa" y="199.619041"/>
     <use style="fill:#ff0000;stroke:#000000;" x="122.374518" xlink:href="#mcbcedf3baa" y="113.305088"/>
     <use style="fill:#ff0000;stroke:#000000;" x="213.512863" xlink:href="#mcbcedf3baa" y="150.737808"/>
     <use style="fill:#ff0000;stroke:#000000;" x="158.096404" xlink:href="#mcbcedf3baa" y="160.711334"/>
     <use style="fill:#ff0000;stroke:#000000;" x="254.578518" xlink:href="#mcbcedf3baa" y="217.655601"/>
     <use style="fill:#ff0000;stroke:#000000;" x="210.245549" xlink:href="#mcbcedf3baa" y="88.334721"/>
     <use style="fill:#ff0000;stroke:#000000;" x="96.712894" xlink:href="#mcbcedf3baa" y="217.513685"/>
     <use style="fill:#ff0000;stroke:#000000;" x="279.154527" xlink:href="#mcbcedf3baa" y="153.087543"/>
     <use style="fill:#ff0000;stroke:#000000;" x="213.513412" xlink:href="#mcbcedf3baa" y="90.379646"/>
     <use style="fill:#ff0000;stroke:#000000;" x="251.677858" xlink:href="#mcbcedf3baa" y="223.558012"/>
     <use style="fill:#ff0000;stroke:#000000;" x="263.279113" xlink:href="#mcbcedf3baa" y="209.781201"/>
     <use style="fill:#ff0000;stroke:#000000;" x="222.318644" xlink:href="#mcbcedf3baa" y="164.005545"/>
     <use style="fill:#ff0000;stroke:#000000;" x="273.854676" xlink:href="#mcbcedf3baa" y="193.317102"/>
     <use style="fill:#ff0000;stroke:#000000;" x="257.3361" xlink:href="#mcbcedf3baa" y="110.13139"/>
     <use style="fill:#ff0000;stroke:#000000;" x="179.216316" xlink:href="#mcbcedf3baa" y="144.211718"/>
     <use style="fill:#ff0000;stroke:#000000;" x="174.573736" xlink:href="#mcbcedf3baa" y="88.842357"/>
     <use style="fill:#ff0000;stroke:#000000;" x="271.540642" xlink:href="#mcbcedf3baa" y="197.242877"/>
     <use style="fill:#ff0000;stroke:#000000;" x="280.041823" xlink:href="#mcbcedf3baa" y="170.272129"/>
     <use style="fill:#ff0000;stroke:#000000;" x="115.931344" xlink:href="#mcbcedf3baa" y="246.694467"/>
     <use style="fill:#ff0000;stroke:#000000;" x="163.831652" xlink:href="#mcbcedf3baa" y="153.004479"/>
     <use style="fill:#ff0000;stroke:#000000;" x="98.27929" xlink:href="#mcbcedf3baa" y="148.656312"/>
     <use style="fill:#ff0000;stroke:#000000;" x="217.07017" xlink:href="#mcbcedf3baa" y="153.573749"/>
     <use style="fill:#ff0000;stroke:#000000;" x="218.770556" xlink:href="#mcbcedf3baa" y="155.287887"/>
     <use style="fill:#ff0000;stroke:#000000;" x="167.108765" xlink:href="#mcbcedf3baa" y="149.473072"/>
     <use style="fill:#ff0000;stroke:#000000;" x="195.118626" xlink:href="#mcbcedf3baa" y="289.953782"/>
     <use style="fill:#ff0000;stroke:#000000;" x="222.176857" xlink:href="#mcbcedf3baa" y="167.484128"/>
     <use style="fill:#ff0000;stroke:#000000;" x="220.422166" xlink:href="#mcbcedf3baa" y="163.619017"/>
     <use style="fill:#ff0000;stroke:#000000;" x="245.505151" xlink:href="#mcbcedf3baa" y="225.369989"/>
     <use style="fill:#ff0000;stroke:#000000;" x="213.763567" xlink:href="#mcbcedf3baa" y="152.724088"/>
     <use style="fill:#ff0000;stroke:#000000;" x="260.234989" xlink:href="#mcbcedf3baa" y="213.805289"/>
     <use style="fill:#ff0000;stroke:#000000;" x="280.140218" xlink:href="#mcbcedf3baa" y="155.125129"/>
     <use style="fill:#ff0000;stroke:#000000;" x="150.280499" xlink:href="#mcbcedf3baa" y="177.641105"/>
     <use style="fill:#ff0000;stroke:#000000;" x="222.995759" xlink:href="#mcbcedf3baa" y="233.508023"/>
     <use style="fill:#ff0000;stroke:#000000;" x="221.282028" xlink:href="#mcbcedf3baa" y="156.293611"/>
     <use style="fill:#ff0000;stroke:#000000;" x="156.930548" xlink:href="#mcbcedf3baa" y="160.486213"/>
     <use style="fill:#ff0000;stroke:#000000;" x="276.099195" xlink:href="#mcbcedf3baa" y="191.419357"/>
     <use style="fill:#ff0000;stroke:#000000;" x="152.035965" xlink:href="#mcbcedf3baa" y="170.376648"/>
     <use style="fill:#ff0000;stroke:#000000;" x="163.788424" xlink:href="#mcbcedf3baa" y="282.585979"/>
     <use style="fill:#ff0000;stroke:#000000;" x="177.676296" xlink:href="#mcbcedf3baa" y="285.96048"/>
     <use style="fill:#ff0000;stroke:#000000;" x="199.753837" xlink:href="#mcbcedf3baa" y="87.3374"/>
     <use style="fill:#ff0000;stroke:#000000;" x="256.231139" xlink:href="#mcbcedf3baa" y="215.760726"/>
     <use style="fill:#ff0000;stroke:#000000;" x="129.951235" xlink:href="#mcbcedf3baa" y="264.143009"/>
     <use style="fill:#ff0000;stroke:#000000;" x="151.27742" xlink:href="#mcbcedf3baa" y="176.25564"/>
     <use style="fill:#ff0000;stroke:#000000;" x="273.939997" xlink:href="#mcbcedf3baa" y="139.641748"/>
     <use style="fill:#ff0000;stroke:#000000;" x="278.763291" xlink:href="#mcbcedf3baa" y="176.828526"/>
     <use style="fill:#ff0000;stroke:#000000;" x="127.896171" xlink:href="#mcbcedf3baa" y="109.324119"/>
     <use style="fill:#ff0000;stroke:#000000;" x="182.190945" xlink:href="#mcbcedf3baa" y="142.272767"/>
     <use style="fill:#ff0000;stroke:#000000;" x="168.785596" xlink:href="#mcbcedf3baa" y="222.11983"/>
     <use style="fill:#ff0000;stroke:#000000;" x="169.273378" xlink:href="#mcbcedf3baa" y="148.623538"/>
     <use style="fill:#ff0000;stroke:#000000;" x="222.630652" xlink:href="#mcbcedf3baa" y="164.824635"/>
     <use style="fill:#ff0000;stroke:#000000;" x="159.951241" xlink:href="#mcbcedf3baa" y="211.251958"/>
     <use style="fill:#ff0000;stroke:#000000;" x="267.532047" xlink:href="#mcbcedf3baa" y="124.781339"/>
     <use style="fill:#ff0000;stroke:#000000;" x="219.504438" xlink:href="#mcbcedf3baa" y="158.620093"/>
     <use style="fill:#ff0000;stroke:#000000;" x="200.838351" xlink:href="#mcbcedf3baa" y="144.523437"/>
     <use style="fill:#ff0000;stroke:#000000;" x="256.74956" xlink:href="#mcbcedf3baa" y="114.369547"/>
     <use style="fill:#ff0000;stroke:#000000;" x="255.054099" xlink:href="#mcbcedf3baa" y="110.596512"/>
     <use style="fill:#ff0000;stroke:#000000;" x="90.82999" xlink:href="#mcbcedf3baa" y="176.434855"/>
     <use style="fill:#ff0000;stroke:#000000;" x="188.66956" xlink:href="#mcbcedf3baa" y="141.871471"/>
     <use style="fill:#ff0000;stroke:#000000;" x="167.343817" xlink:href="#mcbcedf3baa" y="150.904267"/>
     <use style="fill:#ff0000;stroke:#000000;" x="192.616782" xlink:href="#mcbcedf3baa" y="141.518916"/>
     <use style="fill:#ff0000;stroke:#000000;" x="236.401171" xlink:href="#mcbcedf3baa" y="228.399165"/>
     <use style="fill:#ff0000;stroke:#000000;" x="238.303675" xlink:href="#mcbcedf3baa" y="227.169463"/>
     <use style="fill:#ff0000;stroke:#000000;" x="98.919945" xlink:href="#mcbcedf3baa" y="216.805517"/>
     <use style="fill:#ff0000;stroke:#000000;" x="158.957281" xlink:href="#mcbcedf3baa" y="91.819888"/>
     <use style="fill:#ff0000;stroke:#000000;" x="100.365314" xlink:href="#mcbcedf3baa" y="228.561342"/>
     <use style="fill:#ff0000;stroke:#000000;" x="167.331588" xlink:href="#mcbcedf3baa" y="151.121263"/>
     <use style="fill:#ff0000;stroke:#000000;" x="204.058317" xlink:href="#mcbcedf3baa" y="144.063385"/>
     <use style="fill:#ff0000;stroke:#000000;" x="214.756841" xlink:href="#mcbcedf3baa" y="151.230179"/>
     <use style="fill:#ff0000;stroke:#000000;" x="218.492764" xlink:href="#mcbcedf3baa" y="154.93065"/>
     <use style="fill:#ff0000;stroke:#000000;" x="149.425662" xlink:href="#mcbcedf3baa" y="95.889165"/>
     <use style="fill:#ff0000;stroke:#000000;" x="181.013384" xlink:href="#mcbcedf3baa" y="143.205935"/>
     <use style="fill:#ff0000;stroke:#000000;" x="220.463884" xlink:href="#mcbcedf3baa" y="159.593273"/>
     <use style="fill:#ff0000;stroke:#000000;" x="154.504688" xlink:href="#mcbcedf3baa" y="168.44424"/>
     <use style="fill:#ff0000;stroke:#000000;" x="179.145962" xlink:href="#mcbcedf3baa" y="87.540258"/>
     <use style="fill:#ff0000;stroke:#000000;" x="188.961692" xlink:href="#mcbcedf3baa" y="230.461834"/>
     <use style="fill:#ff0000;stroke:#000000;" x="161.21892" xlink:href="#mcbcedf3baa" y="211.735937"/>
     <use style="fill:#ff0000;stroke:#000000;" x="97.857139" xlink:href="#mcbcedf3baa" y="149.26745"/>
     <use style="fill:#ff0000;stroke:#000000;" x="221.109056" xlink:href="#mcbcedf3baa" y="158.490414"/>
     <use style="fill:#ff0000;stroke:#000000;" x="199.708681" xlink:href="#mcbcedf3baa" y="141.211228"/>
     <use style="fill:#ff0000;stroke:#000000;" x="215.832107" xlink:href="#mcbcedf3baa" y="233.599791"/>
     <use style="fill:#ff0000;stroke:#000000;" x="125.728344" xlink:href="#mcbcedf3baa" y="257.589126"/>
     <use style="fill:#ff0000;stroke:#000000;" x="221.031434" xlink:href="#mcbcedf3baa" y="167.726089"/>
     <use style="fill:#ff0000;stroke:#000000;" x="154.529087" xlink:href="#mcbcedf3baa" y="167.820447"/>
     <use style="fill:#ff0000;stroke:#000000;" x="138.109546" xlink:href="#mcbcedf3baa" y="266.774759"/>
     <use style="fill:#ff0000;stroke:#000000;" x="103.501458" xlink:href="#mcbcedf3baa" y="230.285226"/>
     <use style="fill:#ff0000;stroke:#000000;" x="130.968944" xlink:href="#mcbcedf3baa" y="105.71604"/>
     <use style="fill:#ff0000;stroke:#000000;" x="146.096575" xlink:href="#mcbcedf3baa" y="96.672318"/>
     <use style="fill:#ff0000;stroke:#000000;" x="272.001296" xlink:href="#mcbcedf3baa" y="131.612207"/>
     <use style="fill:#ff0000;stroke:#000000;" x="112.578149" xlink:href="#mcbcedf3baa" y="120.97684"/>
     <use style="fill:#ff0000;stroke:#000000;" x="211.450372" xlink:href="#mcbcedf3baa" y="149.894098"/>
     <use style="fill:#ff0000;stroke:#000000;" x="277.747575" xlink:href="#mcbcedf3baa" y="176.74027"/>
     <use style="fill:#ff0000;stroke:#000000;" x="261.202062" xlink:href="#mcbcedf3baa" y="213.307157"/>
     <use style="fill:#ff0000;stroke:#000000;" x="184.969924" xlink:href="#mcbcedf3baa" y="287.444043"/>
     <use style="fill:#ff0000;stroke:#000000;" x="147.611966" xlink:href="#mcbcedf3baa" y="273.183123"/>
     <use style="fill:#ff0000;stroke:#000000;" x="210.000183" xlink:href="#mcbcedf3baa" y="146.074471"/>
     <use style="fill:#ff0000;stroke:#000000;" x="175.66983" xlink:href="#mcbcedf3baa" y="226.035178"/>
     <use style="fill:#ff0000;stroke:#000000;" x="100.103507" xlink:href="#mcbcedf3baa" y="144.25483"/>
     <use style="fill:#ff0000;stroke:#000000;" x="208.138417" xlink:href="#mcbcedf3baa" y="234.846861"/>
     <use style="fill:#ff0000;stroke:#000000;" x="101.202142" xlink:href="#mcbcedf3baa" y="141.712657"/>
     <use style="fill:#ff0000;stroke:#000000;" x="151.794165" xlink:href="#mcbcedf3baa" y="172.61133"/>
     <use style="fill:#ff0000;stroke:#000000;" x="92.555839" xlink:href="#mcbcedf3baa" y="192.425649"/>
     <use style="fill:#ff0000;stroke:#000000;" x="264.773035" xlink:href="#mcbcedf3baa" y="122.9825"/>
     <use style="fill:#ff0000;stroke:#000000;" x="97.068619" xlink:href="#mcbcedf3baa" y="149.271265"/>
     <use style="fill:#ff0000;stroke:#000000;" x="175.938063" xlink:href="#mcbcedf3baa" y="227.017412"/>
     <use style="fill:#ff0000;stroke:#000000;" x="201.543255" xlink:href="#mcbcedf3baa" y="234.271384"/>
     <use style="fill:#ff0000;stroke:#000000;" x="255.016131" xlink:href="#mcbcedf3baa" y="217.384945"/>
     <use style="fill:#ff0000;stroke:#000000;" x="196.801666" xlink:href="#mcbcedf3baa" y="141.401784"/>
     <use style="fill:#ff0000;stroke:#000000;" x="229.219421" xlink:href="#mcbcedf3baa" y="95.051178"/>
     <use style="fill:#ff0000;stroke:#000000;" x="218.282905" xlink:href="#mcbcedf3baa" y="158.420373"/>
     <use style="fill:#ff0000;stroke:#000000;" x="221.678531" xlink:href="#mcbcedf3baa" y="162.592691"/>
     <use style="fill:#ff0000;stroke:#000000;" x="246.654927" xlink:href="#mcbcedf3baa" y="224.487522"/>
     <use style="fill:#ff0000;stroke:#000000;" x="195.95693" xlink:href="#mcbcedf3baa" y="233.621325"/>
     <use style="fill:#ff0000;stroke:#000000;" x="90.092983" xlink:href="#mcbcedf3baa" y="179.828941"/>
     <use style="fill:#ff0000;stroke:#000000;" x="190.038557" xlink:href="#mcbcedf3baa" y="142.096175"/>
     <use style="fill:#ff0000;stroke:#000000;" x="150.08256" xlink:href="#mcbcedf3baa" y="184.755015"/>
     <use style="fill:#ff0000;stroke:#000000;" x="139.002973" xlink:href="#mcbcedf3baa" y="102.660948"/>
     <use style="fill:#ff0000;stroke:#000000;" x="185.317756" xlink:href="#mcbcedf3baa" y="228.694037"/>
     <use style="fill:#ff0000;stroke:#000000;" x="220.535482" xlink:href="#mcbcedf3baa" y="159.357085"/>
     <use style="fill:#ff0000;stroke:#000000;" x="163.720297" xlink:href="#mcbcedf3baa" y="213.68365"/>
     <use style="fill:#ff0000;stroke:#000000;" x="183.074574" xlink:href="#mcbcedf3baa" y="228.65874"/>
     <use style="fill:#ff0000;stroke:#000000;" x="214.540261" xlink:href="#mcbcedf3baa" y="151.698643"/>
     <use style="fill:#ff0000;stroke:#000000;" x="177.151209" xlink:href="#mcbcedf3baa" y="225.967012"/>
     <use style="fill:#ff0000;stroke:#000000;" x="127.984993" xlink:href="#mcbcedf3baa" y="107.169842"/>
     <use style="fill:#ff0000;stroke:#000000;" x="151.035474" xlink:href="#mcbcedf3baa" y="184.70187"/>
     <use style="fill:#ff0000;stroke:#000000;" x="201.150248" xlink:href="#mcbcedf3baa" y="234.285744"/>
     <use style="fill:#ff0000;stroke:#000000;" x="212.065332" xlink:href="#mcbcedf3baa" y="147.390462"/>
     <use style="fill:#ff0000;stroke:#000000;" x="162.956399" xlink:href="#mcbcedf3baa" y="90.050209"/>
     <use style="fill:#ff0000;stroke:#000000;" x="163.008573" xlink:href="#mcbcedf3baa" y="153.213009"/>
     <use style="fill:#ff0000;stroke:#000000;" x="180.723794" xlink:href="#mcbcedf3baa" y="88.370936"/>
     <use style="fill:#ff0000;stroke:#000000;" x="121.272014" xlink:href="#mcbcedf3baa" y="253.511127"/>
     <use style="fill:#ff0000;stroke:#000000;" x="106.667972" xlink:href="#mcbcedf3baa" y="129.0703"/>
     <use style="fill:#ff0000;stroke:#000000;" x="158.076764" xlink:href="#mcbcedf3baa" y="159.054251"/>
     <use style="fill:#ff0000;stroke:#000000;" x="146.188426" xlink:href="#mcbcedf3baa" y="97.275673"/>
     <use style="fill:#ff0000;stroke:#000000;" x="201.904101" xlink:href="#mcbcedf3baa" y="140.841358"/>
     <use style="fill:#ff0000;stroke:#000000;" x="100.751228" xlink:href="#mcbcedf3baa" y="229.401638"/>
     <use style="fill:#ff0000;stroke:#000000;" x="203.463492" xlink:href="#mcbcedf3baa" y="144.005867"/>
     <use style="fill:#ff0000;stroke:#000000;" x="180.327212" xlink:href="#mcbcedf3baa" y="144.275534"/>
     <use style="fill:#ff0000;stroke:#000000;" x="235.933658" xlink:href="#mcbcedf3baa" y="230.183501"/>
     <use style="fill:#ff0000;stroke:#000000;" x="230.116587" xlink:href="#mcbcedf3baa" y="233.551052"/>
     <use style="fill:#ff0000;stroke:#000000;" x="155.021042" xlink:href="#mcbcedf3baa" y="166.936145"/>
     <use style="fill:#ff0000;stroke:#000000;" x="167.609232" xlink:href="#mcbcedf3baa" y="149.681473"/>
     <use style="fill:#ff0000;stroke:#000000;" x="221.031929" xlink:href="#mcbcedf3baa" y="168.272122"/>
     <use style="fill:#ff0000;stroke:#000000;" x="224.423375" xlink:href="#mcbcedf3baa" y="91.480756"/>
     <use style="fill:#ff0000;stroke:#000000;" x="168.194574" xlink:href="#mcbcedf3baa" y="218.435763"/>
     <use style="fill:#ff0000;stroke:#000000;" x="208.806751" xlink:href="#mcbcedf3baa" y="146.180935"/>
     <use style="fill:#ff0000;stroke:#000000;" x="221.243452" xlink:href="#mcbcedf3baa" y="166.927716"/>
     <use style="fill:#ff0000;stroke:#000000;" x="151.554363" xlink:href="#mcbcedf3baa" y="193.946292"/>
     <use style="fill:#ff0000;stroke:#000000;" x="136.156378" xlink:href="#mcbcedf3baa" y="102.705656"/>
     <use style="fill:#ff0000;stroke:#000000;" x="220.659497" xlink:href="#mcbcedf3baa" y="162.783204"/>
     <use style="fill:#ff0000;stroke:#000000;" x="105.214656" xlink:href="#mcbcedf3baa" y="137.186479"/>
     <use style="fill:#ff0000;stroke:#000000;" x="220.938986" xlink:href="#mcbcedf3baa" y="160.15232"/>
     <use style="fill:#ff0000;stroke:#000000;" x="177.441417" xlink:href="#mcbcedf3baa" y="226.660439"/>
     <use style="fill:#ff0000;stroke:#000000;" x="214.34527" xlink:href="#mcbcedf3baa" y="234.390304"/>
     <use style="fill:#ff0000;stroke:#000000;" x="210.596416" xlink:href="#mcbcedf3baa" y="147.141961"/>
     <use style="fill:#ff0000;stroke:#000000;" x="152.672892" xlink:href="#mcbcedf3baa" y="196.554549"/>
     <use style="fill:#ff0000;stroke:#000000;" x="150.906582" xlink:href="#mcbcedf3baa" y="197.9556"/>
     <use style="fill:#ff0000;stroke:#000000;" x="213.263541" xlink:href="#mcbcedf3baa" y="234.347228"/>
     <use style="fill:#ff0000;stroke:#000000;" x="229.502235" xlink:href="#mcbcedf3baa" y="231.103985"/>
     <use style="fill:#ff0000;stroke:#000000;" x="169.497863" xlink:href="#mcbcedf3baa" y="147.027663"/>
     <use style="fill:#ff0000;stroke:#000000;" x="164.177687" xlink:href="#mcbcedf3baa" y="282.161026"/>
     <use style="fill:#ff0000;stroke:#000000;" x="172.541152" xlink:href="#mcbcedf3baa" y="222.050843"/>
     <use style="fill:#ff0000;stroke:#000000;" x="167.745374" xlink:href="#mcbcedf3baa" y="148.842683"/>
     <use style="fill:#ff0000;stroke:#000000;" x="232.798992" xlink:href="#mcbcedf3baa" y="94.911724"/>
     <use style="fill:#ff0000;stroke:#000000;" x="181.712439" xlink:href="#mcbcedf3baa" y="142.493026"/>
     <use style="fill:#ff0000;stroke:#000000;" x="165.206408" xlink:href="#mcbcedf3baa" y="88.381519"/>
     <use style="fill:#ff0000;stroke:#000000;" x="260.583798" xlink:href="#mcbcedf3baa" y="116.368939"/>
     <use style="fill:#ff0000;stroke:#000000;" x="152.152373" xlink:href="#mcbcedf3baa" y="197.934682"/>
     <use style="fill:#ff0000;stroke:#000000;" x="175.693945" xlink:href="#mcbcedf3baa" y="284.584555"/>
     <use style="fill:#ff0000;stroke:#000000;" x="175.641637" xlink:href="#mcbcedf3baa" y="144.895169"/>
     <use style="fill:#ff0000;stroke:#000000;" x="208.954129" xlink:href="#mcbcedf3baa" y="85.309994"/>
     <use style="fill:#ff0000;stroke:#000000;" x="233.053203" xlink:href="#mcbcedf3baa" y="94.315526"/>
     <use style="fill:#ff0000;stroke:#000000;" x="262.706673" xlink:href="#mcbcedf3baa" y="212.95057"/>
     <use style="fill:#ff0000;stroke:#000000;" x="249.768102" xlink:href="#mcbcedf3baa" y="222.998799"/>
     <use style="fill:#ff0000;stroke:#000000;" x="150.970474" xlink:href="#mcbcedf3baa" y="177.618331"/>
     <use style="fill:#ff0000;stroke:#000000;" x="260.930237" xlink:href="#mcbcedf3baa" y="211.71706"/>
     <use style="fill:#ff0000;stroke:#000000;" x="259.748465" xlink:href="#mcbcedf3baa" y="216.221691"/>
     <use style="fill:#ff0000;stroke:#000000;" x="170.868465" xlink:href="#mcbcedf3baa" y="220.890212"/>
     <use style="fill:#ff0000;stroke:#000000;" x="210.808965" xlink:href="#mcbcedf3baa" y="88.540379"/>
     <use style="fill:#ff0000;stroke:#000000;" x="122.116361" xlink:href="#mcbcedf3baa" y="113.970687"/>
     <use style="fill:#ff0000;stroke:#000000;" x="131.809218" xlink:href="#mcbcedf3baa" y="106.203221"/>
     <use style="fill:#ff0000;stroke:#000000;" x="174.38252" xlink:href="#mcbcedf3baa" y="145.90081"/>
     <use style="fill:#ff0000;stroke:#000000;" x="174.606738" xlink:href="#mcbcedf3baa" y="144.64571"/>
     <use style="fill:#ff0000;stroke:#000000;" x="267.760982" xlink:href="#mcbcedf3baa" y="202.274544"/>
     <use style="fill:#ff0000;stroke:#000000;" x="92.142616" xlink:href="#mcbcedf3baa" y="172.476942"/>
     <use style="fill:#ff0000;stroke:#000000;" x="220.429254" xlink:href="#mcbcedf3baa" y="160.810103"/>
     <use style="fill:#ff0000;stroke:#000000;" x="221.79729" xlink:href="#mcbcedf3baa" y="168.588444"/>
     <use style="fill:#ff0000;stroke:#000000;" x="157.431645" xlink:href="#mcbcedf3baa" y="203.890299"/>
     <use style="fill:#ff0000;stroke:#000000;" x="197.710139" xlink:href="#mcbcedf3baa" y="233.991105"/>
     <use style="fill:#ff0000;stroke:#000000;" x="180.420203" xlink:href="#mcbcedf3baa" y="288.387342"/>
     <use style="fill:#ff0000;stroke:#000000;" x="234.370649" xlink:href="#mcbcedf3baa" y="229.724376"/>
     <use style="fill:#ff0000;stroke:#000000;" x="165.874006" xlink:href="#mcbcedf3baa" y="150.609203"/>
     <use style="fill:#ff0000;stroke:#000000;" x="108.615659" xlink:href="#mcbcedf3baa" y="237.300447"/>
     <use style="fill:#ff0000;stroke:#000000;" x="149.740913" xlink:href="#mcbcedf3baa" y="178.468011"/>
     <use style="fill:#ff0000;stroke:#000000;" x="220.508059" xlink:href="#mcbcedf3baa" y="165.872575"/>
     <use style="fill:#ff0000;stroke:#000000;" x="152.318248" xlink:href="#mcbcedf3baa" y="196.943585"/>
     <use style="fill:#ff0000;stroke:#000000;" x="155.77812" xlink:href="#mcbcedf3baa" y="203.867065"/>
     <use style="fill:#ff0000;stroke:#000000;" x="222.587456" xlink:href="#mcbcedf3baa" y="92.720001"/>
     <use style="fill:#ff0000;stroke:#000000;" x="98.351256" xlink:href="#mcbcedf3baa" y="216.099693"/>
     <use style="fill:#ff0000;stroke:#000000;" x="141.984999" xlink:href="#mcbcedf3baa" y="100.470976"/>
     <use style="fill:#ff0000;stroke:#000000;" x="164.708572" xlink:href="#mcbcedf3baa" y="151.91337"/>
    </g>
   </g>
   <g id="line2d_16">
    <defs>
     <path d="M 0 3 
C 0.795609 3 1.55874 2.683901 2.12132 2.12132 
C 2.683901 1.55874 3 0.795609 3 0 
C 3 -0.795609 2.683901 -1.55874 2.12132 -2.12132 
C 1.55874 -2.683901 0.795609 -3 0 -3 
C -0.795609 -3 -1.55874 -2.683901 -2.12132 -2.12132 
C -2.683901 -1.55874 -3 -0.795609 -3 0 
C -3 0.795609 -2.683901 1.55874 -2.12132 2.12132 
C -1.55874 2.683901 -0.795609 3 0 3 
z
" id="m132fd59039" style="stroke:#000000;"/>
    </defs>
    <g clip-path="url(#pbfa8844079)">
     <use style="fill:#0000ff;stroke:#000000;" x="226.51741" xlink:href="#m132fd59039" y="124.197221"/>
     <use style="fill:#0000ff;stroke:#000000;" x="293.539583" xlink:href="#m132fd59039" y="217.30867"/>
     <use style="fill:#0000ff;stroke:#000000;" x="180.079004" xlink:href="#m132fd59039" y="184.660385"/>
     <use style="fill:#0000ff;stroke:#000000;" x="180.932643" xlink:href="#m132fd59039" y="182.853475"/>
     <use style="fill:#0000ff;stroke:#000000;" x="299.813487" xlink:href="#m132fd59039" y="206.242172"/>
     <use style="fill:#0000ff;stroke:#000000;" x="171.328442" xlink:href="#m132fd59039" y="116.387563"/>
     <use style="fill:#0000ff;stroke:#000000;" x="206.380875" xlink:href="#m132fd59039" y="59.582893"/>
     <use style="fill:#0000ff;stroke:#000000;" x="296.048385" xlink:href="#m132fd59039" y="215.640551"/>
     <use style="fill:#0000ff;stroke:#000000;" x="280.981913" xlink:href="#m132fd59039" y="96.488832"/>
     <use style="fill:#0000ff;stroke:#000000;" x="179.728545" xlink:href="#m132fd59039" y="180.681141"/>
     <use style="fill:#0000ff;stroke:#000000;" x="178.095166" xlink:href="#m132fd59039" y="188.886845"/>
     <use style="fill:#0000ff;stroke:#000000;" x="127.354882" xlink:href="#m132fd59039" y="211.840695"/>
     <use style="fill:#0000ff;stroke:#000000;" x="199.539815" xlink:href="#m132fd59039" y="204.945808"/>
     <use style="fill:#0000ff;stroke:#000000;" x="301.650318" xlink:href="#m132fd59039" y="203.846049"/>
     <use style="fill:#0000ff;stroke:#000000;" x="181.089183" xlink:href="#m132fd59039" y="186.422874"/>
     <use style="fill:#0000ff;stroke:#000000;" x="178.557162" xlink:href="#m132fd59039" y="184.826572"/>
     <use style="fill:#0000ff;stroke:#000000;" x="248.202442" xlink:href="#m132fd59039" y="155.795526"/>
     <use style="fill:#0000ff;stroke:#000000;" x="309.676972" xlink:href="#m132fd59039" y="169.397321"/>
     <use style="fill:#0000ff;stroke:#000000;" x="151.008968" xlink:href="#m132fd59039" y="242.422273"/>
     <use style="fill:#0000ff;stroke:#000000;" x="304.615929" xlink:href="#m132fd59039" y="133.815358"/>
     <use style="fill:#0000ff;stroke:#000000;" x="185.176353" xlink:href="#m132fd59039" y="200.194979"/>
     <use style="fill:#0000ff;stroke:#000000;" x="245.130563" xlink:href="#m132fd59039" y="185.782388"/>
     <use style="fill:#0000ff;stroke:#000000;" x="216.785563" xlink:href="#m132fd59039" y="206.69068"/>
     <use style="fill:#0000ff;stroke:#000000;" x="291.642211" xlink:href="#m132fd59039" y="110.904852"/>
     <use style="fill:#0000ff;stroke:#000000;" x="172.856735" xlink:href="#m132fd59039" y="255.731375"/>
     <use style="fill:#0000ff;stroke:#000000;" x="246.328374" xlink:href="#m132fd59039" y="70.196435"/>
     <use style="fill:#0000ff;stroke:#000000;" x="191.852002" xlink:href="#m132fd59039" y="114.018881"/>
     <use style="fill:#0000ff;stroke:#000000;" x="127.002172" xlink:href="#m132fd59039" y="207.759913"/>
     <use style="fill:#0000ff;stroke:#000000;" x="191.328803" xlink:href="#m132fd59039" y="200.949469"/>
     <use style="fill:#0000ff;stroke:#000000;" x="230.245711" xlink:href="#m132fd59039" y="128.596058"/>
     <use style="fill:#0000ff;stroke:#000000;" x="236.100558" xlink:href="#m132fd59039" y="133.657716"/>
     <use style="fill:#0000ff;stroke:#000000;" x="239.923821" xlink:href="#m132fd59039" y="136.297164"/>
     <use style="fill:#0000ff;stroke:#000000;" x="229.525415" xlink:href="#m132fd59039" y="63.507201"/>
     <use style="fill:#0000ff;stroke:#000000;" x="198.531122" xlink:href="#m132fd59039" y="115.49747"/>
     <use style="fill:#0000ff;stroke:#000000;" x="242.694985" xlink:href="#m132fd59039" y="142.577134"/>
     <use style="fill:#0000ff;stroke:#000000;" x="170.220391" xlink:href="#m132fd59039" y="254.57126"/>
     <use style="fill:#0000ff;stroke:#000000;" x="246.53291" xlink:href="#m132fd59039" y="72.563607"/>
     <use style="fill:#0000ff;stroke:#000000;" x="155.014557" xlink:href="#m132fd59039" y="125.372927"/>
     <use style="fill:#0000ff;stroke:#000000;" x="306.528314" xlink:href="#m132fd59039" y="138.763346"/>
     <use style="fill:#0000ff;stroke:#000000;" x="188.180266" xlink:href="#m132fd59039" y="200.678542"/>
     <use style="fill:#0000ff;stroke:#000000;" x="293.852886" xlink:href="#m132fd59039" y="112.890387"/>
     <use style="fill:#0000ff;stroke:#000000;" x="192.41147" xlink:href="#m132fd59039" y="260.443639"/>
     <use style="fill:#0000ff;stroke:#000000;" x="246.153536" xlink:href="#m132fd59039" y="144.005235"/>
     <use style="fill:#0000ff;stroke:#000000;" x="128.851155" xlink:href="#m132fd59039" y="150.370474"/>
     <use style="fill:#0000ff;stroke:#000000;" x="182.641629" xlink:href="#m132fd59039" y="192.286425"/>
     <use style="fill:#0000ff;stroke:#000000;" x="273.820827" xlink:href="#m132fd59039" y="239.903904"/>
     <use style="fill:#0000ff;stroke:#000000;" x="200.184086" xlink:href="#m132fd59039" y="60.145322"/>
     <use style="fill:#0000ff;stroke:#000000;" x="233.728529" xlink:href="#m132fd59039" y="259.075404"/>
     <use style="fill:#0000ff;stroke:#000000;" x="132.079509" xlink:href="#m132fd59039" y="144.395862"/>
     <use style="fill:#0000ff;stroke:#000000;" x="307.692676" xlink:href="#m132fd59039" y="181.771236"/>
     <use style="fill:#0000ff;stroke:#000000;" x="300.295833" xlink:href="#m132fd59039" y="124.528261"/>
     <use style="fill:#0000ff;stroke:#000000;" x="205.799037" xlink:href="#m132fd59039" y="207.387056"/>
     <use style="fill:#0000ff;stroke:#000000;" x="155.304542" xlink:href="#m132fd59039" y="123.088768"/>
     <use style="fill:#0000ff;stroke:#000000;" x="182.933379" xlink:href="#m132fd59039" y="197.268471"/>
     <use style="fill:#0000ff;stroke:#000000;" x="142.166671" xlink:href="#m132fd59039" y="135.230971"/>
     <use style="fill:#0000ff;stroke:#000000;" x="167.585905" xlink:href="#m132fd59039" y="118.619451"/>
     <use style="fill:#0000ff;stroke:#000000;" x="190.33664" xlink:href="#m132fd59039" y="202.444704"/>
     <use style="fill:#0000ff;stroke:#000000;" x="231.904462" xlink:href="#m132fd59039" y="125.916529"/>
     <use style="fill:#0000ff;stroke:#000000;" x="249.314446" xlink:href="#m132fd59039" y="157.78262"/>
     <use style="fill:#0000ff;stroke:#000000;" x="190.086346" xlink:href="#m132fd59039" y="200.740592"/>
     <use style="fill:#0000ff;stroke:#000000;" x="179.948718" xlink:href="#m132fd59039" y="181.21455"/>
     <use style="fill:#0000ff;stroke:#000000;" x="242.531835" xlink:href="#m132fd59039" y="188.341611"/>
     <use style="fill:#0000ff;stroke:#000000;" x="121.798036" xlink:href="#m132fd59039" y="195.626441"/>
     <use style="fill:#0000ff;stroke:#000000;" x="165.440007" xlink:href="#m132fd59039" y="119.308285"/>
     <use style="fill:#0000ff;stroke:#000000;" x="286.690269" xlink:href="#m132fd59039" y="226.586326"/>
     <use style="fill:#0000ff;stroke:#000000;" x="182.549596" xlink:href="#m132fd59039" y="194.628532"/>
     <use style="fill:#0000ff;stroke:#000000;" x="181.567366" xlink:href="#m132fd59039" y="191.768347"/>
     <use style="fill:#0000ff;stroke:#000000;" x="234.050087" xlink:href="#m132fd59039" y="199.193043"/>
     <use style="fill:#0000ff;stroke:#000000;" x="236.427906" xlink:href="#m132fd59039" y="194.797355"/>
     <use style="fill:#0000ff;stroke:#000000;" x="209.314844" xlink:href="#m132fd59039" y="262.129562"/>
     <use style="fill:#0000ff;stroke:#000000;" x="182.760608" xlink:href="#m132fd59039" y="115.193035"/>
     <use style="fill:#0000ff;stroke:#000000;" x="126.924511" xlink:href="#m132fd59039" y="213.05927"/>
     <use style="fill:#0000ff;stroke:#000000;" x="179.087791" xlink:href="#m132fd59039" y="257.830314"/>
     <use style="fill:#0000ff;stroke:#000000;" x="180.901809" xlink:href="#m132fd59039" y="191.772271"/>
     <use style="fill:#0000ff;stroke:#000000;" x="129.106706" xlink:href="#m132fd59039" y="148.447659"/>
     <use style="fill:#0000ff;stroke:#000000;" x="122.088952" xlink:href="#m132fd59039" y="191.78914"/>
     <use style="fill:#0000ff;stroke:#000000;" x="290.691213" xlink:href="#m132fd59039" y="221.0428"/>
     <use style="fill:#0000ff;stroke:#000000;" x="220.861212" xlink:href="#m132fd59039" y="204.952995"/>
     <use style="fill:#0000ff;stroke:#000000;" x="142.4254" xlink:href="#m132fd59039" y="235.416539"/>
     <use style="fill:#0000ff;stroke:#000000;" x="239.203143" xlink:href="#m132fd59039" y="136.350074"/>
     <use style="fill:#0000ff;stroke:#000000;" x="126.29494" xlink:href="#m132fd59039" y="207.382788"/>
     <use style="fill:#0000ff;stroke:#000000;" x="132.653611" xlink:href="#m132fd59039" y="146.987546"/>
     <use style="fill:#0000ff;stroke:#000000;" x="189.109426" xlink:href="#m132fd59039" y="200.045655"/>
     <use style="fill:#0000ff;stroke:#000000;" x="235.466512" xlink:href="#m132fd59039" y="134.948318"/>
     <use style="fill:#0000ff;stroke:#000000;" x="125.317995" xlink:href="#m132fd59039" y="205.239401"/>
     <use style="fill:#0000ff;stroke:#000000;" x="242.877134" xlink:href="#m132fd59039" y="189.789079"/>
     <use style="fill:#0000ff;stroke:#000000;" x="223.694667" xlink:href="#m132fd59039" y="203.14768"/>
     <use style="fill:#0000ff;stroke:#000000;" x="120.188664" xlink:href="#m132fd59039" y="177.011218"/>
     <use style="fill:#0000ff;stroke:#000000;" x="125.685364" xlink:href="#m132fd59039" y="209.225521"/>
     <use style="fill:#0000ff;stroke:#000000;" x="243.08786" xlink:href="#m132fd59039" y="140.093112"/>
     <use style="fill:#0000ff;stroke:#000000;" x="212.998006" xlink:href="#m132fd59039" y="262.545412"/>
     <use style="fill:#0000ff;stroke:#000000;" x="299.520519" xlink:href="#m132fd59039" y="207.227034"/>
     <use style="fill:#0000ff;stroke:#000000;" x="134.108257" xlink:href="#m132fd59039" y="226.650685"/>
     <use style="fill:#0000ff;stroke:#000000;" x="224.146882" xlink:href="#m132fd59039" y="204.848732"/>
     <use style="fill:#0000ff;stroke:#000000;" x="309.706816" xlink:href="#m132fd59039" y="149.562722"/>
     <use style="fill:#0000ff;stroke:#000000;" x="198.909474" xlink:href="#m132fd59039" y="114.799593"/>
     <use style="fill:#0000ff;stroke:#000000;" x="215.664245" xlink:href="#m132fd59039" y="120.478737"/>
     <use style="fill:#0000ff;stroke:#000000;" x="289.298883" xlink:href="#m132fd59039" y="103.649293"/>
     <use style="fill:#0000ff;stroke:#000000;" x="248.391948" xlink:href="#m132fd59039" y="184.690497"/>
     <use style="fill:#0000ff;stroke:#000000;" x="304.376263" xlink:href="#m132fd59039" y="134.526973"/>
     <use style="fill:#0000ff;stroke:#000000;" x="242.415907" xlink:href="#m132fd59039" y="137.639822"/>
     <use style="fill:#0000ff;stroke:#000000;" x="160.17756" xlink:href="#m132fd59039" y="121.368936"/>
     <use style="fill:#0000ff;stroke:#000000;" x="144.25972" xlink:href="#m132fd59039" y="237.672312"/>
     <use style="fill:#0000ff;stroke:#000000;" x="224.083825" xlink:href="#m132fd59039" y="204.819711"/>
     <use style="fill:#0000ff;stroke:#000000;" x="182.016517" xlink:href="#m132fd59039" y="115.535834"/>
     <use style="fill:#0000ff;stroke:#000000;" x="188.680668" xlink:href="#m132fd59039" y="115.465933"/>
     <use style="fill:#0000ff;stroke:#000000;" x="285.404499" xlink:href="#m132fd59039" y="99.620139"/>
     <use style="fill:#0000ff;stroke:#000000;" x="249.191257" xlink:href="#m132fd59039" y="172.555736"/>
     <use style="fill:#0000ff;stroke:#000000;" x="120.525753" xlink:href="#m132fd59039" y="175.713807"/>
     <use style="fill:#0000ff;stroke:#000000;" x="152.370778" xlink:href="#m132fd59039" y="245.126724"/>
     <use style="fill:#0000ff;stroke:#000000;" x="162.01516" xlink:href="#m132fd59039" y="118.482932"/>
     <use style="fill:#0000ff;stroke:#000000;" x="134.142179" xlink:href="#m132fd59039" y="143.00191"/>
     <use style="fill:#0000ff;stroke:#000000;" x="121.399907" xlink:href="#m132fd59039" y="175.970889"/>
     <use style="fill:#0000ff;stroke:#000000;" x="244.547637" xlink:href="#m132fd59039" y="181.939178"/>
     <use style="fill:#0000ff;stroke:#000000;" x="228.257663" xlink:href="#m132fd59039" y="200.928819"/>
     <use style="fill:#0000ff;stroke:#000000;" x="141.370967" xlink:href="#m132fd59039" y="133.863776"/>
     <use style="fill:#0000ff;stroke:#000000;" x="201.457087" xlink:href="#m132fd59039" y="208.114006"/>
     <use style="fill:#0000ff;stroke:#000000;" x="224.460402" xlink:href="#m132fd59039" y="64.517744"/>
     <use style="fill:#0000ff;stroke:#000000;" x="289.581906" xlink:href="#m132fd59039" y="223.528155"/>
     <use style="fill:#0000ff;stroke:#000000;" x="300.265944" xlink:href="#m132fd59039" y="205.432945"/>
     <use style="fill:#0000ff;stroke:#000000;" x="152.58847" xlink:href="#m132fd59039" y="127.412925"/>
     <use style="fill:#0000ff;stroke:#000000;" x="163.030211" xlink:href="#m132fd59039" y="120.919632"/>
     <use style="fill:#0000ff;stroke:#000000;" x="198.496081" xlink:href="#m132fd59039" y="206.793624"/>
     <use style="fill:#0000ff;stroke:#000000;" x="233.722776" xlink:href="#m132fd59039" y="197.470674"/>
     <use style="fill:#0000ff;stroke:#000000;" x="159.282663" xlink:href="#m132fd59039" y="121.098487"/>
     <use style="fill:#0000ff;stroke:#000000;" x="161.74155" xlink:href="#m132fd59039" y="119.904601"/>
     <use style="fill:#0000ff;stroke:#000000;" x="307.332618" xlink:href="#m132fd59039" y="182.13931"/>
     <use style="fill:#0000ff;stroke:#000000;" x="148.074728" xlink:href="#m132fd59039" y="127.925137"/>
     <use style="fill:#0000ff;stroke:#000000;" x="175.648281" xlink:href="#m132fd59039" y="117.098785"/>
     <use style="fill:#0000ff;stroke:#000000;" x="146.13902" xlink:href="#m132fd59039" y="130.309778"/>
     <use style="fill:#0000ff;stroke:#000000;" x="214.066823" xlink:href="#m132fd59039" y="208.013501"/>
     <use style="fill:#0000ff;stroke:#000000;" x="240.679223" xlink:href="#m132fd59039" y="191.976945"/>
     <use style="fill:#0000ff;stroke:#000000;" x="308.931229" xlink:href="#m132fd59039" y="178.896256"/>
     <use style="fill:#0000ff;stroke:#000000;" x="214.454609" xlink:href="#m132fd59039" y="205.725038"/>
     <use style="fill:#0000ff;stroke:#000000;" x="178.840454" xlink:href="#m132fd59039" y="185.943712"/>
     <use style="fill:#0000ff;stroke:#000000;" x="207.490411" xlink:href="#m132fd59039" y="206.885417"/>
     <use style="fill:#0000ff;stroke:#000000;" x="245.735903" xlink:href="#m132fd59039" y="186.038932"/>
     <use style="fill:#0000ff;stroke:#000000;" x="288.02204" xlink:href="#m132fd59039" y="227.500291"/>
     <use style="fill:#0000ff;stroke:#000000;" x="203.983163" xlink:href="#m132fd59039" y="113.44178"/>
     <use style="fill:#0000ff;stroke:#000000;" x="207.162811" xlink:href="#m132fd59039" y="115.753564"/>
     <use style="fill:#0000ff;stroke:#000000;" x="185.596284" xlink:href="#m132fd59039" y="259.323368"/>
     <use style="fill:#0000ff;stroke:#000000;" x="154.924446" xlink:href="#m132fd59039" y="246.536072"/>
     <use style="fill:#0000ff;stroke:#000000;" x="242.946557" xlink:href="#m132fd59039" y="188.816978"/>
     <use style="fill:#0000ff;stroke:#000000;" x="234.008008" xlink:href="#m132fd59039" y="259.196815"/>
     <use style="fill:#0000ff;stroke:#000000;" x="202.873948" xlink:href="#m132fd59039" y="58.765531"/>
     <use style="fill:#0000ff;stroke:#000000;" x="200.73895" xlink:href="#m132fd59039" y="203.849672"/>
     <use style="fill:#0000ff;stroke:#000000;" x="143.443686" xlink:href="#m132fd59039" y="132.614951"/>
     <use style="fill:#0000ff;stroke:#000000;" x="223.470763" xlink:href="#m132fd59039" y="63.131566"/>
     <use style="fill:#0000ff;stroke:#000000;" x="226.362763" xlink:href="#m132fd59039" y="202.709126"/>
     <use style="fill:#0000ff;stroke:#000000;" x="121.533504" xlink:href="#m132fd59039" y="199.642669"/>
     <use style="fill:#0000ff;stroke:#000000;" x="309.761045" xlink:href="#m132fd59039" y="176.935752"/>
     <use style="fill:#0000ff;stroke:#000000;" x="227.448695" xlink:href="#m132fd59039" y="206.809991"/>
     <use style="fill:#0000ff;stroke:#000000;" x="248.109233" xlink:href="#m132fd59039" y="150.769637"/>
     <use style="fill:#0000ff;stroke:#000000;" x="228.218656" xlink:href="#m132fd59039" y="203.346054"/>
     <use style="fill:#0000ff;stroke:#000000;" x="135.220861" xlink:href="#m132fd59039" y="225.26982"/>
     <use style="fill:#0000ff;stroke:#000000;" x="243.255128" xlink:href="#m132fd59039" y="143.904385"/>
     <use style="fill:#0000ff;stroke:#000000;" x="216.981505" xlink:href="#m132fd59039" y="208.02689"/>
     <use style="fill:#0000ff;stroke:#000000;" x="235.477236" xlink:href="#m132fd59039" y="196.849406"/>
     <use style="fill:#0000ff;stroke:#000000;" x="184.017558" xlink:href="#m132fd59039" y="190.489022"/>
     <use style="fill:#0000ff;stroke:#000000;" x="249.703198" xlink:href="#m132fd59039" y="178.524371"/>
     <use style="fill:#0000ff;stroke:#000000;" x="131.596676" xlink:href="#m132fd59039" y="222.209192"/>
     <use style="fill:#0000ff;stroke:#000000;" x="140.427144" xlink:href="#m132fd59039" y="233.270739"/>
     <use style="fill:#0000ff;stroke:#000000;" x="292.25414" xlink:href="#m132fd59039" y="222.419596"/>
     <use style="fill:#0000ff;stroke:#000000;" x="161.51677" xlink:href="#m132fd59039" y="120.870119"/>
     <use style="fill:#0000ff;stroke:#000000;" x="212.970863" xlink:href="#m132fd59039" y="118.051266"/>
     <use style="fill:#0000ff;stroke:#000000;" x="131.314929" xlink:href="#m132fd59039" y="222.179808"/>
     <use style="fill:#0000ff;stroke:#000000;" x="196.470973" xlink:href="#m132fd59039" y="203.672214"/>
     <use style="fill:#0000ff;stroke:#000000;" x="131.618128" xlink:href="#m132fd59039" y="221.297307"/>
     <use style="fill:#0000ff;stroke:#000000;" x="187.650473" xlink:href="#m132fd59039" y="198.637618"/>
     <use style="fill:#0000ff;stroke:#000000;" x="124.737041" xlink:href="#m132fd59039" y="165.205193"/>
     <use style="fill:#0000ff;stroke:#000000;" x="306.693861" xlink:href="#m132fd59039" y="145.999862"/>
     <use style="fill:#0000ff;stroke:#000000;" x="226.387455" xlink:href="#m132fd59039" y="203.784198"/>
     <use style="fill:#0000ff;stroke:#000000;" x="308.099078" xlink:href="#m132fd59039" y="180.643274"/>
     <use style="fill:#0000ff;stroke:#000000;" x="199.12135" xlink:href="#m132fd59039" y="205.151617"/>
     <use style="fill:#0000ff;stroke:#000000;" x="211.223285" xlink:href="#m132fd59039" y="118.831306"/>
     <use style="fill:#0000ff;stroke:#000000;" x="247.46395" xlink:href="#m132fd59039" y="184.656431"/>
     <use style="fill:#0000ff;stroke:#000000;" x="239.598934" xlink:href="#m132fd59039" y="191.515573"/>
     <use style="fill:#0000ff;stroke:#000000;" x="231.67255" xlink:href="#m132fd59039" y="202.04411"/>
     <use style="fill:#0000ff;stroke:#000000;" x="227.7253" xlink:href="#m132fd59039" y="202.791599"/>
     <use style="fill:#0000ff;stroke:#000000;" x="195.635605" xlink:href="#m132fd59039" y="260.559839"/>
     <use style="fill:#0000ff;stroke:#000000;" x="285.755774" xlink:href="#m132fd59039" y="100.241868"/>
     <use style="fill:#0000ff;stroke:#000000;" x="186.633288" xlink:href="#m132fd59039" y="197.154871"/>
     <use style="fill:#0000ff;stroke:#000000;" x="139.083135" xlink:href="#m132fd59039" y="137.866638"/>
     <use style="fill:#0000ff;stroke:#000000;" x="121.414947" xlink:href="#m132fd59039" y="171.822356"/>
     <use style="fill:#0000ff;stroke:#000000;" x="182.12863" xlink:href="#m132fd59039" y="190.934299"/>
     <use style="fill:#0000ff;stroke:#000000;" x="202.718987" xlink:href="#m132fd59039" y="206.692499"/>
     <use style="fill:#0000ff;stroke:#000000;" x="178.655167" xlink:href="#m132fd59039" y="181.38414"/>
     <use style="fill:#0000ff;stroke:#000000;" x="303.841831" xlink:href="#m132fd59039" y="198.99016"/>
     <use style="fill:#0000ff;stroke:#000000;" x="179.931521" xlink:href="#m132fd59039" y="116.544905"/>
     <use style="fill:#0000ff;stroke:#000000;" x="213.614576" xlink:href="#m132fd59039" y="208.375397"/>
     <use style="fill:#0000ff;stroke:#000000;" x="141.573919" xlink:href="#m132fd59039" y="236.15025"/>
     <use style="fill:#0000ff;stroke:#000000;" x="241.35657" xlink:href="#m132fd59039" y="138.685768"/>
     <use style="fill:#0000ff;stroke:#000000;" x="217.033559" xlink:href="#m132fd59039" y="209.040792"/>
     <use style="fill:#0000ff;stroke:#000000;" x="218.018946" xlink:href="#m132fd59039" y="206.889431"/>
     <use style="fill:#0000ff;stroke:#000000;" x="196.831562" xlink:href="#m132fd59039" y="115.982549"/>
     <use style="fill:#0000ff;stroke:#000000;" x="212.330342" xlink:href="#m132fd59039" y="207.938478"/>
     <use style="fill:#0000ff;stroke:#000000;" x="223.214761" xlink:href="#m132fd59039" y="260.919662"/>
     <use style="fill:#0000ff;stroke:#000000;" x="251.159728" xlink:href="#m132fd59039" y="175.428436"/>
     <use style="fill:#0000ff;stroke:#000000;" x="284.821651" xlink:href="#m132fd59039" y="98.805196"/>
     <use style="fill:#0000ff;stroke:#000000;" x="244.048512" xlink:href="#m132fd59039" y="141.673413"/>
    </g>
   </g>
   <g id="patch_3">
    <path d="M 57.6 307.584 
L 57.6 41.472 
" style="fill:none;stroke:#000000;stroke-linecap:square;stroke-linejoin:miter;stroke-width:0.8;"/>
   </g>
   <g id="patch_4">
    <path d="M 343.296 307.584 
L 343.296 41.472 
" style="fill:none;stroke:#000000;stroke-linecap:square;stroke-linejoin:miter;stroke-width:0.8;"/>
   </g>
   <g id="patch_5">
    <path d="M 57.6 307.584 
L 343.296 307.584 
" style="fill:none;stroke:#000000;stroke-linecap:square;stroke-linejoin:miter;stroke-width:0.8;"/>
   </g>
   <g id="patch_6">
    <path d="M 57.6 41.472 
L 343.296 41.472 
" style="fill:none;stroke:#000000;stroke-linecap:square;stroke-linejoin:miter;stroke-width:0.8;"/>
   </g>
   <g id="text_17">
    <!-- Spirals -->
    <g transform="translate(180.227063 35.472)scale(0.12 -0.12)">
     <defs>
      <path d="M 53.515625 70.515625 
L 53.515625 60.890625 
Q 47.90625 63.578125 42.921875 64.890625 
Q 37.9375 66.21875 33.296875 66.21875 
Q 25.25 66.21875 20.875 63.09375 
Q 16.5 59.96875 16.5 54.203125 
Q 16.5 49.359375 19.40625 46.890625 
Q 22.3125 44.4375 30.421875 42.921875 
L 36.375 41.703125 
Q 47.40625 39.59375 52.65625 34.296875 
Q 57.90625 29 57.90625 20.125 
Q 57.90625 9.515625 50.796875 4.046875 
Q 43.703125 -1.421875 29.984375 -1.421875 
Q 24.8125 -1.421875 18.96875 -0.25 
Q 13.140625 0.921875 6.890625 3.21875 
L 6.890625 13.375 
Q 12.890625 10.015625 18.65625 8.296875 
Q 24.421875 6.59375 29.984375 6.59375 
Q 38.421875 6.59375 43.015625 9.90625 
Q 47.609375 13.234375 47.609375 19.390625 
Q 47.609375 24.75 44.3125 27.78125 
Q 41.015625 30.8125 33.5 32.328125 
L 27.484375 33.5 
Q 16.453125 35.6875 11.515625 40.375 
Q 6.59375 45.0625 6.59375 53.421875 
Q 6.59375 63.09375 13.40625 68.65625 
Q 20.21875 74.21875 32.171875 74.21875 
Q 37.3125 74.21875 42.625 73.28125 
Q 47.953125 72.359375 53.515625 70.515625 
z
" id="DejaVuSans-83"/>
      <path d="M 18.109375 8.203125 
L 18.109375 -20.796875 
L 9.078125 -20.796875 
L 9.078125 54.6875 
L 18.109375 54.6875 
L 18.109375 46.390625 
Q 20.953125 51.265625 25.265625 53.625 
Q 29.59375 56 35.59375 56 
Q 45.5625 56 51.78125 48.09375 
Q 58.015625 40.1875 58.015625 27.296875 
Q 58.015625 14.40625 51.78125 6.484375 
Q 45.5625 -1.421875 35.59375 -1.421875 
Q 29.59375 -1.421875 25.265625 0.953125 
Q 20.953125 3.328125 18.109375 8.203125 
z
M 48.6875 27.296875 
Q 48.6875 37.203125 44.609375 42.84375 
Q 40.53125 48.484375 33.40625 48.484375 
Q 26.265625 48.484375 22.1875 42.84375 
Q 18.109375 37.203125 18.109375 27.296875 
Q 18.109375 17.390625 22.1875 11.75 
Q 26.265625 6.109375 33.40625 6.109375 
Q 40.53125 6.109375 44.609375 11.75 
Q 48.6875 17.390625 48.6875 27.296875 
z
" id="DejaVuSans-112"/>
      <path d="M 9.421875 54.6875 
L 18.40625 54.6875 
L 18.40625 0 
L 9.421875 0 
z
M 9.421875 75.984375 
L 18.40625 75.984375 
L 18.40625 64.59375 
L 9.421875 64.59375 
z
" id="DejaVuSans-105"/>
      <path d="M 41.109375 46.296875 
Q 39.59375 47.171875 37.8125 47.578125 
Q 36.03125 48 33.890625 48 
Q 26.265625 48 22.1875 43.046875 
Q 18.109375 38.09375 18.109375 28.8125 
L 18.109375 0 
L 9.078125 0 
L 9.078125 54.6875 
L 18.109375 54.6875 
L 18.109375 46.1875 
Q 20.953125 51.171875 25.484375 53.578125 
Q 30.03125 56 36.53125 56 
Q 37.453125 56 38.578125 55.875 
Q 39.703125 55.765625 41.0625 55.515625 
z
" id="DejaVuSans-114"/>
      <path d="M 34.28125 27.484375 
Q 23.390625 27.484375 19.1875 25 
Q 14.984375 22.515625 14.984375 16.5 
Q 14.984375 11.71875 18.140625 8.90625 
Q 21.296875 6.109375 26.703125 6.109375 
Q 34.1875 6.109375 38.703125 11.40625 
Q 43.21875 16.703125 43.21875 25.484375 
L 43.21875 27.484375 
z
M 52.203125 31.203125 
L 52.203125 0 
L 43.21875 0 
L 43.21875 8.296875 
Q 40.140625 3.328125 35.546875 0.953125 
Q 30.953125 -1.421875 24.3125 -1.421875 
Q 15.921875 -1.421875 10.953125 3.296875 
Q 6 8.015625 6 15.921875 
Q 6 25.140625 12.171875 29.828125 
Q 18.359375 34.515625 30.609375 34.515625 
L 43.21875 34.515625 
L 43.21875 35.40625 
Q 43.21875 41.609375 39.140625 45 
Q 35.0625 48.390625 27.6875 48.390625 
Q 23 48.390625 18.546875 47.265625 
Q 14.109375 46.140625 10.015625 43.890625 
L 10.015625 52.203125 
Q 14.9375 54.109375 19.578125 55.046875 
Q 24.21875 56 28.609375 56 
Q 40.484375 56 46.34375 49.84375 
Q 52.203125 43.703125 52.203125 31.203125 
z
" id="DejaVuSans-97"/>
      <path d="M 9.421875 75.984375 
L 18.40625 75.984375 
L 18.40625 0 
L 9.421875 0 
z
" id="DejaVuSans-108"/>
      <path d="M 44.28125 53.078125 
L 44.28125 44.578125 
Q 40.484375 46.53125 36.375 47.5 
Q 32.28125 48.484375 27.875 48.484375 
Q 21.1875 48.484375 17.84375 46.4375 
Q 14.5 44.390625 14.5 40.28125 
Q 14.5 37.15625 16.890625 35.375 
Q 19.28125 33.59375 26.515625 31.984375 
L 29.59375 31.296875 
Q 39.15625 29.25 43.1875 25.515625 
Q 47.21875 21.78125 47.21875 15.09375 
Q 47.21875 7.46875 41.1875 3.015625 
Q 35.15625 -1.421875 24.609375 -1.421875 
Q 20.21875 -1.421875 15.453125 -0.5625 
Q 10.6875 0.296875 5.421875 2 
L 5.421875 11.28125 
Q 10.40625 8.6875 15.234375 7.390625 
Q 20.0625 6.109375 24.8125 6.109375 
Q 31.15625 6.109375 34.5625 8.28125 
Q 37.984375 10.453125 37.984375 14.40625 
Q 37.984375 18.0625 35.515625 20.015625 
Q 33.0625 21.96875 24.703125 23.78125 
L 21.578125 24.515625 
Q 13.234375 26.265625 9.515625 29.90625 
Q 5.8125 33.546875 5.8125 39.890625 
Q 5.8125 47.609375 11.28125 51.796875 
Q 16.75 56 26.8125 56 
Q 31.78125 56 36.171875 55.265625 
Q 40.578125 54.546875 44.28125 53.078125 
z
" id="DejaVuSans-115"/>
     </defs>
     <use xlink:href="#DejaVuSans-83"/>
     <use x="63.476562" xlink:href="#DejaVuSans-112"/>
     <use x="126.953125" xlink:href="#DejaVuSans-105"/>
     <use x="154.736328" xlink:href="#DejaVuSans-114"/>
     <use x="195.849609" xlink:href="#DejaVuSans-97"/>
     <use x="257.128906" xlink:href="#DejaVuSans-108"/>
     <use x="284.912109" xlink:href="#DejaVuSans-115"/>
    </g>
   </g>
  </g>
  <g id="axes_2">
   <g id="patch_7">
    <path clip-path="url(#pb833b4ffa5)" d="M 361.152 307.584 
L 361.152 41.472 
L 361.152 307.584 
L 361.152 41.472 
L 374.4576 41.472 
L 374.4576 307.584 
L 374.4576 41.472 
L 374.4576 307.584 
z
" style="fill:#ffffff;stroke:#ffffff;stroke-linejoin:miter;stroke-width:0.01;"/>
   </g>
   <g id="QuadMesh_1">
    <path clip-path="url(#pb833b4ffa5)" d="M 361.152 307.584 
L 374.4576 307.584 
L 374.4576 41.472 
L 361.152 41.472 
L 361.152 307.584 
" style="fill:#21918c;"/>
   </g>
   <g id="matplotlib.axis_3"/>
   <g id="matplotlib.axis_4">
    <g id="ytick_8">
     <g id="line2d_17">
      <defs>
       <path d="M 0 0 
L 3.5 0 
" id="me0622467d7" style="stroke:#000000;stroke-width:0.8;"/>
      </defs>
      <g>
       <use style="stroke:#000000;stroke-width:0.8;" x="374.4576" xlink:href="#me0622467d7" y="307.584"/>
      </g>
     </g>
     <g id="text_18">
      <!-- 0.5 -->
      <g transform="translate(381.4576 311.383219)scale(0.1 -0.1)">
       <defs>
        <path d="M 10.6875 12.40625 
L 21 12.40625 
L 21 0 
L 10.6875 0 
z
" id="DejaVuSans-46"/>
       </defs>
       <use xlink:href="#DejaVuSans-48"/>
       <use x="63.623047" xlink:href="#DejaVuSans-46"/>
       <use x="95.410156" xlink:href="#DejaVuSans-53"/>
      </g>
     </g>
    </g>
    <g id="ytick_9">
     <g id="line2d_18">
      <g>
       <use style="stroke:#000000;stroke-width:0.8;" x="374.4576" xlink:href="#me0622467d7" y="41.472"/>
      </g>
     </g>
     <g id="text_19">
      <!-- 1.0 -->
      <g transform="translate(381.4576 45.271219)scale(0.1 -0.1)">
       <use xlink:href="#DejaVuSans-49"/>
       <use x="63.623047" xlink:href="#DejaVuSans-46"/>
       <use x="95.410156" xlink:href="#DejaVuSans-48"/>
      </g>
     </g>
    </g>
   </g>
   <g id="patch_8">
    <path d="M 361.152 307.584 
L 361.152 41.472 
L 361.152 307.584 
L 361.152 41.472 
L 374.4576 41.472 
L 374.4576 307.584 
L 374.4576 41.472 
L 374.4576 307.584 
z
" style="fill:none;stroke:#000000;stroke-linejoin:miter;stroke-width:0.8;"/>
   </g>
  </g>
 </g>
 <defs>
  <clipPath id="pbfa8844079">
   <rect height="266.112" width="285.696" x="57.6" y="41.472"/>
  </clipPath>
  <clipPath id="pb833b4ffa5">
   <rect height="266.112" width="13.3056" x="361.152" y="41.472"/>
  </clipPath>
 </defs>
</svg>
