<?xml version="1.0" encoding="utf-8" standalone="no"?>
<!DOCTYPE svg PUBLIC "-//W3C//DTD SVG 1.1//EN"
  "http://www.w3.org/Graphics/SVG/1.1/DTD/svg11.dtd">
<!-- Created with matplotlib (https://matplotlib.org/) -->
<svg height="345.6pt" version="1.1" viewBox="0 0 460.8 345.6" width="460.8pt" xmlns="http://www.w3.org/2000/svg" xmlns:xlink="http://www.w3.org/1999/xlink">
 <metadata>
  <rdf:RDF xmlns:cc="http://creativecommons.org/ns#" xmlns:dc="http://purl.org/dc/elements/1.1/" xmlns:rdf="http://www.w3.org/1999/02/22-rdf-syntax-ns#">
   <cc:Work>
    <dc:type rdf:resource="http://purl.org/dc/dcmitype/StillImage"/>
    <dc:date>2020-09-14T00:52:45.510343</dc:date>
    <dc:format>image/svg+xml</dc:format>
    <dc:creator>
     <cc:Agent>
      <dc:title>Matplotlib v3.3.1, https://matplotlib.org/</dc:title>
     </cc:Agent>
    </dc:creator>
   </cc:Work>
  </rdf:RDF>
 </metadata>
 <defs>
  <style type="text/css">*{stroke-linecap:butt;stroke-linejoin:round;}</style>
 </defs>
 <g id="figure_1">
  <g id="patch_1">
   <path d="M 0 345.6 
L 460.8 345.6 
L 460.8 0 
L 0 0 
z
" style="fill:#ffffff;"/>
  </g>
  <g id="axes_1">
   <g id="patch_2">
    <path d="M 57.6 307.584 
L 343.296 307.584 
L 343.296 41.472 
L 57.6 41.472 
z
" style="fill:#ffffff;"/>
   </g>
   <g id="PathCollection_1">
    <path clip-path="url(#pf30545a818)" d="M 217.796102 304.896003 
L 216.568803 302.207997 
L 216.32 301.756352 
L 215.167029 299.519999 
L 213.668966 296.832002 
L 213.434182 296.481273 
L 211.953685 294.143996 
L 210.548363 292.086624 
L 210.119386 291.455998 
L 208.173761 288.768001 
L 207.662545 288.172263 
L 206.014784 286.080004 
L 204.776727 284.581407 
L 203.72009 283.391998 
L 201.890909 281.28675 
L 201.234698 280.704 
L 199.005091 278.972541 
L 197.669463 278.016003 
L 196.119273 276.892852 
L 193.425736 275.327997 
L 193.233455 275.202623 
L 190.347637 273.76824 
L 187.929216 272.639999 
L 187.461818 272.399507 
L 184.576 271.274951 
L 181.690182 270.010455 
L 181.509352 269.952002 
L 178.804364 269.04058 
L 175.918546 268.278782 
L 173.032726 267.575083 
L 171.626829 267.263996 
L 170.146908 266.864442 
L 167.261091 266.136588 
L 164.375273 265.439078 
L 161.489455 264.955345 
L 159.990803 264.575999 
L 158.603635 264.197963 
L 155.71782 263.393846 
L 152.832 262.671173 
L 150.748902 261.888001 
L 149.94618 261.468976 
L 147.060365 259.700266 
L 146.431917 259.200004 
L 144.174545 256.915361 
L 143.814765 256.511998 
L 141.760183 253.824001 
L 141.288729 253.137947 
L 139.967679 251.136003 
L 138.402909 248.87581 
L 138.114113 248.447997 
L 136.307864 245.76 
L 135.517089 244.595976 
L 134.509058 243.071998 
L 132.631274 240.463954 
L 132.574791 240.384001 
L 130.47141 237.695999 
L 129.745454 236.835005 
L 128.525964 235.008002 
L 126.859638 232.595517 
L 126.691855 232.32 
L 124.222265 229.631998 
L 123.973818 229.418523 
L 121.484088 226.944001 
L 121.088003 226.515751 
L 119.376338 224.255999 
L 118.202179 222.813639 
L 116.945001 221.568002 
L 115.316363 220.025375 
L 114.151438 218.88 
L 112.430548 217.051488 
L 111.860279 216.191998 
L 110.333161 213.504001 
L 109.544723 212.053998 
L 108.860594 210.815999 
L 107.534037 208.128 
L 106.658908 206.006343 
L 106.416557 205.44 
L 105.821914 202.752001 
L 105.687554 200.064001 
L 105.38331 197.375999 
L 105.193245 194.688 
L 105.060065 192 
L 104.975677 189.312 
L 104.812239 186.624 
L 104.631753 183.935999 
L 104.470744 181.248 
L 104.33128 178.56 
L 104.323765 175.872 
L 104.411864 173.184 
L 104.612639 170.496 
L 104.945633 167.808 
L 105.396751 165.120001 
L 105.994726 162.432 
L 106.656635 159.744 
L 106.658908 159.734597 
L 107.33105 157.056 
L 107.941606 154.368 
L 108.68449 151.680001 
L 109.544723 149.344113 
L 109.698157 148.991999 
L 110.78881 146.303999 
L 111.737969 143.616 
L 112.430548 141.805435 
L 112.793968 140.928 
L 113.902262 138.240001 
L 115.028031 135.551999 
L 115.316363 134.954781 
L 116.344144 132.864002 
L 117.577378 130.176 
L 118.202179 129.220252 
L 119.467315 127.487998 
L 121.088003 125.262084 
L 121.538064 124.800001 
L 123.973818 122.427461 
L 124.317238 122.111999 
L 126.859638 120.109276 
L 127.737431 119.424002 
L 129.745454 118.011769 
L 131.5942 116.736 
L 132.631274 116.072123 
L 135.517089 114.355478 
L 136.017591 114.047998 
L 138.402909 112.726863 
L 140.731553 111.360001 
L 141.288729 111.057663 
L 144.174545 109.551723 
L 145.505293 108.671999 
L 147.060365 107.787316 
L 149.9135 105.984002 
L 149.94618 105.965496 
L 152.832 104.609125 
L 155.043826 103.296 
L 155.71782 102.944748 
L 158.603635 101.685196 
L 160.735517 100.608003 
L 161.489455 100.259032 
L 164.375273 99.195604 
L 167.261091 98.176569 
L 167.921427 97.919997 
L 170.146908 97.21004 
L 173.032726 96.485249 
L 175.918546 95.771852 
L 177.861342 95.231999 
L 178.804364 94.998879 
L 181.690182 94.474256 
L 184.576 94.162956 
L 187.461818 93.996224 
L 190.347637 93.919937 
L 193.233455 93.906583 
L 196.119273 93.969099 
L 199.005091 94.085855 
L 201.890909 94.344124 
L 204.776727 94.791457 
L 206.61282 95.231999 
L 207.662545 95.543228 
L 210.548363 96.415215 
L 213.434182 97.259375 
L 215.152808 97.919997 
L 216.32 98.445294 
L 219.205818 99.534187 
L 221.727805 100.608003 
L 222.091636 100.804383 
L 224.977454 102.201185 
L 227.034878 103.296 
L 227.863274 103.827581 
L 230.749092 105.494962 
L 231.533068 105.984002 
L 233.634909 107.31287 
L 235.890617 108.671999 
L 236.520727 109.102227 
L 239.406545 110.9071 
L 240.146575 111.360001 
L 242.292365 112.729444 
L 244.413621 114.047998 
L 245.17818 114.569598 
L 248.064 116.391154 
L 248.518253 116.736 
L 250.94982 118.806919 
L 251.61492 119.424002 
L 253.835635 121.67429 
L 254.250494 122.111999 
L 256.321364 124.800001 
L 256.721455 125.406303 
L 257.958009 127.487998 
L 258.554255 130.176 
L 259.467028 132.864002 
L 259.607271 133.121494 
L 260.714046 135.551999 
L 261.866352 138.240001 
L 262.493091 139.761894 
L 262.92029 140.928 
L 263.83486 143.616 
L 264.707996 146.303999 
L 265.378911 148.030036 
L 265.70863 148.991999 
L 266.429971 151.680001 
L 267.072173 154.368 
L 267.643367 157.056 
L 268.110621 159.744 
L 268.264726 161.05436 
L 268.404553 162.432 
L 268.520308 165.120001 
L 268.264726 166.830306 
L 268.09993 167.808 
L 267.451582 170.496 
L 266.861149 173.184 
L 266.383532 175.872 
L 265.863529 178.56 
L 265.378911 180.372774 
L 265.097772 181.248 
L 264.236027 183.935999 
L 263.221494 186.624 
L 262.493091 188.172174 
L 261.925046 189.312 
L 260.742332 192 
L 259.607271 194.486299 
L 259.483692 194.688 
L 257.687314 197.375999 
L 256.721455 198.757377 
L 255.666294 200.064001 
L 253.835635 202.496952 
L 253.631464 202.752001 
L 251.654529 205.44 
L 250.94982 206.3609 
L 249.424262 208.128 
L 248.064 209.641653 
L 246.846171 210.815999 
L 245.17818 212.324193 
L 243.821208 213.504001 
L 242.292365 214.787459 
L 240.50057 216.191998 
L 239.406545 216.960186 
L 236.520727 218.626326 
L 236.046104 218.88 
L 233.634909 219.979936 
L 230.749092 220.924688 
L 227.863274 221.550707 
L 227.761907 221.568002 
L 224.977454 221.988236 
L 222.091636 222.294893 
L 219.205818 222.398674 
L 216.32 222.390743 
L 213.434182 222.288558 
L 210.548363 222.087268 
L 207.662545 221.817934 
L 204.776727 221.641278 
L 202.618894 221.568002 
L 201.890909 221.539821 
L 199.005091 221.348115 
L 196.119273 221.032231 
L 193.233455 220.419096 
L 190.347637 219.520309 
L 188.786309 218.88 
L 187.461818 218.260011 
L 184.576 216.933041 
L 183.134196 216.191998 
L 181.690182 215.340909 
L 178.840355 213.504001 
L 178.804364 213.477928 
L 175.918546 211.350783 
L 175.260392 210.815999 
L 173.032726 208.652752 
L 172.51466 208.128 
L 170.168016 205.44 
L 170.146908 205.410928 
L 168.502306 202.752001 
L 167.261091 200.335828 
L 167.129777 200.064001 
L 166.480027 197.375999 
L 166.042121 194.688 
L 165.871914 192 
L 165.989535 189.312 
L 166.5423 186.624 
L 167.261091 185.117414 
L 167.92395 183.935999 
L 170.146908 181.566352 
L 170.481559 181.248 
L 173.032726 179.661995 
L 175.437872 178.56 
L 175.918546 178.393206 
L 178.804364 178.282593 
L 181.690182 178.267187 
L 184.576 178.236103 
L 187.461818 178.103957 
L 190.347637 178.130664 
L 193.233455 178.128776 
L 196.119273 178.042016 
L 199.005091 177.961322 
L 201.890909 177.931996 
L 204.776727 177.818267 
L 207.662545 177.56127 
L 210.548363 177.259157 
L 213.434182 176.859898 
L 216.32 176.368764 
L 218.421292 175.872 
L 219.205818 175.679986 
L 222.091636 174.468702 
L 224.554833 173.184 
L 224.977454 172.942214 
L 227.863274 171.031187 
L 228.512813 170.496 
L 230.749092 168.31314 
L 231.202705 167.808 
L 232.794307 165.120001 
L 233.564026 162.432 
L 233.634909 161.985455 
L 234.006986 159.744 
L 234.231137 157.056 
L 234.18756 154.368 
L 233.830167 151.680001 
L 233.634909 150.757923 
L 233.311368 148.991999 
L 232.655177 146.303999 
L 231.438034 143.616 
L 230.749092 142.457757 
L 229.62447 140.928 
L 227.863274 139.351206 
L 226.36411 138.240001 
L 224.977454 137.394708 
L 222.091636 136.02339 
L 221.032316 135.551999 
L 219.205818 134.797785 
L 216.32 133.884909 
L 213.434182 132.958711 
L 213.158893 132.864002 
L 210.548363 132.030835 
L 207.662545 131.318 
L 204.776727 130.664882 
L 202.501958 130.176 
L 201.890909 130.031077 
L 199.005091 129.526614 
L 196.119273 129.229023 
L 193.233455 129.065024 
L 190.347637 129.080499 
L 187.461818 129.230454 
L 184.576 129.507032 
L 181.690182 129.989098 
L 180.994368 130.176 
L 178.804364 130.766953 
L 175.918546 131.791865 
L 173.46053 132.864002 
L 173.032726 133.056935 
L 170.146908 134.053052 
L 167.261091 135.09984 
L 166.406272 135.551999 
L 164.375273 136.662672 
L 161.713326 138.240001 
L 161.489455 138.384057 
L 158.603635 140.236985 
L 157.638317 140.928 
L 155.71782 142.331048 
L 154.094264 143.616 
L 152.832 144.720788 
L 151.107311 146.303999 
L 149.94618 147.45609 
L 148.4157 148.991999 
L 147.060365 150.517744 
L 146.039812 151.680001 
L 144.174545 153.978281 
L 143.896408 154.368 
L 142.397326 157.056 
L 141.288729 159.213675 
L 141.001518 159.744 
L 139.970206 162.432 
L 139.051011 165.120001 
L 138.402909 166.775854 
L 138.009514 167.808 
L 137.345023 170.496 
L 136.82924 173.184 
L 136.545624 175.872 
L 136.487711 178.56 
L 136.592904 181.248 
L 136.77348 183.935999 
L 137.01329 186.624 
L 137.263724 189.312 
L 137.717798 192 
L 138.402909 194.41425 
L 138.486199 194.688 
L 139.355206 197.375999 
L 140.343537 200.064001 
L 141.171343 202.752001 
L 141.264907 205.44 
L 141.121803 208.128 
L 141.096983 210.815999 
L 141.288729 212.197946 
L 141.46311 213.504001 
L 142.332496 216.191998 
L 143.227421 218.88 
L 144.056229 221.568002 
L 144.174545 221.80961 
L 146.16277 224.255999 
L 147.060365 225.066374 
L 149.94618 226.932812 
L 149.965183 226.944001 
L 152.832 228.580178 
L 155.024787 229.631998 
L 155.71782 229.957177 
L 158.603635 231.358821 
L 160.550805 232.32 
L 161.489455 232.747891 
L 164.375273 233.864344 
L 167.261091 234.928464 
L 167.462581 235.008002 
L 170.146908 236.048512 
L 173.032726 237.155439 
L 174.356711 237.695999 
L 175.918546 238.333974 
L 178.804364 239.427979 
L 181.260895 240.384001 
L 181.690182 240.557325 
L 184.576 241.614499 
L 187.461818 242.362311 
L 190.347637 242.928408 
L 191.110099 243.071998 
L 193.233455 243.455816 
L 196.119273 243.842572 
L 199.005091 244.081293 
L 201.890909 244.231938 
L 204.776727 244.014664 
L 207.662545 243.422006 
L 209.407264 243.071998 
L 210.548363 242.86767 
L 213.434182 242.47146 
L 216.32 242.115847 
L 219.205818 241.748183 
L 222.091636 241.408453 
L 224.977454 241.046178 
L 227.863274 240.654448 
L 229.899029 240.384001 
L 230.749092 240.275793 
L 233.634909 239.966274 
L 236.520727 239.715045 
L 239.406545 239.331604 
L 242.292365 238.896609 
L 245.17818 238.31867 
L 247.273561 237.695999 
L 248.064 237.473734 
L 250.94982 236.81042 
L 253.835635 236.148662 
L 256.721455 235.413471 
L 258.058395 235.008002 
L 259.607271 234.519837 
L 262.493091 233.538057 
L 265.16072 232.32 
L 265.378911 232.177529 
L 268.264726 230.281518 
L 269.035197 229.631998 
L 271.150546 227.590901 
L 271.769026 226.944001 
L 274.00922 224.255999 
L 274.036362 224.221561 
L 275.928918 221.568002 
L 276.922182 220.235477 
L 277.838117 218.88 
L 279.515165 216.191998 
L 279.807997 215.751684 
L 281.063581 213.504001 
L 282.638773 210.815999 
L 282.693821 210.720779 
L 283.882976 208.128 
L 285.102282 205.44 
L 285.579637 204.502764 
L 286.307975 202.752001 
L 287.200659 200.064001 
L 288.172642 197.375999 
L 288.465452 196.669584 
L 289.103595 194.688 
L 289.593142 192 
L 289.922543 189.312 
L 290.235695 186.624 
L 290.534417 183.935999 
L 290.796039 181.248 
L 291.195139 178.56 
L 291.351277 177.388882 
L 291.536559 175.872 
L 291.731613 173.184 
L 291.909223 170.496 
L 292.041455 167.808 
L 292.039857 165.120001 
L 292.016579 162.432 
L 291.80913 159.744 
L 291.351277 157.377155 
L 291.281328 157.056 
L 290.71951 154.368 
L 290.165446 151.680001 
L 289.622878 148.991999 
L 289.044641 146.303999 
L 288.465452 144.040612 
L 288.359988 143.616 
L 287.584012 140.928 
L 286.648913 138.240001 
L 285.579637 135.676424 
L 285.530775 135.551999 
L 284.53201 132.864002 
L 283.512754 130.176 
L 282.693821 128.442904 
L 282.281256 127.487998 
L 280.946084 124.800001 
L 279.807997 122.890988 
L 279.404556 122.111999 
L 277.98248 119.424002 
L 276.922182 117.893198 
L 276.147175 116.736 
L 274.094004 114.047998 
L 274.036362 113.983472 
L 271.875114 111.360001 
L 271.150546 110.548 
L 269.416098 108.671999 
L 268.264726 107.486575 
L 266.693966 105.984002 
L 265.378911 104.814229 
L 263.518009 103.296 
L 262.493091 102.475558 
L 259.928581 100.608003 
L 259.607271 100.377461 
L 256.721455 98.440415 
L 255.94532 97.919997 
L 253.835635 96.525783 
L 251.778631 95.231999 
L 250.94982 94.700661 
L 248.064 93.031037 
L 247.1243 92.544002 
L 245.17818 91.531073 
L 242.292365 90.145856 
L 241.725338 89.855996 
L 239.406545 88.670131 
L 236.520727 87.310018 
L 236.211026 87.167999 
L 233.634909 86.020582 
L 230.749092 84.925567 
L 229.573658 84.480001 
L 227.863274 83.818208 
L 224.977454 82.905911 
L 222.091636 82.115708 
L 220.979257 81.792004 
L 219.205818 81.242064 
L 216.32 80.429958 
L 213.434182 79.697334 
L 211.222745 79.103998 
L 210.548363 78.90616 
L 207.662545 78.175582 
L 204.776727 77.551763 
L 201.890909 76.960046 
L 199.174775 76.416001 
L 199.005091 76.37869 
L 196.119273 75.83609 
L 193.233455 75.411752 
L 190.347637 75.069182 
L 187.461818 74.802248 
L 184.576 74.632949 
L 181.690182 74.486751 
L 178.804364 74.344148 
L 175.918546 74.224285 
L 173.032726 74.191352 
L 170.146908 74.309796 
L 167.261091 74.483867 
L 164.375273 74.696328 
L 161.489455 74.903585 
L 158.603635 75.00696 
L 155.71782 75.161887 
L 152.832 75.642037 
L 149.94618 76.394397 
L 149.879141 76.416001 
L 147.060365 77.350832 
L 144.174545 78.414947 
L 142.530047 79.103998 
L 141.288729 79.627012 
L 138.402909 80.869132 
L 136.420541 81.792004 
L 135.517089 82.217066 
L 132.631274 83.664234 
L 131.080781 84.480001 
L 129.745454 85.171404 
L 126.859638 86.654027 
L 125.925167 87.167999 
L 123.973818 88.149566 
L 121.088003 89.787632 
L 120.98106 89.855996 
L 118.202179 91.716875 
L 117.110363 92.544002 
L 115.316363 93.941313 
L 113.780547 95.231999 
L 112.430548 96.411855 
L 110.729073 97.919997 
L 109.544723 99.039283 
L 107.641952 100.608003 
L 106.658908 101.599775 
L 104.569896 103.296 
L 103.773092 103.975597 
L 101.279619 105.984002 
L 100.887277 106.311987 
L 98.001452 108.597944 
L 97.905152 108.671999 
L 95.115637 110.885005 
L 94.488642 111.360001 
L 92.229821 113.077682 
L 90.912522 114.047998 
L 89.343997 115.227996 
L 87.315287 116.736 
L 86.458182 117.375966 
L 83.682778 119.424002 
L 83.572366 119.51428 
L 80.686542 121.975262 
L 80.530225 122.111999 
L 77.982138 124.800001 
L 77.800726 125.00274 
L 75.55281 127.487998 
L 74.914911 128.243254 
L 73.260335 130.176 
L 72.029095 131.65922 
L 71.009831 132.864002 
L 69.143271 135.173035 
L 68.840176 135.551999 
L 66.788908 138.240001 
L 66.257455 138.967465 
L 64.855644 140.928 
L 63.37164 143.00898 
L 62.930676 143.616 
L 60.717219 146.303999 
L 60.485815 146.6134 
L 58.655093 148.991999 
L 57.6 150.370105 
L 57.6 151.680001 
L 57.6 154.368 
L 57.6 157.056 
L 57.6 157.647343 
L 58.083128 157.056 
L 60.23058 154.368 
L 60.485815 154.035967 
L 62.287512 151.680001 
L 63.37164 150.218507 
L 64.272899 148.991999 
L 66.252893 146.303999 
L 66.257455 146.298032 
L 68.256681 143.616 
L 69.143271 142.374834 
L 70.171115 140.928 
L 72.029095 138.460885 
L 72.198504 138.240001 
L 74.290943 135.551999 
L 74.914911 134.772897 
L 76.423529 132.864002 
L 77.800726 131.17403 
L 78.600313 130.176 
L 80.686542 127.683974 
L 80.848218 127.487998 
L 83.230944 124.800001 
L 83.572366 124.435498 
L 85.777041 122.111999 
L 86.458182 121.551892 
L 89.054444 119.424002 
L 89.343997 119.206428 
L 92.229821 116.959301 
L 92.501074 116.736 
L 95.115637 114.669737 
L 95.862607 114.047998 
L 98.001452 112.296041 
L 99.05561 111.360001 
L 100.887277 109.822474 
L 102.150821 108.671999 
L 103.773092 107.301935 
L 105.027506 105.984002 
L 106.658908 104.564678 
L 107.920191 103.296 
L 109.544723 101.680649 
L 110.652992 100.608003 
L 112.430548 98.928819 
L 113.554962 97.919997 
L 115.316363 96.381321 
L 116.706187 95.231999 
L 118.202179 94.064234 
L 120.302653 92.544002 
L 121.088003 92.009158 
L 123.973818 90.284869 
L 124.83079 89.855996 
L 126.859638 88.864279 
L 129.745454 87.562059 
L 130.559825 87.167999 
L 132.631274 86.100133 
L 135.517089 84.627745 
L 135.811165 84.480001 
L 138.402909 83.249399 
L 141.288729 81.917688 
L 141.571363 81.792004 
L 144.174545 80.700128 
L 147.060365 79.550649 
L 148.243504 79.103998 
L 149.94618 78.511383 
L 152.832 77.625427 
L 155.71782 76.898106 
L 158.603635 76.565877 
L 160.861355 76.416001 
L 161.489455 76.381617 
L 164.375273 76.051722 
L 167.261091 75.810497 
L 170.146908 75.631359 
L 173.032726 75.482086 
L 175.918546 75.431459 
L 178.804364 75.524948 
L 181.690182 75.660927 
L 184.576 75.803612 
L 187.461818 75.970194 
L 190.347637 76.232797 
L 191.854409 76.416001 
L 193.233455 76.597843 
L 196.119273 77.032128 
L 199.005091 77.54022 
L 201.890909 78.072011 
L 204.776727 78.657306 
L 206.761461 79.103998 
L 207.662545 79.326793 
L 210.548363 80.075623 
L 213.434182 80.81798 
L 216.32 81.578038 
L 217.055621 81.792004 
L 219.205818 82.44797 
L 222.091636 83.249305 
L 224.977454 84.039057 
L 226.319641 84.480001 
L 227.863274 85.032439 
L 230.749092 86.099125 
L 233.486131 87.167999 
L 233.634909 87.233768 
L 236.520727 88.552881 
L 239.279722 89.855996 
L 239.406545 89.922258 
L 242.292365 91.391227 
L 244.652258 92.544002 
L 245.17818 92.822554 
L 248.064 94.301839 
L 249.64326 95.231999 
L 250.94982 96.045265 
L 253.835635 97.847383 
L 253.945513 97.919997 
L 256.721455 99.781337 
L 257.94263 100.608003 
L 259.607271 101.775016 
L 261.665657 103.296 
L 262.493091 103.953166 
L 264.981991 105.984002 
L 265.378911 106.330853 
L 267.82662 108.671999 
L 268.264726 109.12841 
L 270.318917 111.360001 
L 271.150546 112.306701 
L 272.585713 114.047998 
L 274.036362 115.873562 
L 274.69719 116.736 
L 276.488346 119.424002 
L 276.922182 120.14043 
L 278.030166 122.111999 
L 279.407495 124.800001 
L 279.807997 125.507303 
L 280.896364 127.487998 
L 282.072976 130.176 
L 282.693821 131.715069 
L 283.163179 132.864002 
L 284.145111 135.551999 
L 285.174225 138.240001 
L 285.579637 139.355955 
L 286.137071 140.928 
L 286.935372 143.616 
L 287.585331 146.303999 
L 288.183308 148.991999 
L 288.465452 150.327943 
L 288.736795 151.680001 
L 289.322041 154.368 
L 289.925437 157.056 
L 290.526693 159.744 
L 290.907813 162.432 
L 291.113504 165.120001 
L 291.174222 167.808 
L 290.988482 170.496 
L 290.767451 173.184 
L 290.56855 175.872 
L 290.258306 178.56 
L 289.931934 181.248 
L 289.696542 183.935999 
L 289.401217 186.624 
L 289.082867 189.312 
L 288.714432 192 
L 288.465452 193.239025 
L 287.985128 194.688 
L 286.944227 197.375999 
L 286.091677 200.064001 
L 285.579637 201.642964 
L 285.063971 202.752001 
L 283.782599 205.44 
L 282.705433 208.128 
L 282.693821 208.153316 
L 281.15447 210.815999 
L 279.817854 213.504001 
L 279.807997 213.521647 
L 278.032071 216.191998 
L 276.922182 218.170993 
L 276.445222 218.88 
L 274.548415 221.568002 
L 274.036362 222.285953 
L 272.483712 224.255999 
L 271.150546 225.895344 
L 270.20589 226.944001 
L 268.264726 228.824555 
L 267.332043 229.631998 
L 265.378911 230.925341 
L 263.243022 232.32 
L 262.493091 232.662424 
L 259.607271 233.676984 
L 256.721455 234.544606 
L 255.37291 235.008002 
L 253.835635 235.422152 
L 250.94982 236.155685 
L 248.064 236.796866 
L 245.17818 237.588048 
L 244.804986 237.695999 
L 242.292365 238.255247 
L 239.406545 238.684816 
L 236.520727 238.991891 
L 233.634909 239.202869 
L 230.749092 239.483435 
L 227.863274 239.821537 
L 224.977454 240.235467 
L 224.053594 240.384001 
L 222.091636 240.648736 
L 219.205818 241.008433 
L 216.32 241.38323 
L 213.434182 241.73844 
L 210.548363 242.1221 
L 207.662545 242.607223 
L 205.484311 243.071998 
L 204.776727 243.221658 
L 201.890909 243.378468 
L 199.005091 243.206386 
L 197.593152 243.071998 
L 196.119273 242.90767 
L 193.233455 242.424215 
L 190.347637 241.848429 
L 187.461818 241.126729 
L 185.208746 240.384001 
L 184.576 240.131152 
L 181.690182 238.945422 
L 178.804364 237.783931 
L 178.582379 237.695999 
L 175.918546 236.589683 
L 173.032726 235.375102 
L 172.132989 235.008002 
L 170.146908 234.147578 
L 167.261091 232.98362 
L 165.564944 232.32 
L 164.375273 231.800023 
L 161.489455 230.497182 
L 159.842032 229.631998 
L 158.603635 228.932033 
L 155.71782 227.4899 
L 154.644913 226.944001 
L 152.832 225.946269 
L 149.993073 224.255999 
L 149.94618 224.225912 
L 147.060365 221.993776 
L 146.690474 221.568002 
L 145.201435 218.88 
L 144.174545 216.208474 
L 144.168715 216.191998 
L 143.25476 213.504001 
L 142.852261 210.815999 
L 142.912182 208.128 
L 143.05774 205.44 
L 142.981441 202.752001 
L 142.257934 200.064001 
L 141.288729 197.659079 
L 141.180201 197.375999 
L 140.184639 194.688 
L 139.327322 192 
L 138.736311 189.312 
L 138.439491 186.624 
L 138.402909 186.294971 
L 138.174581 183.935999 
L 137.981682 181.248 
L 137.895842 178.56 
L 137.919577 175.872 
L 138.177168 173.184 
L 138.402909 171.989538 
L 138.729489 170.496 
L 139.463818 167.808 
L 140.407535 165.120001 
L 141.274662 162.432 
L 141.288729 162.395497 
L 142.300228 159.744 
L 143.654796 157.056 
L 144.174545 156.135873 
L 145.366428 154.368 
L 147.060365 152.296339 
L 147.596168 151.680001 
L 149.94618 149.019781 
L 149.972056 148.991999 
L 152.679453 146.303999 
L 152.832 146.163966 
L 155.71782 143.639327 
L 155.745828 143.616 
L 158.603635 141.537434 
L 159.494002 140.928 
L 161.489455 139.637215 
L 163.660794 138.240001 
L 164.375273 137.816638 
L 167.261091 136.268912 
L 168.844931 135.551999 
L 170.146908 135.059709 
L 173.032726 134.046642 
L 175.655077 132.864002 
L 175.918546 132.749082 
L 178.804364 131.727199 
L 181.690182 130.946609 
L 184.576 130.431089 
L 186.82702 130.176 
L 187.461818 130.112161 
L 190.347637 129.949941 
L 193.233455 129.908966 
L 196.119273 130.102925 
L 196.766487 130.176 
L 199.005091 130.458533 
L 201.890909 130.951559 
L 204.776727 131.546019 
L 207.662545 132.212355 
L 210.135626 132.864002 
L 210.548363 132.999555 
L 213.434182 133.981158 
L 216.32 134.888489 
L 218.306361 135.551999 
L 219.205818 135.910154 
L 222.091636 137.183469 
L 224.1588 138.240001 
L 224.977454 138.803877 
L 227.823059 140.928 
L 227.863274 140.97149 
L 229.853036 143.616 
L 230.749092 145.051442 
L 231.348578 146.303999 
L 232.057012 148.991999 
L 232.516976 151.680001 
L 232.797881 154.368 
L 232.816608 157.056 
L 232.567605 159.744 
L 232.106234 162.432 
L 231.275677 165.120001 
L 230.749092 165.979328 
L 229.430342 167.808 
L 227.863274 169.330713 
L 226.491561 170.496 
L 224.977454 171.536889 
L 222.098454 173.184 
L 222.091636 173.187556 
L 219.205818 174.35992 
L 216.32 175.071662 
L 213.434182 175.626359 
L 212.109178 175.872 
L 210.548363 176.121287 
L 207.662545 176.46101 
L 204.776727 176.752678 
L 201.890909 176.927439 
L 199.005091 176.995901 
L 196.119273 177.062764 
L 193.233455 177.139161 
L 190.347637 177.086109 
L 187.461818 177.120195 
L 184.576 177.259798 
L 181.690182 177.302513 
L 178.804364 177.347137 
L 175.918546 177.439313 
L 173.032726 178.397314 
L 172.746597 178.56 
L 170.146908 180.10962 
L 168.638364 181.248 
L 167.261091 182.716037 
L 166.230819 183.935999 
L 165.00486 186.624 
L 164.572525 189.312 
L 164.470819 192 
L 164.667738 194.688 
L 165.138384 197.375999 
L 165.785801 200.064001 
L 167.058047 202.752001 
L 167.261091 203.050549 
L 168.750204 205.44 
L 170.146908 207.276337 
L 170.89063 208.128 
L 173.032726 210.29774 
L 173.566419 210.815999 
L 175.918546 212.727223 
L 176.971826 213.504001 
L 178.804364 214.788386 
L 181.004481 216.191998 
L 181.690182 216.613651 
L 184.576 218.048121 
L 186.371844 218.88 
L 187.461818 219.385176 
L 190.347637 220.512956 
L 193.233455 221.410629 
L 193.934008 221.568002 
L 196.119273 222.065731 
L 199.005091 222.365017 
L 201.890909 222.528107 
L 204.776727 222.615064 
L 207.662545 222.779018 
L 210.548363 223.040827 
L 213.434182 223.249398 
L 216.32 223.329544 
L 219.205818 223.299395 
L 222.091636 223.224094 
L 224.977454 222.933816 
L 227.863274 222.517922 
L 230.749092 221.953355 
L 231.971501 221.568002 
L 233.634909 221.031582 
L 236.520727 219.777501 
L 238.201817 218.88 
L 239.406545 218.183704 
L 242.24306 216.191998 
L 242.292365 216.15335 
L 245.17818 213.747909 
L 245.45317 213.504001 
L 248.064 211.147359 
L 248.38887 210.815999 
L 250.780016 208.128 
L 250.94982 207.93131 
L 252.856271 205.44 
L 253.835635 204.120731 
L 254.874236 202.752001 
L 256.721455 200.308642 
L 256.903396 200.064001 
L 258.762843 197.375999 
L 259.607271 196.124185 
L 260.465501 194.688 
L 261.670239 192 
L 262.493091 190.20401 
L 262.955098 189.312 
L 264.17988 186.624 
L 265.208915 183.935999 
L 265.378911 183.419715 
L 266.09 181.248 
L 266.746471 178.56 
L 267.24155 175.872 
L 267.714423 173.184 
L 268.264726 170.872894 
L 268.372235 170.496 
L 269.045086 167.808 
L 269.461617 165.120001 
L 269.366871 162.432 
L 269.083114 159.744 
L 268.649247 157.056 
L 268.264726 155.394576 
L 268.036175 154.368 
L 267.367478 151.680001 
L 266.683501 148.991999 
L 265.807062 146.303999 
L 265.378911 145.074727 
L 264.887725 143.616 
L 263.923517 140.928 
L 262.949403 138.240001 
L 262.493091 137.27566 
L 261.705679 135.551999 
L 260.532869 132.864002 
L 259.607271 130.201825 
L 259.59834 130.176 
L 258.943314 127.487998 
L 257.370077 124.800001 
L 256.721455 123.95469 
L 255.287365 122.111999 
L 253.835635 120.580311 
L 252.694522 119.424002 
L 250.94982 117.80526 
L 249.69435 116.736 
L 248.064 115.49832 
L 245.810202 114.047998 
L 245.17818 113.621324 
L 242.292365 111.856598 
L 241.514243 111.360001 
L 239.406545 110.070081 
L 237.218747 108.671999 
L 236.520727 108.198631 
L 233.634909 106.500042 
L 232.818699 105.984002 
L 230.749092 104.692992 
L 228.403915 103.296 
L 227.863274 102.946765 
L 224.977454 101.464559 
L 223.245567 100.608003 
L 222.091636 100.010413 
L 219.205818 98.846409 
L 216.881069 97.919997 
L 216.32 97.664754 
L 213.434182 96.594616 
L 210.548363 95.739824 
L 208.951555 95.231999 
L 207.662545 94.818841 
L 204.776727 94.15064 
L 201.890909 93.70785 
L 199.005091 93.483587 
L 196.119273 93.379022 
L 193.233455 93.323468 
L 190.347637 93.33548 
L 187.461818 93.415103 
L 184.576 93.579692 
L 181.690182 93.837898 
L 178.804364 94.312171 
L 175.918546 94.993635 
L 175.119219 95.231999 
L 173.032726 95.783033 
L 170.146908 96.504257 
L 167.261091 97.367078 
L 165.843921 97.919997 
L 164.375273 98.456983 
L 161.489455 99.51631 
L 159.130896 100.608003 
L 158.603635 100.874416 
L 155.71782 102.1732 
L 153.563357 103.296 
L 152.832 103.730195 
L 149.94618 105.148633 
L 148.470992 105.984002 
L 147.060365 106.875584 
L 144.174545 108.509658 
L 143.872792 108.671999 
L 141.288729 110.085004 
L 138.939044 111.360001 
L 138.402909 111.6747 
L 135.517089 113.304136 
L 134.280954 114.047998 
L 132.631274 115.051353 
L 129.999606 116.736 
L 129.745454 116.911384 
L 126.859638 118.944737 
L 126.239845 119.424002 
L 123.973818 121.233995 
L 122.949556 122.111999 
L 121.088003 123.916961 
L 120.367712 124.800001 
L 118.374155 127.487998 
L 118.202179 127.723472 
L 116.598889 130.176 
L 115.316363 132.800372 
L 115.281159 132.864002 
L 113.985488 135.551999 
L 112.826452 138.240001 
L 112.430548 139.170533 
L 111.649662 140.928 
L 110.637372 143.616 
L 109.634125 146.303999 
L 109.544723 146.520865 
L 108.527638 148.991999 
L 107.583237 151.680001 
L 106.759395 154.368 
L 106.658908 154.787456 
L 106.103908 157.056 
L 105.458278 159.744 
L 104.788141 162.432 
L 104.130817 165.120001 
L 103.773092 166.841131 
L 103.562481 167.808 
L 103.190059 170.496 
L 102.971331 173.184 
L 102.865427 175.872 
L 102.838126 178.56 
L 102.934398 181.248 
L 103.074467 183.935999 
L 103.275863 186.624 
L 103.506263 189.312 
L 103.620105 192 
L 103.773092 194.515022 
L 103.782446 194.688 
L 103.988461 197.375999 
L 104.313784 200.064001 
L 104.49783 202.752001 
L 105.101536 205.44 
L 106.228456 208.128 
L 106.658908 208.907735 
L 107.607976 210.815999 
L 109.079378 213.504001 
L 109.544723 214.241692 
L 110.674392 216.191998 
L 112.430548 218.838816 
L 112.469308 218.88 
L 115.199037 221.568002 
L 115.316363 221.680811 
L 117.920221 224.255999 
L 118.202179 224.591368 
L 119.940909 226.944001 
L 121.088003 228.223621 
L 122.50747 229.631998 
L 123.973818 231.399965 
L 124.824297 232.32 
L 126.443395 235.008002 
L 126.859638 235.733703 
L 128.134737 237.695999 
L 129.745454 239.923291 
L 130.116052 240.384001 
L 132.015862 243.071998 
L 132.631274 243.992919 
L 133.813814 245.76 
L 135.517089 248.191038 
L 135.694277 248.447997 
L 137.494381 251.136003 
L 138.402909 252.454 
L 139.325258 253.824001 
L 141.215114 256.511998 
L 141.288729 256.602793 
L 143.517117 259.200004 
L 144.174545 259.846901 
L 146.888463 261.888001 
L 147.060365 262.013898 
L 149.94618 263.588827 
L 152.832 264.308023 
L 154.080151 264.575999 
L 155.71782 265.126084 
L 158.603635 266.027413 
L 161.489455 266.481823 
L 164.375273 266.848187 
L 165.863054 267.263996 
L 167.261091 267.768168 
L 170.146908 268.390701 
L 173.032726 268.914866 
L 175.918546 269.679924 
L 176.936324 269.952002 
L 178.804364 270.466055 
L 181.690182 271.369039 
L 184.576 272.372144 
L 185.269773 272.639999 
L 187.461818 273.598633 
L 190.347637 274.72187 
L 191.553208 275.327997 
L 193.233455 276.328114 
L 196.119273 277.871534 
L 196.31867 278.016003 
L 199.005091 279.93994 
L 199.988975 280.704 
L 201.890909 282.393018 
L 202.75889 283.391998 
L 204.776727 285.663388 
L 205.120912 286.080004 
L 207.019557 288.768001 
L 207.662545 289.590612 
L 208.936737 291.455998 
L 210.548363 293.8252 
L 210.766122 294.143996 
L 212.389274 296.832002 
L 213.434182 298.552075 
L 213.978073 299.519999 
L 215.305657 302.207997 
L 216.32 304.289915 
L 216.600011 304.896003 
L 217.71796 307.584 
L 218.92262 307.584 
z
" style="fill:#21908d;"/>
   </g>
   <g id="matplotlib.axis_1">
    <g id="xtick_1">
     <g id="line2d_1">
      <defs>
       <path d="M 0 0 
L 0 3.5 
" id="m79c463bc73" style="stroke:#000000;stroke-width:0.8;"/>
      </defs>
      <g>
       <use style="stroke:#000000;stroke-width:0.8;" x="57.6" xlink:href="#m79c463bc73" y="307.584"/>
      </g>
     </g>
     <g id="text_1">
      <!-- −15 -->
      <g transform="translate(47.047656 322.182437)scale(0.1 -0.1)">
       <defs>
        <path d="M 10.59375 35.5 
L 73.1875 35.5 
L 73.1875 27.203125 
L 10.59375 27.203125 
z
" id="DejaVuSans-8722"/>
        <path d="M 12.40625 8.296875 
L 28.515625 8.296875 
L 28.515625 63.921875 
L 10.984375 60.40625 
L 10.984375 69.390625 
L 28.421875 72.90625 
L 38.28125 72.90625 
L 38.28125 8.296875 
L 54.390625 8.296875 
L 54.390625 0 
L 12.40625 0 
z
" id="DejaVuSans-49"/>
        <path d="M 10.796875 72.90625 
L 49.515625 72.90625 
L 49.515625 64.59375 
L 19.828125 64.59375 
L 19.828125 46.734375 
Q 21.96875 47.46875 24.109375 47.828125 
Q 26.265625 48.1875 28.421875 48.1875 
Q 40.625 48.1875 47.75 41.5 
Q 54.890625 34.8125 54.890625 23.390625 
Q 54.890625 11.625 47.5625 5.09375 
Q 40.234375 -1.421875 26.90625 -1.421875 
Q 22.3125 -1.421875 17.546875 -0.640625 
Q 12.796875 0.140625 7.71875 1.703125 
L 7.71875 11.625 
Q 12.109375 9.234375 16.796875 8.0625 
Q 21.484375 6.890625 26.703125 6.890625 
Q 35.15625 6.890625 40.078125 11.328125 
Q 45.015625 15.765625 45.015625 23.390625 
Q 45.015625 31 40.078125 35.4375 
Q 35.15625 39.890625 26.703125 39.890625 
Q 22.75 39.890625 18.8125 39.015625 
Q 14.890625 38.140625 10.796875 36.28125 
z
" id="DejaVuSans-53"/>
       </defs>
       <use xlink:href="#DejaVuSans-8722"/>
       <use x="83.789062" xlink:href="#DejaVuSans-49"/>
       <use x="147.412109" xlink:href="#DejaVuSans-53"/>
      </g>
     </g>
    </g>
    <g id="xtick_2">
     <g id="line2d_2">
      <g>
       <use style="stroke:#000000;stroke-width:0.8;" x="105.216" xlink:href="#m79c463bc73" y="307.584"/>
      </g>
     </g>
     <g id="text_2">
      <!-- −10 -->
      <g transform="translate(94.663656 322.182437)scale(0.1 -0.1)">
       <defs>
        <path d="M 31.78125 66.40625 
Q 24.171875 66.40625 20.328125 58.90625 
Q 16.5 51.421875 16.5 36.375 
Q 16.5 21.390625 20.328125 13.890625 
Q 24.171875 6.390625 31.78125 6.390625 
Q 39.453125 6.390625 43.28125 13.890625 
Q 47.125 21.390625 47.125 36.375 
Q 47.125 51.421875 43.28125 58.90625 
Q 39.453125 66.40625 31.78125 66.40625 
z
M 31.78125 74.21875 
Q 44.046875 74.21875 50.515625 64.515625 
Q 56.984375 54.828125 56.984375 36.375 
Q 56.984375 17.96875 50.515625 8.265625 
Q 44.046875 -1.421875 31.78125 -1.421875 
Q 19.53125 -1.421875 13.0625 8.265625 
Q 6.59375 17.96875 6.59375 36.375 
Q 6.59375 54.828125 13.0625 64.515625 
Q 19.53125 74.21875 31.78125 74.21875 
z
" id="DejaVuSans-48"/>
       </defs>
       <use xlink:href="#DejaVuSans-8722"/>
       <use x="83.789062" xlink:href="#DejaVuSans-49"/>
       <use x="147.412109" xlink:href="#DejaVuSans-48"/>
      </g>
     </g>
    </g>
    <g id="xtick_3">
     <g id="line2d_3">
      <g>
       <use style="stroke:#000000;stroke-width:0.8;" x="152.832" xlink:href="#m79c463bc73" y="307.584"/>
      </g>
     </g>
     <g id="text_3">
      <!-- −5 -->
      <g transform="translate(145.460906 322.182437)scale(0.1 -0.1)">
       <use xlink:href="#DejaVuSans-8722"/>
       <use x="83.789062" xlink:href="#DejaVuSans-53"/>
      </g>
     </g>
    </g>
    <g id="xtick_4">
     <g id="line2d_4">
      <g>
       <use style="stroke:#000000;stroke-width:0.8;" x="200.448" xlink:href="#m79c463bc73" y="307.584"/>
      </g>
     </g>
     <g id="text_4">
      <!-- 0 -->
      <g transform="translate(197.26675 322.182437)scale(0.1 -0.1)">
       <use xlink:href="#DejaVuSans-48"/>
      </g>
     </g>
    </g>
    <g id="xtick_5">
     <g id="line2d_5">
      <g>
       <use style="stroke:#000000;stroke-width:0.8;" x="248.064" xlink:href="#m79c463bc73" y="307.584"/>
      </g>
     </g>
     <g id="text_5">
      <!-- 5 -->
      <g transform="translate(244.88275 322.182437)scale(0.1 -0.1)">
       <use xlink:href="#DejaVuSans-53"/>
      </g>
     </g>
    </g>
    <g id="xtick_6">
     <g id="line2d_6">
      <g>
       <use style="stroke:#000000;stroke-width:0.8;" x="295.68" xlink:href="#m79c463bc73" y="307.584"/>
      </g>
     </g>
     <g id="text_6">
      <!-- 10 -->
      <g transform="translate(289.3175 322.182437)scale(0.1 -0.1)">
       <use xlink:href="#DejaVuSans-49"/>
       <use x="63.623047" xlink:href="#DejaVuSans-48"/>
      </g>
     </g>
    </g>
    <g id="xtick_7">
     <g id="line2d_7">
      <g>
       <use style="stroke:#000000;stroke-width:0.8;" x="343.296" xlink:href="#m79c463bc73" y="307.584"/>
      </g>
     </g>
     <g id="text_7">
      <!-- 15 -->
      <g transform="translate(336.9335 322.182437)scale(0.1 -0.1)">
       <use xlink:href="#DejaVuSans-49"/>
       <use x="63.623047" xlink:href="#DejaVuSans-53"/>
      </g>
     </g>
    </g>
    <g id="text_8">
     <!-- x -->
     <g transform="translate(197.488625 335.860562)scale(0.1 -0.1)">
      <defs>
       <path d="M 54.890625 54.6875 
L 35.109375 28.078125 
L 55.90625 0 
L 45.3125 0 
L 29.390625 21.484375 
L 13.484375 0 
L 2.875 0 
L 24.125 28.609375 
L 4.6875 54.6875 
L 15.28125 54.6875 
L 29.78125 35.203125 
L 44.28125 54.6875 
z
" id="DejaVuSans-120"/>
      </defs>
      <use xlink:href="#DejaVuSans-120"/>
     </g>
    </g>
   </g>
   <g id="matplotlib.axis_2">
    <g id="ytick_1">
     <g id="line2d_8">
      <defs>
       <path d="M 0 0 
L -3.5 0 
" id="me379d1ba9d" style="stroke:#000000;stroke-width:0.8;"/>
      </defs>
      <g>
       <use style="stroke:#000000;stroke-width:0.8;" x="57.6" xlink:href="#me379d1ba9d" y="307.584"/>
      </g>
     </g>
     <g id="text_9">
      <!-- −15 -->
      <g transform="translate(29.495313 311.383219)scale(0.1 -0.1)">
       <use xlink:href="#DejaVuSans-8722"/>
       <use x="83.789062" xlink:href="#DejaVuSans-49"/>
       <use x="147.412109" xlink:href="#DejaVuSans-53"/>
      </g>
     </g>
    </g>
    <g id="ytick_2">
     <g id="line2d_9">
      <g>
       <use style="stroke:#000000;stroke-width:0.8;" x="57.6" xlink:href="#me379d1ba9d" y="263.232"/>
      </g>
     </g>
     <g id="text_10">
      <!-- −10 -->
      <g transform="translate(29.495313 267.031219)scale(0.1 -0.1)">
       <use xlink:href="#DejaVuSans-8722"/>
       <use x="83.789062" xlink:href="#DejaVuSans-49"/>
       <use x="147.412109" xlink:href="#DejaVuSans-48"/>
      </g>
     </g>
    </g>
    <g id="ytick_3">
     <g id="line2d_10">
      <g>
       <use style="stroke:#000000;stroke-width:0.8;" x="57.6" xlink:href="#me379d1ba9d" y="218.88"/>
      </g>
     </g>
     <g id="text_11">
      <!-- −5 -->
      <g transform="translate(35.857813 222.679219)scale(0.1 -0.1)">
       <use xlink:href="#DejaVuSans-8722"/>
       <use x="83.789062" xlink:href="#DejaVuSans-53"/>
      </g>
     </g>
    </g>
    <g id="ytick_4">
     <g id="line2d_11">
      <g>
       <use style="stroke:#000000;stroke-width:0.8;" x="57.6" xlink:href="#me379d1ba9d" y="174.528"/>
      </g>
     </g>
     <g id="text_12">
      <!-- 0 -->
      <g transform="translate(44.2375 178.327219)scale(0.1 -0.1)">
       <use xlink:href="#DejaVuSans-48"/>
      </g>
     </g>
    </g>
    <g id="ytick_5">
     <g id="line2d_12">
      <g>
       <use style="stroke:#000000;stroke-width:0.8;" x="57.6" xlink:href="#me379d1ba9d" y="130.176"/>
      </g>
     </g>
     <g id="text_13">
      <!-- 5 -->
      <g transform="translate(44.2375 133.975219)scale(0.1 -0.1)">
       <use xlink:href="#DejaVuSans-53"/>
      </g>
     </g>
    </g>
    <g id="ytick_6">
     <g id="line2d_13">
      <g>
       <use style="stroke:#000000;stroke-width:0.8;" x="57.6" xlink:href="#me379d1ba9d" y="85.824"/>
      </g>
     </g>
     <g id="text_14">
      <!-- 10 -->
      <g transform="translate(37.875 89.623219)scale(0.1 -0.1)">
       <use xlink:href="#DejaVuSans-49"/>
       <use x="63.623047" xlink:href="#DejaVuSans-48"/>
      </g>
     </g>
    </g>
    <g id="ytick_7">
     <g id="line2d_14">
      <g>
       <use style="stroke:#000000;stroke-width:0.8;" x="57.6" xlink:href="#me379d1ba9d" y="41.472"/>
      </g>
     </g>
     <g id="text_15">
      <!-- 15 -->
      <g transform="translate(37.875 45.271219)scale(0.1 -0.1)">
       <use xlink:href="#DejaVuSans-49"/>
       <use x="63.623047" xlink:href="#DejaVuSans-53"/>
      </g>
     </g>
    </g>
    <g id="text_16">
     <!-- y -->
     <g transform="translate(22.535937 172.448312)scale(0.1 -0.1)">
      <defs>
       <path d="M 32.171875 -5.078125 
Q 28.375 -14.84375 24.75 -17.8125 
Q 21.140625 -20.796875 15.09375 -20.796875 
L 7.90625 -20.796875 
L 7.90625 -13.28125 
L 13.1875 -13.28125 
Q 16.890625 -13.28125 18.9375 -11.515625 
Q 21 -9.765625 23.484375 -3.21875 
L 25.09375 0.875 
L 2.984375 54.6875 
L 12.5 54.6875 
L 29.59375 11.921875 
L 46.6875 54.6875 
L 56.203125 54.6875 
z
" id="DejaVuSans-121"/>
      </defs>
      <use xlink:href="#DejaVuSans-121"/>
     </g>
    </g>
   </g>
   <g id="line2d_15">
    <defs>
     <path d="M 0 3 
C 0.795609 3 1.55874 2.683901 2.12132 2.12132 
C 2.683901 1.55874 3 0.795609 3 0 
C 3 -0.795609 2.683901 -1.55874 2.12132 -2.12132 
C 1.55874 -2.683901 0.795609 -3 0 -3 
C -0.795609 -3 -1.55874 -2.683901 -2.12132 -2.12132 
C -2.683901 -1.55874 -3 -0.795609 -3 0 
C -3 0.795609 -2.683901 1.55874 -2.12132 2.12132 
C -1.55874 2.683901 -0.795609 3 0 3 
z
" id="mb4e33dc413" style="stroke:#000000;"/>
    </defs>
    <g clip-path="url(#pf30545a818)">
     <use style="fill:#ff0000;stroke:#000000;" x="267.351183" xlink:href="#mb4e33dc413" y="127.761002"/>
     <use style="fill:#ff0000;stroke:#000000;" x="192.333345" xlink:href="#mb4e33dc413" y="288.029261"/>
     <use style="fill:#ff0000;stroke:#000000;" x="218.375653" xlink:href="#mb4e33dc413" y="158.828604"/>
     <use style="fill:#ff0000;stroke:#000000;" x="152.883827" xlink:href="#mb4e33dc413" y="195.41105"/>
     <use style="fill:#ff0000;stroke:#000000;" x="263.292123" xlink:href="#mb4e33dc413" y="209.238373"/>
     <use style="fill:#ff0000;stroke:#000000;" x="278.958437" xlink:href="#mb4e33dc413" y="159.562573"/>
     <use style="fill:#ff0000;stroke:#000000;" x="219.024911" xlink:href="#mb4e33dc413" y="157.605086"/>
     <use style="fill:#ff0000;stroke:#000000;" x="262.480222" xlink:href="#mb4e33dc413" y="212.104191"/>
     <use style="fill:#ff0000;stroke:#000000;" x="277.366366" xlink:href="#mb4e33dc413" y="177.579626"/>
     <use style="fill:#ff0000;stroke:#000000;" x="216.295848" xlink:href="#mb4e33dc413" y="151.913632"/>
     <use style="fill:#ff0000;stroke:#000000;" x="262.623545" xlink:href="#mb4e33dc413" y="119.66714"/>
     <use style="fill:#ff0000;stroke:#000000;" x="232.221237" xlink:href="#mb4e33dc413" y="230.897277"/>
     <use style="fill:#ff0000;stroke:#000000;" x="98.431123" xlink:href="#mb4e33dc413" y="220.697281"/>
     <use style="fill:#ff0000;stroke:#000000;" x="247.341665" xlink:href="#mb4e33dc413" y="222.826505"/>
     <use style="fill:#ff0000;stroke:#000000;" x="214.8936" xlink:href="#mb4e33dc413" y="151.840409"/>
     <use style="fill:#ff0000;stroke:#000000;" x="180.415207" xlink:href="#mb4e33dc413" y="288.159528"/>
     <use style="fill:#ff0000;stroke:#000000;" x="91.820649" xlink:href="#mb4e33dc413" y="188.857049"/>
     <use style="fill:#ff0000;stroke:#000000;" x="244.34667" xlink:href="#mb4e33dc413" y="102.373664"/>
     <use style="fill:#ff0000;stroke:#000000;" x="156.491518" xlink:href="#mb4e33dc413" y="203.575763"/>
     <use style="fill:#ff0000;stroke:#000000;" x="216.625889" xlink:href="#mb4e33dc413" y="151.573052"/>
     <use style="fill:#ff0000;stroke:#000000;" x="219.059735" xlink:href="#mb4e33dc413" y="154.738483"/>
     <use style="fill:#ff0000;stroke:#000000;" x="149.582704" xlink:href="#mb4e33dc413" y="181.997918"/>
     <use style="fill:#ff0000;stroke:#000000;" x="227.196262" xlink:href="#mb4e33dc413" y="232.280845"/>
     <use style="fill:#ff0000;stroke:#000000;" x="95.750871" xlink:href="#mb4e33dc413" y="152.451416"/>
     <use style="fill:#ff0000;stroke:#000000;" x="94.889758" xlink:href="#mb4e33dc413" y="207.110253"/>
     <use style="fill:#ff0000;stroke:#000000;" x="227.26064" xlink:href="#mb4e33dc413" y="231.480867"/>
     <use style="fill:#ff0000;stroke:#000000;" x="112.367164" xlink:href="#mb4e33dc413" y="243.480789"/>
     <use style="fill:#ff0000;stroke:#000000;" x="199.683238" xlink:href="#mb4e33dc413" y="143.430733"/>
     <use style="fill:#ff0000;stroke:#000000;" x="91.920833" xlink:href="#mb4e33dc413" y="162.990789"/>
     <use style="fill:#ff0000;stroke:#000000;" x="179.043348" xlink:href="#mb4e33dc413" y="225.962389"/>
     <use style="fill:#ff0000;stroke:#000000;" x="215.659938" xlink:href="#mb4e33dc413" y="153.955893"/>
     <use style="fill:#ff0000;stroke:#000000;" x="176.3517" xlink:href="#mb4e33dc413" y="225.873894"/>
     <use style="fill:#ff0000;stroke:#000000;" x="122.378878" xlink:href="#mb4e33dc413" y="254.774811"/>
     <use style="fill:#ff0000;stroke:#000000;" x="219.154587" xlink:href="#mb4e33dc413" y="157.591881"/>
     <use style="fill:#ff0000;stroke:#000000;" x="199.70232" xlink:href="#mb4e33dc413" y="233.573245"/>
     <use style="fill:#ff0000;stroke:#000000;" x="141.218775" xlink:href="#mb4e33dc413" y="98.712404"/>
     <use style="fill:#ff0000;stroke:#000000;" x="163.78953" xlink:href="#mb4e33dc413" y="90.886047"/>
     <use style="fill:#ff0000;stroke:#000000;" x="219.575176" xlink:href="#mb4e33dc413" y="159.25311"/>
     <use style="fill:#ff0000;stroke:#000000;" x="220.724722" xlink:href="#mb4e33dc413" y="167.908638"/>
     <use style="fill:#ff0000;stroke:#000000;" x="101.334349" xlink:href="#mb4e33dc413" y="141.411169"/>
     <use style="fill:#ff0000;stroke:#000000;" x="164.580488" xlink:href="#mb4e33dc413" y="153.484736"/>
     <use style="fill:#ff0000;stroke:#000000;" x="218.687552" xlink:href="#mb4e33dc413" y="90.665001"/>
     <use style="fill:#ff0000;stroke:#000000;" x="138.744366" xlink:href="#mb4e33dc413" y="100.788968"/>
     <use style="fill:#ff0000;stroke:#000000;" x="152.445964" xlink:href="#mb4e33dc413" y="173.033512"/>
     <use style="fill:#ff0000;stroke:#000000;" x="99.614966" xlink:href="#mb4e33dc413" y="143.345627"/>
     <use style="fill:#ff0000;stroke:#000000;" x="281.802229" xlink:href="#mb4e33dc413" y="173.058983"/>
     <use style="fill:#ff0000;stroke:#000000;" x="155.401924" xlink:href="#mb4e33dc413" y="159.65035"/>
     <use style="fill:#ff0000;stroke:#000000;" x="271.193073" xlink:href="#mb4e33dc413" y="196.422234"/>
     <use style="fill:#ff0000;stroke:#000000;" x="279.660105" xlink:href="#mb4e33dc413" y="157.061646"/>
     <use style="fill:#ff0000;stroke:#000000;" x="93.413891" xlink:href="#mb4e33dc413" y="163.597251"/>
     <use style="fill:#ff0000;stroke:#000000;" x="258.004338" xlink:href="#mb4e33dc413" y="216.001402"/>
     <use style="fill:#ff0000;stroke:#000000;" x="261.55167" xlink:href="#mb4e33dc413" y="210.750311"/>
     <use style="fill:#ff0000;stroke:#000000;" x="122.152908" xlink:href="#mb4e33dc413" y="257.057245"/>
     <use style="fill:#ff0000;stroke:#000000;" x="222.505261" xlink:href="#mb4e33dc413" y="163.835916"/>
     <use style="fill:#ff0000;stroke:#000000;" x="121.486513" xlink:href="#mb4e33dc413" y="257.89145"/>
     <use style="fill:#ff0000;stroke:#000000;" x="213.16798" xlink:href="#mb4e33dc413" y="234.959165"/>
     <use style="fill:#ff0000;stroke:#000000;" x="279.259769" xlink:href="#mb4e33dc413" y="154.675508"/>
     <use style="fill:#ff0000;stroke:#000000;" x="264.252489" xlink:href="#mb4e33dc413" y="121.306531"/>
     <use style="fill:#ff0000;stroke:#000000;" x="128.33832" xlink:href="#mb4e33dc413" y="108.394888"/>
     <use style="fill:#ff0000;stroke:#000000;" x="247.781817" xlink:href="#mb4e33dc413" y="222.906163"/>
     <use style="fill:#ff0000;stroke:#000000;" x="159.715594" xlink:href="#mb4e33dc413" y="281.180675"/>
     <use style="fill:#ff0000;stroke:#000000;" x="164.029661" xlink:href="#mb4e33dc413" y="154.028407"/>
     <use style="fill:#ff0000;stroke:#000000;" x="151.086788" xlink:href="#mb4e33dc413" y="187.088849"/>
     <use style="fill:#ff0000;stroke:#000000;" x="124.948357" xlink:href="#mb4e33dc413" y="111.198049"/>
     <use style="fill:#ff0000;stroke:#000000;" x="153.611147" xlink:href="#mb4e33dc413" y="166.936716"/>
     <use style="fill:#ff0000;stroke:#000000;" x="102.283049" xlink:href="#mb4e33dc413" y="137.238035"/>
     <use style="fill:#ff0000;stroke:#000000;" x="203.584967" xlink:href="#mb4e33dc413" y="143.911538"/>
     <use style="fill:#ff0000;stroke:#000000;" x="148.914152" xlink:href="#mb4e33dc413" y="174.617795"/>
     <use style="fill:#ff0000;stroke:#000000;" x="119.331238" xlink:href="#mb4e33dc413" y="253.098262"/>
     <use style="fill:#ff0000;stroke:#000000;" x="101.845186" xlink:href="#mb4e33dc413" y="136.156035"/>
     <use style="fill:#ff0000;stroke:#000000;" x="258.752434" xlink:href="#mb4e33dc413" y="216.733092"/>
     <use style="fill:#ff0000;stroke:#000000;" x="116.49007" xlink:href="#mb4e33dc413" y="250.17345"/>
     <use style="fill:#ff0000;stroke:#000000;" x="189.422071" xlink:href="#mb4e33dc413" y="86.954219"/>
     <use style="fill:#ff0000;stroke:#000000;" x="189.30816" xlink:href="#mb4e33dc413" y="139.616653"/>
     <use style="fill:#ff0000;stroke:#000000;" x="278.155985" xlink:href="#mb4e33dc413" y="147.737415"/>
     <use style="fill:#ff0000;stroke:#000000;" x="151.335785" xlink:href="#mb4e33dc413" y="178.40157"/>
     <use style="fill:#ff0000;stroke:#000000;" x="212.505276" xlink:href="#mb4e33dc413" y="88.432106"/>
     <use style="fill:#ff0000;stroke:#000000;" x="150.472724" xlink:href="#mb4e33dc413" y="178.304158"/>
     <use style="fill:#ff0000;stroke:#000000;" x="184.44614" xlink:href="#mb4e33dc413" y="143.066016"/>
     <use style="fill:#ff0000;stroke:#000000;" x="197.203194" xlink:href="#mb4e33dc413" y="142.658225"/>
     <use style="fill:#ff0000;stroke:#000000;" x="180.766637" xlink:href="#mb4e33dc413" y="228.749722"/>
     <use style="fill:#ff0000;stroke:#000000;" x="151.381472" xlink:href="#mb4e33dc413" y="196.308494"/>
     <use style="fill:#ff0000;stroke:#000000;" x="276.785333" xlink:href="#mb4e33dc413" y="174.008043"/>
     <use style="fill:#ff0000;stroke:#000000;" x="210.738543" xlink:href="#mb4e33dc413" y="146.835223"/>
     <use style="fill:#ff0000;stroke:#000000;" x="194.198806" xlink:href="#mb4e33dc413" y="141.181455"/>
     <use style="fill:#ff0000;stroke:#000000;" x="265.097499" xlink:href="#mb4e33dc413" y="119.5144"/>
     <use style="fill:#ff0000;stroke:#000000;" x="150.558613" xlink:href="#mb4e33dc413" y="186.925732"/>
     <use style="fill:#ff0000;stroke:#000000;" x="169.225666" xlink:href="#mb4e33dc413" y="148.684319"/>
     <use style="fill:#ff0000;stroke:#000000;" x="152.031374" xlink:href="#mb4e33dc413" y="196.852819"/>
     <use style="fill:#ff0000;stroke:#000000;" x="170.102493" xlink:href="#mb4e33dc413" y="219.294159"/>
     <use style="fill:#ff0000;stroke:#000000;" x="206.014064" xlink:href="#mb4e33dc413" y="144.823296"/>
     <use style="fill:#ff0000;stroke:#000000;" x="270.82362" xlink:href="#mb4e33dc413" y="130.924304"/>
     <use style="fill:#ff0000;stroke:#000000;" x="281.185587" xlink:href="#mb4e33dc413" y="162.455852"/>
     <use style="fill:#ff0000;stroke:#000000;" x="274.308078" xlink:href="#mb4e33dc413" y="190.935669"/>
     <use style="fill:#ff0000;stroke:#000000;" x="155.908048" xlink:href="#mb4e33dc413" y="204.982962"/>
     <use style="fill:#ff0000;stroke:#000000;" x="218.54496" xlink:href="#mb4e33dc413" y="90.387572"/>
     <use style="fill:#ff0000;stroke:#000000;" x="176.542457" xlink:href="#mb4e33dc413" y="285.395395"/>
     <use style="fill:#ff0000;stroke:#000000;" x="228.774896" xlink:href="#mb4e33dc413" y="232.337837"/>
     <use style="fill:#ff0000;stroke:#000000;" x="172.574837" xlink:href="#mb4e33dc413" y="88.573227"/>
     <use style="fill:#ff0000;stroke:#000000;" x="161.998031" xlink:href="#mb4e33dc413" y="213.462769"/>
     <use style="fill:#ff0000;stroke:#000000;" x="182.217433" xlink:href="#mb4e33dc413" y="142.115666"/>
     <use style="fill:#ff0000;stroke:#000000;" x="98.82641" xlink:href="#mb4e33dc413" y="146.804166"/>
     <use style="fill:#ff0000;stroke:#000000;" x="221.048074" xlink:href="#mb4e33dc413" y="166.719455"/>
     <use style="fill:#ff0000;stroke:#000000;" x="259.440629" xlink:href="#mb4e33dc413" y="213.586692"/>
     <use style="fill:#ff0000;stroke:#000000;" x="91.916128" xlink:href="#mb4e33dc413" y="194.811531"/>
     <use style="fill:#ff0000;stroke:#000000;" x="152.376282" xlink:href="#mb4e33dc413" y="166.787459"/>
     <use style="fill:#ff0000;stroke:#000000;" x="191.890598" xlink:href="#mb4e33dc413" y="289.009959"/>
     <use style="fill:#ff0000;stroke:#000000;" x="212.040289" xlink:href="#mb4e33dc413" y="148.974257"/>
     <use style="fill:#ff0000;stroke:#000000;" x="277.629781" xlink:href="#mb4e33dc413" y="174.807946"/>
     <use style="fill:#ff0000;stroke:#000000;" x="156.040709" xlink:href="#mb4e33dc413" y="161.35217"/>
     <use style="fill:#ff0000;stroke:#000000;" x="204.258481" xlink:href="#mb4e33dc413" y="232.727268"/>
     <use style="fill:#ff0000;stroke:#000000;" x="176.711378" xlink:href="#mb4e33dc413" y="225.568639"/>
     <use style="fill:#ff0000;stroke:#000000;" x="95.413182" xlink:href="#mb4e33dc413" y="152.647335"/>
     <use style="fill:#ff0000;stroke:#000000;" x="151.665013" xlink:href="#mb4e33dc413" y="172.714247"/>
     <use style="fill:#ff0000;stroke:#000000;" x="217.573741" xlink:href="#mb4e33dc413" y="233.169542"/>
     <use style="fill:#ff0000;stroke:#000000;" x="214.764784" xlink:href="#mb4e33dc413" y="150.281701"/>
     <use style="fill:#ff0000;stroke:#000000;" x="126.976992" xlink:href="#mb4e33dc413" y="110.876145"/>
     <use style="fill:#ff0000;stroke:#000000;" x="183.983909" xlink:href="#mb4e33dc413" y="143.205646"/>
     <use style="fill:#ff0000;stroke:#000000;" x="171.08018" xlink:href="#mb4e33dc413" y="146.46558"/>
     <use style="fill:#ff0000;stroke:#000000;" x="195.258719" xlink:href="#mb4e33dc413" y="141.684647"/>
     <use style="fill:#ff0000;stroke:#000000;" x="163.226042" xlink:href="#mb4e33dc413" y="281.999323"/>
     <use style="fill:#ff0000;stroke:#000000;" x="174.929309" xlink:href="#mb4e33dc413" y="145.845845"/>
     <use style="fill:#ff0000;stroke:#000000;" x="171.327795" xlink:href="#mb4e33dc413" y="223.463702"/>
     <use style="fill:#ff0000;stroke:#000000;" x="231.62479" xlink:href="#mb4e33dc413" y="95.601145"/>
     <use style="fill:#ff0000;stroke:#000000;" x="173.280289" xlink:href="#mb4e33dc413" y="221.792186"/>
     <use style="fill:#ff0000;stroke:#000000;" x="92.679255" xlink:href="#mb4e33dc413" y="167.498841"/>
     <use style="fill:#ff0000;stroke:#000000;" x="155.986308" xlink:href="#mb4e33dc413" y="205.411951"/>
     <use style="fill:#ff0000;stroke:#000000;" x="196.305904" xlink:href="#mb4e33dc413" y="232.807688"/>
     <use style="fill:#ff0000;stroke:#000000;" x="272.630309" xlink:href="#mb4e33dc413" y="193.769016"/>
     <use style="fill:#ff0000;stroke:#000000;" x="276.340323" xlink:href="#mb4e33dc413" y="142.984077"/>
     <use style="fill:#ff0000;stroke:#000000;" x="217.111648" xlink:href="#mb4e33dc413" y="232.26797"/>
     <use style="fill:#ff0000;stroke:#000000;" x="217.640108" xlink:href="#mb4e33dc413" y="153.023344"/>
     <use style="fill:#ff0000;stroke:#000000;" x="273.831121" xlink:href="#mb4e33dc413" y="135.026141"/>
     <use style="fill:#ff0000;stroke:#000000;" x="220.110007" xlink:href="#mb4e33dc413" y="161.006252"/>
     <use style="fill:#ff0000;stroke:#000000;" x="259.80609" xlink:href="#mb4e33dc413" y="215.359049"/>
     <use style="fill:#ff0000;stroke:#000000;" x="167.045202" xlink:href="#mb4e33dc413" y="88.463144"/>
     <use style="fill:#ff0000;stroke:#000000;" x="197.083374" xlink:href="#mb4e33dc413" y="233.17933"/>
     <use style="fill:#ff0000;stroke:#000000;" x="268.475189" xlink:href="#mb4e33dc413" y="201.153236"/>
     <use style="fill:#ff0000;stroke:#000000;" x="172.263964" xlink:href="#mb4e33dc413" y="224.422139"/>
     <use style="fill:#ff0000;stroke:#000000;" x="98.300678" xlink:href="#mb4e33dc413" y="145.945428"/>
     <use style="fill:#ff0000;stroke:#000000;" x="218.71702" xlink:href="#mb4e33dc413" y="233.932096"/>
     <use style="fill:#ff0000;stroke:#000000;" x="166.763484" xlink:href="#mb4e33dc413" y="220.348776"/>
     <use style="fill:#ff0000;stroke:#000000;" x="192.822958" xlink:href="#mb4e33dc413" y="141.815589"/>
     <use style="fill:#ff0000;stroke:#000000;" x="182.720623" xlink:href="#mb4e33dc413" y="87.065064"/>
     <use style="fill:#ff0000;stroke:#000000;" x="154.861203" xlink:href="#mb4e33dc413" y="165.150919"/>
     <use style="fill:#ff0000;stroke:#000000;" x="220.861936" xlink:href="#mb4e33dc413" y="160.55239"/>
     <use style="fill:#ff0000;stroke:#000000;" x="235.46918" xlink:href="#mb4e33dc413" y="96.918015"/>
     <use style="fill:#ff0000;stroke:#000000;" x="205.805032" xlink:href="#mb4e33dc413" y="144.95895"/>
     <use style="fill:#ff0000;stroke:#000000;" x="92.397766" xlink:href="#mb4e33dc413" y="186.448189"/>
     <use style="fill:#ff0000;stroke:#000000;" x="105.880178" xlink:href="#mb4e33dc413" y="234.829126"/>
     <use style="fill:#ff0000;stroke:#000000;" x="165.990142" xlink:href="#mb4e33dc413" y="219.965477"/>
     <use style="fill:#ff0000;stroke:#000000;" x="226.603916" xlink:href="#mb4e33dc413" y="233.055382"/>
     <use style="fill:#ff0000;stroke:#000000;" x="198.127622" xlink:href="#mb4e33dc413" y="142.026218"/>
     <use style="fill:#ff0000;stroke:#000000;" x="266.385808" xlink:href="#mb4e33dc413" y="204.202377"/>
     <use style="fill:#ff0000;stroke:#000000;" x="194.588226" xlink:href="#mb4e33dc413" y="232.967416"/>
     <use style="fill:#ff0000;stroke:#000000;" x="229.542598" xlink:href="#mb4e33dc413" y="230.516"/>
     <use style="fill:#ff0000;stroke:#000000;" x="221.610572" xlink:href="#mb4e33dc413" y="168.6342"/>
     <use style="fill:#ff0000;stroke:#000000;" x="191.286289" xlink:href="#mb4e33dc413" y="141.362824"/>
     <use style="fill:#ff0000;stroke:#000000;" x="209.469895" xlink:href="#mb4e33dc413" y="234.530942"/>
     <use style="fill:#ff0000;stroke:#000000;" x="166.16602" xlink:href="#mb4e33dc413" y="219.287137"/>
     <use style="fill:#ff0000;stroke:#000000;" x="162.010746" xlink:href="#mb4e33dc413" y="91.931071"/>
     <use style="fill:#ff0000;stroke:#000000;" x="180.86138" xlink:href="#mb4e33dc413" y="143.084481"/>
     <use style="fill:#ff0000;stroke:#000000;" x="277.000914" xlink:href="#mb4e33dc413" y="145.135729"/>
     <use style="fill:#ff0000;stroke:#000000;" x="191.54163" xlink:href="#mb4e33dc413" y="141.568459"/>
     <use style="fill:#ff0000;stroke:#000000;" x="149.053071" xlink:href="#mb4e33dc413" y="172.611026"/>
     <use style="fill:#ff0000;stroke:#000000;" x="249.985494" xlink:href="#mb4e33dc413" y="222.655606"/>
     <use style="fill:#ff0000;stroke:#000000;" x="222.340611" xlink:href="#mb4e33dc413" y="163.507686"/>
     <use style="fill:#ff0000;stroke:#000000;" x="265.523306" xlink:href="#mb4e33dc413" y="124.180971"/>
     <use style="fill:#ff0000;stroke:#000000;" x="156.747772" xlink:href="#mb4e33dc413" y="204.146067"/>
     <use style="fill:#ff0000;stroke:#000000;" x="246.545003" xlink:href="#mb4e33dc413" y="223.630167"/>
     <use style="fill:#ff0000;stroke:#000000;" x="155.617314" xlink:href="#mb4e33dc413" y="160.128996"/>
     <use style="fill:#ff0000;stroke:#000000;" x="190.910658" xlink:href="#mb4e33dc413" y="142.253401"/>
     <use style="fill:#ff0000;stroke:#000000;" x="142.563034" xlink:href="#mb4e33dc413" y="97.269354"/>
     <use style="fill:#ff0000;stroke:#000000;" x="216.058959" xlink:href="#mb4e33dc413" y="153.972135"/>
     <use style="fill:#ff0000;stroke:#000000;" x="101.332687" xlink:href="#mb4e33dc413" y="227.78387"/>
     <use style="fill:#ff0000;stroke:#000000;" x="166.130682" xlink:href="#mb4e33dc413" y="152.327844"/>
     <use style="fill:#ff0000;stroke:#000000;" x="177.426472" xlink:href="#mb4e33dc413" y="146.778498"/>
     <use style="fill:#ff0000;stroke:#000000;" x="256.375039" xlink:href="#mb4e33dc413" y="217.460099"/>
     <use style="fill:#ff0000;stroke:#000000;" x="267.717125" xlink:href="#mb4e33dc413" y="206.203114"/>
     <use style="fill:#ff0000;stroke:#000000;" x="124.136223" xlink:href="#mb4e33dc413" y="110.874601"/>
     <use style="fill:#ff0000;stroke:#000000;" x="204.810907" xlink:href="#mb4e33dc413" y="142.936622"/>
     <use style="fill:#ff0000;stroke:#000000;" x="105.623511" xlink:href="#mb4e33dc413" y="235.885253"/>
     <use style="fill:#ff0000;stroke:#000000;" x="267.732882" xlink:href="#mb4e33dc413" y="207.364627"/>
     <use style="fill:#ff0000;stroke:#000000;" x="153.319487" xlink:href="#mb4e33dc413" y="185.757024"/>
     <use style="fill:#ff0000;stroke:#000000;" x="197.613201" xlink:href="#mb4e33dc413" y="87.279511"/>
     <use style="fill:#ff0000;stroke:#000000;" x="153.632663" xlink:href="#mb4e33dc413" y="168.344572"/>
     <use style="fill:#ff0000;stroke:#000000;" x="220.423739" xlink:href="#mb4e33dc413" y="159.835759"/>
     <use style="fill:#ff0000;stroke:#000000;" x="128.239312" xlink:href="#mb4e33dc413" y="258.126226"/>
     <use style="fill:#ff0000;stroke:#000000;" x="157.879207" xlink:href="#mb4e33dc413" y="209.091491"/>
     <use style="fill:#ff0000;stroke:#000000;" x="221.191062" xlink:href="#mb4e33dc413" y="161.955146"/>
     <use style="fill:#ff0000;stroke:#000000;" x="99.107217" xlink:href="#mb4e33dc413" y="220.6315"/>
     <use style="fill:#ff0000;stroke:#000000;" x="194.197183" xlink:href="#mb4e33dc413" y="288.996787"/>
     <use style="fill:#ff0000;stroke:#000000;" x="186.586803" xlink:href="#mb4e33dc413" y="141.916414"/>
     <use style="fill:#ff0000;stroke:#000000;" x="274.341781" xlink:href="#mb4e33dc413" y="138.625791"/>
     <use style="fill:#ff0000;stroke:#000000;" x="149.398297" xlink:href="#mb4e33dc413" y="95.398423"/>
     <use style="fill:#ff0000;stroke:#000000;" x="92.141362" xlink:href="#mb4e33dc413" y="185.47734"/>
     <use style="fill:#ff0000;stroke:#000000;" x="178.713146" xlink:href="#mb4e33dc413" y="145.030132"/>
     <use style="fill:#ff0000;stroke:#000000;" x="160.912315" xlink:href="#mb4e33dc413" y="156.177268"/>
     <use style="fill:#ff0000;stroke:#000000;" x="204.055162" xlink:href="#mb4e33dc413" y="233.891427"/>
     <use style="fill:#ff0000;stroke:#000000;" x="156.052842" xlink:href="#mb4e33dc413" y="204.819071"/>
    </g>
   </g>
   <g id="line2d_16">
    <defs>
     <path d="M 0 3 
C 0.795609 3 1.55874 2.683901 2.12132 2.12132 
C 2.683901 1.55874 3 0.795609 3 0 
C 3 -0.795609 2.683901 -1.55874 2.12132 -2.12132 
C 1.55874 -2.683901 0.795609 -3 0 -3 
C -0.795609 -3 -1.55874 -2.683901 -2.12132 -2.12132 
C -2.683901 -1.55874 -3 -0.795609 -3 0 
C -3 0.795609 -2.683901 1.55874 -2.12132 2.12132 
C -1.55874 2.683901 -0.795609 3 0 3 
z
" id="ma479aabdf9" style="stroke:#000000;"/>
    </defs>
    <g clip-path="url(#pf30545a818)">
     <use style="fill:#0000ff;stroke:#000000;" x="151.804123" xlink:href="#ma479aabdf9" y="125.980271"/>
     <use style="fill:#0000ff;stroke:#000000;" x="122.91528" xlink:href="#ma479aabdf9" y="202.261808"/>
     <use style="fill:#0000ff;stroke:#000000;" x="245.766773" xlink:href="#ma479aabdf9" y="184.929166"/>
     <use style="fill:#0000ff;stroke:#000000;" x="308.78043" xlink:href="#ma479aabdf9" y="150.188122"/>
     <use style="fill:#0000ff;stroke:#000000;" x="223.494485" xlink:href="#ma479aabdf9" y="122.282897"/>
     <use style="fill:#0000ff;stroke:#000000;" x="306.524354" xlink:href="#ma479aabdf9" y="187.077236"/>
     <use style="fill:#0000ff;stroke:#000000;" x="204.709188" xlink:href="#ma479aabdf9" y="260.758797"/>
     <use style="fill:#0000ff;stroke:#000000;" x="139.084334" xlink:href="#ma479aabdf9" y="137.078727"/>
     <use style="fill:#0000ff;stroke:#000000;" x="128.209315" xlink:href="#ma479aabdf9" y="155.564538"/>
     <use style="fill:#0000ff;stroke:#000000;" x="184.585438" xlink:href="#ma479aabdf9" y="195.751402"/>
     <use style="fill:#0000ff;stroke:#000000;" x="273.777628" xlink:href="#ma479aabdf9" y="240.856073"/>
     <use style="fill:#0000ff;stroke:#000000;" x="143.855407" xlink:href="#ma479aabdf9" y="236.22205"/>
     <use style="fill:#0000ff;stroke:#000000;" x="143.711193" xlink:href="#ma479aabdf9" y="133.176956"/>
     <use style="fill:#0000ff;stroke:#000000;" x="181.189235" xlink:href="#ma479aabdf9" y="189.447492"/>
     <use style="fill:#0000ff;stroke:#000000;" x="152.205512" xlink:href="#ma479aabdf9" y="244.351988"/>
     <use style="fill:#0000ff;stroke:#000000;" x="121.799998" xlink:href="#ma479aabdf9" y="191.721506"/>
     <use style="fill:#0000ff;stroke:#000000;" x="124.382573" xlink:href="#ma479aabdf9" y="165.325492"/>
     <use style="fill:#0000ff;stroke:#000000;" x="180.432166" xlink:href="#ma479aabdf9" y="183.928088"/>
     <use style="fill:#0000ff;stroke:#000000;" x="141.93566" xlink:href="#ma479aabdf9" y="134.249101"/>
     <use style="fill:#0000ff;stroke:#000000;" x="180.492741" xlink:href="#ma479aabdf9" y="191.781474"/>
     <use style="fill:#0000ff;stroke:#000000;" x="178.564678" xlink:href="#ma479aabdf9" y="182.943021"/>
     <use style="fill:#0000ff;stroke:#000000;" x="220.532376" xlink:href="#ma479aabdf9" y="121.790239"/>
     <use style="fill:#0000ff;stroke:#000000;" x="213.237721" xlink:href="#ma479aabdf9" y="209.343818"/>
     <use style="fill:#0000ff;stroke:#000000;" x="301.379601" xlink:href="#ma479aabdf9" y="125.256436"/>
     <use style="fill:#0000ff;stroke:#000000;" x="165.344019" xlink:href="#ma479aabdf9" y="119.437901"/>
     <use style="fill:#0000ff;stroke:#000000;" x="239.882793" xlink:href="#ma479aabdf9" y="193.98448"/>
     <use style="fill:#0000ff;stroke:#000000;" x="121.678063" xlink:href="#ma479aabdf9" y="175.133102"/>
     <use style="fill:#0000ff;stroke:#000000;" x="240.612716" xlink:href="#ma479aabdf9" y="192.626915"/>
     <use style="fill:#0000ff;stroke:#000000;" x="132.654447" xlink:href="#ma479aabdf9" y="220.960751"/>
     <use style="fill:#0000ff;stroke:#000000;" x="169.07022" xlink:href="#ma479aabdf9" y="254.671454"/>
     <use style="fill:#0000ff;stroke:#000000;" x="212.957559" xlink:href="#ma479aabdf9" y="61.494523"/>
     <use style="fill:#0000ff;stroke:#000000;" x="199.692977" xlink:href="#ma479aabdf9" y="262.171098"/>
     <use style="fill:#0000ff;stroke:#000000;" x="141.675224" xlink:href="#ma479aabdf9" y="133.116733"/>
     <use style="fill:#0000ff;stroke:#000000;" x="214.2994" xlink:href="#ma479aabdf9" y="262.412396"/>
     <use style="fill:#0000ff;stroke:#000000;" x="263.517762" xlink:href="#ma479aabdf9" y="82.524611"/>
     <use style="fill:#0000ff;stroke:#000000;" x="126.052014" xlink:href="#ma479aabdf9" y="157.015715"/>
     <use style="fill:#0000ff;stroke:#000000;" x="182.277232" xlink:href="#ma479aabdf9" y="192.528144"/>
     <use style="fill:#0000ff;stroke:#000000;" x="147.932943" xlink:href="#ma479aabdf9" y="129.036568"/>
     <use style="fill:#0000ff;stroke:#000000;" x="155.433116" xlink:href="#ma479aabdf9" y="246.962226"/>
     <use style="fill:#0000ff;stroke:#000000;" x="261.036006" xlink:href="#ma479aabdf9" y="249.163482"/>
     <use style="fill:#0000ff;stroke:#000000;" x="302.947705" xlink:href="#ma479aabdf9" y="200.661957"/>
     <use style="fill:#0000ff;stroke:#000000;" x="206.609417" xlink:href="#ma479aabdf9" y="115.025596"/>
     <use style="fill:#0000ff;stroke:#000000;" x="144.304713" xlink:href="#ma479aabdf9" y="133.574648"/>
     <use style="fill:#0000ff;stroke:#000000;" x="248.972258" xlink:href="#ma479aabdf9" y="158.194674"/>
     <use style="fill:#0000ff;stroke:#000000;" x="186.038572" xlink:href="#ma479aabdf9" y="197.005591"/>
     <use style="fill:#0000ff;stroke:#000000;" x="211.716957" xlink:href="#ma479aabdf9" y="207.793601"/>
     <use style="fill:#0000ff;stroke:#000000;" x="203.176808" xlink:href="#ma479aabdf9" y="207.513205"/>
     <use style="fill:#0000ff;stroke:#000000;" x="151.713575" xlink:href="#ma479aabdf9" y="243.954592"/>
     <use style="fill:#0000ff;stroke:#000000;" x="150.398579" xlink:href="#ma479aabdf9" y="129.207213"/>
     <use style="fill:#0000ff;stroke:#000000;" x="170.693617" xlink:href="#ma479aabdf9" y="118.123857"/>
     <use style="fill:#0000ff;stroke:#000000;" x="218.337893" xlink:href="#ma479aabdf9" y="61.857967"/>
     <use style="fill:#0000ff;stroke:#000000;" x="227.788199" xlink:href="#ma479aabdf9" y="201.37697"/>
     <use style="fill:#0000ff;stroke:#000000;" x="179.107645" xlink:href="#ma479aabdf9" y="183.005411"/>
     <use style="fill:#0000ff;stroke:#000000;" x="282.305646" xlink:href="#ma479aabdf9" y="232.412547"/>
     <use style="fill:#0000ff;stroke:#000000;" x="244.04729" xlink:href="#ma479aabdf9" y="186.136402"/>
     <use style="fill:#0000ff;stroke:#000000;" x="248.173198" xlink:href="#ma479aabdf9" y="73.835303"/>
     <use style="fill:#0000ff;stroke:#000000;" x="250.166154" xlink:href="#ma479aabdf9" y="169.781309"/>
     <use style="fill:#0000ff;stroke:#000000;" x="178.276398" xlink:href="#ma479aabdf9" y="116.901218"/>
     <use style="fill:#0000ff;stroke:#000000;" x="209.521656" xlink:href="#ma479aabdf9" y="60.498733"/>
     <use style="fill:#0000ff;stroke:#000000;" x="173.214235" xlink:href="#ma479aabdf9" y="255.18271"/>
     <use style="fill:#0000ff;stroke:#000000;" x="222.990203" xlink:href="#ma479aabdf9" y="121.879148"/>
     <use style="fill:#0000ff;stroke:#000000;" x="250.309414" xlink:href="#ma479aabdf9" y="170.460884"/>
     <use style="fill:#0000ff;stroke:#000000;" x="138.261211" xlink:href="#ma479aabdf9" y="137.815631"/>
     <use style="fill:#0000ff;stroke:#000000;" x="237.028867" xlink:href="#ma479aabdf9" y="257.845312"/>
     <use style="fill:#0000ff;stroke:#000000;" x="122.758207" xlink:href="#ma479aabdf9" y="198.52359"/>
     <use style="fill:#0000ff;stroke:#000000;" x="307.286073" xlink:href="#ma479aabdf9" y="143.338159"/>
     <use style="fill:#0000ff;stroke:#000000;" x="201.089236" xlink:href="#ma479aabdf9" y="208.010703"/>
     <use style="fill:#0000ff;stroke:#000000;" x="210.917747" xlink:href="#ma479aabdf9" y="207.780882"/>
     <use style="fill:#0000ff;stroke:#000000;" x="190.757255" xlink:href="#ma479aabdf9" y="113.564375"/>
     <use style="fill:#0000ff;stroke:#000000;" x="246.406802" xlink:href="#ma479aabdf9" y="146.288478"/>
     <use style="fill:#0000ff;stroke:#000000;" x="191.947551" xlink:href="#ma479aabdf9" y="115.387484"/>
     <use style="fill:#0000ff;stroke:#000000;" x="174.2611" xlink:href="#ma479aabdf9" y="254.885842"/>
     <use style="fill:#0000ff;stroke:#000000;" x="182.277033" xlink:href="#ma479aabdf9" y="114.299723"/>
     <use style="fill:#0000ff;stroke:#000000;" x="187.172516" xlink:href="#ma479aabdf9" y="260.144039"/>
     <use style="fill:#0000ff;stroke:#000000;" x="247.830106" xlink:href="#ma479aabdf9" y="181.029394"/>
     <use style="fill:#0000ff;stroke:#000000;" x="204.238876" xlink:href="#ma479aabdf9" y="115.939778"/>
     <use style="fill:#0000ff;stroke:#000000;" x="246.628776" xlink:href="#ma479aabdf9" y="179.246258"/>
     <use style="fill:#0000ff;stroke:#000000;" x="296.968695" xlink:href="#ma479aabdf9" y="120.290155"/>
     <use style="fill:#0000ff;stroke:#000000;" x="306.086146" xlink:href="#ma479aabdf9" y="195.005801"/>
     <use style="fill:#0000ff;stroke:#000000;" x="224.497943" xlink:href="#ma479aabdf9" y="123.646564"/>
     <use style="fill:#0000ff;stroke:#000000;" x="301.724655" xlink:href="#ma479aabdf9" y="130.683776"/>
     <use style="fill:#0000ff;stroke:#000000;" x="245.808432" xlink:href="#ma479aabdf9" y="186.644097"/>
     <use style="fill:#0000ff;stroke:#000000;" x="197.590313" xlink:href="#ma479aabdf9" y="261.893593"/>
     <use style="fill:#0000ff;stroke:#000000;" x="175.913742" xlink:href="#ma479aabdf9" y="115.937908"/>
     <use style="fill:#0000ff;stroke:#000000;" x="126.107583" xlink:href="#ma479aabdf9" y="160.208015"/>
     <use style="fill:#0000ff;stroke:#000000;" x="247.963825" xlink:href="#ma479aabdf9" y="179.737308"/>
     <use style="fill:#0000ff;stroke:#000000;" x="201.826119" xlink:href="#ma479aabdf9" y="262.363677"/>
     <use style="fill:#0000ff;stroke:#000000;" x="164.497245" xlink:href="#ma479aabdf9" y="120.267246"/>
     <use style="fill:#0000ff;stroke:#000000;" x="267.385704" xlink:href="#ma479aabdf9" y="84.530741"/>
     <use style="fill:#0000ff;stroke:#000000;" x="216.773749" xlink:href="#ma479aabdf9" y="260.715028"/>
     <use style="fill:#0000ff;stroke:#000000;" x="196.291594" xlink:href="#ma479aabdf9" y="205.406663"/>
     <use style="fill:#0000ff;stroke:#000000;" x="206.624396" xlink:href="#ma479aabdf9" y="206.411719"/>
     <use style="fill:#0000ff;stroke:#000000;" x="126.680291" xlink:href="#ma479aabdf9" y="155.481334"/>
     <use style="fill:#0000ff;stroke:#000000;" x="219.764161" xlink:href="#ma479aabdf9" y="120.857193"/>
     <use style="fill:#0000ff;stroke:#000000;" x="213.40573" xlink:href="#ma479aabdf9" y="206.482518"/>
     <use style="fill:#0000ff;stroke:#000000;" x="130.258993" xlink:href="#ma479aabdf9" y="150.663214"/>
     <use style="fill:#0000ff;stroke:#000000;" x="176.730157" xlink:href="#ma479aabdf9" y="255.422815"/>
     <use style="fill:#0000ff;stroke:#000000;" x="146.384739" xlink:href="#ma479aabdf9" y="130.196142"/>
     <use style="fill:#0000ff;stroke:#000000;" x="262.26629" xlink:href="#ma479aabdf9" y="246.667811"/>
     <use style="fill:#0000ff;stroke:#000000;" x="191.177613" xlink:href="#ma479aabdf9" y="115.00372"/>
     <use style="fill:#0000ff;stroke:#000000;" x="310.324258" xlink:href="#ma479aabdf9" y="155.578081"/>
     <use style="fill:#0000ff;stroke:#000000;" x="187.61083" xlink:href="#ma479aabdf9" y="200.878291"/>
     <use style="fill:#0000ff;stroke:#000000;" x="123.966081" xlink:href="#ma479aabdf9" y="158.155194"/>
     <use style="fill:#0000ff;stroke:#000000;" x="219.28986" xlink:href="#ma479aabdf9" y="120.374436"/>
     <use style="fill:#0000ff;stroke:#000000;" x="240.123235" xlink:href="#ma479aabdf9" y="138.209174"/>
     <use style="fill:#0000ff;stroke:#000000;" x="212.779085" xlink:href="#ma479aabdf9" y="117.685225"/>
     <use style="fill:#0000ff;stroke:#000000;" x="190.001005" xlink:href="#ma479aabdf9" y="200.408752"/>
     <use style="fill:#0000ff;stroke:#000000;" x="230.823794" xlink:href="#ma479aabdf9" y="200.305963"/>
     <use style="fill:#0000ff;stroke:#000000;" x="309.043074" xlink:href="#ma479aabdf9" y="165.108369"/>
     <use style="fill:#0000ff;stroke:#000000;" x="197.526656" xlink:href="#ma479aabdf9" y="115.53717"/>
     <use style="fill:#0000ff;stroke:#000000;" x="127.891857" xlink:href="#ma479aabdf9" y="211.515873"/>
     <use style="fill:#0000ff;stroke:#000000;" x="215.110371" xlink:href="#ma479aabdf9" y="119.513896"/>
     <use style="fill:#0000ff;stroke:#000000;" x="231.88672" xlink:href="#ma479aabdf9" y="200.617735"/>
     <use style="fill:#0000ff;stroke:#000000;" x="237.727368" xlink:href="#ma479aabdf9" y="68.296836"/>
     <use style="fill:#0000ff;stroke:#000000;" x="247.603405" xlink:href="#ma479aabdf9" y="177.634663"/>
     <use style="fill:#0000ff;stroke:#000000;" x="246.139708" xlink:href="#ma479aabdf9" y="148.908132"/>
     <use style="fill:#0000ff;stroke:#000000;" x="276.334633" xlink:href="#ma479aabdf9" y="237.021094"/>
     <use style="fill:#0000ff;stroke:#000000;" x="216.319636" xlink:href="#ma479aabdf9" y="207.92802"/>
     <use style="fill:#0000ff;stroke:#000000;" x="236.795922" xlink:href="#ma479aabdf9" y="197.719818"/>
     <use style="fill:#0000ff;stroke:#000000;" x="163.813645" xlink:href="#ma479aabdf9" y="250.089355"/>
     <use style="fill:#0000ff;stroke:#000000;" x="247.492609" xlink:href="#ma479aabdf9" y="179.387631"/>
     <use style="fill:#0000ff;stroke:#000000;" x="202.06816" xlink:href="#ma479aabdf9" y="207.286599"/>
     <use style="fill:#0000ff;stroke:#000000;" x="180.502038" xlink:href="#ma479aabdf9" y="181.501143"/>
     <use style="fill:#0000ff;stroke:#000000;" x="305.658019" xlink:href="#ma479aabdf9" y="133.089349"/>
     <use style="fill:#0000ff;stroke:#000000;" x="248.50115" xlink:href="#ma479aabdf9" y="152.021605"/>
     <use style="fill:#0000ff;stroke:#000000;" x="219.004285" xlink:href="#ma479aabdf9" y="205.969627"/>
     <use style="fill:#0000ff;stroke:#000000;" x="185.590418" xlink:href="#ma479aabdf9" y="259.946205"/>
     <use style="fill:#0000ff;stroke:#000000;" x="245.692686" xlink:href="#ma479aabdf9" y="183.15654"/>
     <use style="fill:#0000ff;stroke:#000000;" x="232.287195" xlink:href="#ma479aabdf9" y="199.878709"/>
     <use style="fill:#0000ff;stroke:#000000;" x="240.334983" xlink:href="#ma479aabdf9" y="194.363573"/>
     <use style="fill:#0000ff;stroke:#000000;" x="221.109635" xlink:href="#ma479aabdf9" y="205.33005"/>
     <use style="fill:#0000ff;stroke:#000000;" x="261.873528" xlink:href="#ma479aabdf9" y="80.639764"/>
     <use style="fill:#0000ff;stroke:#000000;" x="126.639608" xlink:href="#ma479aabdf9" y="209.661328"/>
     <use style="fill:#0000ff;stroke:#000000;" x="242.253058" xlink:href="#ma479aabdf9" y="69.130846"/>
     <use style="fill:#0000ff;stroke:#000000;" x="177.723343" xlink:href="#ma479aabdf9" y="188.762555"/>
     <use style="fill:#0000ff;stroke:#000000;" x="122.313741" xlink:href="#ma479aabdf9" y="167.826646"/>
     <use style="fill:#0000ff;stroke:#000000;" x="208.589356" xlink:href="#ma479aabdf9" y="206.286451"/>
     <use style="fill:#0000ff;stroke:#000000;" x="309.366376" xlink:href="#ma479aabdf9" y="153.53979"/>
     <use style="fill:#0000ff;stroke:#000000;" x="246.729959" xlink:href="#ma479aabdf9" y="148.668263"/>
     <use style="fill:#0000ff;stroke:#000000;" x="168.935901" xlink:href="#ma479aabdf9" y="119.202414"/>
     <use style="fill:#0000ff;stroke:#000000;" x="210.923991" xlink:href="#ma479aabdf9" y="117.976129"/>
     <use style="fill:#0000ff;stroke:#000000;" x="186.934224" xlink:href="#ma479aabdf9" y="113.905355"/>
     <use style="fill:#0000ff;stroke:#000000;" x="183.821534" xlink:href="#ma479aabdf9" y="195.475784"/>
     <use style="fill:#0000ff;stroke:#000000;" x="123.91276" xlink:href="#ma479aabdf9" y="204.397607"/>
     <use style="fill:#0000ff;stroke:#000000;" x="179.154235" xlink:href="#ma479aabdf9" y="114.593305"/>
     <use style="fill:#0000ff;stroke:#000000;" x="243.553927" xlink:href="#ma479aabdf9" y="257.485387"/>
     <use style="fill:#0000ff;stroke:#000000;" x="205.686185" xlink:href="#ma479aabdf9" y="115.48841"/>
     <use style="fill:#0000ff;stroke:#000000;" x="193.143024" xlink:href="#ma479aabdf9" y="259.62088"/>
     <use style="fill:#0000ff;stroke:#000000;" x="178.960211" xlink:href="#ma479aabdf9" y="183.511531"/>
     <use style="fill:#0000ff;stroke:#000000;" x="180.582925" xlink:href="#ma479aabdf9" y="191.312536"/>
     <use style="fill:#0000ff;stroke:#000000;" x="224.06899" xlink:href="#ma479aabdf9" y="205.986516"/>
     <use style="fill:#0000ff;stroke:#000000;" x="239.03266" xlink:href="#ma479aabdf9" y="195.306844"/>
     <use style="fill:#0000ff;stroke:#000000;" x="158.067555" xlink:href="#ma479aabdf9" y="120.627662"/>
     <use style="fill:#0000ff;stroke:#000000;" x="304.283953" xlink:href="#ma479aabdf9" y="134.521052"/>
     <use style="fill:#0000ff;stroke:#000000;" x="295.713576" xlink:href="#ma479aabdf9" y="116.787785"/>
     <use style="fill:#0000ff;stroke:#000000;" x="303.795185" xlink:href="#ma479aabdf9" y="129.844554"/>
     <use style="fill:#0000ff;stroke:#000000;" x="136.588374" xlink:href="#ma479aabdf9" y="141.814921"/>
     <use style="fill:#0000ff;stroke:#000000;" x="228.322034" xlink:href="#ma479aabdf9" y="201.937499"/>
     <use style="fill:#0000ff;stroke:#000000;" x="307.899782" xlink:href="#ma479aabdf9" y="155.365065"/>
     <use style="fill:#0000ff;stroke:#000000;" x="203.994017" xlink:href="#ma479aabdf9" y="116.062131"/>
     <use style="fill:#0000ff;stroke:#000000;" x="197.383408" xlink:href="#ma479aabdf9" y="261.429033"/>
     <use style="fill:#0000ff;stroke:#000000;" x="240.780542" xlink:href="#ma479aabdf9" y="138.444944"/>
     <use style="fill:#0000ff;stroke:#000000;" x="157.726216" xlink:href="#ma479aabdf9" y="123.432413"/>
     <use style="fill:#0000ff;stroke:#000000;" x="222.703447" xlink:href="#ma479aabdf9" y="62.907618"/>
     <use style="fill:#0000ff;stroke:#000000;" x="204.738579" xlink:href="#ma479aabdf9" y="117.439706"/>
     <use style="fill:#0000ff;stroke:#000000;" x="221.824059" xlink:href="#ma479aabdf9" y="260.446761"/>
     <use style="fill:#0000ff;stroke:#000000;" x="306.817159" xlink:href="#ma479aabdf9" y="184.339876"/>
     <use style="fill:#0000ff;stroke:#000000;" x="248.772607" xlink:href="#ma479aabdf9" y="157.549994"/>
     <use style="fill:#0000ff;stroke:#000000;" x="298.306378" xlink:href="#ma479aabdf9" y="210.850345"/>
     <use style="fill:#0000ff;stroke:#000000;" x="163.865846" xlink:href="#ma479aabdf9" y="250.470902"/>
     <use style="fill:#0000ff;stroke:#000000;" x="195.106369" xlink:href="#ma479aabdf9" y="204.386045"/>
     <use style="fill:#0000ff;stroke:#000000;" x="285.878499" xlink:href="#ma479aabdf9" y="102.698102"/>
     <use style="fill:#0000ff;stroke:#000000;" x="189.789178" xlink:href="#ma479aabdf9" y="116.114533"/>
     <use style="fill:#0000ff;stroke:#000000;" x="122.054086" xlink:href="#ma479aabdf9" y="193.352831"/>
     <use style="fill:#0000ff;stroke:#000000;" x="125.624573" xlink:href="#ma479aabdf9" y="205.71311"/>
     <use style="fill:#0000ff;stroke:#000000;" x="179.567182" xlink:href="#ma479aabdf9" y="186.38297"/>
     <use style="fill:#0000ff;stroke:#000000;" x="282.514787" xlink:href="#ma479aabdf9" y="232.189551"/>
     <use style="fill:#0000ff;stroke:#000000;" x="289.054377" xlink:href="#ma479aabdf9" y="225.297297"/>
     <use style="fill:#0000ff;stroke:#000000;" x="248.41666" xlink:href="#ma479aabdf9" y="177.343581"/>
     <use style="fill:#0000ff;stroke:#000000;" x="179.895643" xlink:href="#ma479aabdf9" y="189.174799"/>
     <use style="fill:#0000ff;stroke:#000000;" x="146.63469" xlink:href="#ma479aabdf9" y="131.313287"/>
     <use style="fill:#0000ff;stroke:#000000;" x="169.199673" xlink:href="#ma479aabdf9" y="254.122087"/>
     <use style="fill:#0000ff;stroke:#000000;" x="185.998702" xlink:href="#ma479aabdf9" y="116.171796"/>
     <use style="fill:#0000ff;stroke:#000000;" x="182.40181" xlink:href="#ma479aabdf9" y="194.361726"/>
     <use style="fill:#0000ff;stroke:#000000;" x="183.103464" xlink:href="#ma479aabdf9" y="193.965927"/>
     <use style="fill:#0000ff;stroke:#000000;" x="135.484022" xlink:href="#ma479aabdf9" y="226.360855"/>
     <use style="fill:#0000ff;stroke:#000000;" x="180.009615" xlink:href="#ma479aabdf9" y="185.008542"/>
     <use style="fill:#0000ff;stroke:#000000;" x="221.985406" xlink:href="#ma479aabdf9" y="123.101457"/>
     <use style="fill:#0000ff;stroke:#000000;" x="193.506019" xlink:href="#ma479aabdf9" y="114.119003"/>
     <use style="fill:#0000ff;stroke:#000000;" x="131.051223" xlink:href="#ma479aabdf9" y="150.67716"/>
     <use style="fill:#0000ff;stroke:#000000;" x="212.08534" xlink:href="#ma479aabdf9" y="206.685294"/>
     <use style="fill:#0000ff;stroke:#000000;" x="277.922159" xlink:href="#ma479aabdf9" y="93.934409"/>
     <use style="fill:#0000ff;stroke:#000000;" x="307.52167" xlink:href="#ma479aabdf9" y="187.026937"/>
     <use style="fill:#0000ff;stroke:#000000;" x="224.464968" xlink:href="#ma479aabdf9" y="261.249726"/>
     <use style="fill:#0000ff;stroke:#000000;" x="207.008618" xlink:href="#ma479aabdf9" y="115.435745"/>
     <use style="fill:#0000ff;stroke:#000000;" x="278.605945" xlink:href="#ma479aabdf9" y="237.214693"/>
     <use style="fill:#0000ff;stroke:#000000;" x="287.682036" xlink:href="#ma479aabdf9" y="106.297019"/>
     <use style="fill:#0000ff;stroke:#000000;" x="223.662442" xlink:href="#ma479aabdf9" y="204.6922"/>
     <use style="fill:#0000ff;stroke:#000000;" x="164.808311" xlink:href="#ma479aabdf9" y="251.37143"/>
     <use style="fill:#0000ff;stroke:#000000;" x="288.149498" xlink:href="#ma479aabdf9" y="226.498394"/>
    </g>
   </g>
   <g id="patch_3">
    <path d="M 57.6 307.584 
L 57.6 41.472 
" style="fill:none;stroke:#000000;stroke-linecap:square;stroke-linejoin:miter;stroke-width:0.8;"/>
   </g>
   <g id="patch_4">
    <path d="M 343.296 307.584 
L 343.296 41.472 
" style="fill:none;stroke:#000000;stroke-linecap:square;stroke-linejoin:miter;stroke-width:0.8;"/>
   </g>
   <g id="patch_5">
    <path d="M 57.6 307.584 
L 343.296 307.584 
" style="fill:none;stroke:#000000;stroke-linecap:square;stroke-linejoin:miter;stroke-width:0.8;"/>
   </g>
   <g id="patch_6">
    <path d="M 57.6 41.472 
L 343.296 41.472 
" style="fill:none;stroke:#000000;stroke-linecap:square;stroke-linejoin:miter;stroke-width:0.8;"/>
   </g>
   <g id="text_17">
    <!-- Spirals -->
    <g transform="translate(180.227063 35.472)scale(0.12 -0.12)">
     <defs>
      <path d="M 53.515625 70.515625 
L 53.515625 60.890625 
Q 47.90625 63.578125 42.921875 64.890625 
Q 37.9375 66.21875 33.296875 66.21875 
Q 25.25 66.21875 20.875 63.09375 
Q 16.5 59.96875 16.5 54.203125 
Q 16.5 49.359375 19.40625 46.890625 
Q 22.3125 44.4375 30.421875 42.921875 
L 36.375 41.703125 
Q 47.40625 39.59375 52.65625 34.296875 
Q 57.90625 29 57.90625 20.125 
Q 57.90625 9.515625 50.796875 4.046875 
Q 43.703125 -1.421875 29.984375 -1.421875 
Q 24.8125 -1.421875 18.96875 -0.25 
Q 13.140625 0.921875 6.890625 3.21875 
L 6.890625 13.375 
Q 12.890625 10.015625 18.65625 8.296875 
Q 24.421875 6.59375 29.984375 6.59375 
Q 38.421875 6.59375 43.015625 9.90625 
Q 47.609375 13.234375 47.609375 19.390625 
Q 47.609375 24.75 44.3125 27.78125 
Q 41.015625 30.8125 33.5 32.328125 
L 27.484375 33.5 
Q 16.453125 35.6875 11.515625 40.375 
Q 6.59375 45.0625 6.59375 53.421875 
Q 6.59375 63.09375 13.40625 68.65625 
Q 20.21875 74.21875 32.171875 74.21875 
Q 37.3125 74.21875 42.625 73.28125 
Q 47.953125 72.359375 53.515625 70.515625 
z
" id="DejaVuSans-83"/>
      <path d="M 18.109375 8.203125 
L 18.109375 -20.796875 
L 9.078125 -20.796875 
L 9.078125 54.6875 
L 18.109375 54.6875 
L 18.109375 46.390625 
Q 20.953125 51.265625 25.265625 53.625 
Q 29.59375 56 35.59375 56 
Q 45.5625 56 51.78125 48.09375 
Q 58.015625 40.1875 58.015625 27.296875 
Q 58.015625 14.40625 51.78125 6.484375 
Q 45.5625 -1.421875 35.59375 -1.421875 
Q 29.59375 -1.421875 25.265625 0.953125 
Q 20.953125 3.328125 18.109375 8.203125 
z
M 48.6875 27.296875 
Q 48.6875 37.203125 44.609375 42.84375 
Q 40.53125 48.484375 33.40625 48.484375 
Q 26.265625 48.484375 22.1875 42.84375 
Q 18.109375 37.203125 18.109375 27.296875 
Q 18.109375 17.390625 22.1875 11.75 
Q 26.265625 6.109375 33.40625 6.109375 
Q 40.53125 6.109375 44.609375 11.75 
Q 48.6875 17.390625 48.6875 27.296875 
z
" id="DejaVuSans-112"/>
      <path d="M 9.421875 54.6875 
L 18.40625 54.6875 
L 18.40625 0 
L 9.421875 0 
z
M 9.421875 75.984375 
L 18.40625 75.984375 
L 18.40625 64.59375 
L 9.421875 64.59375 
z
" id="DejaVuSans-105"/>
      <path d="M 41.109375 46.296875 
Q 39.59375 47.171875 37.8125 47.578125 
Q 36.03125 48 33.890625 48 
Q 26.265625 48 22.1875 43.046875 
Q 18.109375 38.09375 18.109375 28.8125 
L 18.109375 0 
L 9.078125 0 
L 9.078125 54.6875 
L 18.109375 54.6875 
L 18.109375 46.1875 
Q 20.953125 51.171875 25.484375 53.578125 
Q 30.03125 56 36.53125 56 
Q 37.453125 56 38.578125 55.875 
Q 39.703125 55.765625 41.0625 55.515625 
z
" id="DejaVuSans-114"/>
      <path d="M 34.28125 27.484375 
Q 23.390625 27.484375 19.1875 25 
Q 14.984375 22.515625 14.984375 16.5 
Q 14.984375 11.71875 18.140625 8.90625 
Q 21.296875 6.109375 26.703125 6.109375 
Q 34.1875 6.109375 38.703125 11.40625 
Q 43.21875 16.703125 43.21875 25.484375 
L 43.21875 27.484375 
z
M 52.203125 31.203125 
L 52.203125 0 
L 43.21875 0 
L 43.21875 8.296875 
Q 40.140625 3.328125 35.546875 0.953125 
Q 30.953125 -1.421875 24.3125 -1.421875 
Q 15.921875 -1.421875 10.953125 3.296875 
Q 6 8.015625 6 15.921875 
Q 6 25.140625 12.171875 29.828125 
Q 18.359375 34.515625 30.609375 34.515625 
L 43.21875 34.515625 
L 43.21875 35.40625 
Q 43.21875 41.609375 39.140625 45 
Q 35.0625 48.390625 27.6875 48.390625 
Q 23 48.390625 18.546875 47.265625 
Q 14.109375 46.140625 10.015625 43.890625 
L 10.015625 52.203125 
Q 14.9375 54.109375 19.578125 55.046875 
Q 24.21875 56 28.609375 56 
Q 40.484375 56 46.34375 49.84375 
Q 52.203125 43.703125 52.203125 31.203125 
z
" id="DejaVuSans-97"/>
      <path d="M 9.421875 75.984375 
L 18.40625 75.984375 
L 18.40625 0 
L 9.421875 0 
z
" id="DejaVuSans-108"/>
      <path d="M 44.28125 53.078125 
L 44.28125 44.578125 
Q 40.484375 46.53125 36.375 47.5 
Q 32.28125 48.484375 27.875 48.484375 
Q 21.1875 48.484375 17.84375 46.4375 
Q 14.5 44.390625 14.5 40.28125 
Q 14.5 37.15625 16.890625 35.375 
Q 19.28125 33.59375 26.515625 31.984375 
L 29.59375 31.296875 
Q 39.15625 29.25 43.1875 25.515625 
Q 47.21875 21.78125 47.21875 15.09375 
Q 47.21875 7.46875 41.1875 3.015625 
Q 35.15625 -1.421875 24.609375 -1.421875 
Q 20.21875 -1.421875 15.453125 -0.5625 
Q 10.6875 0.296875 5.421875 2 
L 5.421875 11.28125 
Q 10.40625 8.6875 15.234375 7.390625 
Q 20.0625 6.109375 24.8125 6.109375 
Q 31.15625 6.109375 34.5625 8.28125 
Q 37.984375 10.453125 37.984375 14.40625 
Q 37.984375 18.0625 35.515625 20.015625 
Q 33.0625 21.96875 24.703125 23.78125 
L 21.578125 24.515625 
Q 13.234375 26.265625 9.515625 29.90625 
Q 5.8125 33.546875 5.8125 39.890625 
Q 5.8125 47.609375 11.28125 51.796875 
Q 16.75 56 26.8125 56 
Q 31.78125 56 36.171875 55.265625 
Q 40.578125 54.546875 44.28125 53.078125 
z
" id="DejaVuSans-115"/>
     </defs>
     <use xlink:href="#DejaVuSans-83"/>
     <use x="63.476562" xlink:href="#DejaVuSans-112"/>
     <use x="126.953125" xlink:href="#DejaVuSans-105"/>
     <use x="154.736328" xlink:href="#DejaVuSans-114"/>
     <use x="195.849609" xlink:href="#DejaVuSans-97"/>
     <use x="257.128906" xlink:href="#DejaVuSans-108"/>
     <use x="284.912109" xlink:href="#DejaVuSans-115"/>
    </g>
   </g>
  </g>
  <g id="axes_2">
   <g id="patch_7">
    <path clip-path="url(#p68db66de28)" d="M 361.152 307.584 
L 361.152 41.472 
L 361.152 307.584 
L 361.152 41.472 
L 374.4576 41.472 
L 374.4576 307.584 
L 374.4576 41.472 
L 374.4576 307.584 
z
" style="fill:#ffffff;stroke:#ffffff;stroke-linejoin:miter;stroke-width:0.01;"/>
   </g>
   <g id="QuadMesh_1">
    <path clip-path="url(#p68db66de28)" d="M 361.152 307.584 
L 374.4576 307.584 
L 374.4576 41.472 
L 361.152 41.472 
L 361.152 307.584 
" style="fill:#21908d;"/>
   </g>
   <g id="matplotlib.axis_3"/>
   <g id="matplotlib.axis_4">
    <g id="ytick_8">
     <g id="line2d_17">
      <defs>
       <path d="M 0 0 
L 3.5 0 
" id="mb379e4773f" style="stroke:#000000;stroke-width:0.8;"/>
      </defs>
      <g>
       <use style="stroke:#000000;stroke-width:0.8;" x="374.4576" xlink:href="#mb379e4773f" y="307.584"/>
      </g>
     </g>
     <g id="text_18">
      <!-- 0.45 -->
      <g transform="translate(381.4576 311.383219)scale(0.1 -0.1)">
       <defs>
        <path d="M 10.6875 12.40625 
L 21 12.40625 
L 21 0 
L 10.6875 0 
z
" id="DejaVuSans-46"/>
        <path d="M 37.796875 64.3125 
L 12.890625 25.390625 
L 37.796875 25.390625 
z
M 35.203125 72.90625 
L 47.609375 72.90625 
L 47.609375 25.390625 
L 58.015625 25.390625 
L 58.015625 17.1875 
L 47.609375 17.1875 
L 47.609375 0 
L 37.796875 0 
L 37.796875 17.1875 
L 4.890625 17.1875 
L 4.890625 26.703125 
z
" id="DejaVuSans-52"/>
       </defs>
       <use xlink:href="#DejaVuSans-48"/>
       <use x="63.623047" xlink:href="#DejaVuSans-46"/>
       <use x="95.410156" xlink:href="#DejaVuSans-52"/>
       <use x="159.033203" xlink:href="#DejaVuSans-53"/>
      </g>
     </g>
    </g>
    <g id="ytick_9">
     <g id="line2d_18">
      <g>
       <use style="stroke:#000000;stroke-width:0.8;" x="374.4576" xlink:href="#mb379e4773f" y="41.472"/>
      </g>
     </g>
     <g id="text_19">
      <!-- 0.55 -->
      <g transform="translate(381.4576 45.271219)scale(0.1 -0.1)">
       <use xlink:href="#DejaVuSans-48"/>
       <use x="63.623047" xlink:href="#DejaVuSans-46"/>
       <use x="95.410156" xlink:href="#DejaVuSans-53"/>
       <use x="159.033203" xlink:href="#DejaVuSans-53"/>
      </g>
     </g>
    </g>
   </g>
   <g id="patch_8">
    <path d="M 361.152 307.584 
L 361.152 41.472 
L 361.152 307.584 
L 361.152 41.472 
L 374.4576 41.472 
L 374.4576 307.584 
L 374.4576 41.472 
L 374.4576 307.584 
z
" style="fill:none;stroke:#000000;stroke-linejoin:miter;stroke-width:0.8;"/>
   </g>
  </g>
 </g>
 <defs>
  <clipPath id="pf30545a818">
   <rect height="266.112" width="285.696" x="57.6" y="41.472"/>
  </clipPath>
  <clipPath id="p68db66de28">
   <rect height="266.112" width="13.3056" x="361.152" y="41.472"/>
  </clipPath>
 </defs>
</svg>
