<?xml version="1.0" encoding="utf-8" standalone="no"?>
<!DOCTYPE svg PUBLIC "-//W3C//DTD SVG 1.1//EN"
  "http://www.w3.org/Graphics/SVG/1.1/DTD/svg11.dtd">
<!-- Created with matplotlib (https://matplotlib.org/) -->
<svg height="345.6pt" version="1.1" viewBox="0 0 460.8 345.6" width="460.8pt" xmlns="http://www.w3.org/2000/svg" xmlns:xlink="http://www.w3.org/1999/xlink">
 <metadata>
  <rdf:RDF xmlns:cc="http://creativecommons.org/ns#" xmlns:dc="http://purl.org/dc/elements/1.1/" xmlns:rdf="http://www.w3.org/1999/02/22-rdf-syntax-ns#">
   <cc:Work>
    <dc:type rdf:resource="http://purl.org/dc/dcmitype/StillImage"/>
    <dc:date>2020-09-14T00:56:26.775930</dc:date>
    <dc:format>image/svg+xml</dc:format>
    <dc:creator>
     <cc:Agent>
      <dc:title>Matplotlib v3.3.1, https://matplotlib.org/</dc:title>
     </cc:Agent>
    </dc:creator>
   </cc:Work>
  </rdf:RDF>
 </metadata>
 <defs>
  <style type="text/css">*{stroke-linecap:butt;stroke-linejoin:round;}</style>
 </defs>
 <g id="figure_1">
  <g id="patch_1">
   <path d="M 0 345.6 
L 460.8 345.6 
L 460.8 0 
L 0 0 
z
" style="fill:#ffffff;"/>
  </g>
  <g id="axes_1">
   <g id="patch_2">
    <path d="M 57.6 307.584 
L 343.296 307.584 
L 343.296 41.472 
L 57.6 41.472 
z
" style="fill:#ffffff;"/>
   </g>
   <g id="PathCollection_1">
    <path clip-path="url(#pf0929aa19a)" d="M 207.662545 307.584 
L 207.666358 307.584 
L 207.662545 307.564058 
L 207.199837 304.896003 
L 206.651229 302.207997 
L 205.996076 299.519999 
L 205.135155 296.832002 
L 204.776727 296.154956 
L 203.830231 294.143996 
L 202.631065 291.455998 
L 201.890909 290.112098 
L 201.201575 288.768001 
L 199.891735 286.080004 
L 199.005091 284.672844 
L 198.20541 283.391998 
L 196.487012 280.704 
L 196.119273 280.215926 
L 194.244872 278.016003 
L 193.233455 276.803903 
L 190.502477 275.327997 
L 190.347637 275.237971 
L 187.461818 274.057969 
L 184.576 273.221253 
L 182.226071 272.639999 
L 181.690182 272.495313 
L 178.804364 271.736916 
L 175.918546 270.970853 
L 173.032726 270.260412 
L 172.04648 269.952002 
L 170.146908 269.316288 
L 167.261091 268.203238 
L 164.929458 267.263996 
L 164.375273 267.023791 
L 161.489455 265.829037 
L 158.603635 264.631001 
L 158.484389 264.575999 
L 155.71782 263.266291 
L 152.832 261.90191 
L 152.807473 261.888001 
L 149.94618 260.126792 
L 148.408343 259.200004 
L 147.060365 258.424067 
L 144.174545 256.960842 
L 143.311222 256.511998 
L 141.288729 255.435068 
L 138.402909 253.993214 
L 138.080239 253.824001 
L 135.517089 252.456573 
L 132.975586 251.136003 
L 132.631274 250.936156 
L 129.745454 249.218596 
L 128.534389 248.447997 
L 126.859638 247.271477 
L 124.616117 245.76 
L 123.973818 245.246068 
L 122.050193 243.071998 
L 121.088003 242.028862 
L 119.800747 240.384001 
L 118.202179 238.225996 
L 117.831341 237.695999 
L 116.030071 235.008002 
L 115.316363 233.921603 
L 114.412408 232.32 
L 113.278279 229.631998 
L 112.430548 227.49831 
L 112.228095 226.944001 
L 111.447621 224.255999 
L 110.924961 221.568002 
L 110.447747 218.88 
L 109.902375 216.191998 
L 109.544723 214.349583 
L 109.399965 213.504001 
L 109.078285 210.815999 
L 108.825261 208.128 
L 108.602595 205.44 
L 108.401244 202.752001 
L 108.197685 200.064001 
L 107.892886 197.375999 
L 107.626293 194.688 
L 107.340843 192 
L 106.987342 189.312 
L 106.720567 186.624 
L 106.658908 185.329196 
L 106.602447 183.935999 
L 106.491682 181.248 
L 106.335954 178.56 
L 105.976614 175.872 
L 105.671795 173.184 
L 105.462357 170.496 
L 105.344448 167.808 
L 105.33368 165.120001 
L 105.472115 162.432 
L 105.900722 159.744 
L 106.605672 157.056 
L 106.658908 156.880882 
L 107.452911 154.368 
L 108.509537 151.680001 
L 109.544723 149.663157 
L 109.957991 148.991999 
L 111.808143 146.303999 
L 112.430548 145.464489 
L 113.907918 143.616 
L 115.316363 141.75996 
L 115.961709 140.928 
L 117.9682 138.240001 
L 118.202179 137.938605 
L 120.051579 135.551999 
L 121.088003 134.179818 
L 122.14005 132.864002 
L 123.973818 130.326032 
L 124.087625 130.176 
L 126.182437 127.487998 
L 126.859638 126.651899 
L 128.387728 124.800001 
L 129.745454 123.177399 
L 130.6848 122.111999 
L 132.631274 119.965688 
L 133.153299 119.424002 
L 135.517089 117.175057 
L 136.010077 116.736 
L 138.402909 114.803641 
L 139.369949 114.047998 
L 141.288729 112.6205 
L 142.998356 111.360001 
L 144.174545 110.502716 
L 146.721823 108.671999 
L 147.060365 108.43884 
L 149.94618 106.588964 
L 150.846412 105.984002 
L 152.832 104.814115 
L 155.349865 103.296 
L 155.71782 103.082962 
L 158.603635 101.717637 
L 161.108171 100.608003 
L 161.489455 100.455838 
L 164.375273 99.606652 
L 167.261091 98.986681 
L 170.146908 98.776188 
L 173.032726 98.942551 
L 175.918546 99.188111 
L 178.804364 99.481128 
L 181.690182 99.831872 
L 184.576 100.241807 
L 187.461818 100.25286 
L 190.347637 100.223431 
L 193.233455 100.125214 
L 196.119273 100.124535 
L 199.005091 100.201675 
L 201.890909 100.348952 
L 204.776727 100.523316 
L 206.251091 100.608003 
L 207.662545 100.700018 
L 210.548363 100.934559 
L 213.434182 101.142056 
L 216.32 101.669826 
L 219.205818 102.474822 
L 222.091636 103.223513 
L 222.33997 103.296 
L 224.977454 104.074532 
L 227.863274 104.95345 
L 230.749092 105.965475 
L 230.797258 105.984002 
L 233.634909 107.123794 
L 236.520727 108.316259 
L 237.203536 108.671999 
L 239.406545 110.009524 
L 241.262844 111.360001 
L 242.292365 112.198129 
L 244.269522 114.047998 
L 245.17818 114.907167 
L 246.921413 116.736 
L 248.064 117.956607 
L 249.377395 119.424002 
L 250.94982 121.213389 
L 251.677731 122.111999 
L 253.578679 124.800001 
L 253.835635 125.130432 
L 255.483986 127.487998 
L 256.721455 129.320891 
L 257.24565 130.176 
L 258.958302 132.864002 
L 259.607271 133.747914 
L 260.7342 135.551999 
L 262.041079 138.240001 
L 262.493091 139.101352 
L 263.36003 140.928 
L 264.435908 143.616 
L 265.378911 146.225275 
L 265.406749 146.303999 
L 265.803017 148.991999 
L 265.908574 151.680001 
L 266.153011 154.368 
L 266.508274 157.056 
L 266.612523 159.744 
L 266.57142 162.432 
L 266.451939 165.120001 
L 266.310136 167.808 
L 265.995374 170.496 
L 265.589228 173.184 
L 265.378911 174.189672 
L 264.984969 175.872 
L 264.347857 178.56 
L 263.756707 181.248 
L 263.183799 183.935999 
L 262.493091 186.065107 
L 262.281042 186.624 
L 261.441878 189.312 
L 260.708718 192 
L 259.927904 194.688 
L 259.607271 195.473238 
L 258.781875 197.375999 
L 257.793307 200.064001 
L 256.721455 201.998956 
L 256.209459 202.752001 
L 253.835635 205.429379 
L 253.82427 205.44 
L 250.94982 207.616562 
L 250.142057 208.128 
L 248.064 209.418518 
L 245.680538 210.815999 
L 245.17818 211.113595 
L 242.292365 212.670429 
L 240.858152 213.504001 
L 239.406545 214.335301 
L 236.520727 216.037824 
L 236.271659 216.191998 
L 233.634909 217.770658 
L 231.598986 218.88 
L 230.749092 219.338558 
L 227.863274 220.628889 
L 225.635947 221.568002 
L 224.977454 221.834555 
L 222.091636 222.769316 
L 219.205818 223.577879 
L 216.32 224.088782 
L 215.012589 224.255999 
L 213.434182 224.440192 
L 210.548363 224.711368 
L 207.662545 224.787156 
L 204.776727 224.453566 
L 203.797697 224.255999 
L 201.890909 223.808274 
L 199.005091 222.645535 
L 196.900379 221.568002 
L 196.119273 221.123117 
L 193.233455 219.515725 
L 192.197759 218.88 
L 190.347637 217.737912 
L 187.784121 216.191998 
L 187.461818 215.97364 
L 184.576 213.996883 
L 183.917395 213.504001 
L 181.690182 211.694041 
L 180.623113 210.815999 
L 178.804364 209.190859 
L 177.639407 208.128 
L 175.918546 206.467975 
L 174.860754 205.44 
L 173.032726 203.591517 
L 172.225359 202.752001 
L 170.146908 200.463492 
L 169.789877 200.064001 
L 167.678269 197.375999 
L 167.261091 196.724197 
L 166.12565 194.688 
L 165.096406 192 
L 164.375273 189.526169 
L 164.314115 189.312 
L 163.823377 186.624 
L 163.916991 183.935999 
L 164.375273 182.98317 
L 165.459095 181.248 
L 167.261091 179.70706 
L 168.695621 178.56 
L 170.146908 177.528822 
L 172.654229 175.872 
L 173.032726 175.638868 
L 175.918546 174.433558 
L 178.804364 173.65957 
L 181.690182 173.227247 
L 182.154581 173.184 
L 184.576 172.979501 
L 187.461818 172.909345 
L 190.347637 172.923971 
L 193.233455 173.11067 
L 194.023299 173.184 
L 196.119273 173.397375 
L 199.005091 173.743915 
L 201.890909 174.014085 
L 204.776727 174.274727 
L 207.662545 174.480236 
L 210.548363 174.659295 
L 213.434182 174.8521 
L 216.32 175.0802 
L 219.205818 175.141623 
L 222.091636 175.089653 
L 224.977454 174.768159 
L 227.863274 174.003863 
L 229.887906 173.184 
L 230.749092 172.806011 
L 233.634909 171.26999 
L 234.251775 170.496 
L 235.313503 167.808 
L 235.487768 165.120001 
L 235.398126 162.432 
L 235.320993 159.744 
L 235.358853 157.056 
L 235.015582 154.368 
L 233.634909 151.805892 
L 233.556755 151.680001 
L 231.382077 148.991999 
L 230.749092 148.384558 
L 227.863274 146.317967 
L 227.84219 146.303999 
L 224.977454 144.521459 
L 223.492061 143.616 
L 222.091636 142.751978 
L 219.205818 141.131896 
L 218.855104 140.928 
L 216.32 139.401505 
L 214.38083 138.240001 
L 213.434182 137.637953 
L 210.548363 136.193322 
L 209.099473 135.551999 
L 207.662545 134.900014 
L 204.776727 133.823731 
L 201.980059 132.864002 
L 201.890909 132.829725 
L 199.005091 132.020318 
L 196.119273 131.368348 
L 193.233455 130.876832 
L 190.347637 130.565939 
L 187.461818 130.353972 
L 184.576 130.337972 
L 181.690182 130.516133 
L 178.804364 131.272081 
L 175.918546 132.2673 
L 174.433109 132.864002 
L 173.032726 133.398091 
L 170.146908 134.703599 
L 168.683085 135.551999 
L 167.261091 136.370449 
L 164.375273 138.227884 
L 164.359272 138.240001 
L 161.489455 140.412222 
L 160.862707 140.928 
L 158.603635 142.880117 
L 157.842032 143.616 
L 155.71782 145.893016 
L 155.35058 146.303999 
L 153.301184 148.991999 
L 152.832 149.644381 
L 151.420468 151.680001 
L 149.94618 153.966675 
L 149.675384 154.368 
L 148.012614 157.056 
L 147.060365 158.798523 
L 146.535109 159.744 
L 145.259353 162.432 
L 144.174545 164.956243 
L 144.100493 165.120001 
L 143.24191 167.808 
L 142.418586 170.496 
L 141.42562 173.184 
L 141.288729 173.5092 
L 140.253232 175.872 
L 139.166673 178.56 
L 138.402909 180.590459 
L 138.124037 181.248 
L 137.312178 183.935999 
L 136.712117 186.624 
L 136.295209 189.312 
L 136.210436 192 
L 136.387302 194.688 
L 136.746322 197.375999 
L 137.62125 200.064001 
L 138.402909 202.090849 
L 138.647208 202.752001 
L 139.655259 205.44 
L 140.870047 208.128 
L 141.288729 208.88977 
L 142.286084 210.815999 
L 143.818806 213.504001 
L 144.174545 214.089131 
L 145.347393 216.191998 
L 147.048869 218.88 
L 147.060365 218.896596 
L 148.840366 221.568002 
L 149.94618 223.125632 
L 150.752452 224.255999 
L 152.588708 226.944001 
L 152.832 227.255885 
L 155.192842 229.631998 
L 155.71782 230.143281 
L 158.603635 232.179764 
L 158.82183 232.32 
L 161.489455 233.979293 
L 163.415361 235.008002 
L 164.375273 235.519866 
L 167.261091 236.904593 
L 169.036848 237.695999 
L 170.146908 238.175928 
L 173.032726 239.301697 
L 175.918546 240.375443 
L 175.941818 240.384001 
L 178.804364 241.453814 
L 181.690182 242.449383 
L 183.634417 243.071998 
L 184.576 243.38915 
L 187.461818 244.28021 
L 190.347637 245.15507 
L 192.465136 245.76 
L 193.233455 245.985276 
L 196.119273 246.634728 
L 199.005091 246.92993 
L 201.890909 246.990124 
L 204.776727 246.636474 
L 207.662545 246.393509 
L 210.548363 246.219413 
L 213.434182 246.132313 
L 216.32 246.197996 
L 219.205818 246.416319 
L 222.091636 246.646019 
L 224.977454 246.855251 
L 227.863274 247.020126 
L 230.749092 247.162923 
L 233.634909 247.298428 
L 236.520727 247.388326 
L 239.406545 247.251887 
L 242.292365 246.876057 
L 245.074271 245.76 
L 245.17818 245.712557 
L 248.064 244.445986 
L 250.480074 243.071998 
L 250.94982 242.773946 
L 253.835635 240.67933 
L 254.194254 240.384001 
L 256.721455 238.316389 
L 257.420624 237.695999 
L 259.607271 235.84125 
L 260.581849 235.008002 
L 262.493091 233.462582 
L 263.743704 232.32 
L 265.378911 230.752456 
L 266.524089 229.631998 
L 268.264726 227.93516 
L 269.29639 226.944001 
L 271.150546 225.036288 
L 271.902179 224.255999 
L 274.036362 221.941071 
L 274.384768 221.568002 
L 276.592458 218.88 
L 276.922182 218.471837 
L 278.607884 216.191998 
L 279.807997 214.528497 
L 280.617009 213.504001 
L 282.382837 210.815999 
L 282.693821 210.326019 
L 284.009769 208.128 
L 285.33006 205.44 
L 285.579637 205.017129 
L 286.856248 202.752001 
L 288.068674 200.064001 
L 288.465452 199.1667 
L 289.264961 197.375999 
L 290.157139 194.688 
L 290.971354 192 
L 291.351277 190.885406 
L 291.916421 189.312 
L 292.635166 186.624 
L 293.15262 183.935999 
L 293.617783 181.248 
L 294.077211 178.56 
L 294.237092 177.565096 
L 294.534526 175.872 
L 294.772063 173.184 
L 294.855153 170.496 
L 294.899137 167.808 
L 294.912473 165.120001 
L 294.859414 162.432 
L 294.721845 159.744 
L 294.504233 157.056 
L 294.237092 155.463195 
L 294.068471 154.368 
L 293.630699 151.680001 
L 293.115044 148.991999 
L 292.557227 146.303999 
L 291.73863 143.616 
L 291.351277 142.629124 
L 290.761767 140.928 
L 289.772059 138.240001 
L 288.465452 135.713564 
L 288.375818 135.551999 
L 287.075071 132.864002 
L 285.618442 130.176 
L 285.579637 130.11189 
L 284.285759 127.487998 
L 282.808408 124.800001 
L 282.693821 124.62983 
L 281.261956 122.111999 
L 279.807997 119.906814 
L 279.477471 119.424002 
L 277.858748 116.736 
L 276.922182 115.322252 
L 276.13399 114.047998 
L 274.514082 111.360001 
L 274.036362 110.728676 
L 272.614069 108.671999 
L 271.150546 106.872831 
L 270.397102 105.984002 
L 268.264726 103.505858 
L 268.071977 103.296 
L 265.727235 100.608003 
L 265.378911 100.25227 
L 263.081369 97.919997 
L 262.493091 97.352659 
L 260.205891 95.231999 
L 259.607271 94.690268 
L 257.139488 92.544002 
L 256.721455 92.183552 
L 253.835635 89.951446 
L 253.712014 89.855996 
L 250.94982 87.96766 
L 249.642633 87.167999 
L 248.064 86.191637 
L 245.17818 84.74348 
L 244.692114 84.480001 
L 242.292365 83.268852 
L 239.406545 82.181217 
L 238.482189 81.792004 
L 236.520727 80.946548 
L 233.634909 80.044079 
L 230.749092 79.117718 
L 230.712691 79.103998 
L 227.863274 78.105572 
L 224.977454 77.326828 
L 222.102457 76.416001 
L 222.091636 76.411654 
L 219.205818 75.309394 
L 216.32 73.954342 
L 215.919645 73.728003 
L 213.434182 72.472599 
L 210.548363 71.188417 
L 210.233055 71.039997 
L 207.662545 69.95702 
L 204.776727 68.675159 
L 204.013948 68.352 
L 201.890909 67.492362 
L 199.005091 66.407957 
L 197.039983 65.664002 
L 196.119273 65.286798 
L 193.233455 64.247283 
L 190.347637 63.27805 
L 189.416492 62.975996 
L 187.461818 62.321036 
L 184.576 61.473117 
L 181.690182 60.70564 
L 180.054873 60.287999 
L 178.804364 59.94538 
L 175.918546 59.250706 
L 173.032726 58.654876 
L 170.146908 58.087526 
L 167.558724 57.600002 
L 167.261091 57.538263 
L 164.375273 57.015697 
L 161.489455 56.655876 
L 158.603635 56.44219 
L 155.71782 56.313345 
L 152.832 56.436917 
L 149.94618 56.849434 
L 147.50933 57.600002 
L 147.060365 57.730391 
L 144.174545 58.580716 
L 141.288729 59.324747 
L 138.402909 60.079916 
L 137.631118 60.287999 
L 135.517089 60.732111 
L 132.631274 61.385104 
L 129.745454 62.177 
L 127.410755 62.975996 
L 126.859638 63.161787 
L 123.973818 64.105477 
L 121.088003 65.157666 
L 119.936904 65.664002 
L 118.202179 66.402238 
L 115.316363 67.640553 
L 113.857401 68.352 
L 112.430548 69.056054 
L 109.544723 70.723195 
L 109.05801 71.039997 
L 106.658908 72.500839 
L 104.562148 73.728003 
L 103.773092 74.246066 
L 101.190195 76.416001 
L 100.887277 76.696742 
L 98.387191 79.103998 
L 98.001452 79.506457 
L 95.965522 81.792004 
L 95.115637 82.775095 
L 93.599616 84.480001 
L 92.229821 86.059646 
L 91.282439 87.167999 
L 89.343997 89.60249 
L 89.135138 89.855996 
L 87.057354 92.544002 
L 86.458182 93.30952 
L 84.930556 95.231999 
L 83.572366 97.106859 
L 82.968349 97.919997 
L 81.225183 100.608003 
L 80.686542 101.607811 
L 79.718667 103.296 
L 78.350152 105.984002 
L 77.800726 107.17252 
L 77.050775 108.671999 
L 75.593725 111.360001 
L 74.914911 112.702501 
L 74.201893 114.047998 
L 72.968848 116.736 
L 72.029095 118.740057 
L 71.615604 119.424002 
L 70.049696 122.111999 
L 69.143271 123.687018 
L 68.454104 124.800001 
L 67.032377 127.487998 
L 66.257455 128.632907 
L 65.019716 130.176 
L 63.37164 132.077253 
L 62.640413 132.864002 
L 60.485815 135.259742 
L 60.202446 135.551999 
L 57.660212 138.240001 
L 57.6 138.304699 
L 57.6 140.928 
L 57.6 140.985327 
L 57.652366 140.928 
L 60.151801 138.240001 
L 60.485815 137.887809 
L 62.586827 135.551999 
L 63.37164 134.679838 
L 64.927749 132.864002 
L 66.257455 131.323353 
L 67.202227 130.176 
L 68.897504 127.487998 
L 69.143271 127.036512 
L 70.374641 124.800001 
L 71.894215 122.111999 
L 72.029095 121.882394 
L 73.228285 119.424002 
L 74.446487 116.736 
L 74.914911 115.735687 
L 75.726722 114.047998 
L 77.056309 111.360001 
L 77.800726 110.009878 
L 78.513123 108.671999 
L 79.748694 105.984002 
L 80.686542 104.220327 
L 81.193374 103.296 
L 82.627549 100.608003 
L 83.572366 99.163721 
L 84.398428 97.919997 
L 86.33365 95.231999 
L 86.458182 95.075279 
L 88.439417 92.544002 
L 89.343997 91.38236 
L 90.566953 89.855996 
L 92.229821 87.777591 
L 92.743863 87.167999 
L 95.062438 84.480001 
L 95.115637 84.420174 
L 97.387698 81.792004 
L 98.001452 81.102999 
L 99.917404 79.103998 
L 100.887277 78.170137 
L 102.779979 76.416001 
L 103.773092 75.58167 
L 106.596393 73.728003 
L 106.658908 73.691415 
L 109.544723 71.962003 
L 110.995798 71.039997 
L 112.430548 70.194535 
L 115.316363 68.778949 
L 116.199013 68.352 
L 118.202179 67.465115 
L 121.088003 66.267043 
L 122.501962 65.664002 
L 123.973818 65.103771 
L 126.859638 64.171729 
L 129.745454 63.218776 
L 130.484527 62.975996 
L 132.631274 62.354569 
L 135.517089 61.707437 
L 138.402909 61.131958 
L 141.288729 60.526531 
L 142.28909 60.287999 
L 144.174545 59.788311 
L 147.060365 59.013897 
L 149.94618 58.198649 
L 152.832 57.751219 
L 154.994578 57.600002 
L 155.71782 57.553819 
L 156.791542 57.600002 
L 158.603635 57.682152 
L 161.489455 57.906568 
L 164.375273 58.274837 
L 167.261091 58.762027 
L 170.146908 59.283926 
L 173.032726 59.84683 
L 175.088616 60.287999 
L 175.918546 60.481546 
L 178.804364 61.180778 
L 181.690182 61.87885 
L 184.576 62.622993 
L 185.770803 62.975996 
L 187.461818 63.504388 
L 190.347637 64.399294 
L 193.233455 65.29813 
L 194.24864 65.664002 
L 196.119273 66.366988 
L 199.005091 67.380391 
L 201.740882 68.352 
L 201.890909 68.413627 
L 204.776727 69.626745 
L 207.662545 70.693414 
L 208.485181 71.039997 
L 210.548363 72.011163 
L 213.434182 73.125293 
L 214.627434 73.728003 
L 216.32 74.68489 
L 219.205818 75.989863 
L 220.320729 76.416001 
L 222.091636 77.149113 
L 224.977454 77.974839 
L 227.863274 78.784051 
L 228.776374 79.103998 
L 230.749092 79.847569 
L 233.634909 80.697954 
L 236.520727 81.643616 
L 236.864988 81.792004 
L 239.406545 82.862161 
L 242.292365 83.935213 
L 243.3718 84.480001 
L 245.17818 85.459175 
L 248.064 86.907176 
L 248.485712 87.167999 
L 250.94982 88.675397 
L 252.67676 89.855996 
L 253.835635 90.750778 
L 256.130301 92.544002 
L 256.721455 93.050166 
L 259.233107 95.231999 
L 259.607271 95.570908 
L 262.141243 97.919997 
L 262.493091 98.255081 
L 264.809097 100.608003 
L 265.378911 101.190372 
L 267.238499 103.296 
L 268.264726 104.413317 
L 269.616258 105.984002 
L 271.150546 107.793985 
L 271.864762 108.671999 
L 273.672627 111.360001 
L 274.036362 111.842532 
L 275.412536 114.047998 
L 276.922182 116.488614 
L 277.086068 116.736 
L 278.698654 119.424002 
L 279.807997 121.044462 
L 280.511863 122.111999 
L 281.973988 124.800001 
L 282.693821 125.939464 
L 283.55674 127.487998 
L 284.817102 130.176 
L 285.579637 131.460738 
L 286.343769 132.864002 
L 287.59594 135.551999 
L 288.465452 137.119283 
L 289.045058 138.240001 
L 290.0539 140.928 
L 290.926177 143.616 
L 291.351277 144.701779 
L 291.873083 146.303999 
L 292.449932 148.991999 
L 292.940726 151.680001 
L 293.32478 154.368 
L 293.694867 157.056 
L 293.918762 159.744 
L 294.080982 162.432 
L 294.153016 165.120001 
L 294.134284 167.808 
L 294.080745 170.496 
L 293.977151 173.184 
L 293.724312 175.872 
L 293.335431 178.56 
L 292.914073 181.248 
L 292.460103 183.935999 
L 291.897858 186.624 
L 291.351277 188.492656 
L 291.051603 189.312 
L 290.17676 192 
L 289.377252 194.688 
L 288.465452 197.255287 
L 288.409613 197.375999 
L 287.230782 200.064001 
L 286.026219 202.752001 
L 285.579637 203.544384 
L 284.460851 205.44 
L 283.179041 208.128 
L 282.693821 208.938459 
L 281.502166 210.815999 
L 279.807997 213.307106 
L 279.648779 213.504001 
L 277.736241 216.191998 
L 276.922182 217.292978 
L 275.64015 218.88 
L 274.036362 220.797274 
L 273.316693 221.568002 
L 271.150546 223.916952 
L 270.821714 224.255999 
L 268.264726 226.898067 
L 268.216346 226.944001 
L 265.465243 229.631998 
L 265.378911 229.716467 
L 262.662997 232.32 
L 262.493091 232.475229 
L 259.607271 234.786822 
L 259.346415 235.008002 
L 256.721455 237.224653 
L 256.169423 237.695999 
L 253.835635 239.61532 
L 252.857042 240.384001 
L 250.94982 241.788548 
L 248.927034 243.071998 
L 248.064 243.562793 
L 245.17818 244.817076 
L 243.112969 245.76 
L 242.292365 246.089213 
L 239.406545 246.398454 
L 236.520727 246.458032 
L 233.634909 246.357102 
L 230.749092 246.2281 
L 227.863274 246.070468 
L 224.977454 245.91272 
L 222.932847 245.76 
L 222.091636 245.688855 
L 219.205818 245.426034 
L 216.32 245.180014 
L 213.434182 245.072623 
L 210.548363 245.160079 
L 207.662545 245.319359 
L 204.776727 245.562501 
L 203.364262 245.76 
L 201.890909 245.935488 
L 200.432351 245.76 
L 199.005091 245.513483 
L 196.119273 245.074448 
L 193.233455 244.371506 
L 190.347637 243.514947 
L 188.975296 243.071998 
L 187.461818 242.558562 
L 184.576 241.695083 
L 181.690182 240.769469 
L 180.596349 240.384001 
L 178.804364 239.732807 
L 175.918546 238.688834 
L 173.28005 237.695999 
L 173.032726 237.593829 
L 170.146908 236.396459 
L 167.261091 235.103848 
L 167.065441 235.008002 
L 164.375273 233.649032 
L 161.939426 232.32 
L 161.489455 232.05611 
L 158.603635 230.204031 
L 157.8046 229.631998 
L 155.71782 228.072334 
L 154.592711 226.944001 
L 152.832 225.020569 
L 152.304024 224.255999 
L 150.433241 221.568002 
L 149.94618 220.94471 
L 148.542298 218.88 
L 147.060365 216.646447 
L 146.772485 216.191998 
L 145.280937 213.504001 
L 144.174545 211.592131 
L 143.724374 210.815999 
L 142.331593 208.128 
L 141.288729 205.907292 
L 141.072317 205.44 
L 140.028415 202.752001 
L 139.050633 200.064001 
L 138.402909 198.275355 
L 138.09295 197.375999 
L 137.677059 194.688 
L 137.504096 192 
L 137.567618 189.312 
L 137.973738 186.624 
L 138.402909 184.676943 
L 138.576429 183.935999 
L 139.360581 181.248 
L 140.309954 178.56 
L 141.288729 176.218246 
L 141.44904 175.872 
L 142.564369 173.184 
L 143.554373 170.496 
L 144.174545 168.379533 
L 144.351982 167.808 
L 145.287433 165.120001 
L 146.427035 162.432 
L 147.060365 161.13274 
L 147.778256 159.744 
L 149.242037 157.056 
L 149.94618 155.936051 
L 150.984128 154.368 
L 152.726624 151.680001 
L 152.832 151.528034 
L 154.655879 148.991999 
L 155.71782 147.620207 
L 156.813654 146.303999 
L 158.603635 144.401918 
L 159.431897 143.616 
L 161.489455 141.830707 
L 162.6248 140.928 
L 164.375273 139.589713 
L 166.324925 138.240001 
L 167.261091 137.63701 
L 170.146908 135.992501 
L 171.005423 135.551999 
L 173.032726 134.600999 
L 175.918546 133.511031 
L 177.637058 132.864002 
L 178.804364 132.443171 
L 181.690182 131.792907 
L 184.576 131.595013 
L 187.461818 131.628627 
L 190.347637 131.834877 
L 193.233455 132.161193 
L 196.119273 132.678514 
L 196.910533 132.864002 
L 199.005091 133.366288 
L 201.890909 134.113079 
L 204.776727 135.056738 
L 206.056114 135.551999 
L 207.662545 136.211694 
L 210.548363 137.476535 
L 212.032224 138.240001 
L 213.434182 138.984959 
L 216.32 140.696424 
L 216.704586 140.928 
L 219.205818 142.382149 
L 221.3638 143.616 
L 222.091636 144.059629 
L 224.977454 145.801032 
L 225.785777 146.303999 
L 227.863274 147.680257 
L 229.646131 148.991999 
L 230.749092 149.996825 
L 232.151405 151.680001 
L 233.634909 154.06965 
L 233.795685 154.368 
L 234.385436 157.056 
L 234.340279 159.744 
L 234.35019 162.432 
L 234.412373 165.120001 
L 234.098866 167.808 
L 233.634909 168.818294 
L 231.440702 170.496 
L 230.749092 170.880893 
L 227.863274 172.184941 
L 224.977454 173.064585 
L 224.286685 173.184 
L 222.091636 173.523736 
L 219.205818 173.597015 
L 216.32 173.584244 
L 213.434182 173.387018 
L 210.580211 173.184 
L 210.548363 173.18159 
L 207.662545 172.992713 
L 204.776727 172.766653 
L 201.890909 172.482382 
L 199.005091 172.211749 
L 196.119273 171.905582 
L 193.233455 171.664683 
L 190.347637 171.525637 
L 187.461818 171.540029 
L 184.576 171.657555 
L 181.690182 171.920652 
L 178.804364 172.335983 
L 175.918546 173.083309 
L 175.660558 173.184 
L 173.032726 174.245044 
L 170.391311 175.872 
L 170.146908 176.0335 
L 167.261091 178.075531 
L 166.652228 178.56 
L 164.375273 180.511591 
L 163.604942 181.248 
L 162.401685 183.935999 
L 162.415318 186.624 
L 162.910831 189.312 
L 163.672972 192 
L 164.375273 193.7555 
L 164.740618 194.688 
L 166.189123 197.375999 
L 167.261091 198.802875 
L 168.25904 200.064001 
L 170.146908 202.176382 
L 170.669692 202.752001 
L 173.032726 205.20913 
L 173.261041 205.44 
L 175.918546 208.022596 
L 176.027813 208.128 
L 178.804364 210.661214 
L 178.97759 210.815999 
L 181.690182 213.048068 
L 182.251222 213.504001 
L 184.576 215.243799 
L 185.954613 216.191998 
L 187.461818 217.190529 
L 190.329104 218.88 
L 190.347637 218.89163 
L 193.233455 220.661776 
L 194.832406 221.568002 
L 196.119273 222.315084 
L 199.005091 223.745364 
L 200.208702 224.255999 
L 201.890909 224.978019 
L 204.776727 225.549518 
L 207.662545 225.891451 
L 210.548363 225.888272 
L 213.434182 225.660177 
L 216.32 225.347688 
L 219.205818 224.947763 
L 221.798289 224.255999 
L 222.091636 224.172317 
L 224.977454 223.263186 
L 227.863274 222.122102 
L 229.025943 221.568002 
L 230.749092 220.779943 
L 233.634909 219.234794 
L 234.222989 218.88 
L 236.520727 217.512482 
L 238.593116 216.191998 
L 239.406545 215.708295 
L 242.292365 214.088782 
L 243.289825 213.504001 
L 245.17818 212.471276 
L 247.972375 210.815999 
L 248.064 210.762277 
L 250.94982 208.94741 
L 251.993651 208.128 
L 253.835635 206.712202 
L 255.290532 205.44 
L 256.721455 203.833998 
L 257.633624 202.752001 
L 259.014654 200.064001 
L 259.607271 198.534651 
L 260.109431 197.375999 
L 261.156483 194.688 
L 261.854728 192 
L 262.46129 189.312 
L 262.493091 189.209538 
L 263.367687 186.624 
L 264.035828 183.935999 
L 264.557703 181.248 
L 265.192419 178.56 
L 265.378911 177.813352 
L 265.899237 175.872 
L 266.415383 173.184 
L 266.780745 170.496 
L 267.088181 167.808 
L 267.274118 165.120001 
L 267.392956 162.432 
L 267.444132 159.744 
L 267.371774 157.056 
L 267.121467 154.368 
L 267.006298 151.680001 
L 266.915001 148.991999 
L 266.438104 146.303999 
L 265.499493 143.616 
L 265.378911 143.350013 
L 264.390384 140.928 
L 263.174103 138.240001 
L 262.493091 136.914289 
L 261.820013 135.551999 
L 260.246051 132.864002 
L 259.607271 131.874662 
L 258.526437 130.176 
L 256.898647 127.487998 
L 256.721455 127.235305 
L 255.030833 124.800001 
L 253.835635 123.143186 
L 253.09698 122.111999 
L 250.94982 119.46132 
L 250.917027 119.424002 
L 248.51948 116.736 
L 248.064 116.247538 
L 245.966395 114.047998 
L 245.17818 113.26135 
L 243.145618 111.360001 
L 242.292365 110.579768 
L 239.634586 108.671999 
L 239.406545 108.522554 
L 236.520727 107.034417 
L 233.940454 105.984002 
L 233.634909 105.854689 
L 230.749092 104.756699 
L 227.863274 103.78047 
L 226.321346 103.296 
L 224.977454 102.839339 
L 222.091636 102.020634 
L 219.205818 101.234764 
L 217.081577 100.608003 
L 216.32 100.367085 
L 213.434182 99.836253 
L 210.548363 99.662167 
L 207.662545 99.472075 
L 204.776727 99.324843 
L 201.890909 99.178554 
L 199.005091 99.121084 
L 196.119273 99.134983 
L 193.233455 99.182445 
L 190.347637 99.280126 
L 187.461818 99.314369 
L 184.576 99.302696 
L 181.690182 98.980054 
L 178.804364 98.63372 
L 175.918546 98.33094 
L 173.032726 98.058563 
L 170.877011 97.919997 
L 170.146908 97.869678 
L 169.721605 97.919997 
L 167.261091 98.170634 
L 164.375273 98.817702 
L 161.489455 99.641944 
L 159.068773 100.608003 
L 158.603635 100.814082 
L 155.71782 102.173921 
L 153.77979 103.296 
L 152.832 103.867458 
L 149.94618 105.535418 
L 149.270247 105.984002 
L 147.060365 107.431753 
L 145.259556 108.671999 
L 144.174545 109.451792 
L 141.556495 111.360001 
L 141.288729 111.557423 
L 138.402909 113.68573 
L 137.954045 114.047998 
L 135.517089 116.014862 
L 134.674022 116.736 
L 132.631274 118.680014 
L 131.892141 119.424002 
L 129.745454 121.798535 
L 129.4585 122.111999 
L 127.231814 124.800001 
L 126.859638 125.251042 
L 125.047809 127.487998 
L 123.973818 128.857846 
L 122.931572 130.176 
L 121.088003 132.656637 
L 120.920997 132.864002 
L 118.903045 135.551999 
L 118.202179 136.45645 
L 116.817579 138.240001 
L 115.316363 140.205051 
L 114.727811 140.928 
L 112.693818 143.616 
L 112.430548 143.945404 
L 110.681907 146.303999 
L 109.544723 147.933156 
L 108.814705 148.991999 
L 107.507393 151.680001 
L 106.658908 153.785439 
L 106.404378 154.368 
L 105.608044 157.056 
L 104.942773 159.744 
L 104.436486 162.432 
L 104.251305 165.120001 
L 104.252045 167.808 
L 104.366195 170.496 
L 104.574259 173.184 
L 104.875914 175.872 
L 105.226913 178.56 
L 105.381828 181.248 
L 105.50311 183.935999 
L 105.643448 186.624 
L 105.859335 189.312 
L 106.213274 192 
L 106.546677 194.688 
L 106.658908 195.637365 
L 106.847955 197.375999 
L 107.146938 200.064001 
L 107.384811 202.752001 
L 107.598352 205.44 
L 107.829539 208.128 
L 108.109733 210.815999 
L 108.465453 213.504001 
L 108.910556 216.191998 
L 109.511467 218.88 
L 109.544723 219.026215 
L 110.038566 221.568002 
L 110.553329 224.255999 
L 111.285084 226.944001 
L 112.246596 229.631998 
L 112.430548 230.060403 
L 113.377866 232.32 
L 114.83748 235.008002 
L 115.316363 235.706472 
L 116.667087 237.695999 
L 118.202179 239.889938 
L 118.568162 240.384001 
L 120.637891 243.071998 
L 121.088003 243.600076 
L 123.01524 245.76 
L 123.973818 246.58844 
L 126.605409 248.447997 
L 126.859638 248.64526 
L 129.745454 250.470779 
L 130.850057 251.136003 
L 132.631274 252.20224 
L 135.517089 253.704726 
L 135.740661 253.824001 
L 138.402909 255.22013 
L 140.943936 256.511998 
L 141.288729 256.700689 
L 144.174545 258.187616 
L 146.124944 259.200004 
L 147.060365 259.731902 
L 149.94618 261.471307 
L 150.623149 261.888001 
L 152.832 263.14058 
L 155.71782 264.564575 
L 155.741951 264.575999 
L 158.603635 265.895953 
L 161.489455 267.134714 
L 161.796512 267.263996 
L 164.375273 268.372692 
L 167.261091 269.528626 
L 168.327037 269.952002 
L 170.146908 270.675993 
L 173.032726 271.566998 
L 175.918546 272.325857 
L 177.045702 272.639999 
L 178.804364 273.154836 
L 181.690182 273.866943 
L 184.576 274.57375 
L 187.112823 275.327997 
L 187.461818 275.440292 
L 190.347637 276.618719 
L 192.94182 278.016003 
L 193.233455 278.183481 
L 195.340267 280.704 
L 196.119273 281.554705 
L 197.326369 283.391998 
L 199.004475 286.080004 
L 199.005091 286.080882 
L 200.397975 288.768001 
L 201.745575 291.455998 
L 201.890909 291.724446 
L 202.980666 294.143996 
L 204.063687 296.832002 
L 204.776727 299.088236 
L 204.906969 299.519999 
L 205.519221 302.207997 
L 206.004695 304.896003 
L 206.40712 307.584 
z
" style="fill:#21908d;"/>
   </g>
   <g id="matplotlib.axis_1">
    <g id="xtick_1">
     <g id="line2d_1">
      <defs>
       <path d="M 0 0 
L 0 3.5 
" id="mc224285aef" style="stroke:#000000;stroke-width:0.8;"/>
      </defs>
      <g>
       <use style="stroke:#000000;stroke-width:0.8;" x="57.6" xlink:href="#mc224285aef" y="307.584"/>
      </g>
     </g>
     <g id="text_1">
      <!-- −15 -->
      <g transform="translate(47.047656 322.182437)scale(0.1 -0.1)">
       <defs>
        <path d="M 10.59375 35.5 
L 73.1875 35.5 
L 73.1875 27.203125 
L 10.59375 27.203125 
z
" id="DejaVuSans-8722"/>
        <path d="M 12.40625 8.296875 
L 28.515625 8.296875 
L 28.515625 63.921875 
L 10.984375 60.40625 
L 10.984375 69.390625 
L 28.421875 72.90625 
L 38.28125 72.90625 
L 38.28125 8.296875 
L 54.390625 8.296875 
L 54.390625 0 
L 12.40625 0 
z
" id="DejaVuSans-49"/>
        <path d="M 10.796875 72.90625 
L 49.515625 72.90625 
L 49.515625 64.59375 
L 19.828125 64.59375 
L 19.828125 46.734375 
Q 21.96875 47.46875 24.109375 47.828125 
Q 26.265625 48.1875 28.421875 48.1875 
Q 40.625 48.1875 47.75 41.5 
Q 54.890625 34.8125 54.890625 23.390625 
Q 54.890625 11.625 47.5625 5.09375 
Q 40.234375 -1.421875 26.90625 -1.421875 
Q 22.3125 -1.421875 17.546875 -0.640625 
Q 12.796875 0.140625 7.71875 1.703125 
L 7.71875 11.625 
Q 12.109375 9.234375 16.796875 8.0625 
Q 21.484375 6.890625 26.703125 6.890625 
Q 35.15625 6.890625 40.078125 11.328125 
Q 45.015625 15.765625 45.015625 23.390625 
Q 45.015625 31 40.078125 35.4375 
Q 35.15625 39.890625 26.703125 39.890625 
Q 22.75 39.890625 18.8125 39.015625 
Q 14.890625 38.140625 10.796875 36.28125 
z
" id="DejaVuSans-53"/>
       </defs>
       <use xlink:href="#DejaVuSans-8722"/>
       <use x="83.789062" xlink:href="#DejaVuSans-49"/>
       <use x="147.412109" xlink:href="#DejaVuSans-53"/>
      </g>
     </g>
    </g>
    <g id="xtick_2">
     <g id="line2d_2">
      <g>
       <use style="stroke:#000000;stroke-width:0.8;" x="105.216" xlink:href="#mc224285aef" y="307.584"/>
      </g>
     </g>
     <g id="text_2">
      <!-- −10 -->
      <g transform="translate(94.663656 322.182437)scale(0.1 -0.1)">
       <defs>
        <path d="M 31.78125 66.40625 
Q 24.171875 66.40625 20.328125 58.90625 
Q 16.5 51.421875 16.5 36.375 
Q 16.5 21.390625 20.328125 13.890625 
Q 24.171875 6.390625 31.78125 6.390625 
Q 39.453125 6.390625 43.28125 13.890625 
Q 47.125 21.390625 47.125 36.375 
Q 47.125 51.421875 43.28125 58.90625 
Q 39.453125 66.40625 31.78125 66.40625 
z
M 31.78125 74.21875 
Q 44.046875 74.21875 50.515625 64.515625 
Q 56.984375 54.828125 56.984375 36.375 
Q 56.984375 17.96875 50.515625 8.265625 
Q 44.046875 -1.421875 31.78125 -1.421875 
Q 19.53125 -1.421875 13.0625 8.265625 
Q 6.59375 17.96875 6.59375 36.375 
Q 6.59375 54.828125 13.0625 64.515625 
Q 19.53125 74.21875 31.78125 74.21875 
z
" id="DejaVuSans-48"/>
       </defs>
       <use xlink:href="#DejaVuSans-8722"/>
       <use x="83.789062" xlink:href="#DejaVuSans-49"/>
       <use x="147.412109" xlink:href="#DejaVuSans-48"/>
      </g>
     </g>
    </g>
    <g id="xtick_3">
     <g id="line2d_3">
      <g>
       <use style="stroke:#000000;stroke-width:0.8;" x="152.832" xlink:href="#mc224285aef" y="307.584"/>
      </g>
     </g>
     <g id="text_3">
      <!-- −5 -->
      <g transform="translate(145.460906 322.182437)scale(0.1 -0.1)">
       <use xlink:href="#DejaVuSans-8722"/>
       <use x="83.789062" xlink:href="#DejaVuSans-53"/>
      </g>
     </g>
    </g>
    <g id="xtick_4">
     <g id="line2d_4">
      <g>
       <use style="stroke:#000000;stroke-width:0.8;" x="200.448" xlink:href="#mc224285aef" y="307.584"/>
      </g>
     </g>
     <g id="text_4">
      <!-- 0 -->
      <g transform="translate(197.26675 322.182437)scale(0.1 -0.1)">
       <use xlink:href="#DejaVuSans-48"/>
      </g>
     </g>
    </g>
    <g id="xtick_5">
     <g id="line2d_5">
      <g>
       <use style="stroke:#000000;stroke-width:0.8;" x="248.064" xlink:href="#mc224285aef" y="307.584"/>
      </g>
     </g>
     <g id="text_5">
      <!-- 5 -->
      <g transform="translate(244.88275 322.182437)scale(0.1 -0.1)">
       <use xlink:href="#DejaVuSans-53"/>
      </g>
     </g>
    </g>
    <g id="xtick_6">
     <g id="line2d_6">
      <g>
       <use style="stroke:#000000;stroke-width:0.8;" x="295.68" xlink:href="#mc224285aef" y="307.584"/>
      </g>
     </g>
     <g id="text_6">
      <!-- 10 -->
      <g transform="translate(289.3175 322.182437)scale(0.1 -0.1)">
       <use xlink:href="#DejaVuSans-49"/>
       <use x="63.623047" xlink:href="#DejaVuSans-48"/>
      </g>
     </g>
    </g>
    <g id="xtick_7">
     <g id="line2d_7">
      <g>
       <use style="stroke:#000000;stroke-width:0.8;" x="343.296" xlink:href="#mc224285aef" y="307.584"/>
      </g>
     </g>
     <g id="text_7">
      <!-- 15 -->
      <g transform="translate(336.9335 322.182437)scale(0.1 -0.1)">
       <use xlink:href="#DejaVuSans-49"/>
       <use x="63.623047" xlink:href="#DejaVuSans-53"/>
      </g>
     </g>
    </g>
    <g id="text_8">
     <!-- x -->
     <g transform="translate(197.488625 335.860562)scale(0.1 -0.1)">
      <defs>
       <path d="M 54.890625 54.6875 
L 35.109375 28.078125 
L 55.90625 0 
L 45.3125 0 
L 29.390625 21.484375 
L 13.484375 0 
L 2.875 0 
L 24.125 28.609375 
L 4.6875 54.6875 
L 15.28125 54.6875 
L 29.78125 35.203125 
L 44.28125 54.6875 
z
" id="DejaVuSans-120"/>
      </defs>
      <use xlink:href="#DejaVuSans-120"/>
     </g>
    </g>
   </g>
   <g id="matplotlib.axis_2">
    <g id="ytick_1">
     <g id="line2d_8">
      <defs>
       <path d="M 0 0 
L -3.5 0 
" id="mdd47139f2a" style="stroke:#000000;stroke-width:0.8;"/>
      </defs>
      <g>
       <use style="stroke:#000000;stroke-width:0.8;" x="57.6" xlink:href="#mdd47139f2a" y="307.584"/>
      </g>
     </g>
     <g id="text_9">
      <!-- −15 -->
      <g transform="translate(29.495313 311.383219)scale(0.1 -0.1)">
       <use xlink:href="#DejaVuSans-8722"/>
       <use x="83.789062" xlink:href="#DejaVuSans-49"/>
       <use x="147.412109" xlink:href="#DejaVuSans-53"/>
      </g>
     </g>
    </g>
    <g id="ytick_2">
     <g id="line2d_9">
      <g>
       <use style="stroke:#000000;stroke-width:0.8;" x="57.6" xlink:href="#mdd47139f2a" y="263.232"/>
      </g>
     </g>
     <g id="text_10">
      <!-- −10 -->
      <g transform="translate(29.495313 267.031219)scale(0.1 -0.1)">
       <use xlink:href="#DejaVuSans-8722"/>
       <use x="83.789062" xlink:href="#DejaVuSans-49"/>
       <use x="147.412109" xlink:href="#DejaVuSans-48"/>
      </g>
     </g>
    </g>
    <g id="ytick_3">
     <g id="line2d_10">
      <g>
       <use style="stroke:#000000;stroke-width:0.8;" x="57.6" xlink:href="#mdd47139f2a" y="218.88"/>
      </g>
     </g>
     <g id="text_11">
      <!-- −5 -->
      <g transform="translate(35.857813 222.679219)scale(0.1 -0.1)">
       <use xlink:href="#DejaVuSans-8722"/>
       <use x="83.789062" xlink:href="#DejaVuSans-53"/>
      </g>
     </g>
    </g>
    <g id="ytick_4">
     <g id="line2d_11">
      <g>
       <use style="stroke:#000000;stroke-width:0.8;" x="57.6" xlink:href="#mdd47139f2a" y="174.528"/>
      </g>
     </g>
     <g id="text_12">
      <!-- 0 -->
      <g transform="translate(44.2375 178.327219)scale(0.1 -0.1)">
       <use xlink:href="#DejaVuSans-48"/>
      </g>
     </g>
    </g>
    <g id="ytick_5">
     <g id="line2d_12">
      <g>
       <use style="stroke:#000000;stroke-width:0.8;" x="57.6" xlink:href="#mdd47139f2a" y="130.176"/>
      </g>
     </g>
     <g id="text_13">
      <!-- 5 -->
      <g transform="translate(44.2375 133.975219)scale(0.1 -0.1)">
       <use xlink:href="#DejaVuSans-53"/>
      </g>
     </g>
    </g>
    <g id="ytick_6">
     <g id="line2d_13">
      <g>
       <use style="stroke:#000000;stroke-width:0.8;" x="57.6" xlink:href="#mdd47139f2a" y="85.824"/>
      </g>
     </g>
     <g id="text_14">
      <!-- 10 -->
      <g transform="translate(37.875 89.623219)scale(0.1 -0.1)">
       <use xlink:href="#DejaVuSans-49"/>
       <use x="63.623047" xlink:href="#DejaVuSans-48"/>
      </g>
     </g>
    </g>
    <g id="ytick_7">
     <g id="line2d_14">
      <g>
       <use style="stroke:#000000;stroke-width:0.8;" x="57.6" xlink:href="#mdd47139f2a" y="41.472"/>
      </g>
     </g>
     <g id="text_15">
      <!-- 15 -->
      <g transform="translate(37.875 45.271219)scale(0.1 -0.1)">
       <use xlink:href="#DejaVuSans-49"/>
       <use x="63.623047" xlink:href="#DejaVuSans-53"/>
      </g>
     </g>
    </g>
    <g id="text_16">
     <!-- y -->
     <g transform="translate(22.535937 172.448312)scale(0.1 -0.1)">
      <defs>
       <path d="M 32.171875 -5.078125 
Q 28.375 -14.84375 24.75 -17.8125 
Q 21.140625 -20.796875 15.09375 -20.796875 
L 7.90625 -20.796875 
L 7.90625 -13.28125 
L 13.1875 -13.28125 
Q 16.890625 -13.28125 18.9375 -11.515625 
Q 21 -9.765625 23.484375 -3.21875 
L 25.09375 0.875 
L 2.984375 54.6875 
L 12.5 54.6875 
L 29.59375 11.921875 
L 46.6875 54.6875 
L 56.203125 54.6875 
z
" id="DejaVuSans-121"/>
      </defs>
      <use xlink:href="#DejaVuSans-121"/>
     </g>
    </g>
   </g>
   <g id="line2d_15">
    <defs>
     <path d="M 0 3 
C 0.795609 3 1.55874 2.683901 2.12132 2.12132 
C 2.683901 1.55874 3 0.795609 3 0 
C 3 -0.795609 2.683901 -1.55874 2.12132 -2.12132 
C 1.55874 -2.683901 0.795609 -3 0 -3 
C -0.795609 -3 -1.55874 -2.683901 -2.12132 -2.12132 
C -2.683901 -1.55874 -3 -0.795609 -3 0 
C -3 0.795609 -2.683901 1.55874 -2.12132 2.12132 
C -1.55874 2.683901 -0.795609 3 0 3 
z
" id="m98b40a342d" style="stroke:#000000;"/>
    </defs>
    <g clip-path="url(#pf0929aa19a)">
     <use style="fill:#ff0000;stroke:#000000;" x="185.337599" xlink:href="#m98b40a342d" y="86.906085"/>
     <use style="fill:#ff0000;stroke:#000000;" x="268.52563" xlink:href="#m98b40a342d" y="204.911065"/>
     <use style="fill:#ff0000;stroke:#000000;" x="104.699378" xlink:href="#m98b40a342d" y="134.89337"/>
     <use style="fill:#ff0000;stroke:#000000;" x="150.64912" xlink:href="#m98b40a342d" y="190.823447"/>
     <use style="fill:#ff0000;stroke:#000000;" x="217.237624" xlink:href="#m98b40a342d" y="154.797352"/>
     <use style="fill:#ff0000;stroke:#000000;" x="171.184942" xlink:href="#m98b40a342d" y="221.720437"/>
     <use style="fill:#ff0000;stroke:#000000;" x="256.418729" xlink:href="#m98b40a342d" y="112.870804"/>
     <use style="fill:#ff0000;stroke:#000000;" x="214.552592" xlink:href="#m98b40a342d" y="90.199265"/>
     <use style="fill:#ff0000;stroke:#000000;" x="222.491441" xlink:href="#m98b40a342d" y="162.911261"/>
     <use style="fill:#ff0000;stroke:#000000;" x="230.499467" xlink:href="#m98b40a342d" y="95.458028"/>
     <use style="fill:#ff0000;stroke:#000000;" x="233.303874" xlink:href="#m98b40a342d" y="94.548762"/>
     <use style="fill:#ff0000;stroke:#000000;" x="178.800293" xlink:href="#m98b40a342d" y="227.156727"/>
     <use style="fill:#ff0000;stroke:#000000;" x="266.081093" xlink:href="#m98b40a342d" y="120.819493"/>
     <use style="fill:#ff0000;stroke:#000000;" x="254.751504" xlink:href="#m98b40a342d" y="110.969123"/>
     <use style="fill:#ff0000;stroke:#000000;" x="204.85203" xlink:href="#m98b40a342d" y="144.010624"/>
     <use style="fill:#ff0000;stroke:#000000;" x="269.931565" xlink:href="#m98b40a342d" y="126.96368"/>
     <use style="fill:#ff0000;stroke:#000000;" x="235.954326" xlink:href="#m98b40a342d" y="230.856871"/>
     <use style="fill:#ff0000;stroke:#000000;" x="166.778837" xlink:href="#m98b40a342d" y="150.032199"/>
     <use style="fill:#ff0000;stroke:#000000;" x="201.990903" xlink:href="#m98b40a342d" y="233.58761"/>
     <use style="fill:#ff0000;stroke:#000000;" x="210.64637" xlink:href="#m98b40a342d" y="233.021087"/>
     <use style="fill:#ff0000;stroke:#000000;" x="187.089039" xlink:href="#m98b40a342d" y="141.840944"/>
     <use style="fill:#ff0000;stroke:#000000;" x="166.910023" xlink:href="#m98b40a342d" y="219.117263"/>
     <use style="fill:#ff0000;stroke:#000000;" x="184.187632" xlink:href="#m98b40a342d" y="141.585591"/>
     <use style="fill:#ff0000;stroke:#000000;" x="207.377392" xlink:href="#m98b40a342d" y="235.409395"/>
     <use style="fill:#ff0000;stroke:#000000;" x="111.847045" xlink:href="#m98b40a342d" y="244.332692"/>
     <use style="fill:#ff0000;stroke:#000000;" x="276.54782" xlink:href="#m98b40a342d" y="190.826651"/>
     <use style="fill:#ff0000;stroke:#000000;" x="267.456993" xlink:href="#m98b40a342d" y="204.312632"/>
     <use style="fill:#ff0000;stroke:#000000;" x="150.679563" xlink:href="#m98b40a342d" y="94.156572"/>
     <use style="fill:#ff0000;stroke:#000000;" x="176.639369" xlink:href="#m98b40a342d" y="225.408543"/>
     <use style="fill:#ff0000;stroke:#000000;" x="214.606198" xlink:href="#m98b40a342d" y="233.58879"/>
     <use style="fill:#ff0000;stroke:#000000;" x="173.335069" xlink:href="#m98b40a342d" y="145.953111"/>
     <use style="fill:#ff0000;stroke:#000000;" x="115.476062" xlink:href="#m98b40a342d" y="119.665617"/>
     <use style="fill:#ff0000;stroke:#000000;" x="268.27844" xlink:href="#m98b40a342d" y="128.946872"/>
     <use style="fill:#ff0000;stroke:#000000;" x="275.946808" xlink:href="#m98b40a342d" y="186.030867"/>
     <use style="fill:#ff0000;stroke:#000000;" x="278.334456" xlink:href="#m98b40a342d" y="178.791697"/>
     <use style="fill:#ff0000;stroke:#000000;" x="131.925096" xlink:href="#m98b40a342d" y="264.48643"/>
     <use style="fill:#ff0000;stroke:#000000;" x="227.629791" xlink:href="#m98b40a342d" y="93.496285"/>
     <use style="fill:#ff0000;stroke:#000000;" x="92.540127" xlink:href="#m98b40a342d" y="189.849147"/>
     <use style="fill:#ff0000;stroke:#000000;" x="188.434584" xlink:href="#m98b40a342d" y="141.844838"/>
     <use style="fill:#ff0000;stroke:#000000;" x="219.304222" xlink:href="#m98b40a342d" y="163.45955"/>
     <use style="fill:#ff0000;stroke:#000000;" x="277.074115" xlink:href="#m98b40a342d" y="187.685115"/>
     <use style="fill:#ff0000;stroke:#000000;" x="153.944108" xlink:href="#m98b40a342d" y="199.283649"/>
     <use style="fill:#ff0000;stroke:#000000;" x="205.674589" xlink:href="#m98b40a342d" y="235.373362"/>
     <use style="fill:#ff0000;stroke:#000000;" x="190.815476" xlink:href="#m98b40a342d" y="86.807473"/>
     <use style="fill:#ff0000;stroke:#000000;" x="176.306117" xlink:href="#m98b40a342d" y="145.343913"/>
     <use style="fill:#ff0000;stroke:#000000;" x="203.96929" xlink:href="#m98b40a342d" y="88.347562"/>
     <use style="fill:#ff0000;stroke:#000000;" x="256.803194" xlink:href="#m98b40a342d" y="108.139662"/>
     <use style="fill:#ff0000;stroke:#000000;" x="211.981858" xlink:href="#m98b40a342d" y="148.609605"/>
     <use style="fill:#ff0000;stroke:#000000;" x="150.727557" xlink:href="#m98b40a342d" y="187.222268"/>
     <use style="fill:#ff0000;stroke:#000000;" x="223.299462" xlink:href="#m98b40a342d" y="169.092961"/>
     <use style="fill:#ff0000;stroke:#000000;" x="91.955898" xlink:href="#m98b40a342d" y="188.353339"/>
     <use style="fill:#ff0000;stroke:#000000;" x="200.393553" xlink:href="#m98b40a342d" y="86.982144"/>
     <use style="fill:#ff0000;stroke:#000000;" x="170.765517" xlink:href="#m98b40a342d" y="89.310682"/>
     <use style="fill:#ff0000;stroke:#000000;" x="163.91758" xlink:href="#m98b40a342d" y="88.971626"/>
     <use style="fill:#ff0000;stroke:#000000;" x="157.954892" xlink:href="#m98b40a342d" y="158.016155"/>
     <use style="fill:#ff0000;stroke:#000000;" x="157.091745" xlink:href="#m98b40a342d" y="209.09703"/>
     <use style="fill:#ff0000;stroke:#000000;" x="196.154057" xlink:href="#m98b40a342d" y="86.779853"/>
     <use style="fill:#ff0000;stroke:#000000;" x="262.31447" xlink:href="#m98b40a342d" y="212.058053"/>
     <use style="fill:#ff0000;stroke:#000000;" x="263.57709" xlink:href="#m98b40a342d" y="209.971067"/>
     <use style="fill:#ff0000;stroke:#000000;" x="147.414886" xlink:href="#m98b40a342d" y="96.903016"/>
     <use style="fill:#ff0000;stroke:#000000;" x="116.52806" xlink:href="#m98b40a342d" y="120.73975"/>
     <use style="fill:#ff0000;stroke:#000000;" x="91.570384" xlink:href="#m98b40a342d" y="175.843471"/>
     <use style="fill:#ff0000;stroke:#000000;" x="184.049335" xlink:href="#m98b40a342d" y="287.383245"/>
     <use style="fill:#ff0000;stroke:#000000;" x="158.304323" xlink:href="#m98b40a342d" y="210.381601"/>
     <use style="fill:#ff0000;stroke:#000000;" x="203.040084" xlink:href="#m98b40a342d" y="144.612949"/>
     <use style="fill:#ff0000;stroke:#000000;" x="153.310201" xlink:href="#m98b40a342d" y="196.82581"/>
     <use style="fill:#ff0000;stroke:#000000;" x="227.912796" xlink:href="#m98b40a342d" y="231.747374"/>
     <use style="fill:#ff0000;stroke:#000000;" x="129.870177" xlink:href="#m98b40a342d" y="262.564294"/>
     <use style="fill:#ff0000;stroke:#000000;" x="151.74909" xlink:href="#m98b40a342d" y="179.920895"/>
     <use style="fill:#ff0000;stroke:#000000;" x="103.137241" xlink:href="#m98b40a342d" y="228.025396"/>
     <use style="fill:#ff0000;stroke:#000000;" x="217.971884" xlink:href="#m98b40a342d" y="155.993249"/>
     <use style="fill:#ff0000;stroke:#000000;" x="246.589773" xlink:href="#m98b40a342d" y="103.307192"/>
     <use style="fill:#ff0000;stroke:#000000;" x="209.49015" xlink:href="#m98b40a342d" y="89.321713"/>
     <use style="fill:#ff0000;stroke:#000000;" x="220.747852" xlink:href="#m98b40a342d" y="160.600308"/>
     <use style="fill:#ff0000;stroke:#000000;" x="244.50259" xlink:href="#m98b40a342d" y="224.565493"/>
     <use style="fill:#ff0000;stroke:#000000;" x="223.081098" xlink:href="#m98b40a342d" y="160.042608"/>
     <use style="fill:#ff0000;stroke:#000000;" x="155.573833" xlink:href="#m98b40a342d" y="205.031088"/>
     <use style="fill:#ff0000;stroke:#000000;" x="163.429709" xlink:href="#m98b40a342d" y="152.731885"/>
     <use style="fill:#ff0000;stroke:#000000;" x="225.12182" xlink:href="#m98b40a342d" y="93.64661"/>
     <use style="fill:#ff0000;stroke:#000000;" x="210.215834" xlink:href="#m98b40a342d" y="147.41996"/>
     <use style="fill:#ff0000;stroke:#000000;" x="219.971023" xlink:href="#m98b40a342d" y="157.482374"/>
     <use style="fill:#ff0000;stroke:#000000;" x="91.855978" xlink:href="#m98b40a342d" y="172.725651"/>
     <use style="fill:#ff0000;stroke:#000000;" x="191.043876" xlink:href="#m98b40a342d" y="232.240709"/>
     <use style="fill:#ff0000;stroke:#000000;" x="227.326172" xlink:href="#m98b40a342d" y="94.791033"/>
     <use style="fill:#ff0000;stroke:#000000;" x="155.04817" xlink:href="#m98b40a342d" y="199.747234"/>
     <use style="fill:#ff0000;stroke:#000000;" x="148.747865" xlink:href="#m98b40a342d" y="95.477519"/>
     <use style="fill:#ff0000;stroke:#000000;" x="179.944325" xlink:href="#m98b40a342d" y="229.994267"/>
     <use style="fill:#ff0000;stroke:#000000;" x="157.778764" xlink:href="#m98b40a342d" y="90.505946"/>
     <use style="fill:#ff0000;stroke:#000000;" x="236.960166" xlink:href="#m98b40a342d" y="230.250293"/>
     <use style="fill:#ff0000;stroke:#000000;" x="150.114901" xlink:href="#m98b40a342d" y="181.259151"/>
     <use style="fill:#ff0000;stroke:#000000;" x="273.821908" xlink:href="#m98b40a342d" y="189.58143"/>
     <use style="fill:#ff0000;stroke:#000000;" x="159.81299" xlink:href="#m98b40a342d" y="213.792367"/>
     <use style="fill:#ff0000;stroke:#000000;" x="156.775768" xlink:href="#m98b40a342d" y="277.077374"/>
     <use style="fill:#ff0000;stroke:#000000;" x="269.068459" xlink:href="#m98b40a342d" y="125.013679"/>
     <use style="fill:#ff0000;stroke:#000000;" x="163.558658" xlink:href="#m98b40a342d" y="280.427968"/>
     <use style="fill:#ff0000;stroke:#000000;" x="101.7006" xlink:href="#m98b40a342d" y="142.539934"/>
     <use style="fill:#ff0000;stroke:#000000;" x="154.582979" xlink:href="#m98b40a342d" y="204.49027"/>
     <use style="fill:#ff0000;stroke:#000000;" x="136.812641" xlink:href="#m98b40a342d" y="268.7475"/>
     <use style="fill:#ff0000;stroke:#000000;" x="120.789213" xlink:href="#m98b40a342d" y="114.497573"/>
     <use style="fill:#ff0000;stroke:#000000;" x="228.391787" xlink:href="#m98b40a342d" y="231.967401"/>
     <use style="fill:#ff0000;stroke:#000000;" x="272.57697" xlink:href="#m98b40a342d" y="136.662072"/>
     <use style="fill:#ff0000;stroke:#000000;" x="151.70917" xlink:href="#m98b40a342d" y="193.171045"/>
     <use style="fill:#ff0000;stroke:#000000;" x="237.894239" xlink:href="#m98b40a342d" y="228.39126"/>
     <use style="fill:#ff0000;stroke:#000000;" x="205.830929" xlink:href="#m98b40a342d" y="144.607213"/>
     <use style="fill:#ff0000;stroke:#000000;" x="254.777587" xlink:href="#m98b40a342d" y="217.686906"/>
     <use style="fill:#ff0000;stroke:#000000;" x="151.196058" xlink:href="#m98b40a342d" y="186.634753"/>
     <use style="fill:#ff0000;stroke:#000000;" x="100.617068" xlink:href="#m98b40a342d" y="137.873338"/>
     <use style="fill:#ff0000;stroke:#000000;" x="266.165033" xlink:href="#m98b40a342d" y="121.292137"/>
     <use style="fill:#ff0000;stroke:#000000;" x="128.222343" xlink:href="#m98b40a342d" y="108.017579"/>
     <use style="fill:#ff0000;stroke:#000000;" x="220.359398" xlink:href="#m98b40a342d" y="166.822977"/>
     <use style="fill:#ff0000;stroke:#000000;" x="209.832261" xlink:href="#m98b40a342d" y="146.742323"/>
     <use style="fill:#ff0000;stroke:#000000;" x="149.516832" xlink:href="#m98b40a342d" y="180.47339"/>
     <use style="fill:#ff0000;stroke:#000000;" x="152.143746" xlink:href="#m98b40a342d" y="172.806755"/>
     <use style="fill:#ff0000;stroke:#000000;" x="226.908941" xlink:href="#m98b40a342d" y="234.321621"/>
     <use style="fill:#ff0000;stroke:#000000;" x="120.907343" xlink:href="#m98b40a342d" y="114.715823"/>
     <use style="fill:#ff0000;stroke:#000000;" x="183.628443" xlink:href="#m98b40a342d" y="288.847664"/>
     <use style="fill:#ff0000;stroke:#000000;" x="91.671912" xlink:href="#m98b40a342d" y="173.946838"/>
     <use style="fill:#ff0000;stroke:#000000;" x="97.311581" xlink:href="#m98b40a342d" y="217.485642"/>
     <use style="fill:#ff0000;stroke:#000000;" x="157.881846" xlink:href="#m98b40a342d" y="92.104541"/>
     <use style="fill:#ff0000;stroke:#000000;" x="167.436038" xlink:href="#m98b40a342d" y="91.380376"/>
     <use style="fill:#ff0000;stroke:#000000;" x="193.515862" xlink:href="#m98b40a342d" y="87.188911"/>
     <use style="fill:#ff0000;stroke:#000000;" x="272.843537" xlink:href="#m98b40a342d" y="138.858405"/>
     <use style="fill:#ff0000;stroke:#000000;" x="175.895957" xlink:href="#m98b40a342d" y="286.862446"/>
     <use style="fill:#ff0000;stroke:#000000;" x="170.715176" xlink:href="#m98b40a342d" y="220.45001"/>
     <use style="fill:#ff0000;stroke:#000000;" x="254.615178" xlink:href="#m98b40a342d" y="109.465612"/>
     <use style="fill:#ff0000;stroke:#000000;" x="159.627307" xlink:href="#m98b40a342d" y="159.42622"/>
     <use style="fill:#ff0000;stroke:#000000;" x="178.552421" xlink:href="#m98b40a342d" y="88.08339"/>
     <use style="fill:#ff0000;stroke:#000000;" x="160.516411" xlink:href="#m98b40a342d" y="212.315398"/>
     <use style="fill:#ff0000;stroke:#000000;" x="150.31872" xlink:href="#m98b40a342d" y="183.267176"/>
     <use style="fill:#ff0000;stroke:#000000;" x="278.883555" xlink:href="#m98b40a342d" y="177.528623"/>
     <use style="fill:#ff0000;stroke:#000000;" x="110.869446" xlink:href="#m98b40a342d" y="241.932829"/>
     <use style="fill:#ff0000;stroke:#000000;" x="276.361589" xlink:href="#m98b40a342d" y="189.978536"/>
     <use style="fill:#ff0000;stroke:#000000;" x="107.642955" xlink:href="#m98b40a342d" y="129.350787"/>
     <use style="fill:#ff0000;stroke:#000000;" x="177.476977" xlink:href="#m98b40a342d" y="284.612209"/>
     <use style="fill:#ff0000;stroke:#000000;" x="277.170811" xlink:href="#m98b40a342d" y="150.410892"/>
     <use style="fill:#ff0000;stroke:#000000;" x="247.277101" xlink:href="#m98b40a342d" y="105.217366"/>
     <use style="fill:#ff0000;stroke:#000000;" x="273.431462" xlink:href="#m98b40a342d" y="195.166582"/>
     <use style="fill:#ff0000;stroke:#000000;" x="171.97828" xlink:href="#m98b40a342d" y="222.038226"/>
     <use style="fill:#ff0000;stroke:#000000;" x="94.680217" xlink:href="#m98b40a342d" y="208.951728"/>
     <use style="fill:#ff0000;stroke:#000000;" x="266.750756" xlink:href="#m98b40a342d" y="204.093654"/>
     <use style="fill:#ff0000;stroke:#000000;" x="128.261182" xlink:href="#m98b40a342d" y="108.571941"/>
     <use style="fill:#ff0000;stroke:#000000;" x="215.873452" xlink:href="#m98b40a342d" y="151.668955"/>
     <use style="fill:#ff0000;stroke:#000000;" x="245.764162" xlink:href="#m98b40a342d" y="223.637849"/>
     <use style="fill:#ff0000;stroke:#000000;" x="194.530168" xlink:href="#m98b40a342d" y="232.671715"/>
     <use style="fill:#ff0000;stroke:#000000;" x="150.473292" xlink:href="#m98b40a342d" y="187.881269"/>
     <use style="fill:#ff0000;stroke:#000000;" x="182.021923" xlink:href="#m98b40a342d" y="143.35261"/>
     <use style="fill:#ff0000;stroke:#000000;" x="223.154316" xlink:href="#m98b40a342d" y="164.069533"/>
     <use style="fill:#ff0000;stroke:#000000;" x="121.376539" xlink:href="#m98b40a342d" y="112.171632"/>
     <use style="fill:#ff0000;stroke:#000000;" x="152.814113" xlink:href="#m98b40a342d" y="277.291432"/>
     <use style="fill:#ff0000;stroke:#000000;" x="154.143" xlink:href="#m98b40a342d" y="194.600334"/>
     <use style="fill:#ff0000;stroke:#000000;" x="207.894075" xlink:href="#m98b40a342d" y="87.93897"/>
     <use style="fill:#ff0000;stroke:#000000;" x="97.442244" xlink:href="#m98b40a342d" y="217.50564"/>
     <use style="fill:#ff0000;stroke:#000000;" x="187.925625" xlink:href="#m98b40a342d" y="230.645342"/>
     <use style="fill:#ff0000;stroke:#000000;" x="259.41594" xlink:href="#m98b40a342d" y="211.062394"/>
     <use style="fill:#ff0000;stroke:#000000;" x="152.679762" xlink:href="#m98b40a342d" y="197.957599"/>
     <use style="fill:#ff0000;stroke:#000000;" x="163.460077" xlink:href="#m98b40a342d" y="280.072983"/>
     <use style="fill:#ff0000;stroke:#000000;" x="161.725525" xlink:href="#m98b40a342d" y="213.413853"/>
     <use style="fill:#ff0000;stroke:#000000;" x="237.493388" xlink:href="#m98b40a342d" y="228.202115"/>
     <use style="fill:#ff0000;stroke:#000000;" x="187.378873" xlink:href="#m98b40a342d" y="232.247528"/>
     <use style="fill:#ff0000;stroke:#000000;" x="91.547098" xlink:href="#m98b40a342d" y="195.06489"/>
     <use style="fill:#ff0000;stroke:#000000;" x="157.436504" xlink:href="#m98b40a342d" y="208.881665"/>
     <use style="fill:#ff0000;stroke:#000000;" x="95.201099" xlink:href="#m98b40a342d" y="215.398677"/>
     <use style="fill:#ff0000;stroke:#000000;" x="198.73257" xlink:href="#m98b40a342d" y="86.781494"/>
     <use style="fill:#ff0000;stroke:#000000;" x="199.717507" xlink:href="#m98b40a342d" y="87.315481"/>
     <use style="fill:#ff0000;stroke:#000000;" x="110.190801" xlink:href="#m98b40a342d" y="125.595881"/>
     <use style="fill:#ff0000;stroke:#000000;" x="123.500481" xlink:href="#m98b40a342d" y="112.201731"/>
     <use style="fill:#ff0000;stroke:#000000;" x="169.905529" xlink:href="#m98b40a342d" y="148.207632"/>
     <use style="fill:#ff0000;stroke:#000000;" x="246.297227" xlink:href="#m98b40a342d" y="225.979545"/>
     <use style="fill:#ff0000;stroke:#000000;" x="152.549344" xlink:href="#m98b40a342d" y="174.176471"/>
     <use style="fill:#ff0000;stroke:#000000;" x="161.835231" xlink:href="#m98b40a342d" y="213.610984"/>
     <use style="fill:#ff0000;stroke:#000000;" x="221.414389" xlink:href="#m98b40a342d" y="162.20548"/>
     <use style="fill:#ff0000;stroke:#000000;" x="105.422298" xlink:href="#m98b40a342d" y="235.690575"/>
     <use style="fill:#ff0000;stroke:#000000;" x="273.444031" xlink:href="#m98b40a342d" y="136.457598"/>
     <use style="fill:#ff0000;stroke:#000000;" x="185.664537" xlink:href="#m98b40a342d" y="88.828813"/>
     <use style="fill:#ff0000;stroke:#000000;" x="277.863916" xlink:href="#m98b40a342d" y="177.748334"/>
     <use style="fill:#ff0000;stroke:#000000;" x="220.499184" xlink:href="#m98b40a342d" y="165.64088"/>
     <use style="fill:#ff0000;stroke:#000000;" x="172.318404" xlink:href="#m98b40a342d" y="87.954366"/>
     <use style="fill:#ff0000;stroke:#000000;" x="182.544699" xlink:href="#m98b40a342d" y="85.502244"/>
     <use style="fill:#ff0000;stroke:#000000;" x="93.074187" xlink:href="#m98b40a342d" y="161.586605"/>
     <use style="fill:#ff0000;stroke:#000000;" x="101.265798" xlink:href="#m98b40a342d" y="144.568625"/>
     <use style="fill:#ff0000;stroke:#000000;" x="152.669196" xlink:href="#m98b40a342d" y="277.503418"/>
     <use style="fill:#ff0000;stroke:#000000;" x="186.925731" xlink:href="#m98b40a342d" y="142.296923"/>
     <use style="fill:#ff0000;stroke:#000000;" x="150.516414" xlink:href="#m98b40a342d" y="180.040306"/>
     <use style="fill:#ff0000;stroke:#000000;" x="210.309771" xlink:href="#m98b40a342d" y="88.282348"/>
     <use style="fill:#ff0000;stroke:#000000;" x="270.260507" xlink:href="#m98b40a342d" y="129.406734"/>
     <use style="fill:#ff0000;stroke:#000000;" x="276.008089" xlink:href="#m98b40a342d" y="185.358891"/>
     <use style="fill:#ff0000;stroke:#000000;" x="254.159283" xlink:href="#m98b40a342d" y="110.491619"/>
     <use style="fill:#ff0000;stroke:#000000;" x="94.925105" xlink:href="#m98b40a342d" y="202.511654"/>
     <use style="fill:#ff0000;stroke:#000000;" x="193.410285" xlink:href="#m98b40a342d" y="290.896345"/>
     <use style="fill:#ff0000;stroke:#000000;" x="190.071786" xlink:href="#m98b40a342d" y="232.027615"/>
     <use style="fill:#ff0000;stroke:#000000;" x="185.335075" xlink:href="#m98b40a342d" y="143.728547"/>
     <use style="fill:#ff0000;stroke:#000000;" x="145.250152" xlink:href="#m98b40a342d" y="98.553019"/>
     <use style="fill:#ff0000;stroke:#000000;" x="247.263469" xlink:href="#m98b40a342d" y="224.772873"/>
     <use style="fill:#ff0000;stroke:#000000;" x="169.402343" xlink:href="#m98b40a342d" y="220.73839"/>
     <use style="fill:#ff0000;stroke:#000000;" x="185.768497" xlink:href="#m98b40a342d" y="289.033992"/>
     <use style="fill:#ff0000;stroke:#000000;" x="90.307846" xlink:href="#m98b40a342d" y="180.283624"/>
     <use style="fill:#ff0000;stroke:#000000;" x="145.161625" xlink:href="#m98b40a342d" y="273.994513"/>
     <use style="fill:#ff0000;stroke:#000000;" x="91.89306" xlink:href="#m98b40a342d" y="167.632817"/>
     <use style="fill:#ff0000;stroke:#000000;" x="144.678747" xlink:href="#m98b40a342d" y="274.519559"/>
     <use style="fill:#ff0000;stroke:#000000;" x="133.811838" xlink:href="#m98b40a342d" y="105.31935"/>
    </g>
   </g>
   <g id="line2d_16">
    <defs>
     <path d="M 0 3 
C 0.795609 3 1.55874 2.683901 2.12132 2.12132 
C 2.683901 1.55874 3 0.795609 3 0 
C 3 -0.795609 2.683901 -1.55874 2.12132 -2.12132 
C 1.55874 -2.683901 0.795609 -3 0 -3 
C -0.795609 -3 -1.55874 -2.683901 -2.12132 -2.12132 
C -2.683901 -1.55874 -3 -0.795609 -3 0 
C -3 0.795609 -2.683901 1.55874 -2.12132 2.12132 
C -1.55874 2.683901 -0.795609 3 0 3 
z
" id="me7d07ec5c1" style="stroke:#000000;"/>
    </defs>
    <g clip-path="url(#pf0929aa19a)">
     <use style="fill:#0000ff;stroke:#000000;" x="220.391641" xlink:href="#me7d07ec5c1" y="261.1368"/>
     <use style="fill:#0000ff;stroke:#000000;" x="239.240234" xlink:href="#me7d07ec5c1" y="258.005763"/>
     <use style="fill:#0000ff;stroke:#000000;" x="180.886787" xlink:href="#me7d07ec5c1" y="191.869942"/>
     <use style="fill:#0000ff;stroke:#000000;" x="307.053237" xlink:href="#me7d07ec5c1" y="186.630308"/>
     <use style="fill:#0000ff;stroke:#000000;" x="125.409697" xlink:href="#me7d07ec5c1" y="157.531498"/>
     <use style="fill:#0000ff;stroke:#000000;" x="301.770882" xlink:href="#me7d07ec5c1" y="204.43736"/>
     <use style="fill:#0000ff;stroke:#000000;" x="299.847735" xlink:href="#me7d07ec5c1" y="207.849017"/>
     <use style="fill:#0000ff;stroke:#000000;" x="188.129027" xlink:href="#me7d07ec5c1" y="259.411076"/>
     <use style="fill:#0000ff;stroke:#000000;" x="189.256555" xlink:href="#me7d07ec5c1" y="199.037774"/>
     <use style="fill:#0000ff;stroke:#000000;" x="240.427165" xlink:href="#me7d07ec5c1" y="136.965746"/>
     <use style="fill:#0000ff;stroke:#000000;" x="163.165792" xlink:href="#me7d07ec5c1" y="250.897877"/>
     <use style="fill:#0000ff;stroke:#000000;" x="216.33712" xlink:href="#me7d07ec5c1" y="262.009445"/>
     <use style="fill:#0000ff;stroke:#000000;" x="192.666631" xlink:href="#me7d07ec5c1" y="202.137092"/>
     <use style="fill:#0000ff;stroke:#000000;" x="210.814367" xlink:href="#me7d07ec5c1" y="206.832975"/>
     <use style="fill:#0000ff;stroke:#000000;" x="208.769066" xlink:href="#me7d07ec5c1" y="116.887129"/>
     <use style="fill:#0000ff;stroke:#000000;" x="285.143436" xlink:href="#me7d07ec5c1" y="227.463353"/>
     <use style="fill:#0000ff;stroke:#000000;" x="264.771477" xlink:href="#me7d07ec5c1" y="245.242145"/>
     <use style="fill:#0000ff;stroke:#000000;" x="307.457006" xlink:href="#me7d07ec5c1" y="148.239895"/>
     <use style="fill:#0000ff;stroke:#000000;" x="278.308635" xlink:href="#me7d07ec5c1" y="94.171935"/>
     <use style="fill:#0000ff;stroke:#000000;" x="249.578742" xlink:href="#me7d07ec5c1" y="155.992663"/>
     <use style="fill:#0000ff;stroke:#000000;" x="121.009225" xlink:href="#me7d07ec5c1" y="192.863998"/>
     <use style="fill:#0000ff;stroke:#000000;" x="158.581507" xlink:href="#me7d07ec5c1" y="122.884759"/>
     <use style="fill:#0000ff;stroke:#000000;" x="180.962407" xlink:href="#me7d07ec5c1" y="190.134848"/>
     <use style="fill:#0000ff;stroke:#000000;" x="202.083868" xlink:href="#me7d07ec5c1" y="208.229814"/>
     <use style="fill:#0000ff;stroke:#000000;" x="144.860111" xlink:href="#me7d07ec5c1" y="130.934404"/>
     <use style="fill:#0000ff;stroke:#000000;" x="128.729838" xlink:href="#me7d07ec5c1" y="154.111175"/>
     <use style="fill:#0000ff;stroke:#000000;" x="243.045887" xlink:href="#me7d07ec5c1" y="190.462156"/>
     <use style="fill:#0000ff;stroke:#000000;" x="121.308787" xlink:href="#me7d07ec5c1" y="184.166213"/>
     <use style="fill:#0000ff;stroke:#000000;" x="309.545156" xlink:href="#me7d07ec5c1" y="176.784966"/>
     <use style="fill:#0000ff;stroke:#000000;" x="141.925516" xlink:href="#me7d07ec5c1" y="133.417568"/>
     <use style="fill:#0000ff;stroke:#000000;" x="135.674376" xlink:href="#me7d07ec5c1" y="139.564765"/>
     <use style="fill:#0000ff;stroke:#000000;" x="301.452485" xlink:href="#me7d07ec5c1" y="202.872218"/>
     <use style="fill:#0000ff;stroke:#000000;" x="123.232225" xlink:href="#me7d07ec5c1" y="169.491865"/>
     <use style="fill:#0000ff;stroke:#000000;" x="249.533264" xlink:href="#me7d07ec5c1" y="255.158288"/>
     <use style="fill:#0000ff;stroke:#000000;" x="246.765501" xlink:href="#me7d07ec5c1" y="183.474412"/>
     <use style="fill:#0000ff;stroke:#000000;" x="269.568161" xlink:href="#me7d07ec5c1" y="87.798026"/>
     <use style="fill:#0000ff;stroke:#000000;" x="211.924274" xlink:href="#me7d07ec5c1" y="207.260756"/>
     <use style="fill:#0000ff;stroke:#000000;" x="191.932594" xlink:href="#me7d07ec5c1" y="203.921929"/>
     <use style="fill:#0000ff;stroke:#000000;" x="179.951136" xlink:href="#me7d07ec5c1" y="185.011074"/>
     <use style="fill:#0000ff;stroke:#000000;" x="168.015615" xlink:href="#me7d07ec5c1" y="253.611397"/>
     <use style="fill:#0000ff;stroke:#000000;" x="284.749403" xlink:href="#me7d07ec5c1" y="230.587365"/>
     <use style="fill:#0000ff;stroke:#000000;" x="180.547301" xlink:href="#me7d07ec5c1" y="192.063452"/>
     <use style="fill:#0000ff;stroke:#000000;" x="306.845876" xlink:href="#me7d07ec5c1" y="146.712791"/>
     <use style="fill:#0000ff;stroke:#000000;" x="126.35262" xlink:href="#me7d07ec5c1" y="159.37214"/>
     <use style="fill:#0000ff;stroke:#000000;" x="192.531607" xlink:href="#me7d07ec5c1" y="202.570042"/>
     <use style="fill:#0000ff;stroke:#000000;" x="166.660387" xlink:href="#me7d07ec5c1" y="251.776817"/>
     <use style="fill:#0000ff;stroke:#000000;" x="228.521346" xlink:href="#me7d07ec5c1" y="202.653059"/>
     <use style="fill:#0000ff;stroke:#000000;" x="250.032467" xlink:href="#me7d07ec5c1" y="254.717558"/>
     <use style="fill:#0000ff;stroke:#000000;" x="264.571182" xlink:href="#me7d07ec5c1" y="81.444252"/>
     <use style="fill:#0000ff;stroke:#000000;" x="181.346295" xlink:href="#me7d07ec5c1" y="116.682173"/>
     <use style="fill:#0000ff;stroke:#000000;" x="240.784425" xlink:href="#me7d07ec5c1" y="194.174937"/>
     <use style="fill:#0000ff;stroke:#000000;" x="208.871053" xlink:href="#me7d07ec5c1" y="262.854581"/>
     <use style="fill:#0000ff;stroke:#000000;" x="193.905465" xlink:href="#me7d07ec5c1" y="203.418066"/>
     <use style="fill:#0000ff;stroke:#000000;" x="208.564599" xlink:href="#me7d07ec5c1" y="117.732792"/>
     <use style="fill:#0000ff;stroke:#000000;" x="207.81444" xlink:href="#me7d07ec5c1" y="261.995614"/>
     <use style="fill:#0000ff;stroke:#000000;" x="124.600297" xlink:href="#me7d07ec5c1" y="161.706855"/>
     <use style="fill:#0000ff;stroke:#000000;" x="164.075734" xlink:href="#me7d07ec5c1" y="118.963333"/>
     <use style="fill:#0000ff;stroke:#000000;" x="295.794107" xlink:href="#me7d07ec5c1" y="215.686147"/>
     <use style="fill:#0000ff;stroke:#000000;" x="172.243023" xlink:href="#me7d07ec5c1" y="117.906656"/>
     <use style="fill:#0000ff;stroke:#000000;" x="200.628368" xlink:href="#me7d07ec5c1" y="205.915917"/>
     <use style="fill:#0000ff;stroke:#000000;" x="200.852175" xlink:href="#me7d07ec5c1" y="113.068768"/>
     <use style="fill:#0000ff;stroke:#000000;" x="130.620517" xlink:href="#me7d07ec5c1" y="150.630489"/>
     <use style="fill:#0000ff;stroke:#000000;" x="226.220614" xlink:href="#me7d07ec5c1" y="125.77342"/>
     <use style="fill:#0000ff;stroke:#000000;" x="242.126704" xlink:href="#me7d07ec5c1" y="138.379591"/>
     <use style="fill:#0000ff;stroke:#000000;" x="151.177944" xlink:href="#me7d07ec5c1" y="128.165737"/>
     <use style="fill:#0000ff;stroke:#000000;" x="202.539484" xlink:href="#me7d07ec5c1" y="116.982742"/>
     <use style="fill:#0000ff;stroke:#000000;" x="308.130103" xlink:href="#me7d07ec5c1" y="179.551243"/>
     <use style="fill:#0000ff;stroke:#000000;" x="224.980449" xlink:href="#me7d07ec5c1" y="122.347587"/>
     <use style="fill:#0000ff;stroke:#000000;" x="310.305267" xlink:href="#me7d07ec5c1" y="174.42082"/>
     <use style="fill:#0000ff;stroke:#000000;" x="121.824456" xlink:href="#me7d07ec5c1" y="200.619583"/>
     <use style="fill:#0000ff;stroke:#000000;" x="181.964156" xlink:href="#me7d07ec5c1" y="196.316368"/>
     <use style="fill:#0000ff;stroke:#000000;" x="249.293671" xlink:href="#me7d07ec5c1" y="150.708824"/>
     <use style="fill:#0000ff;stroke:#000000;" x="205.827109" xlink:href="#me7d07ec5c1" y="261.92623"/>
     <use style="fill:#0000ff;stroke:#000000;" x="305.138454" xlink:href="#me7d07ec5c1" y="134.559242"/>
     <use style="fill:#0000ff;stroke:#000000;" x="221.584816" xlink:href="#me7d07ec5c1" y="62.237095"/>
     <use style="fill:#0000ff;stroke:#000000;" x="248.234161" xlink:href="#me7d07ec5c1" y="148.998688"/>
     <use style="fill:#0000ff;stroke:#000000;" x="125.966657" xlink:href="#me7d07ec5c1" y="159.859514"/>
     <use style="fill:#0000ff;stroke:#000000;" x="296.123457" xlink:href="#me7d07ec5c1" y="218.637052"/>
     <use style="fill:#0000ff;stroke:#000000;" x="238.349158" xlink:href="#me7d07ec5c1" y="195.827112"/>
     <use style="fill:#0000ff;stroke:#000000;" x="309.239736" xlink:href="#me7d07ec5c1" y="158.736335"/>
     <use style="fill:#0000ff;stroke:#000000;" x="200.098899" xlink:href="#me7d07ec5c1" y="261.610328"/>
     <use style="fill:#0000ff;stroke:#000000;" x="219.398088" xlink:href="#me7d07ec5c1" y="263.40684"/>
     <use style="fill:#0000ff;stroke:#000000;" x="126.386533" xlink:href="#me7d07ec5c1" y="212.13676"/>
     <use style="fill:#0000ff;stroke:#000000;" x="309.175544" xlink:href="#me7d07ec5c1" y="179.221652"/>
     <use style="fill:#0000ff;stroke:#000000;" x="188.337442" xlink:href="#me7d07ec5c1" y="198.070069"/>
     <use style="fill:#0000ff;stroke:#000000;" x="242.308898" xlink:href="#me7d07ec5c1" y="190.170789"/>
     <use style="fill:#0000ff;stroke:#000000;" x="208.599868" xlink:href="#me7d07ec5c1" y="117.740563"/>
     <use style="fill:#0000ff;stroke:#000000;" x="241.081466" xlink:href="#me7d07ec5c1" y="189.859171"/>
     <use style="fill:#0000ff;stroke:#000000;" x="208.92331" xlink:href="#me7d07ec5c1" y="208.021533"/>
     <use style="fill:#0000ff;stroke:#000000;" x="179.974713" xlink:href="#me7d07ec5c1" y="182.022052"/>
     <use style="fill:#0000ff;stroke:#000000;" x="247.835782" xlink:href="#me7d07ec5c1" y="151.586475"/>
     <use style="fill:#0000ff;stroke:#000000;" x="179.039239" xlink:href="#me7d07ec5c1" y="185.639882"/>
     <use style="fill:#0000ff;stroke:#000000;" x="204.924167" xlink:href="#me7d07ec5c1" y="116.466393"/>
     <use style="fill:#0000ff;stroke:#000000;" x="162.774184" xlink:href="#me7d07ec5c1" y="251.572241"/>
     <use style="fill:#0000ff;stroke:#000000;" x="249.86691" xlink:href="#me7d07ec5c1" y="161.429126"/>
     <use style="fill:#0000ff;stroke:#000000;" x="184.53364" xlink:href="#me7d07ec5c1" y="259.854699"/>
     <use style="fill:#0000ff;stroke:#000000;" x="134.638884" xlink:href="#me7d07ec5c1" y="144.199077"/>
     <use style="fill:#0000ff;stroke:#000000;" x="139.539103" xlink:href="#me7d07ec5c1" y="136.073809"/>
     <use style="fill:#0000ff;stroke:#000000;" x="239.24058" xlink:href="#me7d07ec5c1" y="258.017192"/>
     <use style="fill:#0000ff;stroke:#000000;" x="241.815535" xlink:href="#me7d07ec5c1" y="135.925206"/>
     <use style="fill:#0000ff;stroke:#000000;" x="252.626644" xlink:href="#me7d07ec5c1" y="252.738566"/>
     <use style="fill:#0000ff;stroke:#000000;" x="121.808944" xlink:href="#me7d07ec5c1" y="161.042174"/>
     <use style="fill:#0000ff;stroke:#000000;" x="175.044485" xlink:href="#me7d07ec5c1" y="254.150773"/>
     <use style="fill:#0000ff;stroke:#000000;" x="219.745505" xlink:href="#me7d07ec5c1" y="121.01599"/>
     <use style="fill:#0000ff;stroke:#000000;" x="232.117268" xlink:href="#me7d07ec5c1" y="128.662989"/>
     <use style="fill:#0000ff;stroke:#000000;" x="209.24224" xlink:href="#me7d07ec5c1" y="208.239223"/>
     <use style="fill:#0000ff;stroke:#000000;" x="134.460808" xlink:href="#me7d07ec5c1" y="224.973405"/>
     <use style="fill:#0000ff;stroke:#000000;" x="194.60579" xlink:href="#me7d07ec5c1" y="261.545646"/>
     <use style="fill:#0000ff;stroke:#000000;" x="188.819511" xlink:href="#me7d07ec5c1" y="260.894504"/>
     <use style="fill:#0000ff;stroke:#000000;" x="249.804907" xlink:href="#me7d07ec5c1" y="163.321131"/>
     <use style="fill:#0000ff;stroke:#000000;" x="127.551916" xlink:href="#me7d07ec5c1" y="211.808579"/>
     <use style="fill:#0000ff;stroke:#000000;" x="235.501555" xlink:href="#me7d07ec5c1" y="259.153511"/>
     <use style="fill:#0000ff;stroke:#000000;" x="135.580582" xlink:href="#me7d07ec5c1" y="140.799676"/>
     <use style="fill:#0000ff;stroke:#000000;" x="240.053748" xlink:href="#me7d07ec5c1" y="137.44739"/>
     <use style="fill:#0000ff;stroke:#000000;" x="263.377181" xlink:href="#me7d07ec5c1" y="249.219484"/>
     <use style="fill:#0000ff;stroke:#000000;" x="205.105691" xlink:href="#me7d07ec5c1" y="207.596106"/>
     <use style="fill:#0000ff;stroke:#000000;" x="180.466578" xlink:href="#me7d07ec5c1" y="186.406834"/>
     <use style="fill:#0000ff;stroke:#000000;" x="244.881543" xlink:href="#me7d07ec5c1" y="143.376554"/>
     <use style="fill:#0000ff;stroke:#000000;" x="143.544719" xlink:href="#me7d07ec5c1" y="235.409023"/>
     <use style="fill:#0000ff;stroke:#000000;" x="246.379715" xlink:href="#me7d07ec5c1" y="144.900357"/>
     <use style="fill:#0000ff;stroke:#000000;" x="271.230859" xlink:href="#me7d07ec5c1" y="242.100229"/>
     <use style="fill:#0000ff;stroke:#000000;" x="278.597526" xlink:href="#me7d07ec5c1" y="233.898423"/>
     <use style="fill:#0000ff;stroke:#000000;" x="221.249732" xlink:href="#me7d07ec5c1" y="206.574523"/>
     <use style="fill:#0000ff;stroke:#000000;" x="243.796213" xlink:href="#me7d07ec5c1" y="188.92991"/>
     <use style="fill:#0000ff;stroke:#000000;" x="179.372988" xlink:href="#me7d07ec5c1" y="115.356725"/>
     <use style="fill:#0000ff;stroke:#000000;" x="130.288251" xlink:href="#me7d07ec5c1" y="217.963784"/>
     <use style="fill:#0000ff;stroke:#000000;" x="142.03866" xlink:href="#me7d07ec5c1" y="134.815209"/>
     <use style="fill:#0000ff;stroke:#000000;" x="243.08608" xlink:href="#me7d07ec5c1" y="69.811513"/>
     <use style="fill:#0000ff;stroke:#000000;" x="207.926428" xlink:href="#me7d07ec5c1" y="207.680386"/>
     <use style="fill:#0000ff;stroke:#000000;" x="291.725693" xlink:href="#me7d07ec5c1" y="220.402946"/>
     <use style="fill:#0000ff;stroke:#000000;" x="299.898395" xlink:href="#me7d07ec5c1" y="123.875207"/>
     <use style="fill:#0000ff;stroke:#000000;" x="209.560096" xlink:href="#me7d07ec5c1" y="208.28285"/>
     <use style="fill:#0000ff;stroke:#000000;" x="254.596351" xlink:href="#me7d07ec5c1" y="75.37436"/>
     <use style="fill:#0000ff;stroke:#000000;" x="205.774867" xlink:href="#me7d07ec5c1" y="116.280174"/>
     <use style="fill:#0000ff;stroke:#000000;" x="310.14704" xlink:href="#me7d07ec5c1" y="164.197765"/>
     <use style="fill:#0000ff;stroke:#000000;" x="245.028622" xlink:href="#me7d07ec5c1" y="144.431411"/>
     <use style="fill:#0000ff;stroke:#000000;" x="125.077349" xlink:href="#me7d07ec5c1" y="207.256955"/>
     <use style="fill:#0000ff;stroke:#000000;" x="217.8823" xlink:href="#me7d07ec5c1" y="206.359086"/>
     <use style="fill:#0000ff;stroke:#000000;" x="139.254377" xlink:href="#me7d07ec5c1" y="135.353498"/>
     <use style="fill:#0000ff;stroke:#000000;" x="127.367615" xlink:href="#me7d07ec5c1" y="157.155566"/>
     <use style="fill:#0000ff;stroke:#000000;" x="184.883362" xlink:href="#me7d07ec5c1" y="114.844014"/>
     <use style="fill:#0000ff;stroke:#000000;" x="304.689175" xlink:href="#me7d07ec5c1" y="190.826112"/>
     <use style="fill:#0000ff;stroke:#000000;" x="138.799372" xlink:href="#me7d07ec5c1" y="232.524453"/>
     <use style="fill:#0000ff;stroke:#000000;" x="157.464744" xlink:href="#me7d07ec5c1" y="123.218507"/>
     <use style="fill:#0000ff;stroke:#000000;" x="249.49135" xlink:href="#me7d07ec5c1" y="163.183606"/>
     <use style="fill:#0000ff;stroke:#000000;" x="179.544343" xlink:href="#me7d07ec5c1" y="115.253761"/>
     <use style="fill:#0000ff;stroke:#000000;" x="179.726835" xlink:href="#me7d07ec5c1" y="187.244695"/>
     <use style="fill:#0000ff;stroke:#000000;" x="125.426131" xlink:href="#me7d07ec5c1" y="204.964294"/>
     <use style="fill:#0000ff;stroke:#000000;" x="203.985638" xlink:href="#me7d07ec5c1" y="260.586401"/>
     <use style="fill:#0000ff;stroke:#000000;" x="176.196009" xlink:href="#me7d07ec5c1" y="116.585011"/>
     <use style="fill:#0000ff;stroke:#000000;" x="177.871094" xlink:href="#me7d07ec5c1" y="257.318186"/>
     <use style="fill:#0000ff;stroke:#000000;" x="307.269653" xlink:href="#me7d07ec5c1" y="180.535976"/>
     <use style="fill:#0000ff;stroke:#000000;" x="291.621204" xlink:href="#me7d07ec5c1" y="107.222448"/>
     <use style="fill:#0000ff;stroke:#000000;" x="246.445736" xlink:href="#me7d07ec5c1" y="183.137392"/>
     <use style="fill:#0000ff;stroke:#000000;" x="173.858022" xlink:href="#me7d07ec5c1" y="117.783287"/>
     <use style="fill:#0000ff;stroke:#000000;" x="209.155576" xlink:href="#me7d07ec5c1" y="262.65267"/>
     <use style="fill:#0000ff;stroke:#000000;" x="306.785017" xlink:href="#me7d07ec5c1" y="191.47737"/>
     <use style="fill:#0000ff;stroke:#000000;" x="180.166911" xlink:href="#me7d07ec5c1" y="184.562286"/>
     <use style="fill:#0000ff;stroke:#000000;" x="218.514181" xlink:href="#me7d07ec5c1" y="205.604135"/>
     <use style="fill:#0000ff;stroke:#000000;" x="184.481259" xlink:href="#me7d07ec5c1" y="195.842946"/>
     <use style="fill:#0000ff;stroke:#000000;" x="195.115595" xlink:href="#me7d07ec5c1" y="205.874519"/>
     <use style="fill:#0000ff;stroke:#000000;" x="209.627085" xlink:href="#me7d07ec5c1" y="116.337229"/>
     <use style="fill:#0000ff;stroke:#000000;" x="204.53192" xlink:href="#me7d07ec5c1" y="114.465579"/>
     <use style="fill:#0000ff;stroke:#000000;" x="285.425506" xlink:href="#me7d07ec5c1" y="102.195829"/>
     <use style="fill:#0000ff;stroke:#000000;" x="178.717531" xlink:href="#me7d07ec5c1" y="180.43826"/>
     <use style="fill:#0000ff;stroke:#000000;" x="242.826234" xlink:href="#me7d07ec5c1" y="189.052131"/>
     <use style="fill:#0000ff;stroke:#000000;" x="183.919465" xlink:href="#me7d07ec5c1" y="259.697319"/>
     <use style="fill:#0000ff;stroke:#000000;" x="211.70084" xlink:href="#me7d07ec5c1" y="60.403995"/>
     <use style="fill:#0000ff;stroke:#000000;" x="244.681906" xlink:href="#me7d07ec5c1" y="190.029537"/>
     <use style="fill:#0000ff;stroke:#000000;" x="249.464781" xlink:href="#me7d07ec5c1" y="173.735203"/>
     <use style="fill:#0000ff;stroke:#000000;" x="249.287468" xlink:href="#me7d07ec5c1" y="168.794658"/>
     <use style="fill:#0000ff;stroke:#000000;" x="271.937695" xlink:href="#me7d07ec5c1" y="242.63774"/>
     <use style="fill:#0000ff;stroke:#000000;" x="237.985627" xlink:href="#me7d07ec5c1" y="258.777927"/>
     <use style="fill:#0000ff;stroke:#000000;" x="244.783638" xlink:href="#me7d07ec5c1" y="145.28462"/>
     <use style="fill:#0000ff;stroke:#000000;" x="122.014643" xlink:href="#me7d07ec5c1" y="179.505782"/>
     <use style="fill:#0000ff;stroke:#000000;" x="182.515328" xlink:href="#me7d07ec5c1" y="191.453031"/>
     <use style="fill:#0000ff;stroke:#000000;" x="248.454886" xlink:href="#me7d07ec5c1" y="71.550839"/>
     <use style="fill:#0000ff;stroke:#000000;" x="307.170995" xlink:href="#me7d07ec5c1" y="149.402231"/>
     <use style="fill:#0000ff;stroke:#000000;" x="282.270626" xlink:href="#me7d07ec5c1" y="96.477192"/>
     <use style="fill:#0000ff;stroke:#000000;" x="200.119585" xlink:href="#me7d07ec5c1" y="116.124181"/>
     <use style="fill:#0000ff;stroke:#000000;" x="167.563243" xlink:href="#me7d07ec5c1" y="253.060584"/>
     <use style="fill:#0000ff;stroke:#000000;" x="235.268213" xlink:href="#me7d07ec5c1" y="64.193018"/>
     <use style="fill:#0000ff;stroke:#000000;" x="257.076672" xlink:href="#me7d07ec5c1" y="76.674547"/>
     <use style="fill:#0000ff;stroke:#000000;" x="245.444184" xlink:href="#me7d07ec5c1" y="186.375564"/>
     <use style="fill:#0000ff;stroke:#000000;" x="185.544912" xlink:href="#me7d07ec5c1" y="198.688569"/>
     <use style="fill:#0000ff;stroke:#000000;" x="250.392238" xlink:href="#me7d07ec5c1" y="151.623392"/>
     <use style="fill:#0000ff;stroke:#000000;" x="166.469583" xlink:href="#me7d07ec5c1" y="119.444503"/>
     <use style="fill:#0000ff;stroke:#000000;" x="287.645517" xlink:href="#me7d07ec5c1" y="107.021349"/>
     <use style="fill:#0000ff;stroke:#000000;" x="301.841586" xlink:href="#me7d07ec5c1" y="124.303201"/>
     <use style="fill:#0000ff;stroke:#000000;" x="251.434355" xlink:href="#me7d07ec5c1" y="177.960376"/>
     <use style="fill:#0000ff;stroke:#000000;" x="151.523715" xlink:href="#me7d07ec5c1" y="125.186011"/>
     <use style="fill:#0000ff;stroke:#000000;" x="299.109384" xlink:href="#me7d07ec5c1" y="209.12851"/>
     <use style="fill:#0000ff;stroke:#000000;" x="147.853276" xlink:href="#me7d07ec5c1" y="239.467184"/>
     <use style="fill:#0000ff;stroke:#000000;" x="227.304261" xlink:href="#me7d07ec5c1" y="202.056052"/>
     <use style="fill:#0000ff;stroke:#000000;" x="309.909863" xlink:href="#me7d07ec5c1" y="157.896"/>
     <use style="fill:#0000ff;stroke:#000000;" x="170.125012" xlink:href="#me7d07ec5c1" y="117.844716"/>
     <use style="fill:#0000ff;stroke:#000000;" x="230.463791" xlink:href="#me7d07ec5c1" y="123.502047"/>
     <use style="fill:#0000ff;stroke:#000000;" x="288.507956" xlink:href="#me7d07ec5c1" y="225.168827"/>
     <use style="fill:#0000ff;stroke:#000000;" x="248.638039" xlink:href="#me7d07ec5c1" y="152.067174"/>
     <use style="fill:#0000ff;stroke:#000000;" x="123.778546" xlink:href="#me7d07ec5c1" y="168.474345"/>
    </g>
   </g>
   <g id="patch_3">
    <path d="M 57.6 307.584 
L 57.6 41.472 
" style="fill:none;stroke:#000000;stroke-linecap:square;stroke-linejoin:miter;stroke-width:0.8;"/>
   </g>
   <g id="patch_4">
    <path d="M 343.296 307.584 
L 343.296 41.472 
" style="fill:none;stroke:#000000;stroke-linecap:square;stroke-linejoin:miter;stroke-width:0.8;"/>
   </g>
   <g id="patch_5">
    <path d="M 57.6 307.584 
L 343.296 307.584 
" style="fill:none;stroke:#000000;stroke-linecap:square;stroke-linejoin:miter;stroke-width:0.8;"/>
   </g>
   <g id="patch_6">
    <path d="M 57.6 41.472 
L 343.296 41.472 
" style="fill:none;stroke:#000000;stroke-linecap:square;stroke-linejoin:miter;stroke-width:0.8;"/>
   </g>
   <g id="text_17">
    <!-- Spirals -->
    <g transform="translate(180.227063 35.472)scale(0.12 -0.12)">
     <defs>
      <path d="M 53.515625 70.515625 
L 53.515625 60.890625 
Q 47.90625 63.578125 42.921875 64.890625 
Q 37.9375 66.21875 33.296875 66.21875 
Q 25.25 66.21875 20.875 63.09375 
Q 16.5 59.96875 16.5 54.203125 
Q 16.5 49.359375 19.40625 46.890625 
Q 22.3125 44.4375 30.421875 42.921875 
L 36.375 41.703125 
Q 47.40625 39.59375 52.65625 34.296875 
Q 57.90625 29 57.90625 20.125 
Q 57.90625 9.515625 50.796875 4.046875 
Q 43.703125 -1.421875 29.984375 -1.421875 
Q 24.8125 -1.421875 18.96875 -0.25 
Q 13.140625 0.921875 6.890625 3.21875 
L 6.890625 13.375 
Q 12.890625 10.015625 18.65625 8.296875 
Q 24.421875 6.59375 29.984375 6.59375 
Q 38.421875 6.59375 43.015625 9.90625 
Q 47.609375 13.234375 47.609375 19.390625 
Q 47.609375 24.75 44.3125 27.78125 
Q 41.015625 30.8125 33.5 32.328125 
L 27.484375 33.5 
Q 16.453125 35.6875 11.515625 40.375 
Q 6.59375 45.0625 6.59375 53.421875 
Q 6.59375 63.09375 13.40625 68.65625 
Q 20.21875 74.21875 32.171875 74.21875 
Q 37.3125 74.21875 42.625 73.28125 
Q 47.953125 72.359375 53.515625 70.515625 
z
" id="DejaVuSans-83"/>
      <path d="M 18.109375 8.203125 
L 18.109375 -20.796875 
L 9.078125 -20.796875 
L 9.078125 54.6875 
L 18.109375 54.6875 
L 18.109375 46.390625 
Q 20.953125 51.265625 25.265625 53.625 
Q 29.59375 56 35.59375 56 
Q 45.5625 56 51.78125 48.09375 
Q 58.015625 40.1875 58.015625 27.296875 
Q 58.015625 14.40625 51.78125 6.484375 
Q 45.5625 -1.421875 35.59375 -1.421875 
Q 29.59375 -1.421875 25.265625 0.953125 
Q 20.953125 3.328125 18.109375 8.203125 
z
M 48.6875 27.296875 
Q 48.6875 37.203125 44.609375 42.84375 
Q 40.53125 48.484375 33.40625 48.484375 
Q 26.265625 48.484375 22.1875 42.84375 
Q 18.109375 37.203125 18.109375 27.296875 
Q 18.109375 17.390625 22.1875 11.75 
Q 26.265625 6.109375 33.40625 6.109375 
Q 40.53125 6.109375 44.609375 11.75 
Q 48.6875 17.390625 48.6875 27.296875 
z
" id="DejaVuSans-112"/>
      <path d="M 9.421875 54.6875 
L 18.40625 54.6875 
L 18.40625 0 
L 9.421875 0 
z
M 9.421875 75.984375 
L 18.40625 75.984375 
L 18.40625 64.59375 
L 9.421875 64.59375 
z
" id="DejaVuSans-105"/>
      <path d="M 41.109375 46.296875 
Q 39.59375 47.171875 37.8125 47.578125 
Q 36.03125 48 33.890625 48 
Q 26.265625 48 22.1875 43.046875 
Q 18.109375 38.09375 18.109375 28.8125 
L 18.109375 0 
L 9.078125 0 
L 9.078125 54.6875 
L 18.109375 54.6875 
L 18.109375 46.1875 
Q 20.953125 51.171875 25.484375 53.578125 
Q 30.03125 56 36.53125 56 
Q 37.453125 56 38.578125 55.875 
Q 39.703125 55.765625 41.0625 55.515625 
z
" id="DejaVuSans-114"/>
      <path d="M 34.28125 27.484375 
Q 23.390625 27.484375 19.1875 25 
Q 14.984375 22.515625 14.984375 16.5 
Q 14.984375 11.71875 18.140625 8.90625 
Q 21.296875 6.109375 26.703125 6.109375 
Q 34.1875 6.109375 38.703125 11.40625 
Q 43.21875 16.703125 43.21875 25.484375 
L 43.21875 27.484375 
z
M 52.203125 31.203125 
L 52.203125 0 
L 43.21875 0 
L 43.21875 8.296875 
Q 40.140625 3.328125 35.546875 0.953125 
Q 30.953125 -1.421875 24.3125 -1.421875 
Q 15.921875 -1.421875 10.953125 3.296875 
Q 6 8.015625 6 15.921875 
Q 6 25.140625 12.171875 29.828125 
Q 18.359375 34.515625 30.609375 34.515625 
L 43.21875 34.515625 
L 43.21875 35.40625 
Q 43.21875 41.609375 39.140625 45 
Q 35.0625 48.390625 27.6875 48.390625 
Q 23 48.390625 18.546875 47.265625 
Q 14.109375 46.140625 10.015625 43.890625 
L 10.015625 52.203125 
Q 14.9375 54.109375 19.578125 55.046875 
Q 24.21875 56 28.609375 56 
Q 40.484375 56 46.34375 49.84375 
Q 52.203125 43.703125 52.203125 31.203125 
z
" id="DejaVuSans-97"/>
      <path d="M 9.421875 75.984375 
L 18.40625 75.984375 
L 18.40625 0 
L 9.421875 0 
z
" id="DejaVuSans-108"/>
      <path d="M 44.28125 53.078125 
L 44.28125 44.578125 
Q 40.484375 46.53125 36.375 47.5 
Q 32.28125 48.484375 27.875 48.484375 
Q 21.1875 48.484375 17.84375 46.4375 
Q 14.5 44.390625 14.5 40.28125 
Q 14.5 37.15625 16.890625 35.375 
Q 19.28125 33.59375 26.515625 31.984375 
L 29.59375 31.296875 
Q 39.15625 29.25 43.1875 25.515625 
Q 47.21875 21.78125 47.21875 15.09375 
Q 47.21875 7.46875 41.1875 3.015625 
Q 35.15625 -1.421875 24.609375 -1.421875 
Q 20.21875 -1.421875 15.453125 -0.5625 
Q 10.6875 0.296875 5.421875 2 
L 5.421875 11.28125 
Q 10.40625 8.6875 15.234375 7.390625 
Q 20.0625 6.109375 24.8125 6.109375 
Q 31.15625 6.109375 34.5625 8.28125 
Q 37.984375 10.453125 37.984375 14.40625 
Q 37.984375 18.0625 35.515625 20.015625 
Q 33.0625 21.96875 24.703125 23.78125 
L 21.578125 24.515625 
Q 13.234375 26.265625 9.515625 29.90625 
Q 5.8125 33.546875 5.8125 39.890625 
Q 5.8125 47.609375 11.28125 51.796875 
Q 16.75 56 26.8125 56 
Q 31.78125 56 36.171875 55.265625 
Q 40.578125 54.546875 44.28125 53.078125 
z
" id="DejaVuSans-115"/>
     </defs>
     <use xlink:href="#DejaVuSans-83"/>
     <use x="63.476562" xlink:href="#DejaVuSans-112"/>
     <use x="126.953125" xlink:href="#DejaVuSans-105"/>
     <use x="154.736328" xlink:href="#DejaVuSans-114"/>
     <use x="195.849609" xlink:href="#DejaVuSans-97"/>
     <use x="257.128906" xlink:href="#DejaVuSans-108"/>
     <use x="284.912109" xlink:href="#DejaVuSans-115"/>
    </g>
   </g>
  </g>
  <g id="axes_2">
   <g id="patch_7">
    <path clip-path="url(#pec5335836a)" d="M 361.152 307.584 
L 361.152 41.472 
L 361.152 307.584 
L 361.152 41.472 
L 374.4576 41.472 
L 374.4576 307.584 
L 374.4576 41.472 
L 374.4576 307.584 
z
" style="fill:#ffffff;stroke:#ffffff;stroke-linejoin:miter;stroke-width:0.01;"/>
   </g>
   <g id="QuadMesh_1">
    <path clip-path="url(#pec5335836a)" d="M 361.152 307.584 
L 374.4576 307.584 
L 374.4576 41.472 
L 361.152 41.472 
L 361.152 307.584 
" style="fill:#21908d;"/>
   </g>
   <g id="matplotlib.axis_3"/>
   <g id="matplotlib.axis_4">
    <g id="ytick_8">
     <g id="line2d_17">
      <defs>
       <path d="M 0 0 
L 3.5 0 
" id="m01d2f237c3" style="stroke:#000000;stroke-width:0.8;"/>
      </defs>
      <g>
       <use style="stroke:#000000;stroke-width:0.8;" x="374.4576" xlink:href="#m01d2f237c3" y="307.584"/>
      </g>
     </g>
     <g id="text_18">
      <!-- 0.45 -->
      <g transform="translate(381.4576 311.383219)scale(0.1 -0.1)">
       <defs>
        <path d="M 10.6875 12.40625 
L 21 12.40625 
L 21 0 
L 10.6875 0 
z
" id="DejaVuSans-46"/>
        <path d="M 37.796875 64.3125 
L 12.890625 25.390625 
L 37.796875 25.390625 
z
M 35.203125 72.90625 
L 47.609375 72.90625 
L 47.609375 25.390625 
L 58.015625 25.390625 
L 58.015625 17.1875 
L 47.609375 17.1875 
L 47.609375 0 
L 37.796875 0 
L 37.796875 17.1875 
L 4.890625 17.1875 
L 4.890625 26.703125 
z
" id="DejaVuSans-52"/>
       </defs>
       <use xlink:href="#DejaVuSans-48"/>
       <use x="63.623047" xlink:href="#DejaVuSans-46"/>
       <use x="95.410156" xlink:href="#DejaVuSans-52"/>
       <use x="159.033203" xlink:href="#DejaVuSans-53"/>
      </g>
     </g>
    </g>
    <g id="ytick_9">
     <g id="line2d_18">
      <g>
       <use style="stroke:#000000;stroke-width:0.8;" x="374.4576" xlink:href="#m01d2f237c3" y="41.472"/>
      </g>
     </g>
     <g id="text_19">
      <!-- 0.55 -->
      <g transform="translate(381.4576 45.271219)scale(0.1 -0.1)">
       <use xlink:href="#DejaVuSans-48"/>
       <use x="63.623047" xlink:href="#DejaVuSans-46"/>
       <use x="95.410156" xlink:href="#DejaVuSans-53"/>
       <use x="159.033203" xlink:href="#DejaVuSans-53"/>
      </g>
     </g>
    </g>
   </g>
   <g id="patch_8">
    <path d="M 361.152 307.584 
L 361.152 41.472 
L 361.152 307.584 
L 361.152 41.472 
L 374.4576 41.472 
L 374.4576 307.584 
L 374.4576 41.472 
L 374.4576 307.584 
z
" style="fill:none;stroke:#000000;stroke-linejoin:miter;stroke-width:0.8;"/>
   </g>
  </g>
 </g>
 <defs>
  <clipPath id="pf0929aa19a">
   <rect height="266.112" width="285.696" x="57.6" y="41.472"/>
  </clipPath>
  <clipPath id="pec5335836a">
   <rect height="266.112" width="13.3056" x="361.152" y="41.472"/>
  </clipPath>
 </defs>
</svg>
