<?xml version="1.0" encoding="utf-8" standalone="no"?>
<!DOCTYPE svg PUBLIC "-//W3C//DTD SVG 1.1//EN"
  "http://www.w3.org/Graphics/SVG/1.1/DTD/svg11.dtd">
<!-- Created with matplotlib (https://matplotlib.org/) -->
<svg height="345.6pt" version="1.1" viewBox="0 0 460.8 345.6" width="460.8pt" xmlns="http://www.w3.org/2000/svg" xmlns:xlink="http://www.w3.org/1999/xlink">
 <metadata>
  <rdf:RDF xmlns:cc="http://creativecommons.org/ns#" xmlns:dc="http://purl.org/dc/elements/1.1/" xmlns:rdf="http://www.w3.org/1999/02/22-rdf-syntax-ns#">
   <cc:Work>
    <dc:type rdf:resource="http://purl.org/dc/dcmitype/StillImage"/>
    <dc:date>2020-09-14T18:35:05.976154</dc:date>
    <dc:format>image/svg+xml</dc:format>
    <dc:creator>
     <cc:Agent>
      <dc:title>Matplotlib v3.3.1, https://matplotlib.org/</dc:title>
     </cc:Agent>
    </dc:creator>
   </cc:Work>
  </rdf:RDF>
 </metadata>
 <defs>
  <style type="text/css">*{stroke-linecap:butt;stroke-linejoin:round;}</style>
 </defs>
 <g id="figure_1">
  <g id="patch_1">
   <path d="M 0 345.6 
L 460.8 345.6 
L 460.8 0 
L 0 0 
z
" style="fill:#ffffff;"/>
  </g>
  <g id="axes_1">
   <g id="patch_2">
    <path d="M 57.6 307.584 
L 343.296 307.584 
L 343.296 41.472 
L 57.6 41.472 
z
" style="fill:#ffffff;"/>
   </g>
   <g id="PathCollection_1">
    <path clip-path="url(#p9b90af4803)" d="M 210.548363 307.584 
L 213.434182 307.584 
L 216.32 307.584 
L 219.205818 307.584 
L 222.091636 307.584 
L 224.977454 307.584 
L 227.863274 307.584 
L 230.749092 307.584 
L 233.634909 307.584 
L 236.520727 307.584 
L 239.406545 307.584 
L 242.292365 307.584 
L 245.17818 307.584 
L 248.064 307.584 
L 250.94982 307.584 
L 253.835635 307.584 
L 256.721455 307.584 
L 259.607271 307.584 
L 262.493091 307.584 
L 265.378911 307.584 
L 268.264726 307.584 
L 271.150546 307.584 
L 274.036362 307.584 
L 276.922182 307.584 
L 279.807997 307.584 
L 282.693821 307.584 
L 285.579637 307.584 
L 288.465452 307.584 
L 291.351277 307.584 
L 294.237092 307.584 
L 297.122908 307.584 
L 300.008723 307.584 
L 302.894548 307.584 
L 305.780363 307.584 
L 308.666179 307.584 
L 311.552003 307.584 
L 314.437818 307.584 
L 317.323634 307.584 
L 320.209458 307.584 
L 323.095274 307.584 
L 325.981089 307.584 
L 328.866905 307.584 
L 331.752729 307.584 
L 334.638545 307.584 
L 337.52436 307.584 
L 340.410185 307.584 
L 343.296 307.584 
L 343.296 304.896003 
L 343.296 302.207997 
L 343.296 299.519999 
L 343.296 296.832002 
L 343.296 294.143996 
L 343.296 291.455998 
L 343.296 288.768001 
L 343.296 286.080004 
L 343.296 283.391998 
L 343.296 280.704 
L 343.296 278.016003 
L 343.296 275.327997 
L 343.296 272.639999 
L 343.296 269.952002 
L 343.296 267.263996 
L 343.296 264.575999 
L 343.296 261.888001 
L 343.296 259.200004 
L 343.296 256.511998 
L 343.296 253.824001 
L 343.296 251.136003 
L 343.296 248.447997 
L 343.296 245.76 
L 343.296 243.071998 
L 343.296 240.384001 
L 343.296 237.695999 
L 343.296 235.008002 
L 343.296 232.32 
L 343.296 229.631998 
L 343.296 226.944001 
L 343.296 224.255999 
L 343.296 221.568002 
L 343.296 218.88 
L 343.296 216.191998 
L 343.296 213.504001 
L 343.296 210.815999 
L 343.296 208.128 
L 343.296 205.44 
L 343.296 202.752001 
L 343.296 200.064001 
L 343.296 197.375999 
L 343.296 194.688 
L 343.296 192 
L 343.296 189.312 
L 343.296 186.624 
L 343.296 183.935999 
L 343.296 181.248 
L 343.296 178.56 
L 343.296 175.872 
L 343.296 173.184 
L 343.296 170.496 
L 343.296 167.808 
L 343.296 165.120001 
L 343.296 162.432 
L 343.296 159.744 
L 343.296 157.056 
L 343.296 154.368 
L 343.296 151.680001 
L 343.296 148.991999 
L 343.296 146.303999 
L 343.296 143.616 
L 343.296 140.928 
L 343.296 138.240001 
L 343.296 135.551999 
L 343.296 132.864002 
L 343.296 130.176 
L 343.296 127.487998 
L 343.296 124.800001 
L 343.296 122.111999 
L 343.296 119.424002 
L 343.296 116.736 
L 343.296 114.047998 
L 343.296 111.360001 
L 343.296 108.671999 
L 343.296 105.984002 
L 343.296 103.296 
L 343.296 100.608003 
L 343.296 97.919997 
L 343.296 95.231999 
L 343.296 92.544002 
L 343.296 89.855996 
L 343.296 87.167999 
L 343.296 84.480001 
L 343.296 81.792004 
L 343.296 79.103998 
L 343.296 76.416001 
L 343.296 73.728003 
L 343.296 71.039997 
L 343.296 68.352 
L 343.296 65.664002 
L 343.296 62.975996 
L 343.296 60.287999 
L 343.296 57.600002 
L 343.296 54.912004 
L 343.296 52.223998 
L 343.296 49.536001 
L 343.296 46.848003 
L 343.296 44.159997 
L 343.296 41.472 
L 340.410185 41.472 
L 337.52436 41.472 
L 334.638545 41.472 
L 331.752729 41.472 
L 328.866905 41.472 
L 325.981089 41.472 
L 323.095274 41.472 
L 320.209458 41.472 
L 317.323634 41.472 
L 314.437818 41.472 
L 311.552003 41.472 
L 308.666179 41.472 
L 305.780363 41.472 
L 302.894548 41.472 
L 300.008723 41.472 
L 297.122908 41.472 
L 294.237092 41.472 
L 291.351277 41.472 
L 288.465452 41.472 
L 285.579637 41.472 
L 282.693821 41.472 
L 279.807997 41.472 
L 276.922182 41.472 
L 274.036362 41.472 
L 271.150546 41.472 
L 268.264726 41.472 
L 265.378911 41.472 
L 262.493091 41.472 
L 259.607271 41.472 
L 256.721455 41.472 
L 253.835635 41.472 
L 250.94982 41.472 
L 248.064 41.472 
L 245.17818 41.472 
L 242.292365 41.472 
L 239.406545 41.472 
L 236.520727 41.472 
L 233.634909 41.472 
L 230.749092 41.472 
L 227.863274 41.472 
L 224.977454 41.472 
L 222.091636 41.472 
L 219.205818 41.472 
L 216.32 41.472 
L 213.434182 41.472 
L 210.744707 41.472 
L 210.677958 44.159997 
L 210.548363 46.61549 
L 210.535608 46.848003 
L 210.35613 49.536001 
L 210.205856 52.223998 
L 210.056023 54.912004 
L 209.90075 57.600002 
L 209.736934 60.287999 
L 209.564103 62.975996 
L 209.773298 65.664002 
L 210.548363 67.393468 
L 211.196467 68.352 
L 213.434182 70.870849 
L 213.622495 71.039997 
L 216.32 73.227064 
L 216.986346 73.728003 
L 219.205818 75.3373 
L 220.847612 76.416001 
L 222.091636 77.199143 
L 224.977454 78.749056 
L 225.638063 79.103998 
L 227.863274 80.255344 
L 230.749092 81.721817 
L 230.875683 81.792004 
L 233.634909 83.242656 
L 235.96432 84.480001 
L 236.520727 84.78229 
L 239.406545 86.295591 
L 240.883868 87.167999 
L 242.292365 87.936205 
L 245.17818 89.445165 
L 245.879922 89.855996 
L 248.064 91.094678 
L 250.510607 92.544002 
L 250.94982 92.815413 
L 253.835635 94.642521 
L 254.629214 95.231999 
L 256.721455 96.786087 
L 258.063297 97.919997 
L 259.607271 99.14552 
L 261.309557 100.608003 
L 262.493091 101.635337 
L 264.369281 103.296 
L 265.378911 104.178829 
L 267.478124 105.984002 
L 268.264726 106.63705 
L 270.686671 108.671999 
L 271.150546 109.080334 
L 273.616831 111.360001 
L 274.036362 111.755675 
L 276.417507 114.047998 
L 276.922182 114.566564 
L 278.923861 116.736 
L 279.807997 117.673849 
L 281.281722 119.424002 
L 282.693821 121.138329 
L 283.49389 122.111999 
L 285.394593 124.800001 
L 285.579637 125.055414 
L 287.184413 127.487998 
L 288.465452 129.519848 
L 288.893215 130.176 
L 290.347083 132.864002 
L 291.351277 134.667582 
L 291.853517 135.551999 
L 292.980938 138.240001 
L 293.762034 140.928 
L 294.237092 142.753932 
L 294.464692 143.616 
L 295.050838 146.303999 
L 295.366016 148.991999 
L 295.56641 151.680001 
L 295.721726 154.368 
L 295.786672 157.056 
L 295.74063 159.744 
L 295.64508 162.432 
L 295.560236 165.120001 
L 295.434136 167.808 
L 295.256628 170.496 
L 294.90163 173.184 
L 294.446896 175.872 
L 294.237092 176.867518 
L 293.885846 178.56 
L 293.425047 181.248 
L 292.907826 183.935999 
L 292.33294 186.624 
L 291.351277 189.146098 
L 291.27966 189.312 
L 290.420654 192 
L 289.642643 194.688 
L 288.718804 197.375999 
L 288.465452 197.980893 
L 287.662951 200.064001 
L 286.841551 202.752001 
L 285.785863 205.44 
L 285.579637 205.828145 
L 284.467148 208.128 
L 283.22417 210.815999 
L 282.693821 211.814894 
L 281.804379 213.504001 
L 280.635185 216.191998 
L 279.807997 217.349 
L 278.627222 218.88 
L 276.922182 220.625718 
L 275.95308 221.568002 
L 274.036362 223.341996 
L 273.012637 224.255999 
L 271.150546 225.826098 
L 269.737306 226.944001 
L 268.264726 228.051154 
L 266.007403 229.631998 
L 265.378911 230.081952 
L 262.493091 232.078023 
L 262.148634 232.32 
L 259.607271 233.965639 
L 257.567693 235.008002 
L 256.721455 235.440557 
L 253.835635 236.67591 
L 251.483197 237.695999 
L 250.94982 237.942843 
L 248.064 239.026461 
L 245.17818 240.205631 
L 244.716402 240.384001 
L 242.292365 241.23811 
L 239.406545 242.12669 
L 236.607364 243.071998 
L 236.520727 243.104019 
L 233.634909 244.046891 
L 230.749092 244.94495 
L 228.397056 245.76 
L 227.863274 245.958747 
L 224.977454 246.947896 
L 222.091636 247.772598 
L 220.314763 248.447997 
L 219.205818 248.913381 
L 216.32 249.918439 
L 213.434182 251.029612 
L 213.1812 251.136003 
L 210.548363 252.180328 
L 207.662545 252.873258 
L 204.776727 252.997761 
L 201.890909 252.695251 
L 199.005091 251.82463 
L 197.515086 251.136003 
L 196.119273 250.47848 
L 193.233455 249.00712 
L 192.373728 248.447997 
L 190.347637 247.142924 
L 188.180388 245.76 
L 187.461818 245.358564 
L 184.576 244.421972 
L 181.690182 243.598388 
L 179.962261 243.071998 
L 178.804364 242.722075 
L 175.918546 241.977692 
L 173.032726 241.304804 
L 170.146908 240.495825 
L 169.844801 240.384001 
L 167.261091 239.227348 
L 164.931907 237.695999 
L 164.375273 237.333748 
L 161.489455 235.225959 
L 161.210877 235.008002 
L 158.603635 233.055845 
L 157.697496 232.32 
L 155.71782 230.273192 
L 155.216546 229.631998 
L 154.002717 226.944001 
L 152.951314 224.255999 
L 152.832 223.941444 
L 151.96377 221.568002 
L 151.021796 218.88 
L 150.051239 216.191998 
L 149.94618 216.064801 
L 147.060365 213.704339 
L 146.824685 213.504001 
L 144.174545 211.242269 
L 143.769004 210.815999 
L 141.453177 208.128 
L 141.288729 207.931721 
L 139.671378 205.44 
L 138.402909 203.042185 
L 138.262283 202.752001 
L 137.353599 200.064001 
L 136.627565 197.375999 
L 136.010155 194.688 
L 135.517089 192.392449 
L 135.431069 192 
L 134.973396 189.312 
L 134.651666 186.624 
L 134.417154 183.935999 
L 134.252214 181.248 
L 134.145855 178.56 
L 134.121055 175.872 
L 134.266578 173.184 
L 134.869504 170.496 
L 135.517089 169.180771 
L 136.193629 167.808 
L 137.677475 165.120001 
L 138.402909 163.971034 
L 139.510625 162.432 
L 141.288729 159.961304 
L 141.460951 159.744 
L 143.510096 157.056 
L 144.174545 156.198096 
L 145.511195 154.368 
L 147.060365 151.990475 
L 147.278576 151.680001 
L 149.237209 148.991999 
L 149.94618 148.147267 
L 151.330335 146.303999 
L 152.832 144.579128 
L 153.678419 143.616 
L 155.71782 141.397207 
L 156.165118 140.928 
L 158.603635 138.335727 
L 158.698907 138.240001 
L 161.489455 135.556037 
L 161.493864 135.551999 
L 164.375273 132.908963 
L 164.428486 132.864002 
L 167.261091 130.556493 
L 167.769186 130.176 
L 170.146908 128.502226 
L 171.856588 127.487998 
L 173.032726 126.80978 
L 175.918546 125.650876 
L 178.804364 125.04495 
L 181.690182 124.934487 
L 184.576 125.589496 
L 187.461818 126.567288 
L 189.85517 127.487998 
L 190.347637 127.693534 
L 193.233455 128.850951 
L 196.119273 129.551896 
L 199.005091 129.898206 
L 201.664992 130.176 
L 201.890909 130.1997 
L 204.776727 130.555865 
L 207.662545 130.944051 
L 210.548363 131.529165 
L 213.434182 132.828531 
L 213.487435 132.864002 
L 216.32 134.800433 
L 217.290906 135.551999 
L 219.205818 137.22455 
L 220.302245 138.240001 
L 222.091636 140.016446 
L 222.962829 140.928 
L 224.977454 143.232975 
L 225.312682 143.616 
L 227.171114 146.303999 
L 227.863274 147.350317 
L 228.911251 148.991999 
L 230.374432 151.680001 
L 230.749092 152.335002 
L 231.809896 154.368 
L 232.725932 157.056 
L 233.402594 159.744 
L 233.634909 161.565647 
L 233.750042 162.432 
L 233.702901 165.120001 
L 233.634909 165.354816 
L 232.840306 167.808 
L 230.91135 170.496 
L 230.749092 170.647763 
L 227.863274 172.922061 
L 227.510123 173.184 
L 224.977454 174.802539 
L 223.111712 175.872 
L 222.091636 176.424142 
L 219.205818 177.512915 
L 216.32 178.446971 
L 215.729417 178.56 
L 213.434182 178.971871 
L 210.548363 179.108503 
L 208.063786 178.56 
L 207.662545 178.445943 
L 204.776727 177.063493 
L 202.313847 175.872 
L 201.890909 175.658426 
L 199.005091 174.207569 
L 197.014663 173.184 
L 196.119273 172.729723 
L 193.233455 171.481349 
L 190.831077 170.496 
L 190.347637 170.299121 
L 187.461818 169.647084 
L 184.576 169.940199 
L 182.460649 170.496 
L 181.690182 170.710527 
L 178.804364 171.867312 
L 176.548491 173.184 
L 175.918546 173.610435 
L 173.032726 175.615687 
L 172.739148 175.872 
L 170.324217 178.56 
L 170.146908 178.773512 
L 168.235096 181.248 
L 167.261091 182.791435 
L 166.553177 183.935999 
L 165.757946 186.624 
L 165.428676 189.312 
L 165.38501 192 
L 165.362917 194.688 
L 165.39291 197.375999 
L 165.874001 200.064001 
L 166.628232 202.752001 
L 167.261091 203.643871 
L 168.967375 205.44 
L 170.146908 206.30933 
L 173.032726 208.013025 
L 173.238369 208.128 
L 175.918546 209.45797 
L 178.763509 210.815999 
L 178.804364 210.836894 
L 181.690182 212.101905 
L 184.576 213.254105 
L 185.273156 213.504001 
L 187.461818 214.267637 
L 190.347637 215.534522 
L 191.915669 216.191998 
L 193.233455 216.758767 
L 196.119273 217.83837 
L 198.655578 218.88 
L 199.005091 219.035753 
L 201.890909 220.164398 
L 204.776727 221.019231 
L 207.662545 221.282348 
L 210.548363 220.94563 
L 213.434182 220.452263 
L 216.32 219.772026 
L 218.923412 218.88 
L 219.205818 218.782113 
L 222.091636 217.869597 
L 224.977454 217.125927 
L 227.863274 216.324556 
L 228.230166 216.191998 
L 230.749092 215.321138 
L 233.634909 214.222701 
L 235.246527 213.504001 
L 236.520727 212.938084 
L 239.406545 211.881292 
L 242.006043 210.815999 
L 242.292365 210.677931 
L 245.17818 209.286021 
L 247.266622 208.128 
L 248.064 207.588582 
L 250.94982 205.605102 
L 251.144997 205.44 
L 253.835635 202.814428 
L 253.89371 202.752001 
L 256.147106 200.064001 
L 256.721455 199.3871 
L 258.15258 197.375999 
L 259.607271 194.922494 
L 259.733636 194.688 
L 260.686318 192 
L 261.437176 189.312 
L 262.17168 186.624 
L 262.493091 185.481407 
L 262.895296 183.935999 
L 263.451917 181.248 
L 263.892463 178.56 
L 264.329213 175.872 
L 264.728237 173.184 
L 264.996892 170.496 
L 265.156159 167.808 
L 265.136848 165.120001 
L 264.935374 162.432 
L 264.715564 159.744 
L 264.534555 157.056 
L 264.370393 154.368 
L 264.159367 151.680001 
L 263.788663 148.991999 
L 263.123413 146.303999 
L 262.493091 144.732854 
L 262.020548 143.616 
L 260.956056 140.928 
L 259.607271 138.275865 
L 259.585676 138.240001 
L 257.958406 135.551999 
L 256.721455 133.868038 
L 255.921315 132.864002 
L 253.835635 130.386217 
L 253.639529 130.176 
L 251.136699 127.487998 
L 250.94982 127.306388 
L 248.132416 124.800001 
L 248.064 124.742829 
L 245.17818 122.51204 
L 244.657589 122.111999 
L 242.292365 120.410157 
L 240.808762 119.424002 
L 239.406545 118.503422 
L 236.520727 116.958921 
L 236.132636 116.736 
L 233.634909 115.315511 
L 231.453072 114.047998 
L 230.749092 113.54063 
L 227.863274 111.759858 
L 227.192823 111.360001 
L 224.977454 109.950118 
L 222.997028 108.671999 
L 222.091636 108.063099 
L 219.205818 106.294191 
L 218.639013 105.984002 
L 216.32 104.746323 
L 213.434182 103.440307 
L 213.085863 103.296 
L 210.548363 102.310188 
L 207.662545 101.586632 
L 204.776727 101.017651 
L 202.710386 100.608003 
L 201.890909 100.445234 
L 199.005091 99.654283 
L 196.119273 99.160165 
L 193.233455 98.692465 
L 190.347637 98.179523 
L 188.199177 97.919997 
L 187.461818 97.831713 
L 184.576 97.820137 
L 183.635475 97.919997 
L 181.690182 98.121329 
L 178.804364 98.976679 
L 175.918546 100.265493 
L 175.26055 100.608003 
L 173.032726 101.67221 
L 170.146908 102.538596 
L 167.99562 103.296 
L 167.261091 103.579286 
L 164.375273 104.520166 
L 161.489455 105.405979 
L 159.956031 105.984002 
L 158.603635 106.518812 
L 155.71782 107.464588 
L 152.832 108.445522 
L 152.255547 108.671999 
L 149.94618 109.513326 
L 147.060365 110.433181 
L 144.89666 111.360001 
L 144.174545 111.740703 
L 141.288729 113.272193 
L 140.170538 114.047998 
L 138.402909 115.24544 
L 136.369653 116.736 
L 135.517089 117.418853 
L 133.069309 119.424002 
L 132.631274 119.816283 
L 130.36836 122.111999 
L 129.745454 122.778129 
L 128.020816 124.800001 
L 126.859638 126.244241 
L 125.867339 127.487998 
L 123.991511 130.176 
L 123.973818 130.199459 
L 122.205363 132.864002 
L 121.088003 134.68978 
L 120.563102 135.551999 
L 119.299343 138.240001 
L 118.202179 140.470485 
L 117.955115 140.928 
L 116.645989 143.616 
L 115.316363 146.148157 
L 115.21892 146.303999 
L 113.908702 148.991999 
L 112.79907 151.680001 
L 112.430548 152.620169 
L 111.723562 154.368 
L 110.812334 157.056 
L 109.853475 159.744 
L 109.544723 160.768019 
L 109.081157 162.432 
L 108.630686 165.120001 
L 108.261965 167.808 
L 107.910531 170.496 
L 107.563176 173.184 
L 107.156369 175.872 
L 106.658908 178.196978 
L 106.577822 178.56 
L 106.029486 181.248 
L 105.538511 183.935999 
L 105.199193 186.624 
L 105.024719 189.312 
L 105.136492 192 
L 105.355488 194.688 
L 105.666555 197.375999 
L 106.131662 200.064001 
L 106.658908 201.770673 
L 107.003546 202.752001 
L 107.916145 205.44 
L 108.804497 208.128 
L 109.544723 210.050733 
L 109.858673 210.815999 
L 110.915172 213.504001 
L 111.945413 216.191998 
L 112.430548 217.310931 
L 113.120088 218.88 
L 114.427414 221.568002 
L 115.316363 223.451411 
L 115.681958 224.255999 
L 116.845608 226.944001 
L 118.202179 229.200803 
L 118.533657 229.631998 
L 120.489819 232.32 
L 121.088003 233.101511 
L 122.582974 235.008002 
L 123.973818 236.718991 
L 124.787476 237.695999 
L 126.859638 240.345261 
L 126.889016 240.384001 
L 128.345548 243.071998 
L 129.745454 245.700884 
L 129.779346 245.76 
L 131.350396 248.447997 
L 132.631274 250.296374 
L 133.342725 251.136003 
L 135.517089 253.391723 
L 136.032087 253.824001 
L 138.402909 255.629942 
L 139.969278 256.511998 
L 141.288729 257.088833 
L 144.174545 257.884227 
L 147.060365 258.558874 
L 149.765961 259.200004 
L 149.94618 259.243992 
L 152.832 260.237315 
L 155.71782 261.817608 
L 155.829013 261.888001 
L 158.603635 263.559651 
L 160.206338 264.575999 
L 161.489455 265.365238 
L 164.375273 266.99805 
L 164.852048 267.263996 
L 167.261091 268.492807 
L 170.146908 269.545595 
L 171.370326 269.952002 
L 173.032726 270.49113 
L 175.918546 271.300696 
L 178.804364 271.896349 
L 181.690182 272.03477 
L 184.576 272.143226 
L 187.461818 272.304988 
L 189.151236 272.639999 
L 190.347637 272.90901 
L 192.496742 275.327997 
L 193.233455 276.299696 
L 194.47859 278.016003 
L 196.119273 280.325143 
L 196.367254 280.704 
L 197.955506 283.391998 
L 199.005091 285.101806 
L 199.606116 286.080004 
L 201.117725 288.768001 
L 201.890909 290.048954 
L 202.713575 291.455998 
L 204.125546 294.143996 
L 204.776727 295.298799 
L 205.575764 296.832002 
L 206.81281 299.519999 
L 207.662545 301.216049 
L 208.151641 302.207997 
L 209.200098 304.896003 
L 210.122347 307.584 
z
" style="fill:#21918c;"/>
   </g>
   <g id="matplotlib.axis_1">
    <g id="xtick_1">
     <g id="line2d_1">
      <defs>
       <path d="M 0 0 
L 0 3.5 
" id="mf525006fb1" style="stroke:#000000;stroke-width:0.8;"/>
      </defs>
      <g>
       <use style="stroke:#000000;stroke-width:0.8;" x="57.6" xlink:href="#mf525006fb1" y="307.584"/>
      </g>
     </g>
     <g id="text_1">
      <!-- −15 -->
      <g transform="translate(47.047656 322.182437)scale(0.1 -0.1)">
       <defs>
        <path d="M 10.59375 35.5 
L 73.1875 35.5 
L 73.1875 27.203125 
L 10.59375 27.203125 
z
" id="DejaVuSans-8722"/>
        <path d="M 12.40625 8.296875 
L 28.515625 8.296875 
L 28.515625 63.921875 
L 10.984375 60.40625 
L 10.984375 69.390625 
L 28.421875 72.90625 
L 38.28125 72.90625 
L 38.28125 8.296875 
L 54.390625 8.296875 
L 54.390625 0 
L 12.40625 0 
z
" id="DejaVuSans-49"/>
        <path d="M 10.796875 72.90625 
L 49.515625 72.90625 
L 49.515625 64.59375 
L 19.828125 64.59375 
L 19.828125 46.734375 
Q 21.96875 47.46875 24.109375 47.828125 
Q 26.265625 48.1875 28.421875 48.1875 
Q 40.625 48.1875 47.75 41.5 
Q 54.890625 34.8125 54.890625 23.390625 
Q 54.890625 11.625 47.5625 5.09375 
Q 40.234375 -1.421875 26.90625 -1.421875 
Q 22.3125 -1.421875 17.546875 -0.640625 
Q 12.796875 0.140625 7.71875 1.703125 
L 7.71875 11.625 
Q 12.109375 9.234375 16.796875 8.0625 
Q 21.484375 6.890625 26.703125 6.890625 
Q 35.15625 6.890625 40.078125 11.328125 
Q 45.015625 15.765625 45.015625 23.390625 
Q 45.015625 31 40.078125 35.4375 
Q 35.15625 39.890625 26.703125 39.890625 
Q 22.75 39.890625 18.8125 39.015625 
Q 14.890625 38.140625 10.796875 36.28125 
z
" id="DejaVuSans-53"/>
       </defs>
       <use xlink:href="#DejaVuSans-8722"/>
       <use x="83.789062" xlink:href="#DejaVuSans-49"/>
       <use x="147.412109" xlink:href="#DejaVuSans-53"/>
      </g>
     </g>
    </g>
    <g id="xtick_2">
     <g id="line2d_2">
      <g>
       <use style="stroke:#000000;stroke-width:0.8;" x="105.216" xlink:href="#mf525006fb1" y="307.584"/>
      </g>
     </g>
     <g id="text_2">
      <!-- −10 -->
      <g transform="translate(94.663656 322.182437)scale(0.1 -0.1)">
       <defs>
        <path d="M 31.78125 66.40625 
Q 24.171875 66.40625 20.328125 58.90625 
Q 16.5 51.421875 16.5 36.375 
Q 16.5 21.390625 20.328125 13.890625 
Q 24.171875 6.390625 31.78125 6.390625 
Q 39.453125 6.390625 43.28125 13.890625 
Q 47.125 21.390625 47.125 36.375 
Q 47.125 51.421875 43.28125 58.90625 
Q 39.453125 66.40625 31.78125 66.40625 
z
M 31.78125 74.21875 
Q 44.046875 74.21875 50.515625 64.515625 
Q 56.984375 54.828125 56.984375 36.375 
Q 56.984375 17.96875 50.515625 8.265625 
Q 44.046875 -1.421875 31.78125 -1.421875 
Q 19.53125 -1.421875 13.0625 8.265625 
Q 6.59375 17.96875 6.59375 36.375 
Q 6.59375 54.828125 13.0625 64.515625 
Q 19.53125 74.21875 31.78125 74.21875 
z
" id="DejaVuSans-48"/>
       </defs>
       <use xlink:href="#DejaVuSans-8722"/>
       <use x="83.789062" xlink:href="#DejaVuSans-49"/>
       <use x="147.412109" xlink:href="#DejaVuSans-48"/>
      </g>
     </g>
    </g>
    <g id="xtick_3">
     <g id="line2d_3">
      <g>
       <use style="stroke:#000000;stroke-width:0.8;" x="152.832" xlink:href="#mf525006fb1" y="307.584"/>
      </g>
     </g>
     <g id="text_3">
      <!-- −5 -->
      <g transform="translate(145.460906 322.182437)scale(0.1 -0.1)">
       <use xlink:href="#DejaVuSans-8722"/>
       <use x="83.789062" xlink:href="#DejaVuSans-53"/>
      </g>
     </g>
    </g>
    <g id="xtick_4">
     <g id="line2d_4">
      <g>
       <use style="stroke:#000000;stroke-width:0.8;" x="200.448" xlink:href="#mf525006fb1" y="307.584"/>
      </g>
     </g>
     <g id="text_4">
      <!-- 0 -->
      <g transform="translate(197.26675 322.182437)scale(0.1 -0.1)">
       <use xlink:href="#DejaVuSans-48"/>
      </g>
     </g>
    </g>
    <g id="xtick_5">
     <g id="line2d_5">
      <g>
       <use style="stroke:#000000;stroke-width:0.8;" x="248.064" xlink:href="#mf525006fb1" y="307.584"/>
      </g>
     </g>
     <g id="text_5">
      <!-- 5 -->
      <g transform="translate(244.88275 322.182437)scale(0.1 -0.1)">
       <use xlink:href="#DejaVuSans-53"/>
      </g>
     </g>
    </g>
    <g id="xtick_6">
     <g id="line2d_6">
      <g>
       <use style="stroke:#000000;stroke-width:0.8;" x="295.68" xlink:href="#mf525006fb1" y="307.584"/>
      </g>
     </g>
     <g id="text_6">
      <!-- 10 -->
      <g transform="translate(289.3175 322.182437)scale(0.1 -0.1)">
       <use xlink:href="#DejaVuSans-49"/>
       <use x="63.623047" xlink:href="#DejaVuSans-48"/>
      </g>
     </g>
    </g>
    <g id="xtick_7">
     <g id="line2d_7">
      <g>
       <use style="stroke:#000000;stroke-width:0.8;" x="343.296" xlink:href="#mf525006fb1" y="307.584"/>
      </g>
     </g>
     <g id="text_7">
      <!-- 15 -->
      <g transform="translate(336.9335 322.182437)scale(0.1 -0.1)">
       <use xlink:href="#DejaVuSans-49"/>
       <use x="63.623047" xlink:href="#DejaVuSans-53"/>
      </g>
     </g>
    </g>
    <g id="text_8">
     <!-- x -->
     <g transform="translate(197.488625 335.860562)scale(0.1 -0.1)">
      <defs>
       <path d="M 54.890625 54.6875 
L 35.109375 28.078125 
L 55.90625 0 
L 45.3125 0 
L 29.390625 21.484375 
L 13.484375 0 
L 2.875 0 
L 24.125 28.609375 
L 4.6875 54.6875 
L 15.28125 54.6875 
L 29.78125 35.203125 
L 44.28125 54.6875 
z
" id="DejaVuSans-120"/>
      </defs>
      <use xlink:href="#DejaVuSans-120"/>
     </g>
    </g>
   </g>
   <g id="matplotlib.axis_2">
    <g id="ytick_1">
     <g id="line2d_8">
      <defs>
       <path d="M 0 0 
L -3.5 0 
" id="mf6fbd59e92" style="stroke:#000000;stroke-width:0.8;"/>
      </defs>
      <g>
       <use style="stroke:#000000;stroke-width:0.8;" x="57.6" xlink:href="#mf6fbd59e92" y="307.584"/>
      </g>
     </g>
     <g id="text_9">
      <!-- −15 -->
      <g transform="translate(29.495313 311.383219)scale(0.1 -0.1)">
       <use xlink:href="#DejaVuSans-8722"/>
       <use x="83.789062" xlink:href="#DejaVuSans-49"/>
       <use x="147.412109" xlink:href="#DejaVuSans-53"/>
      </g>
     </g>
    </g>
    <g id="ytick_2">
     <g id="line2d_9">
      <g>
       <use style="stroke:#000000;stroke-width:0.8;" x="57.6" xlink:href="#mf6fbd59e92" y="263.232"/>
      </g>
     </g>
     <g id="text_10">
      <!-- −10 -->
      <g transform="translate(29.495313 267.031219)scale(0.1 -0.1)">
       <use xlink:href="#DejaVuSans-8722"/>
       <use x="83.789062" xlink:href="#DejaVuSans-49"/>
       <use x="147.412109" xlink:href="#DejaVuSans-48"/>
      </g>
     </g>
    </g>
    <g id="ytick_3">
     <g id="line2d_10">
      <g>
       <use style="stroke:#000000;stroke-width:0.8;" x="57.6" xlink:href="#mf6fbd59e92" y="218.88"/>
      </g>
     </g>
     <g id="text_11">
      <!-- −5 -->
      <g transform="translate(35.857813 222.679219)scale(0.1 -0.1)">
       <use xlink:href="#DejaVuSans-8722"/>
       <use x="83.789062" xlink:href="#DejaVuSans-53"/>
      </g>
     </g>
    </g>
    <g id="ytick_4">
     <g id="line2d_11">
      <g>
       <use style="stroke:#000000;stroke-width:0.8;" x="57.6" xlink:href="#mf6fbd59e92" y="174.528"/>
      </g>
     </g>
     <g id="text_12">
      <!-- 0 -->
      <g transform="translate(44.2375 178.327219)scale(0.1 -0.1)">
       <use xlink:href="#DejaVuSans-48"/>
      </g>
     </g>
    </g>
    <g id="ytick_5">
     <g id="line2d_12">
      <g>
       <use style="stroke:#000000;stroke-width:0.8;" x="57.6" xlink:href="#mf6fbd59e92" y="130.176"/>
      </g>
     </g>
     <g id="text_13">
      <!-- 5 -->
      <g transform="translate(44.2375 133.975219)scale(0.1 -0.1)">
       <use xlink:href="#DejaVuSans-53"/>
      </g>
     </g>
    </g>
    <g id="ytick_6">
     <g id="line2d_13">
      <g>
       <use style="stroke:#000000;stroke-width:0.8;" x="57.6" xlink:href="#mf6fbd59e92" y="85.824"/>
      </g>
     </g>
     <g id="text_14">
      <!-- 10 -->
      <g transform="translate(37.875 89.623219)scale(0.1 -0.1)">
       <use xlink:href="#DejaVuSans-49"/>
       <use x="63.623047" xlink:href="#DejaVuSans-48"/>
      </g>
     </g>
    </g>
    <g id="ytick_7">
     <g id="line2d_14">
      <g>
       <use style="stroke:#000000;stroke-width:0.8;" x="57.6" xlink:href="#mf6fbd59e92" y="41.472"/>
      </g>
     </g>
     <g id="text_15">
      <!-- 15 -->
      <g transform="translate(37.875 45.271219)scale(0.1 -0.1)">
       <use xlink:href="#DejaVuSans-49"/>
       <use x="63.623047" xlink:href="#DejaVuSans-53"/>
      </g>
     </g>
    </g>
    <g id="text_16">
     <!-- y -->
     <g transform="translate(22.535937 172.448312)scale(0.1 -0.1)">
      <defs>
       <path d="M 32.171875 -5.078125 
Q 28.375 -14.84375 24.75 -17.8125 
Q 21.140625 -20.796875 15.09375 -20.796875 
L 7.90625 -20.796875 
L 7.90625 -13.28125 
L 13.1875 -13.28125 
Q 16.890625 -13.28125 18.9375 -11.515625 
Q 21 -9.765625 23.484375 -3.21875 
L 25.09375 0.875 
L 2.984375 54.6875 
L 12.5 54.6875 
L 29.59375 11.921875 
L 46.6875 54.6875 
L 56.203125 54.6875 
z
" id="DejaVuSans-121"/>
      </defs>
      <use xlink:href="#DejaVuSans-121"/>
     </g>
    </g>
   </g>
   <g id="line2d_15">
    <defs>
     <path d="M 0 3 
C 0.795609 3 1.55874 2.683901 2.12132 2.12132 
C 2.683901 1.55874 3 0.795609 3 0 
C 3 -0.795609 2.683901 -1.55874 2.12132 -2.12132 
C 1.55874 -2.683901 0.795609 -3 0 -3 
C -0.795609 -3 -1.55874 -2.683901 -2.12132 -2.12132 
C -2.683901 -1.55874 -3 -0.795609 -3 0 
C -3 0.795609 -2.683901 1.55874 -2.12132 2.12132 
C -1.55874 2.683901 -0.795609 3 0 3 
z
" id="mfbd796ef2e" style="stroke:#000000;"/>
    </defs>
    <g clip-path="url(#p9b90af4803)">
     <use style="fill:#ff0000;stroke:#000000;" x="169.063604" xlink:href="#mfbd796ef2e" y="148.924332"/>
     <use style="fill:#ff0000;stroke:#000000;" x="231.593714" xlink:href="#mfbd796ef2e" y="233.855466"/>
     <use style="fill:#ff0000;stroke:#000000;" x="184.064614" xlink:href="#mfbd796ef2e" y="232.797791"/>
     <use style="fill:#ff0000;stroke:#000000;" x="238.385783" xlink:href="#mfbd796ef2e" y="97.86611"/>
     <use style="fill:#ff0000;stroke:#000000;" x="158.513401" xlink:href="#mfbd796ef2e" y="172.104748"/>
     <use style="fill:#ff0000;stroke:#000000;" x="193.088328" xlink:href="#mfbd796ef2e" y="140.610504"/>
     <use style="fill:#ff0000;stroke:#000000;" x="151.822628" xlink:href="#mfbd796ef2e" y="186.98145"/>
     <use style="fill:#ff0000;stroke:#000000;" x="211.445845" xlink:href="#mfbd796ef2e" y="154.199301"/>
     <use style="fill:#ff0000;stroke:#000000;" x="229.969099" xlink:href="#mfbd796ef2e" y="230.07379"/>
     <use style="fill:#ff0000;stroke:#000000;" x="250.640936" xlink:href="#mfbd796ef2e" y="220.999005"/>
     <use style="fill:#ff0000;stroke:#000000;" x="202.887523" xlink:href="#mfbd796ef2e" y="233.149235"/>
     <use style="fill:#ff0000;stroke:#000000;" x="135.781721" xlink:href="#mfbd796ef2e" y="103.18667"/>
     <use style="fill:#ff0000;stroke:#000000;" x="133.765874" xlink:href="#mfbd796ef2e" y="265.530887"/>
     <use style="fill:#ff0000;stroke:#000000;" x="194.106095" xlink:href="#mfbd796ef2e" y="239.300203"/>
     <use style="fill:#ff0000;stroke:#000000;" x="188.675372" xlink:href="#mfbd796ef2e" y="232.969941"/>
     <use style="fill:#ff0000;stroke:#000000;" x="202.891186" xlink:href="#mfbd796ef2e" y="86.114862"/>
     <use style="fill:#ff0000;stroke:#000000;" x="155.110141" xlink:href="#mfbd796ef2e" y="90.858486"/>
     <use style="fill:#ff0000;stroke:#000000;" x="198.362889" xlink:href="#mfbd796ef2e" y="234.366968"/>
     <use style="fill:#ff0000;stroke:#000000;" x="175.770193" xlink:href="#mfbd796ef2e" y="86.163259"/>
     <use style="fill:#ff0000;stroke:#000000;" x="272.226335" xlink:href="#mfbd796ef2e" y="155.500734"/>
     <use style="fill:#ff0000;stroke:#000000;" x="264.358113" xlink:href="#mfbd796ef2e" y="209.518832"/>
     <use style="fill:#ff0000;stroke:#000000;" x="193.770306" xlink:href="#mfbd796ef2e" y="141.557045"/>
     <use style="fill:#ff0000;stroke:#000000;" x="205.507571" xlink:href="#mfbd796ef2e" y="86.926092"/>
     <use style="fill:#ff0000;stroke:#000000;" x="214.874186" xlink:href="#mfbd796ef2e" y="149.830817"/>
     <use style="fill:#ff0000;stroke:#000000;" x="215.414437" xlink:href="#mfbd796ef2e" y="153.905705"/>
     <use style="fill:#ff0000;stroke:#000000;" x="171.695265" xlink:href="#mfbd796ef2e" y="216.742021"/>
     <use style="fill:#ff0000;stroke:#000000;" x="150.770438" xlink:href="#mfbd796ef2e" y="195.350816"/>
     <use style="fill:#ff0000;stroke:#000000;" x="168.901564" xlink:href="#mfbd796ef2e" y="148.526354"/>
     <use style="fill:#ff0000;stroke:#000000;" x="165.487799" xlink:href="#mfbd796ef2e" y="220.016995"/>
     <use style="fill:#ff0000;stroke:#000000;" x="267.25109" xlink:href="#mfbd796ef2e" y="203.677875"/>
     <use style="fill:#ff0000;stroke:#000000;" x="234.450841" xlink:href="#mfbd796ef2e" y="230.149265"/>
     <use style="fill:#ff0000;stroke:#000000;" x="158.381185" xlink:href="#mfbd796ef2e" y="162.30264"/>
     <use style="fill:#ff0000;stroke:#000000;" x="151.937211" xlink:href="#mfbd796ef2e" y="182.337465"/>
     <use style="fill:#ff0000;stroke:#000000;" x="144.62445" xlink:href="#mfbd796ef2e" y="273.911517"/>
     <use style="fill:#ff0000;stroke:#000000;" x="267.827821" xlink:href="#mfbd796ef2e" y="206.226778"/>
     <use style="fill:#ff0000;stroke:#000000;" x="171.45414" xlink:href="#mfbd796ef2e" y="285.92462"/>
     <use style="fill:#ff0000;stroke:#000000;" x="279.885757" xlink:href="#mfbd796ef2e" y="157.176324"/>
     <use style="fill:#ff0000;stroke:#000000;" x="280.275513" xlink:href="#mfbd796ef2e" y="170.591495"/>
     <use style="fill:#ff0000;stroke:#000000;" x="276.585293" xlink:href="#mfbd796ef2e" y="184.441821"/>
     <use style="fill:#ff0000;stroke:#000000;" x="208.584071" xlink:href="#mfbd796ef2e" y="145.754343"/>
     <use style="fill:#ff0000;stroke:#000000;" x="216.207209" xlink:href="#mfbd796ef2e" y="89.928502"/>
     <use style="fill:#ff0000;stroke:#000000;" x="222.065773" xlink:href="#mfbd796ef2e" y="234.240888"/>
     <use style="fill:#ff0000;stroke:#000000;" x="225.153666" xlink:href="#mfbd796ef2e" y="231.283719"/>
     <use style="fill:#ff0000;stroke:#000000;" x="264.408232" xlink:href="#mfbd796ef2e" y="126.208397"/>
     <use style="fill:#ff0000;stroke:#000000;" x="166.349586" xlink:href="#mfbd796ef2e" y="150.933086"/>
     <use style="fill:#ff0000;stroke:#000000;" x="98.446635" xlink:href="#mfbd796ef2e" y="148.524376"/>
     <use style="fill:#ff0000;stroke:#000000;" x="277.466468" xlink:href="#mfbd796ef2e" y="155.771141"/>
     <use style="fill:#ff0000;stroke:#000000;" x="100.711639" xlink:href="#mfbd796ef2e" y="224.96459"/>
     <use style="fill:#ff0000;stroke:#000000;" x="277.332708" xlink:href="#mfbd796ef2e" y="155.89415"/>
     <use style="fill:#ff0000;stroke:#000000;" x="90.182931" xlink:href="#mfbd796ef2e" y="191.200752"/>
     <use style="fill:#ff0000;stroke:#000000;" x="223.829415" xlink:href="#mfbd796ef2e" y="166.942886"/>
     <use style="fill:#ff0000;stroke:#000000;" x="202.839617" xlink:href="#mfbd796ef2e" y="144.732866"/>
     <use style="fill:#ff0000;stroke:#000000;" x="248.708479" xlink:href="#mfbd796ef2e" y="224.096136"/>
     <use style="fill:#ff0000;stroke:#000000;" x="176.847713" xlink:href="#mfbd796ef2e" y="224.609783"/>
     <use style="fill:#ff0000;stroke:#000000;" x="114.171664" xlink:href="#mfbd796ef2e" y="128.407353"/>
     <use style="fill:#ff0000;stroke:#000000;" x="188.514057" xlink:href="#mfbd796ef2e" y="230.90196"/>
     <use style="fill:#ff0000;stroke:#000000;" x="94.128193" xlink:href="#mfbd796ef2e" y="201.838932"/>
     <use style="fill:#ff0000;stroke:#000000;" x="160.317115" xlink:href="#mfbd796ef2e" y="92.591062"/>
     <use style="fill:#ff0000;stroke:#000000;" x="151.948355" xlink:href="#mfbd796ef2e" y="192.606422"/>
     <use style="fill:#ff0000;stroke:#000000;" x="278.265296" xlink:href="#mfbd796ef2e" y="182.855312"/>
     <use style="fill:#ff0000;stroke:#000000;" x="112.602516" xlink:href="#mfbd796ef2e" y="121.119234"/>
     <use style="fill:#ff0000;stroke:#000000;" x="157.300337" xlink:href="#mfbd796ef2e" y="156.936066"/>
     <use style="fill:#ff0000;stroke:#000000;" x="273.004025" xlink:href="#mfbd796ef2e" y="138.179249"/>
     <use style="fill:#ff0000;stroke:#000000;" x="184.667473" xlink:href="#mfbd796ef2e" y="233.840992"/>
     <use style="fill:#ff0000;stroke:#000000;" x="91.048385" xlink:href="#mfbd796ef2e" y="175.646374"/>
     <use style="fill:#ff0000;stroke:#000000;" x="218.449163" xlink:href="#mfbd796ef2e" y="162.248967"/>
     <use style="fill:#ff0000;stroke:#000000;" x="217.214497" xlink:href="#mfbd796ef2e" y="156.587715"/>
     <use style="fill:#ff0000;stroke:#000000;" x="196.058549" xlink:href="#mfbd796ef2e" y="233.65946"/>
     <use style="fill:#ff0000;stroke:#000000;" x="94.211993" xlink:href="#mfbd796ef2e" y="168.082188"/>
     <use style="fill:#ff0000;stroke:#000000;" x="203.719194" xlink:href="#mfbd796ef2e" y="234.246937"/>
     <use style="fill:#ff0000;stroke:#000000;" x="265.660036" xlink:href="#mfbd796ef2e" y="210.01317"/>
     <use style="fill:#ff0000;stroke:#000000;" x="278.572278" xlink:href="#mfbd796ef2e" y="180.304579"/>
     <use style="fill:#ff0000;stroke:#000000;" x="274.115221" xlink:href="#mfbd796ef2e" y="138.906286"/>
     <use style="fill:#ff0000;stroke:#000000;" x="277.89088" xlink:href="#mfbd796ef2e" y="169.01489"/>
     <use style="fill:#ff0000;stroke:#000000;" x="208.917229" xlink:href="#mfbd796ef2e" y="144.235276"/>
     <use style="fill:#ff0000;stroke:#000000;" x="168.272089" xlink:href="#mfbd796ef2e" y="152.036024"/>
     <use style="fill:#ff0000;stroke:#000000;" x="281.760734" xlink:href="#mfbd796ef2e" y="167.458223"/>
     <use style="fill:#ff0000;stroke:#000000;" x="247.600844" xlink:href="#mfbd796ef2e" y="221.63849"/>
     <use style="fill:#ff0000;stroke:#000000;" x="172.984828" xlink:href="#mfbd796ef2e" y="226.622824"/>
     <use style="fill:#ff0000;stroke:#000000;" x="218.317028" xlink:href="#mfbd796ef2e" y="150.788626"/>
     <use style="fill:#ff0000;stroke:#000000;" x="229.890152" xlink:href="#mfbd796ef2e" y="228.689668"/>
     <use style="fill:#ff0000;stroke:#000000;" x="171.77981" xlink:href="#mfbd796ef2e" y="84.255352"/>
     <use style="fill:#ff0000;stroke:#000000;" x="257.925982" xlink:href="#mfbd796ef2e" y="116.108819"/>
     <use style="fill:#ff0000;stroke:#000000;" x="216.504248" xlink:href="#mfbd796ef2e" y="150.94387"/>
     <use style="fill:#ff0000;stroke:#000000;" x="174.99687" xlink:href="#mfbd796ef2e" y="89.272521"/>
     <use style="fill:#ff0000;stroke:#000000;" x="160.568038" xlink:href="#mfbd796ef2e" y="156.69978"/>
     <use style="fill:#ff0000;stroke:#000000;" x="190.816814" xlink:href="#mfbd796ef2e" y="140.074492"/>
     <use style="fill:#ff0000;stroke:#000000;" x="102.842384" xlink:href="#mfbd796ef2e" y="138.499952"/>
     <use style="fill:#ff0000;stroke:#000000;" x="162.228265" xlink:href="#mfbd796ef2e" y="282.68877"/>
     <use style="fill:#ff0000;stroke:#000000;" x="184.171048" xlink:href="#mfbd796ef2e" y="86.51107"/>
     <use style="fill:#ff0000;stroke:#000000;" x="175.866972" xlink:href="#mfbd796ef2e" y="283.237959"/>
     <use style="fill:#ff0000;stroke:#000000;" x="191.190757" xlink:href="#mfbd796ef2e" y="292.625571"/>
     <use style="fill:#ff0000;stroke:#000000;" x="128.07115" xlink:href="#mfbd796ef2e" y="262.765849"/>
     <use style="fill:#ff0000;stroke:#000000;" x="240.532757" xlink:href="#mfbd796ef2e" y="100.070962"/>
     <use style="fill:#ff0000;stroke:#000000;" x="156.36021" xlink:href="#mfbd796ef2e" y="178.330325"/>
     <use style="fill:#ff0000;stroke:#000000;" x="195.543279" xlink:href="#mfbd796ef2e" y="86.731701"/>
     <use style="fill:#ff0000;stroke:#000000;" x="211.746236" xlink:href="#mfbd796ef2e" y="88.261504"/>
     <use style="fill:#ff0000;stroke:#000000;" x="218.989625" xlink:href="#mfbd796ef2e" y="153.951883"/>
     <use style="fill:#ff0000;stroke:#000000;" x="192.117049" xlink:href="#mfbd796ef2e" y="142.541998"/>
     <use style="fill:#ff0000;stroke:#000000;" x="153.287836" xlink:href="#mfbd796ef2e" y="200.419443"/>
     <use style="fill:#ff0000;stroke:#000000;" x="202.926103" xlink:href="#mfbd796ef2e" y="143.742725"/>
     <use style="fill:#ff0000;stroke:#000000;" x="132.36893" xlink:href="#mfbd796ef2e" y="104.647799"/>
     <use style="fill:#ff0000;stroke:#000000;" x="161.215782" xlink:href="#mfbd796ef2e" y="275.61671"/>
     <use style="fill:#ff0000;stroke:#000000;" x="96.729641" xlink:href="#mfbd796ef2e" y="179.116682"/>
     <use style="fill:#ff0000;stroke:#000000;" x="280.713812" xlink:href="#mfbd796ef2e" y="152.621092"/>
     <use style="fill:#ff0000;stroke:#000000;" x="153.86722" xlink:href="#mfbd796ef2e" y="170.606483"/>
     <use style="fill:#ff0000;stroke:#000000;" x="99.490061" xlink:href="#mfbd796ef2e" y="142.614193"/>
     <use style="fill:#ff0000;stroke:#000000;" x="269.813912" xlink:href="#mfbd796ef2e" y="194.613616"/>
     <use style="fill:#ff0000;stroke:#000000;" x="172.15846" xlink:href="#mfbd796ef2e" y="149.989367"/>
     <use style="fill:#ff0000;stroke:#000000;" x="268.833298" xlink:href="#mfbd796ef2e" y="204.41943"/>
     <use style="fill:#ff0000;stroke:#000000;" x="199.121529" xlink:href="#mfbd796ef2e" y="143.976767"/>
     <use style="fill:#ff0000;stroke:#000000;" x="165.020356" xlink:href="#mfbd796ef2e" y="91.498657"/>
     <use style="fill:#ff0000;stroke:#000000;" x="148.19852" xlink:href="#mfbd796ef2e" y="275.764387"/>
     <use style="fill:#ff0000;stroke:#000000;" x="214.024727" xlink:href="#mfbd796ef2e" y="162.021408"/>
     <use style="fill:#ff0000;stroke:#000000;" x="218.417547" xlink:href="#mfbd796ef2e" y="86.561328"/>
     <use style="fill:#ff0000;stroke:#000000;" x="154.087614" xlink:href="#mfbd796ef2e" y="169.251963"/>
     <use style="fill:#ff0000;stroke:#000000;" x="163.004701" xlink:href="#mfbd796ef2e" y="284.382974"/>
     <use style="fill:#ff0000;stroke:#000000;" x="185.770172" xlink:href="#mfbd796ef2e" y="142.51899"/>
     <use style="fill:#ff0000;stroke:#000000;" x="280.19936" xlink:href="#mfbd796ef2e" y="164.112731"/>
     <use style="fill:#ff0000;stroke:#000000;" x="163.072226" xlink:href="#mfbd796ef2e" y="213.502123"/>
     <use style="fill:#ff0000;stroke:#000000;" x="172.456975" xlink:href="#mfbd796ef2e" y="290.206729"/>
     <use style="fill:#ff0000;stroke:#000000;" x="268.399585" xlink:href="#mfbd796ef2e" y="123.338229"/>
     <use style="fill:#ff0000;stroke:#000000;" x="210.858301" xlink:href="#mfbd796ef2e" y="139.940211"/>
     <use style="fill:#ff0000;stroke:#000000;" x="176.844003" xlink:href="#mfbd796ef2e" y="232.397717"/>
     <use style="fill:#ff0000;stroke:#000000;" x="258.108922" xlink:href="#mfbd796ef2e" y="214.781479"/>
     <use style="fill:#ff0000;stroke:#000000;" x="100.757222" xlink:href="#mfbd796ef2e" y="225.521287"/>
     <use style="fill:#ff0000;stroke:#000000;" x="151.17185" xlink:href="#mfbd796ef2e" y="96.199273"/>
     <use style="fill:#ff0000;stroke:#000000;" x="184.922772" xlink:href="#mfbd796ef2e" y="143.188223"/>
     <use style="fill:#ff0000;stroke:#000000;" x="171.041536" xlink:href="#mfbd796ef2e" y="142.930808"/>
     <use style="fill:#ff0000;stroke:#000000;" x="139.390998" xlink:href="#mfbd796ef2e" y="103.208225"/>
     <use style="fill:#ff0000;stroke:#000000;" x="179.098277" xlink:href="#mfbd796ef2e" y="223.455716"/>
     <use style="fill:#ff0000;stroke:#000000;" x="168.873095" xlink:href="#mfbd796ef2e" y="150.145964"/>
     <use style="fill:#ff0000;stroke:#000000;" x="234.705249" xlink:href="#mfbd796ef2e" y="98.100378"/>
     <use style="fill:#ff0000;stroke:#000000;" x="109.597799" xlink:href="#mfbd796ef2e" y="249.373624"/>
     <use style="fill:#ff0000;stroke:#000000;" x="202.978752" xlink:href="#mfbd796ef2e" y="143.909954"/>
     <use style="fill:#ff0000;stroke:#000000;" x="154.624253" xlink:href="#mfbd796ef2e" y="174.134593"/>
     <use style="fill:#ff0000;stroke:#000000;" x="241.824672" xlink:href="#mfbd796ef2e" y="229.682683"/>
     <use style="fill:#ff0000;stroke:#000000;" x="108.445861" xlink:href="#mfbd796ef2e" y="243.98033"/>
     <use style="fill:#ff0000;stroke:#000000;" x="280.05828" xlink:href="#mfbd796ef2e" y="153.246094"/>
     <use style="fill:#ff0000;stroke:#000000;" x="116.545698" xlink:href="#mfbd796ef2e" y="118.806634"/>
     <use style="fill:#ff0000;stroke:#000000;" x="152.54978" xlink:href="#mfbd796ef2e" y="183.671709"/>
     <use style="fill:#ff0000;stroke:#000000;" x="159.349393" xlink:href="#mfbd796ef2e" y="153.029314"/>
     <use style="fill:#ff0000;stroke:#000000;" x="186.317878" xlink:href="#mfbd796ef2e" y="142.868899"/>
     <use style="fill:#ff0000;stroke:#000000;" x="162.279256" xlink:href="#mfbd796ef2e" y="151.408441"/>
     <use style="fill:#ff0000;stroke:#000000;" x="192.396997" xlink:href="#mfbd796ef2e" y="289.209924"/>
     <use style="fill:#ff0000;stroke:#000000;" x="204.484191" xlink:href="#mfbd796ef2e" y="241.308384"/>
     <use style="fill:#ff0000;stroke:#000000;" x="179.992993" xlink:href="#mfbd796ef2e" y="142.526052"/>
     <use style="fill:#ff0000;stroke:#000000;" x="173.175823" xlink:href="#mfbd796ef2e" y="149.702523"/>
     <use style="fill:#ff0000;stroke:#000000;" x="166.982663" xlink:href="#mfbd796ef2e" y="214.56742"/>
     <use style="fill:#ff0000;stroke:#000000;" x="219.767942" xlink:href="#mfbd796ef2e" y="167.112834"/>
     <use style="fill:#ff0000;stroke:#000000;" x="178.186411" xlink:href="#mfbd796ef2e" y="144.469762"/>
     <use style="fill:#ff0000;stroke:#000000;" x="217.778687" xlink:href="#mfbd796ef2e" y="156.630012"/>
     <use style="fill:#ff0000;stroke:#000000;" x="279.74772" xlink:href="#mfbd796ef2e" y="198.558574"/>
     <use style="fill:#ff0000;stroke:#000000;" x="94.255096" xlink:href="#mfbd796ef2e" y="166.968056"/>
     <use style="fill:#ff0000;stroke:#000000;" x="253.476827" xlink:href="#mfbd796ef2e" y="109.650012"/>
     <use style="fill:#ff0000;stroke:#000000;" x="197.22677" xlink:href="#mfbd796ef2e" y="143.038994"/>
     <use style="fill:#ff0000;stroke:#000000;" x="95.423563" xlink:href="#mfbd796ef2e" y="199.08527"/>
     <use style="fill:#ff0000;stroke:#000000;" x="207.83937" xlink:href="#mfbd796ef2e" y="144.701111"/>
     <use style="fill:#ff0000;stroke:#000000;" x="269.713941" xlink:href="#mfbd796ef2e" y="125.981662"/>
     <use style="fill:#ff0000;stroke:#000000;" x="100.563375" xlink:href="#mfbd796ef2e" y="224.02698"/>
     <use style="fill:#ff0000;stroke:#000000;" x="177.104489" xlink:href="#mfbd796ef2e" y="224.036146"/>
     <use style="fill:#ff0000;stroke:#000000;" x="97.951983" xlink:href="#mfbd796ef2e" y="152.502124"/>
     <use style="fill:#ff0000;stroke:#000000;" x="272.010415" xlink:href="#mfbd796ef2e" y="134.373556"/>
     <use style="fill:#ff0000;stroke:#000000;" x="122.383664" xlink:href="#mfbd796ef2e" y="115.018909"/>
     <use style="fill:#ff0000;stroke:#000000;" x="153.971345" xlink:href="#mfbd796ef2e" y="197.036842"/>
     <use style="fill:#ff0000;stroke:#000000;" x="255.483647" xlink:href="#mfbd796ef2e" y="113.984726"/>
     <use style="fill:#ff0000;stroke:#000000;" x="197.603153" xlink:href="#mfbd796ef2e" y="234.462695"/>
     <use style="fill:#ff0000;stroke:#000000;" x="176.892492" xlink:href="#mfbd796ef2e" y="227.630017"/>
     <use style="fill:#ff0000;stroke:#000000;" x="166.732805" xlink:href="#mfbd796ef2e" y="152.081508"/>
     <use style="fill:#ff0000;stroke:#000000;" x="154.3848" xlink:href="#mfbd796ef2e" y="199.980745"/>
     <use style="fill:#ff0000;stroke:#000000;" x="207.286428" xlink:href="#mfbd796ef2e" y="147.654994"/>
     <use style="fill:#ff0000;stroke:#000000;" x="190.334082" xlink:href="#mfbd796ef2e" y="144.756409"/>
     <use style="fill:#ff0000;stroke:#000000;" x="90.465092" xlink:href="#mfbd796ef2e" y="206.362886"/>
     <use style="fill:#ff0000;stroke:#000000;" x="151.686397" xlink:href="#mfbd796ef2e" y="183.544793"/>
     <use style="fill:#ff0000;stroke:#000000;" x="181.085268" xlink:href="#mfbd796ef2e" y="90.379866"/>
     <use style="fill:#ff0000;stroke:#000000;" x="221.252985" xlink:href="#mfbd796ef2e" y="93.491446"/>
     <use style="fill:#ff0000;stroke:#000000;" x="270.207359" xlink:href="#mfbd796ef2e" y="136.70912"/>
     <use style="fill:#ff0000;stroke:#000000;" x="152.208314" xlink:href="#mfbd796ef2e" y="192.678148"/>
     <use style="fill:#ff0000;stroke:#000000;" x="243.553618" xlink:href="#mfbd796ef2e" y="103.532933"/>
     <use style="fill:#ff0000;stroke:#000000;" x="166.95818" xlink:href="#mfbd796ef2e" y="229.500885"/>
     <use style="fill:#ff0000;stroke:#000000;" x="101.832589" xlink:href="#mfbd796ef2e" y="228.90088"/>
     <use style="fill:#ff0000;stroke:#000000;" x="152.617791" xlink:href="#mfbd796ef2e" y="180.154632"/>
     <use style="fill:#ff0000;stroke:#000000;" x="153.918788" xlink:href="#mfbd796ef2e" y="167.738253"/>
     <use style="fill:#ff0000;stroke:#000000;" x="113.873555" xlink:href="#mfbd796ef2e" y="245.068793"/>
     <use style="fill:#ff0000;stroke:#000000;" x="164.043023" xlink:href="#mfbd796ef2e" y="155.386478"/>
     <use style="fill:#ff0000;stroke:#000000;" x="197.637022" xlink:href="#mfbd796ef2e" y="140.347296"/>
     <use style="fill:#ff0000;stroke:#000000;" x="105.88194" xlink:href="#mfbd796ef2e" y="241.644809"/>
     <use style="fill:#ff0000;stroke:#000000;" x="263.211202" xlink:href="#mfbd796ef2e" y="209.580485"/>
     <use style="fill:#ff0000;stroke:#000000;" x="169.656719" xlink:href="#mfbd796ef2e" y="91.561257"/>
     <use style="fill:#ff0000;stroke:#000000;" x="93.30092" xlink:href="#mfbd796ef2e" y="200.634732"/>
     <use style="fill:#ff0000;stroke:#000000;" x="279.78511" xlink:href="#mfbd796ef2e" y="183.95608"/>
     <use style="fill:#ff0000;stroke:#000000;" x="169.549379" xlink:href="#mfbd796ef2e" y="219.035214"/>
     <use style="fill:#ff0000;stroke:#000000;" x="94.336208" xlink:href="#mfbd796ef2e" y="176.457579"/>
     <use style="fill:#ff0000;stroke:#000000;" x="154.950942" xlink:href="#mfbd796ef2e" y="163.538907"/>
     <use style="fill:#ff0000;stroke:#000000;" x="240.389289" xlink:href="#mfbd796ef2e" y="98.706364"/>
     <use style="fill:#ff0000;stroke:#000000;" x="118.598537" xlink:href="#mfbd796ef2e" y="244.36381"/>
     <use style="fill:#ff0000;stroke:#000000;" x="240.108881" xlink:href="#mfbd796ef2e" y="221.611788"/>
     <use style="fill:#ff0000;stroke:#000000;" x="220.848583" xlink:href="#mfbd796ef2e" y="165.599675"/>
     <use style="fill:#ff0000;stroke:#000000;" x="269.940161" xlink:href="#mfbd796ef2e" y="199.260905"/>
     <use style="fill:#ff0000;stroke:#000000;" x="229.931543" xlink:href="#mfbd796ef2e" y="97.026533"/>
    </g>
   </g>
   <g id="line2d_16">
    <defs>
     <path d="M 0 3 
C 0.795609 3 1.55874 2.683901 2.12132 2.12132 
C 2.683901 1.55874 3 0.795609 3 0 
C 3 -0.795609 2.683901 -1.55874 2.12132 -2.12132 
C 1.55874 -2.683901 0.795609 -3 0 -3 
C -0.795609 -3 -1.55874 -2.683901 -2.12132 -2.12132 
C -2.683901 -1.55874 -3 -0.795609 -3 0 
C -3 0.795609 -2.683901 1.55874 -2.12132 2.12132 
C -1.55874 2.683901 -0.795609 3 0 3 
z
" id="m36c70a0116" style="stroke:#000000;"/>
    </defs>
    <g clip-path="url(#p9b90af4803)">
     <use style="fill:#0000ff;stroke:#000000;" x="250.334458" xlink:href="#m36c70a0116" y="184.209159"/>
     <use style="fill:#0000ff;stroke:#000000;" x="246.155706" xlink:href="#m36c70a0116" y="152.963309"/>
     <use style="fill:#0000ff;stroke:#000000;" x="246.701941" xlink:href="#m36c70a0116" y="157.048742"/>
     <use style="fill:#0000ff;stroke:#000000;" x="178.925389" xlink:href="#m36c70a0116" y="186.420567"/>
     <use style="fill:#0000ff;stroke:#000000;" x="248.505269" xlink:href="#m36c70a0116" y="174.155854"/>
     <use style="fill:#0000ff;stroke:#000000;" x="179.566249" xlink:href="#m36c70a0116" y="187.033395"/>
     <use style="fill:#0000ff;stroke:#000000;" x="122.980008" xlink:href="#m36c70a0116" y="170.285294"/>
     <use style="fill:#0000ff;stroke:#000000;" x="306.344766" xlink:href="#m36c70a0116" y="141.767385"/>
     <use style="fill:#0000ff;stroke:#000000;" x="227.650743" xlink:href="#m36c70a0116" y="66.520922"/>
     <use style="fill:#0000ff;stroke:#000000;" x="154.786635" xlink:href="#m36c70a0116" y="126.45173"/>
     <use style="fill:#0000ff;stroke:#000000;" x="252.103088" xlink:href="#m36c70a0116" y="249.681219"/>
     <use style="fill:#0000ff;stroke:#000000;" x="149.981436" xlink:href="#m36c70a0116" y="125.421527"/>
     <use style="fill:#0000ff;stroke:#000000;" x="247.000521" xlink:href="#m36c70a0116" y="146.110335"/>
     <use style="fill:#0000ff;stroke:#000000;" x="118.479453" xlink:href="#m36c70a0116" y="176.215773"/>
     <use style="fill:#0000ff;stroke:#000000;" x="163.038832" xlink:href="#m36c70a0116" y="124.564963"/>
     <use style="fill:#0000ff;stroke:#000000;" x="190.165759" xlink:href="#m36c70a0116" y="199.147144"/>
     <use style="fill:#0000ff;stroke:#000000;" x="186.7084" xlink:href="#m36c70a0116" y="197.67409"/>
     <use style="fill:#0000ff;stroke:#000000;" x="246.691859" xlink:href="#m36c70a0116" y="147.97082"/>
     <use style="fill:#0000ff;stroke:#000000;" x="206.759256" xlink:href="#m36c70a0116" y="203.211525"/>
     <use style="fill:#0000ff;stroke:#000000;" x="166.038238" xlink:href="#m36c70a0116" y="252.467685"/>
     <use style="fill:#0000ff;stroke:#000000;" x="298.404173" xlink:href="#m36c70a0116" y="118.407799"/>
     <use style="fill:#0000ff;stroke:#000000;" x="274.73947" xlink:href="#m36c70a0116" y="243.203141"/>
     <use style="fill:#0000ff;stroke:#000000;" x="147.918989" xlink:href="#m36c70a0116" y="245.260316"/>
     <use style="fill:#0000ff;stroke:#000000;" x="243.334737" xlink:href="#m36c70a0116" y="147.552467"/>
     <use style="fill:#0000ff;stroke:#000000;" x="154.066148" xlink:href="#m36c70a0116" y="128.926722"/>
     <use style="fill:#0000ff;stroke:#000000;" x="180.976568" xlink:href="#m36c70a0116" y="113.609544"/>
     <use style="fill:#0000ff;stroke:#000000;" x="256.195533" xlink:href="#m36c70a0116" y="247.054604"/>
     <use style="fill:#0000ff;stroke:#000000;" x="180.93264" xlink:href="#m36c70a0116" y="192.505559"/>
     <use style="fill:#0000ff;stroke:#000000;" x="188.647171" xlink:href="#m36c70a0116" y="113.133559"/>
     <use style="fill:#0000ff;stroke:#000000;" x="130.51156" xlink:href="#m36c70a0116" y="219.358074"/>
     <use style="fill:#0000ff;stroke:#000000;" x="154.742174" xlink:href="#m36c70a0116" y="125.626102"/>
     <use style="fill:#0000ff;stroke:#000000;" x="182.294767" xlink:href="#m36c70a0116" y="192.131757"/>
     <use style="fill:#0000ff;stroke:#000000;" x="229.994463" xlink:href="#m36c70a0116" y="69.961499"/>
     <use style="fill:#0000ff;stroke:#000000;" x="279.590655" xlink:href="#m36c70a0116" y="236.768033"/>
     <use style="fill:#0000ff;stroke:#000000;" x="248.830909" xlink:href="#m36c70a0116" y="155.176434"/>
     <use style="fill:#0000ff;stroke:#000000;" x="250.311962" xlink:href="#m36c70a0116" y="157.756971"/>
     <use style="fill:#0000ff;stroke:#000000;" x="297.091883" xlink:href="#m36c70a0116" y="206.410044"/>
     <use style="fill:#0000ff;stroke:#000000;" x="239.212789" xlink:href="#m36c70a0116" y="188.911619"/>
     <use style="fill:#0000ff;stroke:#000000;" x="185.083942" xlink:href="#m36c70a0116" y="201.589077"/>
     <use style="fill:#0000ff;stroke:#000000;" x="235.007493" xlink:href="#m36c70a0116" y="199.778117"/>
     <use style="fill:#0000ff;stroke:#000000;" x="246.376068" xlink:href="#m36c70a0116" y="260.180702"/>
     <use style="fill:#0000ff;stroke:#000000;" x="142.900858" xlink:href="#m36c70a0116" y="131.057101"/>
     <use style="fill:#0000ff;stroke:#000000;" x="246.179388" xlink:href="#m36c70a0116" y="172.711687"/>
     <use style="fill:#0000ff;stroke:#000000;" x="234.029094" xlink:href="#m36c70a0116" y="202.730357"/>
     <use style="fill:#0000ff;stroke:#000000;" x="122.161272" xlink:href="#m36c70a0116" y="186.86034"/>
     <use style="fill:#0000ff;stroke:#000000;" x="291.835467" xlink:href="#m36c70a0116" y="220.472974"/>
     <use style="fill:#0000ff;stroke:#000000;" x="206.158536" xlink:href="#m36c70a0116" y="204.00551"/>
     <use style="fill:#0000ff;stroke:#000000;" x="219.70254" xlink:href="#m36c70a0116" y="59.519803"/>
     <use style="fill:#0000ff;stroke:#000000;" x="186.476817" xlink:href="#m36c70a0116" y="208.040013"/>
     <use style="fill:#0000ff;stroke:#000000;" x="240.166166" xlink:href="#m36c70a0116" y="256.586864"/>
     <use style="fill:#0000ff;stroke:#000000;" x="123.701012" xlink:href="#m36c70a0116" y="193.17934"/>
     <use style="fill:#0000ff;stroke:#000000;" x="284.660971" xlink:href="#m36c70a0116" y="103.809122"/>
     <use style="fill:#0000ff;stroke:#000000;" x="312.726673" xlink:href="#m36c70a0116" y="180.183311"/>
     <use style="fill:#0000ff;stroke:#000000;" x="164.862006" xlink:href="#m36c70a0116" y="118.456653"/>
     <use style="fill:#0000ff;stroke:#000000;" x="236.845307" xlink:href="#m36c70a0116" y="136.928791"/>
     <use style="fill:#0000ff;stroke:#000000;" x="269.565346" xlink:href="#m36c70a0116" y="94.196805"/>
     <use style="fill:#0000ff;stroke:#000000;" x="221.580129" xlink:href="#m36c70a0116" y="125.156991"/>
     <use style="fill:#0000ff;stroke:#000000;" x="139.248215" xlink:href="#m36c70a0116" y="238.169949"/>
     <use style="fill:#0000ff;stroke:#000000;" x="150.849234" xlink:href="#m36c70a0116" y="127.270095"/>
     <use style="fill:#0000ff;stroke:#000000;" x="312.248086" xlink:href="#m36c70a0116" y="161.556092"/>
     <use style="fill:#0000ff;stroke:#000000;" x="306.551827" xlink:href="#m36c70a0116" y="135.427725"/>
     <use style="fill:#0000ff;stroke:#000000;" x="243.90819" xlink:href="#m36c70a0116" y="192.177443"/>
     <use style="fill:#0000ff;stroke:#000000;" x="220.702628" xlink:href="#m36c70a0116" y="203.791816"/>
     <use style="fill:#0000ff;stroke:#000000;" x="236.413089" xlink:href="#m36c70a0116" y="193.344722"/>
     <use style="fill:#0000ff;stroke:#000000;" x="214.341585" xlink:href="#m36c70a0116" y="116.185851"/>
     <use style="fill:#0000ff;stroke:#000000;" x="242.105942" xlink:href="#m36c70a0116" y="189.785821"/>
     <use style="fill:#0000ff;stroke:#000000;" x="192.511366" xlink:href="#m36c70a0116" y="109.868334"/>
     <use style="fill:#0000ff;stroke:#000000;" x="237.976638" xlink:href="#m36c70a0116" y="192.111688"/>
     <use style="fill:#0000ff;stroke:#000000;" x="135.384991" xlink:href="#m36c70a0116" y="138.954919"/>
     <use style="fill:#0000ff;stroke:#000000;" x="251.159379" xlink:href="#m36c70a0116" y="164.037831"/>
     <use style="fill:#0000ff;stroke:#000000;" x="242.037595" xlink:href="#m36c70a0116" y="185.11127"/>
     <use style="fill:#0000ff;stroke:#000000;" x="314.650892" xlink:href="#m36c70a0116" y="142.950286"/>
     <use style="fill:#0000ff;stroke:#000000;" x="121.859894" xlink:href="#m36c70a0116" y="200.265846"/>
     <use style="fill:#0000ff;stroke:#000000;" x="220.72244" xlink:href="#m36c70a0116" y="125.578217"/>
     <use style="fill:#0000ff;stroke:#000000;" x="262.792961" xlink:href="#m36c70a0116" y="246.35855"/>
     <use style="fill:#0000ff;stroke:#000000;" x="231.243847" xlink:href="#m36c70a0116" y="201.189322"/>
     <use style="fill:#0000ff;stroke:#000000;" x="235.90657" xlink:href="#m36c70a0116" y="142.618776"/>
     <use style="fill:#0000ff;stroke:#000000;" x="250.834564" xlink:href="#m36c70a0116" y="171.557244"/>
     <use style="fill:#0000ff;stroke:#000000;" x="176.371265" xlink:href="#m36c70a0116" y="255.474993"/>
     <use style="fill:#0000ff;stroke:#000000;" x="138.455326" xlink:href="#m36c70a0116" y="140.543672"/>
     <use style="fill:#0000ff;stroke:#000000;" x="180.605805" xlink:href="#m36c70a0116" y="191.263508"/>
     <use style="fill:#0000ff;stroke:#000000;" x="194.768728" xlink:href="#m36c70a0116" y="115.417261"/>
     <use style="fill:#0000ff;stroke:#000000;" x="241.567628" xlink:href="#m36c70a0116" y="65.984337"/>
     <use style="fill:#0000ff;stroke:#000000;" x="307.337114" xlink:href="#m36c70a0116" y="144.053274"/>
     <use style="fill:#0000ff;stroke:#000000;" x="310.713459" xlink:href="#m36c70a0116" y="169.157595"/>
     <use style="fill:#0000ff;stroke:#000000;" x="285.429938" xlink:href="#m36c70a0116" y="104.109615"/>
     <use style="fill:#0000ff;stroke:#000000;" x="227.161458" xlink:href="#m36c70a0116" y="131.414534"/>
     <use style="fill:#0000ff;stroke:#000000;" x="289.092358" xlink:href="#m36c70a0116" y="230.912991"/>
     <use style="fill:#0000ff;stroke:#000000;" x="249.757776" xlink:href="#m36c70a0116" y="154.358223"/>
     <use style="fill:#0000ff;stroke:#000000;" x="215.437009" xlink:href="#m36c70a0116" y="117.853864"/>
     <use style="fill:#0000ff;stroke:#000000;" x="136.606633" xlink:href="#m36c70a0116" y="225.980628"/>
     <use style="fill:#0000ff;stroke:#000000;" x="205.853533" xlink:href="#m36c70a0116" y="204.558051"/>
     <use style="fill:#0000ff;stroke:#000000;" x="267.555029" xlink:href="#m36c70a0116" y="83.822066"/>
     <use style="fill:#0000ff;stroke:#000000;" x="124.622135" xlink:href="#m36c70a0116" y="201.552105"/>
     <use style="fill:#0000ff;stroke:#000000;" x="153.529682" xlink:href="#m36c70a0116" y="125.866745"/>
     <use style="fill:#0000ff;stroke:#000000;" x="161.357144" xlink:href="#m36c70a0116" y="115.957027"/>
     <use style="fill:#0000ff;stroke:#000000;" x="140.908533" xlink:href="#m36c70a0116" y="137.106876"/>
     <use style="fill:#0000ff;stroke:#000000;" x="234.637055" xlink:href="#m36c70a0116" y="129.207196"/>
     <use style="fill:#0000ff;stroke:#000000;" x="249.08067" xlink:href="#m36c70a0116" y="180.811785"/>
     <use style="fill:#0000ff;stroke:#000000;" x="142.277245" xlink:href="#m36c70a0116" y="135.547021"/>
     <use style="fill:#0000ff;stroke:#000000;" x="305.636985" xlink:href="#m36c70a0116" y="144.376473"/>
     <use style="fill:#0000ff;stroke:#000000;" x="134.901773" xlink:href="#m36c70a0116" y="225.712826"/>
     <use style="fill:#0000ff;stroke:#000000;" x="175.70392" xlink:href="#m36c70a0116" y="116.199488"/>
     <use style="fill:#0000ff;stroke:#000000;" x="120.71801" xlink:href="#m36c70a0116" y="182.015396"/>
     <use style="fill:#0000ff;stroke:#000000;" x="222.855278" xlink:href="#m36c70a0116" y="64.914053"/>
     <use style="fill:#0000ff;stroke:#000000;" x="147.119316" xlink:href="#m36c70a0116" y="133.272273"/>
     <use style="fill:#0000ff;stroke:#000000;" x="195.215072" xlink:href="#m36c70a0116" y="117.210187"/>
     <use style="fill:#0000ff;stroke:#000000;" x="128.454647" xlink:href="#m36c70a0116" y="222.901752"/>
     <use style="fill:#0000ff;stroke:#000000;" x="140.039827" xlink:href="#m36c70a0116" y="228.825413"/>
     <use style="fill:#0000ff;stroke:#000000;" x="176.612468" xlink:href="#m36c70a0116" y="184.076915"/>
     <use style="fill:#0000ff;stroke:#000000;" x="215.302" xlink:href="#m36c70a0116" y="205.512743"/>
     <use style="fill:#0000ff;stroke:#000000;" x="187.300987" xlink:href="#m36c70a0116" y="201.975658"/>
     <use style="fill:#0000ff;stroke:#000000;" x="122.890368" xlink:href="#m36c70a0116" y="195.153984"/>
     <use style="fill:#0000ff;stroke:#000000;" x="235.718913" xlink:href="#m36c70a0116" y="262.650487"/>
     <use style="fill:#0000ff;stroke:#000000;" x="211.866523" xlink:href="#m36c70a0116" y="260.046188"/>
     <use style="fill:#0000ff;stroke:#000000;" x="131.023895" xlink:href="#m36c70a0116" y="153.220957"/>
     <use style="fill:#0000ff;stroke:#000000;" x="177.400822" xlink:href="#m36c70a0116" y="185.902962"/>
     <use style="fill:#0000ff;stroke:#000000;" x="123.589149" xlink:href="#m36c70a0116" y="169.802735"/>
     <use style="fill:#0000ff;stroke:#000000;" x="264.632032" xlink:href="#m36c70a0116" y="248.474069"/>
     <use style="fill:#0000ff;stroke:#000000;" x="250.865997" xlink:href="#m36c70a0116" y="71.898769"/>
     <use style="fill:#0000ff;stroke:#000000;" x="218.54869" xlink:href="#m36c70a0116" y="121.562108"/>
     <use style="fill:#0000ff;stroke:#000000;" x="288.884125" xlink:href="#m36c70a0116" y="218.932406"/>
     <use style="fill:#0000ff;stroke:#000000;" x="250.745797" xlink:href="#m36c70a0116" y="178.961781"/>
     <use style="fill:#0000ff;stroke:#000000;" x="245.18244" xlink:href="#m36c70a0116" y="182.10146"/>
     <use style="fill:#0000ff;stroke:#000000;" x="232.250086" xlink:href="#m36c70a0116" y="197.938408"/>
     <use style="fill:#0000ff;stroke:#000000;" x="242.425126" xlink:href="#m36c70a0116" y="196.509667"/>
     <use style="fill:#0000ff;stroke:#000000;" x="245.604559" xlink:href="#m36c70a0116" y="187.939849"/>
     <use style="fill:#0000ff;stroke:#000000;" x="270.868199" xlink:href="#m36c70a0116" y="89.274145"/>
     <use style="fill:#0000ff;stroke:#000000;" x="228.31595" xlink:href="#m36c70a0116" y="200.887338"/>
     <use style="fill:#0000ff;stroke:#000000;" x="127.369894" xlink:href="#m36c70a0116" y="215.560981"/>
     <use style="fill:#0000ff;stroke:#000000;" x="165.072594" xlink:href="#m36c70a0116" y="255.126802"/>
     <use style="fill:#0000ff;stroke:#000000;" x="199.987076" xlink:href="#m36c70a0116" y="115.580804"/>
     <use style="fill:#0000ff;stroke:#000000;" x="189.928221" xlink:href="#m36c70a0116" y="114.201398"/>
     <use style="fill:#0000ff;stroke:#000000;" x="301.589433" xlink:href="#m36c70a0116" y="210.78052"/>
     <use style="fill:#0000ff;stroke:#000000;" x="187.637236" xlink:href="#m36c70a0116" y="197.439978"/>
     <use style="fill:#0000ff;stroke:#000000;" x="247.235038" xlink:href="#m36c70a0116" y="187.568237"/>
     <use style="fill:#0000ff;stroke:#000000;" x="304.415579" xlink:href="#m36c70a0116" y="204.993507"/>
     <use style="fill:#0000ff;stroke:#000000;" x="308.447846" xlink:href="#m36c70a0116" y="172.188962"/>
     <use style="fill:#0000ff;stroke:#000000;" x="186.269769" xlink:href="#m36c70a0116" y="197.570527"/>
     <use style="fill:#0000ff;stroke:#000000;" x="232.205686" xlink:href="#m36c70a0116" y="198.252908"/>
     <use style="fill:#0000ff;stroke:#000000;" x="239.959781" xlink:href="#m36c70a0116" y="196.018059"/>
     <use style="fill:#0000ff;stroke:#000000;" x="249.528151" xlink:href="#m36c70a0116" y="154.428608"/>
     <use style="fill:#0000ff;stroke:#000000;" x="192.2052" xlink:href="#m36c70a0116" y="259.519873"/>
     <use style="fill:#0000ff;stroke:#000000;" x="306.00903" xlink:href="#m36c70a0116" y="200.449675"/>
     <use style="fill:#0000ff;stroke:#000000;" x="175.808524" xlink:href="#m36c70a0116" y="190.790936"/>
     <use style="fill:#0000ff;stroke:#000000;" x="228.672229" xlink:href="#m36c70a0116" y="262.27646"/>
     <use style="fill:#0000ff;stroke:#000000;" x="151.071571" xlink:href="#m36c70a0116" y="123.658074"/>
     <use style="fill:#0000ff;stroke:#000000;" x="270.758089" xlink:href="#m36c70a0116" y="246.08475"/>
     <use style="fill:#0000ff;stroke:#000000;" x="221.342503" xlink:href="#m36c70a0116" y="62.217342"/>
     <use style="fill:#0000ff;stroke:#000000;" x="203.178709" xlink:href="#m36c70a0116" y="266.600554"/>
     <use style="fill:#0000ff;stroke:#000000;" x="276.504136" xlink:href="#m36c70a0116" y="239.251937"/>
     <use style="fill:#0000ff;stroke:#000000;" x="198.511866" xlink:href="#m36c70a0116" y="203.292597"/>
     <use style="fill:#0000ff;stroke:#000000;" x="251.642924" xlink:href="#m36c70a0116" y="74.57851"/>
     <use style="fill:#0000ff;stroke:#000000;" x="230.050967" xlink:href="#m36c70a0116" y="203.555149"/>
     <use style="fill:#0000ff;stroke:#000000;" x="146.108009" xlink:href="#m36c70a0116" y="238.566517"/>
     <use style="fill:#0000ff;stroke:#000000;" x="188.112866" xlink:href="#m36c70a0116" y="258.144896"/>
     <use style="fill:#0000ff;stroke:#000000;" x="244.67217" xlink:href="#m36c70a0116" y="75.684721"/>
     <use style="fill:#0000ff;stroke:#000000;" x="222.503992" xlink:href="#m36c70a0116" y="130.773932"/>
     <use style="fill:#0000ff;stroke:#000000;" x="154.513456" xlink:href="#m36c70a0116" y="121.902678"/>
     <use style="fill:#0000ff;stroke:#000000;" x="309.666174" xlink:href="#m36c70a0116" y="192.960857"/>
     <use style="fill:#0000ff;stroke:#000000;" x="249.862079" xlink:href="#m36c70a0116" y="162.517245"/>
     <use style="fill:#0000ff;stroke:#000000;" x="219.232102" xlink:href="#m36c70a0116" y="211.148338"/>
     <use style="fill:#0000ff;stroke:#000000;" x="187.809713" xlink:href="#m36c70a0116" y="115.808093"/>
     <use style="fill:#0000ff;stroke:#000000;" x="242.513044" xlink:href="#m36c70a0116" y="138.499948"/>
     <use style="fill:#0000ff;stroke:#000000;" x="246.47068" xlink:href="#m36c70a0116" y="255.178616"/>
     <use style="fill:#0000ff;stroke:#000000;" x="286.090256" xlink:href="#m36c70a0116" y="111.138621"/>
     <use style="fill:#0000ff;stroke:#000000;" x="219.204933" xlink:href="#m36c70a0116" y="121.571287"/>
     <use style="fill:#0000ff;stroke:#000000;" x="259.689627" xlink:href="#m36c70a0116" y="78.419077"/>
     <use style="fill:#0000ff;stroke:#000000;" x="292.019796" xlink:href="#m36c70a0116" y="108.072223"/>
     <use style="fill:#0000ff;stroke:#000000;" x="120.111258" xlink:href="#m36c70a0116" y="179.652312"/>
     <use style="fill:#0000ff;stroke:#000000;" x="240.858135" xlink:href="#m36c70a0116" y="140.233662"/>
     <use style="fill:#0000ff;stroke:#000000;" x="203.274551" xlink:href="#m36c70a0116" y="114.520236"/>
     <use style="fill:#0000ff;stroke:#000000;" x="208.683231" xlink:href="#m36c70a0116" y="211.940208"/>
     <use style="fill:#0000ff;stroke:#000000;" x="223.624331" xlink:href="#m36c70a0116" y="265.186392"/>
     <use style="fill:#0000ff;stroke:#000000;" x="208.911698" xlink:href="#m36c70a0116" y="117.178655"/>
     <use style="fill:#0000ff;stroke:#000000;" x="190.786174" xlink:href="#m36c70a0116" y="114.215158"/>
     <use style="fill:#0000ff;stroke:#000000;" x="268.171308" xlink:href="#m36c70a0116" y="241.867644"/>
     <use style="fill:#0000ff;stroke:#000000;" x="135.735653" xlink:href="#m36c70a0116" y="218.116338"/>
     <use style="fill:#0000ff;stroke:#000000;" x="240.354622" xlink:href="#m36c70a0116" y="67.580978"/>
     <use style="fill:#0000ff;stroke:#000000;" x="177.696097" xlink:href="#m36c70a0116" y="182.437597"/>
     <use style="fill:#0000ff;stroke:#000000;" x="229.513147" xlink:href="#m36c70a0116" y="122.775209"/>
     <use style="fill:#0000ff;stroke:#000000;" x="243.884109" xlink:href="#m36c70a0116" y="191.452865"/>
     <use style="fill:#0000ff;stroke:#000000;" x="246.64565" xlink:href="#m36c70a0116" y="152.87263"/>
     <use style="fill:#0000ff;stroke:#000000;" x="243.938533" xlink:href="#m36c70a0116" y="180.707007"/>
     <use style="fill:#0000ff;stroke:#000000;" x="213.76921" xlink:href="#m36c70a0116" y="117.789268"/>
     <use style="fill:#0000ff;stroke:#000000;" x="157.426186" xlink:href="#m36c70a0116" y="245.255067"/>
     <use style="fill:#0000ff;stroke:#000000;" x="186.509611" xlink:href="#m36c70a0116" y="190.108812"/>
     <use style="fill:#0000ff;stroke:#000000;" x="305.441594" xlink:href="#m36c70a0116" y="200.972984"/>
     <use style="fill:#0000ff;stroke:#000000;" x="206.735624" xlink:href="#m36c70a0116" y="117.526335"/>
     <use style="fill:#0000ff;stroke:#000000;" x="188.359728" xlink:href="#m36c70a0116" y="198.442608"/>
     <use style="fill:#0000ff;stroke:#000000;" x="284.902726" xlink:href="#m36c70a0116" y="224.38581"/>
     <use style="fill:#0000ff;stroke:#000000;" x="203.860085" xlink:href="#m36c70a0116" y="114.28101"/>
     <use style="fill:#0000ff;stroke:#000000;" x="128.036924" xlink:href="#m36c70a0116" y="145.890075"/>
     <use style="fill:#0000ff;stroke:#000000;" x="253.345047" xlink:href="#m36c70a0116" y="169.940518"/>
     <use style="fill:#0000ff;stroke:#000000;" x="138.677187" xlink:href="#m36c70a0116" y="141.758274"/>
     <use style="fill:#0000ff;stroke:#000000;" x="242.564667" xlink:href="#m36c70a0116" y="259.468584"/>
     <use style="fill:#0000ff;stroke:#000000;" x="248.317352" xlink:href="#m36c70a0116" y="174.376945"/>
     <use style="fill:#0000ff;stroke:#000000;" x="170.544141" xlink:href="#m36c70a0116" y="257.645618"/>
     <use style="fill:#0000ff;stroke:#000000;" x="297.615099" xlink:href="#m36c70a0116" y="203.708075"/>
     <use style="fill:#0000ff;stroke:#000000;" x="177.952347" xlink:href="#m36c70a0116" y="177.48322"/>
    </g>
   </g>
   <g id="patch_3">
    <path d="M 57.6 307.584 
L 57.6 41.472 
" style="fill:none;stroke:#000000;stroke-linecap:square;stroke-linejoin:miter;stroke-width:0.8;"/>
   </g>
   <g id="patch_4">
    <path d="M 343.296 307.584 
L 343.296 41.472 
" style="fill:none;stroke:#000000;stroke-linecap:square;stroke-linejoin:miter;stroke-width:0.8;"/>
   </g>
   <g id="patch_5">
    <path d="M 57.6 307.584 
L 343.296 307.584 
" style="fill:none;stroke:#000000;stroke-linecap:square;stroke-linejoin:miter;stroke-width:0.8;"/>
   </g>
   <g id="patch_6">
    <path d="M 57.6 41.472 
L 343.296 41.472 
" style="fill:none;stroke:#000000;stroke-linecap:square;stroke-linejoin:miter;stroke-width:0.8;"/>
   </g>
   <g id="text_17">
    <!-- Spirals -->
    <g transform="translate(180.227063 35.472)scale(0.12 -0.12)">
     <defs>
      <path d="M 53.515625 70.515625 
L 53.515625 60.890625 
Q 47.90625 63.578125 42.921875 64.890625 
Q 37.9375 66.21875 33.296875 66.21875 
Q 25.25 66.21875 20.875 63.09375 
Q 16.5 59.96875 16.5 54.203125 
Q 16.5 49.359375 19.40625 46.890625 
Q 22.3125 44.4375 30.421875 42.921875 
L 36.375 41.703125 
Q 47.40625 39.59375 52.65625 34.296875 
Q 57.90625 29 57.90625 20.125 
Q 57.90625 9.515625 50.796875 4.046875 
Q 43.703125 -1.421875 29.984375 -1.421875 
Q 24.8125 -1.421875 18.96875 -0.25 
Q 13.140625 0.921875 6.890625 3.21875 
L 6.890625 13.375 
Q 12.890625 10.015625 18.65625 8.296875 
Q 24.421875 6.59375 29.984375 6.59375 
Q 38.421875 6.59375 43.015625 9.90625 
Q 47.609375 13.234375 47.609375 19.390625 
Q 47.609375 24.75 44.3125 27.78125 
Q 41.015625 30.8125 33.5 32.328125 
L 27.484375 33.5 
Q 16.453125 35.6875 11.515625 40.375 
Q 6.59375 45.0625 6.59375 53.421875 
Q 6.59375 63.09375 13.40625 68.65625 
Q 20.21875 74.21875 32.171875 74.21875 
Q 37.3125 74.21875 42.625 73.28125 
Q 47.953125 72.359375 53.515625 70.515625 
z
" id="DejaVuSans-83"/>
      <path d="M 18.109375 8.203125 
L 18.109375 -20.796875 
L 9.078125 -20.796875 
L 9.078125 54.6875 
L 18.109375 54.6875 
L 18.109375 46.390625 
Q 20.953125 51.265625 25.265625 53.625 
Q 29.59375 56 35.59375 56 
Q 45.5625 56 51.78125 48.09375 
Q 58.015625 40.1875 58.015625 27.296875 
Q 58.015625 14.40625 51.78125 6.484375 
Q 45.5625 -1.421875 35.59375 -1.421875 
Q 29.59375 -1.421875 25.265625 0.953125 
Q 20.953125 3.328125 18.109375 8.203125 
z
M 48.6875 27.296875 
Q 48.6875 37.203125 44.609375 42.84375 
Q 40.53125 48.484375 33.40625 48.484375 
Q 26.265625 48.484375 22.1875 42.84375 
Q 18.109375 37.203125 18.109375 27.296875 
Q 18.109375 17.390625 22.1875 11.75 
Q 26.265625 6.109375 33.40625 6.109375 
Q 40.53125 6.109375 44.609375 11.75 
Q 48.6875 17.390625 48.6875 27.296875 
z
" id="DejaVuSans-112"/>
      <path d="M 9.421875 54.6875 
L 18.40625 54.6875 
L 18.40625 0 
L 9.421875 0 
z
M 9.421875 75.984375 
L 18.40625 75.984375 
L 18.40625 64.59375 
L 9.421875 64.59375 
z
" id="DejaVuSans-105"/>
      <path d="M 41.109375 46.296875 
Q 39.59375 47.171875 37.8125 47.578125 
Q 36.03125 48 33.890625 48 
Q 26.265625 48 22.1875 43.046875 
Q 18.109375 38.09375 18.109375 28.8125 
L 18.109375 0 
L 9.078125 0 
L 9.078125 54.6875 
L 18.109375 54.6875 
L 18.109375 46.1875 
Q 20.953125 51.171875 25.484375 53.578125 
Q 30.03125 56 36.53125 56 
Q 37.453125 56 38.578125 55.875 
Q 39.703125 55.765625 41.0625 55.515625 
z
" id="DejaVuSans-114"/>
      <path d="M 34.28125 27.484375 
Q 23.390625 27.484375 19.1875 25 
Q 14.984375 22.515625 14.984375 16.5 
Q 14.984375 11.71875 18.140625 8.90625 
Q 21.296875 6.109375 26.703125 6.109375 
Q 34.1875 6.109375 38.703125 11.40625 
Q 43.21875 16.703125 43.21875 25.484375 
L 43.21875 27.484375 
z
M 52.203125 31.203125 
L 52.203125 0 
L 43.21875 0 
L 43.21875 8.296875 
Q 40.140625 3.328125 35.546875 0.953125 
Q 30.953125 -1.421875 24.3125 -1.421875 
Q 15.921875 -1.421875 10.953125 3.296875 
Q 6 8.015625 6 15.921875 
Q 6 25.140625 12.171875 29.828125 
Q 18.359375 34.515625 30.609375 34.515625 
L 43.21875 34.515625 
L 43.21875 35.40625 
Q 43.21875 41.609375 39.140625 45 
Q 35.0625 48.390625 27.6875 48.390625 
Q 23 48.390625 18.546875 47.265625 
Q 14.109375 46.140625 10.015625 43.890625 
L 10.015625 52.203125 
Q 14.9375 54.109375 19.578125 55.046875 
Q 24.21875 56 28.609375 56 
Q 40.484375 56 46.34375 49.84375 
Q 52.203125 43.703125 52.203125 31.203125 
z
" id="DejaVuSans-97"/>
      <path d="M 9.421875 75.984375 
L 18.40625 75.984375 
L 18.40625 0 
L 9.421875 0 
z
" id="DejaVuSans-108"/>
      <path d="M 44.28125 53.078125 
L 44.28125 44.578125 
Q 40.484375 46.53125 36.375 47.5 
Q 32.28125 48.484375 27.875 48.484375 
Q 21.1875 48.484375 17.84375 46.4375 
Q 14.5 44.390625 14.5 40.28125 
Q 14.5 37.15625 16.890625 35.375 
Q 19.28125 33.59375 26.515625 31.984375 
L 29.59375 31.296875 
Q 39.15625 29.25 43.1875 25.515625 
Q 47.21875 21.78125 47.21875 15.09375 
Q 47.21875 7.46875 41.1875 3.015625 
Q 35.15625 -1.421875 24.609375 -1.421875 
Q 20.21875 -1.421875 15.453125 -0.5625 
Q 10.6875 0.296875 5.421875 2 
L 5.421875 11.28125 
Q 10.40625 8.6875 15.234375 7.390625 
Q 20.0625 6.109375 24.8125 6.109375 
Q 31.15625 6.109375 34.5625 8.28125 
Q 37.984375 10.453125 37.984375 14.40625 
Q 37.984375 18.0625 35.515625 20.015625 
Q 33.0625 21.96875 24.703125 23.78125 
L 21.578125 24.515625 
Q 13.234375 26.265625 9.515625 29.90625 
Q 5.8125 33.546875 5.8125 39.890625 
Q 5.8125 47.609375 11.28125 51.796875 
Q 16.75 56 26.8125 56 
Q 31.78125 56 36.171875 55.265625 
Q 40.578125 54.546875 44.28125 53.078125 
z
" id="DejaVuSans-115"/>
     </defs>
     <use xlink:href="#DejaVuSans-83"/>
     <use x="63.476562" xlink:href="#DejaVuSans-112"/>
     <use x="126.953125" xlink:href="#DejaVuSans-105"/>
     <use x="154.736328" xlink:href="#DejaVuSans-114"/>
     <use x="195.849609" xlink:href="#DejaVuSans-97"/>
     <use x="257.128906" xlink:href="#DejaVuSans-108"/>
     <use x="284.912109" xlink:href="#DejaVuSans-115"/>
    </g>
   </g>
  </g>
  <g id="axes_2">
   <g id="patch_7">
    <path clip-path="url(#p4adfa9bfda)" d="M 361.152 307.584 
L 361.152 41.472 
L 361.152 307.584 
L 361.152 41.472 
L 374.4576 41.472 
L 374.4576 307.584 
L 374.4576 41.472 
L 374.4576 307.584 
z
" style="fill:#ffffff;stroke:#ffffff;stroke-linejoin:miter;stroke-width:0.01;"/>
   </g>
   <g id="QuadMesh_1">
    <path clip-path="url(#p4adfa9bfda)" d="M 361.152 307.584 
L 374.4576 307.584 
L 374.4576 41.472 
L 361.152 41.472 
L 361.152 307.584 
" style="fill:#21918c;"/>
   </g>
   <g id="matplotlib.axis_3"/>
   <g id="matplotlib.axis_4">
    <g id="ytick_8">
     <g id="line2d_17">
      <defs>
       <path d="M 0 0 
L 3.5 0 
" id="m8748db7170" style="stroke:#000000;stroke-width:0.8;"/>
      </defs>
      <g>
       <use style="stroke:#000000;stroke-width:0.8;" x="374.4576" xlink:href="#m8748db7170" y="307.584"/>
      </g>
     </g>
     <g id="text_18">
      <!-- 0.5 -->
      <g transform="translate(381.4576 311.383219)scale(0.1 -0.1)">
       <defs>
        <path d="M 10.6875 12.40625 
L 21 12.40625 
L 21 0 
L 10.6875 0 
z
" id="DejaVuSans-46"/>
       </defs>
       <use xlink:href="#DejaVuSans-48"/>
       <use x="63.623047" xlink:href="#DejaVuSans-46"/>
       <use x="95.410156" xlink:href="#DejaVuSans-53"/>
      </g>
     </g>
    </g>
    <g id="ytick_9">
     <g id="line2d_18">
      <g>
       <use style="stroke:#000000;stroke-width:0.8;" x="374.4576" xlink:href="#m8748db7170" y="41.472"/>
      </g>
     </g>
     <g id="text_19">
      <!-- 1.0 -->
      <g transform="translate(381.4576 45.271219)scale(0.1 -0.1)">
       <use xlink:href="#DejaVuSans-49"/>
       <use x="63.623047" xlink:href="#DejaVuSans-46"/>
       <use x="95.410156" xlink:href="#DejaVuSans-48"/>
      </g>
     </g>
    </g>
   </g>
   <g id="patch_8">
    <path d="M 361.152 307.584 
L 361.152 41.472 
L 361.152 307.584 
L 361.152 41.472 
L 374.4576 41.472 
L 374.4576 307.584 
L 374.4576 41.472 
L 374.4576 307.584 
z
" style="fill:none;stroke:#000000;stroke-linejoin:miter;stroke-width:0.8;"/>
   </g>
  </g>
 </g>
 <defs>
  <clipPath id="p9b90af4803">
   <rect height="266.112" width="285.696" x="57.6" y="41.472"/>
  </clipPath>
  <clipPath id="p4adfa9bfda">
   <rect height="266.112" width="13.3056" x="361.152" y="41.472"/>
  </clipPath>
 </defs>
</svg>
