<?xml version="1.0" encoding="utf-8" standalone="no"?>
<!DOCTYPE svg PUBLIC "-//W3C//DTD SVG 1.1//EN"
  "http://www.w3.org/Graphics/SVG/1.1/DTD/svg11.dtd">
<!-- Created with matplotlib (https://matplotlib.org/) -->
<svg height="345.6pt" version="1.1" viewBox="0 0 460.8 345.6" width="460.8pt" xmlns="http://www.w3.org/2000/svg" xmlns:xlink="http://www.w3.org/1999/xlink">
 <metadata>
  <rdf:RDF xmlns:cc="http://creativecommons.org/ns#" xmlns:dc="http://purl.org/dc/elements/1.1/" xmlns:rdf="http://www.w3.org/1999/02/22-rdf-syntax-ns#">
   <cc:Work>
    <dc:type rdf:resource="http://purl.org/dc/dcmitype/StillImage"/>
    <dc:date>2020-09-14T18:33:11.757675</dc:date>
    <dc:format>image/svg+xml</dc:format>
    <dc:creator>
     <cc:Agent>
      <dc:title>Matplotlib v3.3.1, https://matplotlib.org/</dc:title>
     </cc:Agent>
    </dc:creator>
   </cc:Work>
  </rdf:RDF>
 </metadata>
 <defs>
  <style type="text/css">*{stroke-linecap:butt;stroke-linejoin:round;}</style>
 </defs>
 <g id="figure_1">
  <g id="patch_1">
   <path d="M 0 345.6 
L 460.8 345.6 
L 460.8 0 
L 0 0 
z
" style="fill:#ffffff;"/>
  </g>
  <g id="axes_1">
   <g id="patch_2">
    <path d="M 57.6 307.584 
L 343.296 307.584 
L 343.296 41.472 
L 57.6 41.472 
z
" style="fill:#ffffff;"/>
   </g>
   <g id="PathCollection_1">
    <path clip-path="url(#p2fcf69b1ce)" d="M 216.32 307.584 
L 219.205818 307.584 
L 222.091636 307.584 
L 224.977454 307.584 
L 227.863274 307.584 
L 230.749092 307.584 
L 233.634909 307.584 
L 236.520727 307.584 
L 239.406545 307.584 
L 242.292365 307.584 
L 245.17818 307.584 
L 248.064 307.584 
L 250.94982 307.584 
L 253.835635 307.584 
L 256.721455 307.584 
L 259.607271 307.584 
L 262.493091 307.584 
L 265.378911 307.584 
L 268.264726 307.584 
L 271.150546 307.584 
L 274.036362 307.584 
L 276.922182 307.584 
L 279.807997 307.584 
L 282.693821 307.584 
L 285.579637 307.584 
L 288.465452 307.584 
L 291.351277 307.584 
L 294.237092 307.584 
L 297.122908 307.584 
L 300.008723 307.584 
L 302.894548 307.584 
L 305.780363 307.584 
L 308.666179 307.584 
L 311.552003 307.584 
L 314.437818 307.584 
L 317.323634 307.584 
L 320.209458 307.584 
L 323.095274 307.584 
L 325.981089 307.584 
L 328.866905 307.584 
L 331.752729 307.584 
L 334.638545 307.584 
L 337.52436 307.584 
L 340.410185 307.584 
L 343.296 307.584 
L 343.296 304.896003 
L 343.296 302.207997 
L 343.296 299.519999 
L 343.296 296.832002 
L 343.296 294.143996 
L 343.296 291.455998 
L 343.296 288.768001 
L 343.296 286.080004 
L 343.296 283.391998 
L 343.296 280.704 
L 343.296 278.016003 
L 343.296 275.327997 
L 343.296 272.639999 
L 343.296 269.952002 
L 343.296 267.263996 
L 343.296 264.575999 
L 343.296 261.888001 
L 343.296 259.200004 
L 343.296 256.511998 
L 343.296 253.824001 
L 343.296 251.136003 
L 343.296 248.447997 
L 343.296 245.76 
L 343.296 243.071998 
L 343.296 240.384001 
L 343.296 237.695999 
L 343.296 235.008002 
L 343.296 232.32 
L 343.296 229.631998 
L 343.296 226.944001 
L 343.296 224.255999 
L 343.296 221.568002 
L 343.296 218.88 
L 343.296 216.191998 
L 343.296 213.504001 
L 343.296 210.815999 
L 343.296 208.128 
L 343.296 205.44 
L 343.296 202.752001 
L 343.296 200.064001 
L 343.296 197.375999 
L 343.296 194.688 
L 343.296 192 
L 343.296 189.312 
L 343.296 186.624 
L 343.296 183.935999 
L 343.296 181.248 
L 343.296 178.56 
L 343.296 175.872 
L 343.296 173.184 
L 343.296 170.496 
L 343.296 167.808 
L 343.296 165.120001 
L 343.296 162.432 
L 343.296 159.744 
L 343.296 157.056 
L 343.296 154.368 
L 343.296 151.680001 
L 343.296 148.991999 
L 343.296 146.303999 
L 343.296 143.616 
L 343.296 140.928 
L 343.296 138.240001 
L 343.296 135.551999 
L 343.296 132.864002 
L 343.296 130.176 
L 343.296 127.487998 
L 343.296 124.800001 
L 343.296 122.111999 
L 343.296 119.424002 
L 343.296 116.736 
L 343.296 114.047998 
L 343.296 111.360001 
L 343.296 108.671999 
L 343.296 105.984002 
L 343.296 103.296 
L 343.296 100.608003 
L 343.296 97.919997 
L 343.296 95.231999 
L 343.296 92.544002 
L 343.296 89.855996 
L 343.296 87.167999 
L 343.296 84.480001 
L 343.296 81.792004 
L 343.296 79.103998 
L 343.296 76.416001 
L 343.296 73.728003 
L 343.296 71.039997 
L 343.296 68.352 
L 343.296 65.664002 
L 343.296 62.975996 
L 343.296 60.287999 
L 343.296 57.600002 
L 343.296 54.912004 
L 343.296 52.223998 
L 343.296 49.536001 
L 343.296 46.848003 
L 343.296 44.159997 
L 343.296 41.472 
L 340.410185 41.472 
L 337.52436 41.472 
L 334.638545 41.472 
L 331.752729 41.472 
L 328.866905 41.472 
L 325.981089 41.472 
L 323.095274 41.472 
L 320.209458 41.472 
L 317.323634 41.472 
L 314.437818 41.472 
L 311.552003 41.472 
L 308.666179 41.472 
L 305.780363 41.472 
L 302.894548 41.472 
L 300.008723 41.472 
L 297.122908 41.472 
L 294.237092 41.472 
L 291.351277 41.472 
L 288.465452 41.472 
L 285.579637 41.472 
L 282.693821 41.472 
L 279.807997 41.472 
L 276.922182 41.472 
L 274.036362 41.472 
L 271.150546 41.472 
L 268.264726 41.472 
L 265.378911 41.472 
L 262.493091 41.472 
L 259.607271 41.472 
L 256.721455 41.472 
L 253.835635 41.472 
L 250.94982 41.472 
L 248.064 41.472 
L 245.17818 41.472 
L 242.292365 41.472 
L 239.406545 41.472 
L 236.520727 41.472 
L 233.634909 41.472 
L 230.749092 41.472 
L 227.863274 41.472 
L 224.977454 41.472 
L 222.091636 41.472 
L 219.205818 41.472 
L 216.32 41.472 
L 213.434182 41.472 
L 210.548363 41.472 
L 207.662545 41.472 
L 204.776727 41.472 
L 201.890909 41.472 
L 199.005091 41.472 
L 196.119273 41.472 
L 193.233455 41.472 
L 190.347637 41.472 
L 187.461818 41.472 
L 184.576 41.472 
L 184.448089 41.472 
L 184.576 41.938317 
L 185.175956 44.159997 
L 185.969117 46.848003 
L 186.876886 49.536001 
L 187.461818 50.686565 
L 188.248976 52.223998 
L 190.040734 54.912004 
L 190.347637 55.344046 
L 191.887017 57.600002 
L 193.233455 59.501986 
L 193.790588 60.287999 
L 196.065287 62.975996 
L 196.119273 63.034547 
L 198.262577 65.664002 
L 199.005091 66.492418 
L 201.227523 68.352 
L 201.890909 68.831604 
L 204.776727 70.642878 
L 205.455434 71.039997 
L 207.662545 72.284437 
L 210.331691 73.728003 
L 210.548363 73.847518 
L 213.434182 75.352084 
L 215.496457 76.416001 
L 216.32 76.847585 
L 219.205818 78.288248 
L 220.804339 79.103998 
L 222.091636 79.767509 
L 224.977454 81.199641 
L 226.221859 81.792004 
L 227.863274 82.529853 
L 230.749092 83.741153 
L 232.50823 84.480001 
L 233.634909 84.960037 
L 236.520727 86.112978 
L 239.263566 87.167999 
L 239.406545 87.224496 
L 242.292365 88.305123 
L 245.17818 89.279065 
L 247.333617 89.855996 
L 248.064 90.053279 
L 250.94982 90.836076 
L 253.835635 91.696485 
L 255.962712 92.544002 
L 256.721455 92.867155 
L 259.607271 94.292246 
L 261.299841 95.231999 
L 262.493091 95.913088 
L 265.378911 97.617277 
L 265.837914 97.919997 
L 268.264726 99.522109 
L 269.678016 100.608003 
L 271.150546 101.804562 
L 272.825264 103.296 
L 274.036362 104.465834 
L 275.411614 105.984002 
L 276.922182 107.88369 
L 277.530596 108.671999 
L 279.394794 111.360001 
L 279.807997 112.006927 
L 280.969203 114.047998 
L 282.250111 116.736 
L 282.693821 117.714064 
L 283.379088 119.424002 
L 284.202114 122.111999 
L 284.973978 124.800001 
L 285.579637 126.557798 
L 285.91062 127.487998 
L 286.82428 130.176 
L 287.898313 132.864002 
L 288.465452 134.192133 
L 289.027481 135.551999 
L 289.95337 138.240001 
L 290.854265 140.928 
L 291.351277 142.136236 
L 291.948524 143.616 
L 292.977159 146.303999 
L 294.087773 148.991999 
L 294.237092 149.345341 
L 295.138954 151.680001 
L 295.973703 154.368 
L 296.767024 157.056 
L 297.122908 158.689808 
L 297.352317 159.744 
L 297.694687 162.432 
L 297.808142 165.120001 
L 297.851623 167.808 
L 297.842255 170.496 
L 297.640216 173.184 
L 297.300796 175.872 
L 297.122908 176.712532 
L 296.735497 178.56 
L 295.941437 181.248 
L 295.007465 183.935999 
L 294.237092 185.65615 
L 293.777507 186.624 
L 292.534247 189.312 
L 291.351277 191.546969 
L 291.088112 192 
L 289.48125 194.688 
L 288.465452 196.418647 
L 287.895165 197.375999 
L 286.534942 200.064001 
L 285.579637 201.826572 
L 285.09309 202.752001 
L 284.071213 205.44 
L 282.979495 208.128 
L 282.693821 208.687495 
L 281.598186 210.815999 
L 279.807997 213.396217 
L 279.722978 213.504001 
L 277.580113 216.191998 
L 276.922182 216.95873 
L 275.288891 218.88 
L 274.036362 220.397374 
L 273.035142 221.568002 
L 271.150546 223.689943 
L 270.602468 224.255999 
L 268.264726 226.75244 
L 268.083868 226.944001 
L 265.597548 229.631998 
L 265.378911 229.838531 
L 262.510487 232.32 
L 262.493091 232.333723 
L 259.607271 234.432282 
L 258.820001 235.008002 
L 256.721455 236.398052 
L 254.728982 237.695999 
L 253.835635 238.306385 
L 250.94982 240.297361 
L 250.831668 240.384001 
L 248.064 242.357956 
L 247.081169 243.071998 
L 245.17818 244.404387 
L 243.055908 245.76 
L 242.292365 246.238493 
L 239.406545 247.673465 
L 237.541888 248.447997 
L 236.520727 248.859239 
L 233.634909 249.709467 
L 230.749092 250.320512 
L 227.863274 250.843872 
L 225.483429 251.136003 
L 224.977454 251.201539 
L 222.091636 251.371134 
L 219.205818 251.285553 
L 216.32 251.523114 
L 213.434182 251.668048 
L 210.548363 251.245919 
L 210.362545 251.136003 
L 207.662545 248.903659 
L 207.225673 248.447997 
L 204.776727 246.116586 
L 202.729054 245.76 
L 201.890909 245.650679 
L 199.005091 245.468798 
L 196.119273 245.295333 
L 193.233455 244.789641 
L 190.347637 244.114797 
L 187.461818 243.306465 
L 186.851099 243.071998 
L 184.576 242.259559 
L 181.690182 241.123874 
L 180.178267 240.384001 
L 178.804364 239.72459 
L 175.918546 238.334164 
L 174.839259 237.695999 
L 173.032726 236.587569 
L 170.603026 235.008002 
L 170.146908 234.682873 
L 167.261091 232.735176 
L 166.696879 232.32 
L 164.375273 230.621221 
L 163.124419 229.631998 
L 161.489455 228.314338 
L 159.852616 226.944001 
L 158.603635 225.877219 
L 156.748808 224.255999 
L 155.71782 223.28113 
L 154.098764 221.568002 
L 152.832 220.112877 
L 151.815797 218.88 
L 149.94618 216.449643 
L 149.739082 216.191998 
L 147.877346 213.504001 
L 147.060365 212.228092 
L 146.182909 210.815999 
L 144.89526 208.128 
L 144.174545 206.648886 
L 143.582072 205.44 
L 142.462424 202.752001 
L 141.346823 200.064001 
L 141.288729 199.9215 
L 140.318777 197.375999 
L 139.508093 194.688 
L 138.68007 192 
L 138.402909 191.132133 
L 137.838544 189.312 
L 137.128511 186.624 
L 136.440164 183.935999 
L 135.835912 181.248 
L 135.517089 179.251551 
L 135.401986 178.56 
L 135.275341 175.872 
L 135.244128 173.184 
L 135.268674 170.496 
L 135.517089 169.009157 
L 135.739724 167.808 
L 136.589774 165.120001 
L 137.78571 162.432 
L 138.402909 161.328514 
L 139.433462 159.744 
L 141.288729 157.434827 
L 141.97954 157.056 
L 144.174545 155.840416 
L 145.121582 154.368 
L 146.560662 151.680001 
L 147.060365 150.996047 
L 148.99593 148.991999 
L 149.94618 148.1421 
L 151.722453 146.303999 
L 152.832 144.184601 
L 153.137389 143.616 
L 154.51849 140.928 
L 155.71782 139.299264 
L 156.567111 138.240001 
L 158.603635 136.192834 
L 159.297137 135.551999 
L 161.489455 133.89035 
L 163.128178 132.864002 
L 164.375273 132.181795 
L 167.261091 130.883538 
L 168.943237 130.176 
L 170.146908 129.732744 
L 173.032726 129.204932 
L 175.918546 128.778749 
L 178.804364 128.423752 
L 181.690182 128.114428 
L 184.576 127.865512 
L 187.461818 127.691611 
L 190.347637 127.640132 
L 193.233455 127.632748 
L 196.119273 127.695572 
L 199.005091 128.030627 
L 201.890909 128.451838 
L 204.776727 128.975156 
L 207.662545 129.714286 
L 208.786154 130.176 
L 210.548363 130.925133 
L 213.434182 132.181969 
L 214.72043 132.864002 
L 216.32 133.728453 
L 219.205818 135.404425 
L 219.403916 135.551999 
L 222.091636 137.510547 
L 222.988047 138.240001 
L 224.977454 139.935841 
L 226.052454 140.928 
L 227.863274 142.723004 
L 228.712674 143.616 
L 230.516565 146.303999 
L 230.749092 146.714439 
L 232.023262 148.991999 
L 233.029509 151.680001 
L 233.634909 153.408496 
L 233.973977 154.368 
L 234.753204 157.056 
L 235.263714 159.744 
L 235.568002 162.432 
L 235.522413 165.120001 
L 235.238403 167.808 
L 234.675965 170.496 
L 233.634909 173.171301 
L 233.628962 173.184 
L 232.105785 175.872 
L 230.749092 177.834616 
L 230.165829 178.56 
L 227.863274 181.016234 
L 227.587456 181.248 
L 224.977454 183.059882 
L 222.091636 183.380887 
L 219.205818 183.31268 
L 216.32 182.903288 
L 213.434182 182.151883 
L 210.548363 181.388712 
L 209.981976 181.248 
L 207.662545 180.722562 
L 204.776727 180.119346 
L 201.890909 179.484805 
L 199.005091 178.775797 
L 198.329233 178.56 
L 196.119273 177.895136 
L 193.233455 177.119798 
L 190.347637 176.379213 
L 188.530094 175.872 
L 187.461818 175.563225 
L 184.576 174.839536 
L 181.690182 174.180167 
L 178.804364 173.79003 
L 175.918546 173.511494 
L 173.032726 174.004443 
L 170.146908 174.26684 
L 167.261091 174.246986 
L 164.868429 175.872 
L 165.537797 178.56 
L 166.328013 181.248 
L 167.127011 183.935999 
L 167.261091 184.37398 
L 167.920371 186.624 
L 168.77405 189.312 
L 169.883006 192 
L 170.146908 192.446046 
L 171.457007 194.688 
L 173.032726 197.004981 
L 173.315219 197.375999 
L 175.310624 200.064001 
L 175.918546 200.748761 
L 177.805496 202.752001 
L 178.804364 203.745562 
L 180.600376 205.44 
L 181.690182 206.484992 
L 183.463868 208.128 
L 184.576 209.154734 
L 186.491748 210.815999 
L 187.461818 211.647833 
L 189.747168 213.504001 
L 190.347637 214.003064 
L 193.233455 216.086583 
L 193.387178 216.191998 
L 196.119273 217.972275 
L 197.840878 218.88 
L 199.005091 219.510038 
L 201.890909 220.790271 
L 203.732082 221.568002 
L 204.776727 222.031054 
L 207.662545 223.112798 
L 210.548363 223.944202 
L 212.138464 224.255999 
L 213.434182 224.501752 
L 216.32 224.470086 
L 216.795818 224.255999 
L 219.205818 223.372397 
L 222.091636 222.09288 
L 223.026027 221.568002 
L 224.977454 220.544457 
L 227.863274 218.995612 
L 228.047038 218.88 
L 230.749092 217.28654 
L 232.227583 216.191998 
L 233.634909 215.003066 
L 235.311564 213.504001 
L 236.520727 212.328858 
L 238.090061 210.815999 
L 239.406545 209.497201 
L 240.776779 208.128 
L 242.292365 206.500419 
L 243.283637 205.44 
L 245.17818 203.169928 
L 245.544293 202.752001 
L 247.724405 200.064001 
L 248.064 199.661799 
L 249.936121 197.375999 
L 250.94982 196.204296 
L 252.332734 194.688 
L 253.835635 192.882418 
L 254.607183 192 
L 256.589089 189.312 
L 256.721455 189.134218 
L 258.5151 186.624 
L 259.607271 184.281368 
L 259.763506 183.935999 
L 260.507253 181.248 
L 260.854168 178.56 
L 261.126342 175.872 
L 261.313142 173.184 
L 261.412978 170.496 
L 261.44482 167.808 
L 261.463749 165.120001 
L 261.505429 162.432 
L 261.420059 159.744 
L 261.321711 157.056 
L 261.22263 154.368 
L 261.103964 151.680001 
L 260.822991 148.991999 
L 260.353247 146.303999 
L 259.736258 143.616 
L 259.607271 143.222299 
L 258.814004 140.928 
L 257.664664 138.240001 
L 256.721455 136.606733 
L 256.089441 135.551999 
L 254.352747 132.864002 
L 253.835635 132.225588 
L 252.19664 130.176 
L 250.94982 128.697783 
L 249.941241 127.487998 
L 248.064 125.239917 
L 247.691023 124.800001 
L 245.414205 122.111999 
L 245.17818 121.858734 
L 242.766796 119.424002 
L 242.292365 118.960096 
L 239.942648 116.736 
L 239.406545 116.23868 
L 236.946241 114.047998 
L 236.520727 113.673705 
L 233.634909 111.609886 
L 233.217938 111.360001 
L 230.749092 110.022582 
L 227.997783 108.671999 
L 227.863274 108.603889 
L 224.977454 107.417091 
L 222.091636 106.452464 
L 220.780201 105.984002 
L 219.205818 105.425709 
L 216.32 104.581486 
L 213.434182 103.989425 
L 210.548363 103.536874 
L 208.897561 103.296 
L 207.662545 103.114021 
L 204.776727 102.80623 
L 201.890909 102.561943 
L 199.005091 102.421849 
L 196.119273 102.427445 
L 193.233455 102.497111 
L 190.347637 102.514974 
L 187.461818 102.537144 
L 184.576 102.596038 
L 181.690182 102.641526 
L 178.804364 102.71885 
L 175.918546 102.891627 
L 173.032726 103.252317 
L 172.808231 103.296 
L 170.146908 103.769012 
L 167.261091 104.086975 
L 164.375273 104.378792 
L 161.489455 104.706142 
L 158.603635 105.327685 
L 156.795308 105.984002 
L 155.71782 106.459049 
L 152.832 107.706803 
L 151.056446 108.671999 
L 149.94618 109.315086 
L 147.060365 111.125024 
L 146.780819 111.360001 
L 144.174545 113.609155 
L 143.725893 114.047998 
L 141.378118 116.736 
L 141.288729 116.841467 
L 139.479586 119.424002 
L 138.402909 120.934356 
L 137.569312 122.111999 
L 135.994914 124.800001 
L 135.517089 125.604575 
L 133.954447 127.487998 
L 132.631274 129.039023 
L 131.20331 130.176 
L 129.745454 131.354381 
L 127.380709 132.864002 
L 126.859638 133.136222 
L 123.973818 134.385673 
L 121.518589 135.551999 
L 121.088003 135.797508 
L 118.202179 138.044153 
L 117.976081 138.240001 
L 115.316363 140.52082 
L 114.854709 140.928 
L 112.564907 143.616 
L 112.430548 143.866321 
L 111.361371 146.303999 
L 110.447891 148.991999 
L 109.689235 151.680001 
L 109.544723 152.506868 
L 109.233079 154.368 
L 108.878902 157.056 
L 108.570366 159.744 
L 108.203667 162.432 
L 107.88614 165.120001 
L 107.637862 167.808 
L 107.474867 170.496 
L 107.322413 173.184 
L 107.201233 175.872 
L 107.209738 178.56 
L 107.405681 181.248 
L 107.656671 183.935999 
L 107.913092 186.624 
L 108.251287 189.312 
L 108.739453 192 
L 109.260022 194.688 
L 109.544723 196.193387 
L 109.76822 197.375999 
L 110.236035 200.064001 
L 110.762771 202.752001 
L 111.320839 205.44 
L 111.927499 208.128 
L 112.430548 210.281683 
L 112.559739 210.815999 
L 113.348181 213.504001 
L 114.188237 216.191998 
L 115.316363 218.78717 
L 115.359418 218.88 
L 116.679497 221.568002 
L 117.966317 224.255999 
L 118.202179 224.689368 
L 119.409644 226.944001 
L 121.088003 229.619837 
L 121.096826 229.631998 
L 123.021158 232.32 
L 123.973818 233.61579 
L 125.016354 235.008002 
L 126.859638 237.427743 
L 127.074435 237.695999 
L 129.207914 240.384001 
L 129.745454 241.019592 
L 131.482384 243.071998 
L 132.631274 244.3819 
L 133.862651 245.76 
L 135.517089 247.535385 
L 136.38638 248.447997 
L 138.402909 250.637121 
L 138.884509 251.136003 
L 141.288729 253.594557 
L 141.521947 253.824001 
L 144.174545 256.286879 
L 144.439078 256.511998 
L 147.060365 258.657902 
L 147.736765 259.200004 
L 149.94618 260.940366 
L 151.211302 261.888001 
L 152.832 263.076561 
L 155.105096 264.575999 
L 155.71782 264.98392 
L 158.603635 266.605774 
L 160.025317 267.263996 
L 161.489455 267.91735 
L 164.375273 269.027039 
L 167.261091 269.836293 
L 167.873832 269.952002 
L 170.146908 270.359343 
L 173.032726 270.795431 
L 175.918546 271.188158 
L 178.804364 271.508711 
L 181.690182 271.847954 
L 184.576 272.237981 
L 187.03531 272.639999 
L 187.461818 272.712985 
L 190.347637 273.24275 
L 193.233455 273.936206 
L 195.685928 275.327997 
L 196.119273 275.616126 
L 199.005091 277.547144 
L 199.715024 278.016003 
L 201.890909 279.475449 
L 203.473064 280.704 
L 204.776727 281.833737 
L 206.35459 283.391998 
L 207.662545 284.785375 
L 208.776557 286.080004 
L 210.350689 288.768001 
L 210.548363 289.209125 
L 211.389058 291.455998 
L 212.242638 294.143996 
L 213.056902 296.832002 
L 213.434182 298.053199 
L 213.871078 299.519999 
L 214.573162 302.207997 
L 215.226384 304.896003 
L 215.88998 307.584 
z
" style="fill:#21918c;"/>
   </g>
   <g id="matplotlib.axis_1">
    <g id="xtick_1">
     <g id="line2d_1">
      <defs>
       <path d="M 0 0 
L 0 3.5 
" id="mb53a206b02" style="stroke:#000000;stroke-width:0.8;"/>
      </defs>
      <g>
       <use style="stroke:#000000;stroke-width:0.8;" x="57.6" xlink:href="#mb53a206b02" y="307.584"/>
      </g>
     </g>
     <g id="text_1">
      <!-- −15 -->
      <g transform="translate(47.047656 322.182437)scale(0.1 -0.1)">
       <defs>
        <path d="M 10.59375 35.5 
L 73.1875 35.5 
L 73.1875 27.203125 
L 10.59375 27.203125 
z
" id="DejaVuSans-8722"/>
        <path d="M 12.40625 8.296875 
L 28.515625 8.296875 
L 28.515625 63.921875 
L 10.984375 60.40625 
L 10.984375 69.390625 
L 28.421875 72.90625 
L 38.28125 72.90625 
L 38.28125 8.296875 
L 54.390625 8.296875 
L 54.390625 0 
L 12.40625 0 
z
" id="DejaVuSans-49"/>
        <path d="M 10.796875 72.90625 
L 49.515625 72.90625 
L 49.515625 64.59375 
L 19.828125 64.59375 
L 19.828125 46.734375 
Q 21.96875 47.46875 24.109375 47.828125 
Q 26.265625 48.1875 28.421875 48.1875 
Q 40.625 48.1875 47.75 41.5 
Q 54.890625 34.8125 54.890625 23.390625 
Q 54.890625 11.625 47.5625 5.09375 
Q 40.234375 -1.421875 26.90625 -1.421875 
Q 22.3125 -1.421875 17.546875 -0.640625 
Q 12.796875 0.140625 7.71875 1.703125 
L 7.71875 11.625 
Q 12.109375 9.234375 16.796875 8.0625 
Q 21.484375 6.890625 26.703125 6.890625 
Q 35.15625 6.890625 40.078125 11.328125 
Q 45.015625 15.765625 45.015625 23.390625 
Q 45.015625 31 40.078125 35.4375 
Q 35.15625 39.890625 26.703125 39.890625 
Q 22.75 39.890625 18.8125 39.015625 
Q 14.890625 38.140625 10.796875 36.28125 
z
" id="DejaVuSans-53"/>
       </defs>
       <use xlink:href="#DejaVuSans-8722"/>
       <use x="83.789062" xlink:href="#DejaVuSans-49"/>
       <use x="147.412109" xlink:href="#DejaVuSans-53"/>
      </g>
     </g>
    </g>
    <g id="xtick_2">
     <g id="line2d_2">
      <g>
       <use style="stroke:#000000;stroke-width:0.8;" x="105.216" xlink:href="#mb53a206b02" y="307.584"/>
      </g>
     </g>
     <g id="text_2">
      <!-- −10 -->
      <g transform="translate(94.663656 322.182437)scale(0.1 -0.1)">
       <defs>
        <path d="M 31.78125 66.40625 
Q 24.171875 66.40625 20.328125 58.90625 
Q 16.5 51.421875 16.5 36.375 
Q 16.5 21.390625 20.328125 13.890625 
Q 24.171875 6.390625 31.78125 6.390625 
Q 39.453125 6.390625 43.28125 13.890625 
Q 47.125 21.390625 47.125 36.375 
Q 47.125 51.421875 43.28125 58.90625 
Q 39.453125 66.40625 31.78125 66.40625 
z
M 31.78125 74.21875 
Q 44.046875 74.21875 50.515625 64.515625 
Q 56.984375 54.828125 56.984375 36.375 
Q 56.984375 17.96875 50.515625 8.265625 
Q 44.046875 -1.421875 31.78125 -1.421875 
Q 19.53125 -1.421875 13.0625 8.265625 
Q 6.59375 17.96875 6.59375 36.375 
Q 6.59375 54.828125 13.0625 64.515625 
Q 19.53125 74.21875 31.78125 74.21875 
z
" id="DejaVuSans-48"/>
       </defs>
       <use xlink:href="#DejaVuSans-8722"/>
       <use x="83.789062" xlink:href="#DejaVuSans-49"/>
       <use x="147.412109" xlink:href="#DejaVuSans-48"/>
      </g>
     </g>
    </g>
    <g id="xtick_3">
     <g id="line2d_3">
      <g>
       <use style="stroke:#000000;stroke-width:0.8;" x="152.832" xlink:href="#mb53a206b02" y="307.584"/>
      </g>
     </g>
     <g id="text_3">
      <!-- −5 -->
      <g transform="translate(145.460906 322.182437)scale(0.1 -0.1)">
       <use xlink:href="#DejaVuSans-8722"/>
       <use x="83.789062" xlink:href="#DejaVuSans-53"/>
      </g>
     </g>
    </g>
    <g id="xtick_4">
     <g id="line2d_4">
      <g>
       <use style="stroke:#000000;stroke-width:0.8;" x="200.448" xlink:href="#mb53a206b02" y="307.584"/>
      </g>
     </g>
     <g id="text_4">
      <!-- 0 -->
      <g transform="translate(197.26675 322.182437)scale(0.1 -0.1)">
       <use xlink:href="#DejaVuSans-48"/>
      </g>
     </g>
    </g>
    <g id="xtick_5">
     <g id="line2d_5">
      <g>
       <use style="stroke:#000000;stroke-width:0.8;" x="248.064" xlink:href="#mb53a206b02" y="307.584"/>
      </g>
     </g>
     <g id="text_5">
      <!-- 5 -->
      <g transform="translate(244.88275 322.182437)scale(0.1 -0.1)">
       <use xlink:href="#DejaVuSans-53"/>
      </g>
     </g>
    </g>
    <g id="xtick_6">
     <g id="line2d_6">
      <g>
       <use style="stroke:#000000;stroke-width:0.8;" x="295.68" xlink:href="#mb53a206b02" y="307.584"/>
      </g>
     </g>
     <g id="text_6">
      <!-- 10 -->
      <g transform="translate(289.3175 322.182437)scale(0.1 -0.1)">
       <use xlink:href="#DejaVuSans-49"/>
       <use x="63.623047" xlink:href="#DejaVuSans-48"/>
      </g>
     </g>
    </g>
    <g id="xtick_7">
     <g id="line2d_7">
      <g>
       <use style="stroke:#000000;stroke-width:0.8;" x="343.296" xlink:href="#mb53a206b02" y="307.584"/>
      </g>
     </g>
     <g id="text_7">
      <!-- 15 -->
      <g transform="translate(336.9335 322.182437)scale(0.1 -0.1)">
       <use xlink:href="#DejaVuSans-49"/>
       <use x="63.623047" xlink:href="#DejaVuSans-53"/>
      </g>
     </g>
    </g>
    <g id="text_8">
     <!-- x -->
     <g transform="translate(197.488625 335.860562)scale(0.1 -0.1)">
      <defs>
       <path d="M 54.890625 54.6875 
L 35.109375 28.078125 
L 55.90625 0 
L 45.3125 0 
L 29.390625 21.484375 
L 13.484375 0 
L 2.875 0 
L 24.125 28.609375 
L 4.6875 54.6875 
L 15.28125 54.6875 
L 29.78125 35.203125 
L 44.28125 54.6875 
z
" id="DejaVuSans-120"/>
      </defs>
      <use xlink:href="#DejaVuSans-120"/>
     </g>
    </g>
   </g>
   <g id="matplotlib.axis_2">
    <g id="ytick_1">
     <g id="line2d_8">
      <defs>
       <path d="M 0 0 
L -3.5 0 
" id="m80865cc691" style="stroke:#000000;stroke-width:0.8;"/>
      </defs>
      <g>
       <use style="stroke:#000000;stroke-width:0.8;" x="57.6" xlink:href="#m80865cc691" y="307.584"/>
      </g>
     </g>
     <g id="text_9">
      <!-- −15 -->
      <g transform="translate(29.495313 311.383219)scale(0.1 -0.1)">
       <use xlink:href="#DejaVuSans-8722"/>
       <use x="83.789062" xlink:href="#DejaVuSans-49"/>
       <use x="147.412109" xlink:href="#DejaVuSans-53"/>
      </g>
     </g>
    </g>
    <g id="ytick_2">
     <g id="line2d_9">
      <g>
       <use style="stroke:#000000;stroke-width:0.8;" x="57.6" xlink:href="#m80865cc691" y="263.232"/>
      </g>
     </g>
     <g id="text_10">
      <!-- −10 -->
      <g transform="translate(29.495313 267.031219)scale(0.1 -0.1)">
       <use xlink:href="#DejaVuSans-8722"/>
       <use x="83.789062" xlink:href="#DejaVuSans-49"/>
       <use x="147.412109" xlink:href="#DejaVuSans-48"/>
      </g>
     </g>
    </g>
    <g id="ytick_3">
     <g id="line2d_10">
      <g>
       <use style="stroke:#000000;stroke-width:0.8;" x="57.6" xlink:href="#m80865cc691" y="218.88"/>
      </g>
     </g>
     <g id="text_11">
      <!-- −5 -->
      <g transform="translate(35.857813 222.679219)scale(0.1 -0.1)">
       <use xlink:href="#DejaVuSans-8722"/>
       <use x="83.789062" xlink:href="#DejaVuSans-53"/>
      </g>
     </g>
    </g>
    <g id="ytick_4">
     <g id="line2d_11">
      <g>
       <use style="stroke:#000000;stroke-width:0.8;" x="57.6" xlink:href="#m80865cc691" y="174.528"/>
      </g>
     </g>
     <g id="text_12">
      <!-- 0 -->
      <g transform="translate(44.2375 178.327219)scale(0.1 -0.1)">
       <use xlink:href="#DejaVuSans-48"/>
      </g>
     </g>
    </g>
    <g id="ytick_5">
     <g id="line2d_12">
      <g>
       <use style="stroke:#000000;stroke-width:0.8;" x="57.6" xlink:href="#m80865cc691" y="130.176"/>
      </g>
     </g>
     <g id="text_13">
      <!-- 5 -->
      <g transform="translate(44.2375 133.975219)scale(0.1 -0.1)">
       <use xlink:href="#DejaVuSans-53"/>
      </g>
     </g>
    </g>
    <g id="ytick_6">
     <g id="line2d_13">
      <g>
       <use style="stroke:#000000;stroke-width:0.8;" x="57.6" xlink:href="#m80865cc691" y="85.824"/>
      </g>
     </g>
     <g id="text_14">
      <!-- 10 -->
      <g transform="translate(37.875 89.623219)scale(0.1 -0.1)">
       <use xlink:href="#DejaVuSans-49"/>
       <use x="63.623047" xlink:href="#DejaVuSans-48"/>
      </g>
     </g>
    </g>
    <g id="ytick_7">
     <g id="line2d_14">
      <g>
       <use style="stroke:#000000;stroke-width:0.8;" x="57.6" xlink:href="#m80865cc691" y="41.472"/>
      </g>
     </g>
     <g id="text_15">
      <!-- 15 -->
      <g transform="translate(37.875 45.271219)scale(0.1 -0.1)">
       <use xlink:href="#DejaVuSans-49"/>
       <use x="63.623047" xlink:href="#DejaVuSans-53"/>
      </g>
     </g>
    </g>
    <g id="text_16">
     <!-- y -->
     <g transform="translate(22.535937 172.448312)scale(0.1 -0.1)">
      <defs>
       <path d="M 32.171875 -5.078125 
Q 28.375 -14.84375 24.75 -17.8125 
Q 21.140625 -20.796875 15.09375 -20.796875 
L 7.90625 -20.796875 
L 7.90625 -13.28125 
L 13.1875 -13.28125 
Q 16.890625 -13.28125 18.9375 -11.515625 
Q 21 -9.765625 23.484375 -3.21875 
L 25.09375 0.875 
L 2.984375 54.6875 
L 12.5 54.6875 
L 29.59375 11.921875 
L 46.6875 54.6875 
L 56.203125 54.6875 
z
" id="DejaVuSans-121"/>
      </defs>
      <use xlink:href="#DejaVuSans-121"/>
     </g>
    </g>
   </g>
   <g id="line2d_15">
    <defs>
     <path d="M 0 3 
C 0.795609 3 1.55874 2.683901 2.12132 2.12132 
C 2.683901 1.55874 3 0.795609 3 0 
C 3 -0.795609 2.683901 -1.55874 2.12132 -2.12132 
C 1.55874 -2.683901 0.795609 -3 0 -3 
C -0.795609 -3 -1.55874 -2.683901 -2.12132 -2.12132 
C -2.683901 -1.55874 -3 -0.795609 -3 0 
C -3 0.795609 -2.683901 1.55874 -2.12132 2.12132 
C -1.55874 2.683901 -0.795609 3 0 3 
z
" id="m06d6d62275" style="stroke:#000000;"/>
    </defs>
    <g clip-path="url(#p2fcf69b1ce)">
     <use style="fill:#ff0000;stroke:#000000;" x="180.888211" xlink:href="#m06d6d62275" y="285.969015"/>
     <use style="fill:#ff0000;stroke:#000000;" x="183.036171" xlink:href="#m06d6d62275" y="142.902238"/>
     <use style="fill:#ff0000;stroke:#000000;" x="99.668441" xlink:href="#m06d6d62275" y="144.860955"/>
     <use style="fill:#ff0000;stroke:#000000;" x="280.501955" xlink:href="#m06d6d62275" y="162.613446"/>
     <use style="fill:#ff0000;stroke:#000000;" x="214.798557" xlink:href="#m06d6d62275" y="235.209417"/>
     <use style="fill:#ff0000;stroke:#000000;" x="137.807877" xlink:href="#m06d6d62275" y="101.70254"/>
     <use style="fill:#ff0000;stroke:#000000;" x="171.610566" xlink:href="#m06d6d62275" y="223.771085"/>
     <use style="fill:#ff0000;stroke:#000000;" x="279.120042" xlink:href="#m06d6d62275" y="171.502609"/>
     <use style="fill:#ff0000;stroke:#000000;" x="232.679007" xlink:href="#m06d6d62275" y="231.620968"/>
     <use style="fill:#ff0000;stroke:#000000;" x="278.345327" xlink:href="#m06d6d62275" y="171.842508"/>
     <use style="fill:#ff0000;stroke:#000000;" x="192.341694" xlink:href="#m06d6d62275" y="140.949193"/>
     <use style="fill:#ff0000;stroke:#000000;" x="281.015308" xlink:href="#m06d6d62275" y="173.481104"/>
     <use style="fill:#ff0000;stroke:#000000;" x="199.138741" xlink:href="#m06d6d62275" y="289.540732"/>
     <use style="fill:#ff0000;stroke:#000000;" x="149.927734" xlink:href="#m06d6d62275" y="181.25416"/>
     <use style="fill:#ff0000;stroke:#000000;" x="165.604535" xlink:href="#m06d6d62275" y="216.401116"/>
     <use style="fill:#ff0000;stroke:#000000;" x="164.891898" xlink:href="#m06d6d62275" y="151.932006"/>
     <use style="fill:#ff0000;stroke:#000000;" x="248.533473" xlink:href="#m06d6d62275" y="104.74364"/>
     <use style="fill:#ff0000;stroke:#000000;" x="161.541296" xlink:href="#m06d6d62275" y="211.531129"/>
     <use style="fill:#ff0000;stroke:#000000;" x="209.735815" xlink:href="#m06d6d62275" y="145.227472"/>
     <use style="fill:#ff0000;stroke:#000000;" x="151.576105" xlink:href="#m06d6d62275" y="177.078537"/>
     <use style="fill:#ff0000;stroke:#000000;" x="158.651348" xlink:href="#m06d6d62275" y="92.278645"/>
     <use style="fill:#ff0000;stroke:#000000;" x="196.192684" xlink:href="#m06d6d62275" y="141.706278"/>
     <use style="fill:#ff0000;stroke:#000000;" x="167.454288" xlink:href="#m06d6d62275" y="220.535041"/>
     <use style="fill:#ff0000;stroke:#000000;" x="163.790395" xlink:href="#m06d6d62275" y="281.170676"/>
     <use style="fill:#ff0000;stroke:#000000;" x="258.218833" xlink:href="#m06d6d62275" y="115.464156"/>
     <use style="fill:#ff0000;stroke:#000000;" x="208.379628" xlink:href="#m06d6d62275" y="146.468724"/>
     <use style="fill:#ff0000;stroke:#000000;" x="215.277046" xlink:href="#m06d6d62275" y="234.536204"/>
     <use style="fill:#ff0000;stroke:#000000;" x="258.283052" xlink:href="#m06d6d62275" y="215.065852"/>
     <use style="fill:#ff0000;stroke:#000000;" x="102.52919" xlink:href="#m06d6d62275" y="140.554316"/>
     <use style="fill:#ff0000;stroke:#000000;" x="184.54611" xlink:href="#m06d6d62275" y="141.915942"/>
     <use style="fill:#ff0000;stroke:#000000;" x="173.859423" xlink:href="#m06d6d62275" y="146.622418"/>
     <use style="fill:#ff0000;stroke:#000000;" x="214.882727" xlink:href="#m06d6d62275" y="150.961588"/>
     <use style="fill:#ff0000;stroke:#000000;" x="172.491553" xlink:href="#m06d6d62275" y="223.426649"/>
     <use style="fill:#ff0000;stroke:#000000;" x="153.265912" xlink:href="#m06d6d62275" y="200.946578"/>
     <use style="fill:#ff0000;stroke:#000000;" x="173.837982" xlink:href="#m06d6d62275" y="146.897912"/>
     <use style="fill:#ff0000;stroke:#000000;" x="278.90003" xlink:href="#m06d6d62275" y="158.525766"/>
     <use style="fill:#ff0000;stroke:#000000;" x="251.902589" xlink:href="#m06d6d62275" y="107.681141"/>
     <use style="fill:#ff0000;stroke:#000000;" x="229.414469" xlink:href="#m06d6d62275" y="231.421655"/>
     <use style="fill:#ff0000;stroke:#000000;" x="195.10246" xlink:href="#m06d6d62275" y="142.448631"/>
     <use style="fill:#ff0000;stroke:#000000;" x="126.572528" xlink:href="#m06d6d62275" y="259.535219"/>
     <use style="fill:#ff0000;stroke:#000000;" x="267.153054" xlink:href="#m06d6d62275" y="124.629699"/>
     <use style="fill:#ff0000;stroke:#000000;" x="89.874533" xlink:href="#m06d6d62275" y="181.633599"/>
     <use style="fill:#ff0000;stroke:#000000;" x="209.066389" xlink:href="#m06d6d62275" y="146.968085"/>
     <use style="fill:#ff0000;stroke:#000000;" x="120.578347" xlink:href="#m06d6d62275" y="252.321996"/>
     <use style="fill:#ff0000;stroke:#000000;" x="197.02476" xlink:href="#m06d6d62275" y="87.321064"/>
     <use style="fill:#ff0000;stroke:#000000;" x="276.932372" xlink:href="#m06d6d62275" y="178.225957"/>
     <use style="fill:#ff0000;stroke:#000000;" x="168.55167" xlink:href="#m06d6d62275" y="284.305274"/>
     <use style="fill:#ff0000;stroke:#000000;" x="180.584571" xlink:href="#m06d6d62275" y="227.660366"/>
     <use style="fill:#ff0000;stroke:#000000;" x="276.770684" xlink:href="#m06d6d62275" y="186.341602"/>
     <use style="fill:#ff0000;stroke:#000000;" x="264.645042" xlink:href="#m06d6d62275" y="210.331487"/>
     <use style="fill:#ff0000;stroke:#000000;" x="114.775882" xlink:href="#m06d6d62275" y="247.931216"/>
     <use style="fill:#ff0000;stroke:#000000;" x="147.359204" xlink:href="#m06d6d62275" y="274.202946"/>
     <use style="fill:#ff0000;stroke:#000000;" x="201.956654" xlink:href="#m06d6d62275" y="231.787184"/>
     <use style="fill:#ff0000;stroke:#000000;" x="153.940235" xlink:href="#m06d6d62275" y="167.586282"/>
     <use style="fill:#ff0000;stroke:#000000;" x="201.43217" xlink:href="#m06d6d62275" y="233.297623"/>
     <use style="fill:#ff0000;stroke:#000000;" x="151.217138" xlink:href="#m06d6d62275" y="180.032338"/>
     <use style="fill:#ff0000;stroke:#000000;" x="153.867038" xlink:href="#m06d6d62275" y="198.477427"/>
     <use style="fill:#ff0000;stroke:#000000;" x="265.020093" xlink:href="#m06d6d62275" y="207.52338"/>
     <use style="fill:#ff0000;stroke:#000000;" x="244.500552" xlink:href="#m06d6d62275" y="223.898324"/>
     <use style="fill:#ff0000;stroke:#000000;" x="175.934101" xlink:href="#m06d6d62275" y="144.560705"/>
     <use style="fill:#ff0000;stroke:#000000;" x="221.71707" xlink:href="#m06d6d62275" y="166.188335"/>
     <use style="fill:#ff0000;stroke:#000000;" x="161.272077" xlink:href="#m06d6d62275" y="156.722834"/>
     <use style="fill:#ff0000;stroke:#000000;" x="174.852761" xlink:href="#m06d6d62275" y="145.786142"/>
     <use style="fill:#ff0000;stroke:#000000;" x="176.574993" xlink:href="#m06d6d62275" y="145.318826"/>
     <use style="fill:#ff0000;stroke:#000000;" x="220.939762" xlink:href="#m06d6d62275" y="163.012983"/>
     <use style="fill:#ff0000;stroke:#000000;" x="161.402023" xlink:href="#m06d6d62275" y="210.34899"/>
     <use style="fill:#ff0000;stroke:#000000;" x="250.908592" xlink:href="#m06d6d62275" y="221.883096"/>
     <use style="fill:#ff0000;stroke:#000000;" x="262.711309" xlink:href="#m06d6d62275" y="212.920813"/>
     <use style="fill:#ff0000;stroke:#000000;" x="162.899332" xlink:href="#m06d6d62275" y="152.29551"/>
     <use style="fill:#ff0000;stroke:#000000;" x="159.540206" xlink:href="#m06d6d62275" y="92.257522"/>
     <use style="fill:#ff0000;stroke:#000000;" x="251.582915" xlink:href="#m06d6d62275" y="222.880282"/>
     <use style="fill:#ff0000;stroke:#000000;" x="222.422299" xlink:href="#m06d6d62275" y="170.310236"/>
     <use style="fill:#ff0000;stroke:#000000;" x="149.045433" xlink:href="#m06d6d62275" y="182.012793"/>
     <use style="fill:#ff0000;stroke:#000000;" x="187.820584" xlink:href="#m06d6d62275" y="143.218794"/>
     <use style="fill:#ff0000;stroke:#000000;" x="206.513622" xlink:href="#m06d6d62275" y="146.158078"/>
     <use style="fill:#ff0000;stroke:#000000;" x="154.423158" xlink:href="#m06d6d62275" y="278.843534"/>
     <use style="fill:#ff0000;stroke:#000000;" x="211.054511" xlink:href="#m06d6d62275" y="146.474147"/>
     <use style="fill:#ff0000;stroke:#000000;" x="208.628956" xlink:href="#m06d6d62275" y="147.087719"/>
     <use style="fill:#ff0000;stroke:#000000;" x="151.519869" xlink:href="#m06d6d62275" y="178.36088"/>
     <use style="fill:#ff0000;stroke:#000000;" x="247.090261" xlink:href="#m06d6d62275" y="105.423854"/>
     <use style="fill:#ff0000;stroke:#000000;" x="219.185229" xlink:href="#m06d6d62275" y="155.049022"/>
     <use style="fill:#ff0000;stroke:#000000;" x="152.744004" xlink:href="#m06d6d62275" y="198.222378"/>
     <use style="fill:#ff0000;stroke:#000000;" x="227.453602" xlink:href="#m06d6d62275" y="233.472633"/>
     <use style="fill:#ff0000;stroke:#000000;" x="150.576877" xlink:href="#m06d6d62275" y="186.259522"/>
     <use style="fill:#ff0000;stroke:#000000;" x="142.388173" xlink:href="#m06d6d62275" y="98.25017"/>
     <use style="fill:#ff0000;stroke:#000000;" x="90.593939" xlink:href="#m06d6d62275" y="179.966387"/>
     <use style="fill:#ff0000;stroke:#000000;" x="133.753095" xlink:href="#m06d6d62275" y="265.532993"/>
     <use style="fill:#ff0000;stroke:#000000;" x="263.047976" xlink:href="#m06d6d62275" y="210.842004"/>
     <use style="fill:#ff0000;stroke:#000000;" x="136.692095" xlink:href="#m06d6d62275" y="267.599905"/>
     <use style="fill:#ff0000;stroke:#000000;" x="188.760094" xlink:href="#m06d6d62275" y="288.728351"/>
     <use style="fill:#ff0000;stroke:#000000;" x="92.826711" xlink:href="#m06d6d62275" y="193.158208"/>
     <use style="fill:#ff0000;stroke:#000000;" x="218.041582" xlink:href="#m06d6d62275" y="235.108259"/>
     <use style="fill:#ff0000;stroke:#000000;" x="161.5038" xlink:href="#m06d6d62275" y="157.402471"/>
     <use style="fill:#ff0000;stroke:#000000;" x="152.097341" xlink:href="#m06d6d62275" y="173.128542"/>
     <use style="fill:#ff0000;stroke:#000000;" x="166.215592" xlink:href="#m06d6d62275" y="283.042097"/>
     <use style="fill:#ff0000;stroke:#000000;" x="273.134988" xlink:href="#m06d6d62275" y="194.296157"/>
     <use style="fill:#ff0000;stroke:#000000;" x="212.012347" xlink:href="#m06d6d62275" y="146.953609"/>
     <use style="fill:#ff0000;stroke:#000000;" x="232.902886" xlink:href="#m06d6d62275" y="230.037461"/>
     <use style="fill:#ff0000;stroke:#000000;" x="243.927112" xlink:href="#m06d6d62275" y="103.681376"/>
     <use style="fill:#ff0000;stroke:#000000;" x="125.77934" xlink:href="#m06d6d62275" y="110.83883"/>
     <use style="fill:#ff0000;stroke:#000000;" x="91.124157" xlink:href="#m06d6d62275" y="206.030179"/>
     <use style="fill:#ff0000;stroke:#000000;" x="173.071849" xlink:href="#m06d6d62275" y="224.423831"/>
     <use style="fill:#ff0000;stroke:#000000;" x="111.160444" xlink:href="#m06d6d62275" y="123.613183"/>
     <use style="fill:#ff0000;stroke:#000000;" x="99.242158" xlink:href="#m06d6d62275" y="220.961517"/>
     <use style="fill:#ff0000;stroke:#000000;" x="163.058154" xlink:href="#m06d6d62275" y="90.682859"/>
     <use style="fill:#ff0000;stroke:#000000;" x="151.77442" xlink:href="#m06d6d62275" y="179.252511"/>
     <use style="fill:#ff0000;stroke:#000000;" x="135.004572" xlink:href="#m06d6d62275" y="104.558632"/>
     <use style="fill:#ff0000;stroke:#000000;" x="264.396171" xlink:href="#m06d6d62275" y="208.267547"/>
     <use style="fill:#ff0000;stroke:#000000;" x="191.322675" xlink:href="#m06d6d62275" y="87.469359"/>
     <use style="fill:#ff0000;stroke:#000000;" x="254.461869" xlink:href="#m06d6d62275" y="218.722929"/>
     <use style="fill:#ff0000;stroke:#000000;" x="210.786668" xlink:href="#m06d6d62275" y="147.66806"/>
     <use style="fill:#ff0000;stroke:#000000;" x="179.916395" xlink:href="#m06d6d62275" y="288.232787"/>
     <use style="fill:#ff0000;stroke:#000000;" x="220.131532" xlink:href="#m06d6d62275" y="159.272088"/>
     <use style="fill:#ff0000;stroke:#000000;" x="158.632707" xlink:href="#m06d6d62275" y="159.931736"/>
     <use style="fill:#ff0000;stroke:#000000;" x="190.524616" xlink:href="#m06d6d62275" y="232.98722"/>
     <use style="fill:#ff0000;stroke:#000000;" x="152.976232" xlink:href="#m06d6d62275" y="197.354193"/>
     <use style="fill:#ff0000;stroke:#000000;" x="262.279427" xlink:href="#m06d6d62275" y="116.975568"/>
     <use style="fill:#ff0000;stroke:#000000;" x="276.66763" xlink:href="#m06d6d62275" y="182.972933"/>
     <use style="fill:#ff0000;stroke:#000000;" x="189.976164" xlink:href="#m06d6d62275" y="86.994554"/>
     <use style="fill:#ff0000;stroke:#000000;" x="218.231597" xlink:href="#m06d6d62275" y="152.446704"/>
     <use style="fill:#ff0000;stroke:#000000;" x="220.865174" xlink:href="#m06d6d62275" y="160.237934"/>
     <use style="fill:#ff0000;stroke:#000000;" x="279.146925" xlink:href="#m06d6d62275" y="181.706188"/>
     <use style="fill:#ff0000;stroke:#000000;" x="94.239403" xlink:href="#m06d6d62275" y="161.248653"/>
     <use style="fill:#ff0000;stroke:#000000;" x="220.02853" xlink:href="#m06d6d62275" y="158.721659"/>
     <use style="fill:#ff0000;stroke:#000000;" x="92.862149" xlink:href="#m06d6d62275" y="157.864135"/>
     <use style="fill:#ff0000;stroke:#000000;" x="116.558494" xlink:href="#m06d6d62275" y="119.312366"/>
     <use style="fill:#ff0000;stroke:#000000;" x="195.369992" xlink:href="#m06d6d62275" y="141.900087"/>
     <use style="fill:#ff0000;stroke:#000000;" x="186.480827" xlink:href="#m06d6d62275" y="229.952629"/>
     <use style="fill:#ff0000;stroke:#000000;" x="172.871983" xlink:href="#m06d6d62275" y="145.70885"/>
     <use style="fill:#ff0000;stroke:#000000;" x="127.091189" xlink:href="#m06d6d62275" y="263.354958"/>
     <use style="fill:#ff0000;stroke:#000000;" x="113.76933" xlink:href="#m06d6d62275" y="122.270944"/>
     <use style="fill:#ff0000;stroke:#000000;" x="257.819886" xlink:href="#m06d6d62275" y="112.98224"/>
     <use style="fill:#ff0000;stroke:#000000;" x="189.033485" xlink:href="#m06d6d62275" y="141.176796"/>
     <use style="fill:#ff0000;stroke:#000000;" x="130.106315" xlink:href="#m06d6d62275" y="258.9399"/>
     <use style="fill:#ff0000;stroke:#000000;" x="133.206943" xlink:href="#m06d6d62275" y="102.88053"/>
     <use style="fill:#ff0000;stroke:#000000;" x="193.849263" xlink:href="#m06d6d62275" y="86.829967"/>
     <use style="fill:#ff0000;stroke:#000000;" x="214.13755" xlink:href="#m06d6d62275" y="148.303876"/>
     <use style="fill:#ff0000;stroke:#000000;" x="150.831764" xlink:href="#m06d6d62275" y="174.464717"/>
     <use style="fill:#ff0000;stroke:#000000;" x="168.625979" xlink:href="#m06d6d62275" y="149.064778"/>
     <use style="fill:#ff0000;stroke:#000000;" x="111.816811" xlink:href="#m06d6d62275" y="123.082508"/>
     <use style="fill:#ff0000;stroke:#000000;" x="204.044065" xlink:href="#m06d6d62275" y="235.359488"/>
     <use style="fill:#ff0000;stroke:#000000;" x="151.090988" xlink:href="#m06d6d62275" y="172.979377"/>
     <use style="fill:#ff0000;stroke:#000000;" x="187.469835" xlink:href="#m06d6d62275" y="230.10943"/>
     <use style="fill:#ff0000;stroke:#000000;" x="153.044147" xlink:href="#m06d6d62275" y="194.503315"/>
     <use style="fill:#ff0000;stroke:#000000;" x="205.596314" xlink:href="#m06d6d62275" y="87.457397"/>
     <use style="fill:#ff0000;stroke:#000000;" x="101.307966" xlink:href="#m06d6d62275" y="140.246865"/>
     <use style="fill:#ff0000;stroke:#000000;" x="168.190139" xlink:href="#m06d6d62275" y="283.451535"/>
     <use style="fill:#ff0000;stroke:#000000;" x="102.103161" xlink:href="#m06d6d62275" y="137.156698"/>
     <use style="fill:#ff0000;stroke:#000000;" x="216.172528" xlink:href="#m06d6d62275" y="152.558532"/>
     <use style="fill:#ff0000;stroke:#000000;" x="266.816319" xlink:href="#m06d6d62275" y="126.017175"/>
     <use style="fill:#ff0000;stroke:#000000;" x="98.135049" xlink:href="#m06d6d62275" y="217.509891"/>
     <use style="fill:#ff0000;stroke:#000000;" x="97.940149" xlink:href="#m06d6d62275" y="218.007558"/>
     <use style="fill:#ff0000;stroke:#000000;" x="180.366839" xlink:href="#m06d6d62275" y="143.087721"/>
     <use style="fill:#ff0000;stroke:#000000;" x="198.000545" xlink:href="#m06d6d62275" y="289.737448"/>
     <use style="fill:#ff0000;stroke:#000000;" x="213.475378" xlink:href="#m06d6d62275" y="150.072157"/>
     <use style="fill:#ff0000;stroke:#000000;" x="166.749321" xlink:href="#m06d6d62275" y="217.628924"/>
     <use style="fill:#ff0000;stroke:#000000;" x="228.369565" xlink:href="#m06d6d62275" y="230.922284"/>
     <use style="fill:#ff0000;stroke:#000000;" x="175.065884" xlink:href="#m06d6d62275" y="144.493108"/>
     <use style="fill:#ff0000;stroke:#000000;" x="268.057356" xlink:href="#m06d6d62275" y="205.832295"/>
     <use style="fill:#ff0000;stroke:#000000;" x="258.921414" xlink:href="#m06d6d62275" y="213.980646"/>
     <use style="fill:#ff0000;stroke:#000000;" x="184.016914" xlink:href="#m06d6d62275" y="143.013019"/>
     <use style="fill:#ff0000;stroke:#000000;" x="277.478538" xlink:href="#m06d6d62275" y="183.063559"/>
     <use style="fill:#ff0000;stroke:#000000;" x="162.498437" xlink:href="#m06d6d62275" y="90.468284"/>
     <use style="fill:#ff0000;stroke:#000000;" x="149.512381" xlink:href="#m06d6d62275" y="94.893739"/>
     <use style="fill:#ff0000;stroke:#000000;" x="151.817941" xlink:href="#m06d6d62275" y="186.628687"/>
     <use style="fill:#ff0000;stroke:#000000;" x="209.228575" xlink:href="#m06d6d62275" y="86.994656"/>
     <use style="fill:#ff0000;stroke:#000000;" x="151.337475" xlink:href="#m06d6d62275" y="188.268304"/>
     <use style="fill:#ff0000;stroke:#000000;" x="278.960998" xlink:href="#m06d6d62275" y="157.331481"/>
     <use style="fill:#ff0000;stroke:#000000;" x="151.493091" xlink:href="#m06d6d62275" y="186.459389"/>
     <use style="fill:#ff0000;stroke:#000000;" x="106.531678" xlink:href="#m06d6d62275" y="236.727402"/>
     <use style="fill:#ff0000;stroke:#000000;" x="200.955677" xlink:href="#m06d6d62275" y="143.466496"/>
     <use style="fill:#ff0000;stroke:#000000;" x="190.0579" xlink:href="#m06d6d62275" y="232.09664"/>
     <use style="fill:#ff0000;stroke:#000000;" x="279.77097" xlink:href="#m06d6d62275" y="181.152778"/>
     <use style="fill:#ff0000;stroke:#000000;" x="278.588189" xlink:href="#m06d6d62275" y="151.67413"/>
     <use style="fill:#ff0000;stroke:#000000;" x="279.546162" xlink:href="#m06d6d62275" y="163.495824"/>
     <use style="fill:#ff0000;stroke:#000000;" x="259.019836" xlink:href="#m06d6d62275" y="215.497607"/>
     <use style="fill:#ff0000;stroke:#000000;" x="166.422031" xlink:href="#m06d6d62275" y="151.432089"/>
     <use style="fill:#ff0000;stroke:#000000;" x="92.07094" xlink:href="#m06d6d62275" y="167.719219"/>
     <use style="fill:#ff0000;stroke:#000000;" x="101.987819" xlink:href="#m06d6d62275" y="227.045193"/>
     <use style="fill:#ff0000;stroke:#000000;" x="209.503754" xlink:href="#m06d6d62275" y="88.581213"/>
     <use style="fill:#ff0000;stroke:#000000;" x="197.171401" xlink:href="#m06d6d62275" y="142.705579"/>
     <use style="fill:#ff0000;stroke:#000000;" x="280.234816" xlink:href="#m06d6d62275" y="170.183094"/>
     <use style="fill:#ff0000;stroke:#000000;" x="186.595127" xlink:href="#m06d6d62275" y="230.394319"/>
     <use style="fill:#ff0000;stroke:#000000;" x="196.491298" xlink:href="#m06d6d62275" y="141.706695"/>
     <use style="fill:#ff0000;stroke:#000000;" x="267.806865" xlink:href="#m06d6d62275" y="204.768081"/>
     <use style="fill:#ff0000;stroke:#000000;" x="198.386885" xlink:href="#m06d6d62275" y="141.681462"/>
     <use style="fill:#ff0000;stroke:#000000;" x="96.927802" xlink:href="#m06d6d62275" y="146.628073"/>
     <use style="fill:#ff0000;stroke:#000000;" x="141.768705" xlink:href="#m06d6d62275" y="270.533345"/>
     <use style="fill:#ff0000;stroke:#000000;" x="210.815678" xlink:href="#m06d6d62275" y="149.110317"/>
     <use style="fill:#ff0000;stroke:#000000;" x="126.537912" xlink:href="#m06d6d62275" y="257.625036"/>
     <use style="fill:#ff0000;stroke:#000000;" x="242.373517" xlink:href="#m06d6d62275" y="100.972581"/>
     <use style="fill:#ff0000;stroke:#000000;" x="274.644404" xlink:href="#m06d6d62275" y="135.65872"/>
     <use style="fill:#ff0000;stroke:#000000;" x="217.322672" xlink:href="#m06d6d62275" y="234.629914"/>
     <use style="fill:#ff0000;stroke:#000000;" x="192.764871" xlink:href="#m06d6d62275" y="142.343604"/>
     <use style="fill:#ff0000;stroke:#000000;" x="199.084379" xlink:href="#m06d6d62275" y="142.20989"/>
     <use style="fill:#ff0000;stroke:#000000;" x="171.146565" xlink:href="#m06d6d62275" y="283.356409"/>
     <use style="fill:#ff0000;stroke:#000000;" x="220.488306" xlink:href="#m06d6d62275" y="161.084689"/>
     <use style="fill:#ff0000;stroke:#000000;" x="162.702408" xlink:href="#m06d6d62275" y="213.182118"/>
     <use style="fill:#ff0000;stroke:#000000;" x="187.23192" xlink:href="#m06d6d62275" y="229.512601"/>
     <use style="fill:#ff0000;stroke:#000000;" x="221.334145" xlink:href="#m06d6d62275" y="163.194074"/>
    </g>
   </g>
   <g id="line2d_16">
    <defs>
     <path d="M 0 3 
C 0.795609 3 1.55874 2.683901 2.12132 2.12132 
C 2.683901 1.55874 3 0.795609 3 0 
C 3 -0.795609 2.683901 -1.55874 2.12132 -2.12132 
C 1.55874 -2.683901 0.795609 -3 0 -3 
C -0.795609 -3 -1.55874 -2.683901 -2.12132 -2.12132 
C -2.683901 -1.55874 -3 -0.795609 -3 0 
C -3 0.795609 -2.683901 1.55874 -2.12132 2.12132 
C -1.55874 2.683901 -0.795609 3 0 3 
z
" id="mcb9f71fbb4" style="stroke:#000000;"/>
    </defs>
    <g clip-path="url(#p2fcf69b1ce)">
     <use style="fill:#0000ff;stroke:#000000;" x="204.049468" xlink:href="#mcb9f71fbb4" y="206.296879"/>
     <use style="fill:#0000ff;stroke:#000000;" x="184.353244" xlink:href="#mcb9f71fbb4" y="194.963715"/>
     <use style="fill:#0000ff;stroke:#000000;" x="267.215356" xlink:href="#mcb9f71fbb4" y="243.142072"/>
     <use style="fill:#0000ff;stroke:#000000;" x="179.634838" xlink:href="#mcb9f71fbb4" y="178.680165"/>
     <use style="fill:#0000ff;stroke:#000000;" x="227.524487" xlink:href="#mcb9f71fbb4" y="124.561444"/>
     <use style="fill:#0000ff;stroke:#000000;" x="186.199781" xlink:href="#mcb9f71fbb4" y="259.664124"/>
     <use style="fill:#0000ff;stroke:#000000;" x="122.949565" xlink:href="#mcb9f71fbb4" y="160.568166"/>
     <use style="fill:#0000ff;stroke:#000000;" x="303.795712" xlink:href="#mcb9f71fbb4" y="126.458671"/>
     <use style="fill:#0000ff;stroke:#000000;" x="200.019615" xlink:href="#mcb9f71fbb4" y="206.687375"/>
     <use style="fill:#0000ff;stroke:#000000;" x="203.512046" xlink:href="#mcb9f71fbb4" y="261.631908"/>
     <use style="fill:#0000ff;stroke:#000000;" x="251.325739" xlink:href="#mcb9f71fbb4" y="73.998698"/>
     <use style="fill:#0000ff;stroke:#000000;" x="179.594716" xlink:href="#mcb9f71fbb4" y="182.990961"/>
     <use style="fill:#0000ff;stroke:#000000;" x="126.807485" xlink:href="#mcb9f71fbb4" y="158.667373"/>
     <use style="fill:#0000ff;stroke:#000000;" x="243.736839" xlink:href="#mcb9f71fbb4" y="141.147526"/>
     <use style="fill:#0000ff;stroke:#000000;" x="196.919384" xlink:href="#mcb9f71fbb4" y="260.816135"/>
     <use style="fill:#0000ff;stroke:#000000;" x="119.628239" xlink:href="#mcb9f71fbb4" y="181.860052"/>
     <use style="fill:#0000ff;stroke:#000000;" x="150.129801" xlink:href="#mcb9f71fbb4" y="243.207988"/>
     <use style="fill:#0000ff;stroke:#000000;" x="139.070488" xlink:href="#mcb9f71fbb4" y="230.374609"/>
     <use style="fill:#0000ff;stroke:#000000;" x="246.80529" xlink:href="#mcb9f71fbb4" y="148.139923"/>
     <use style="fill:#0000ff;stroke:#000000;" x="241.49597" xlink:href="#mcb9f71fbb4" y="190.17027"/>
     <use style="fill:#0000ff;stroke:#000000;" x="129.301379" xlink:href="#mcb9f71fbb4" y="212.673416"/>
     <use style="fill:#0000ff;stroke:#000000;" x="169.396113" xlink:href="#mcb9f71fbb4" y="117.27099"/>
     <use style="fill:#0000ff;stroke:#000000;" x="166.087527" xlink:href="#mcb9f71fbb4" y="252.058382"/>
     <use style="fill:#0000ff;stroke:#000000;" x="180.597273" xlink:href="#mcb9f71fbb4" y="258.60153"/>
     <use style="fill:#0000ff;stroke:#000000;" x="229.789291" xlink:href="#mcb9f71fbb4" y="66.356833"/>
     <use style="fill:#0000ff;stroke:#000000;" x="231.426275" xlink:href="#mcb9f71fbb4" y="202.535174"/>
     <use style="fill:#0000ff;stroke:#000000;" x="179.896231" xlink:href="#mcb9f71fbb4" y="184.456445"/>
     <use style="fill:#0000ff;stroke:#000000;" x="185.720026" xlink:href="#mcb9f71fbb4" y="197.231349"/>
     <use style="fill:#0000ff;stroke:#000000;" x="298.972772" xlink:href="#mcb9f71fbb4" y="208.013076"/>
     <use style="fill:#0000ff;stroke:#000000;" x="176.817333" xlink:href="#mcb9f71fbb4" y="115.55101"/>
     <use style="fill:#0000ff;stroke:#000000;" x="203.321996" xlink:href="#mcb9f71fbb4" y="206.794586"/>
     <use style="fill:#0000ff;stroke:#000000;" x="127.081853" xlink:href="#mcb9f71fbb4" y="213.588431"/>
     <use style="fill:#0000ff;stroke:#000000;" x="184.077487" xlink:href="#mcb9f71fbb4" y="194.82505"/>
     <use style="fill:#0000ff;stroke:#000000;" x="261.502691" xlink:href="#mcb9f71fbb4" y="80.913547"/>
     <use style="fill:#0000ff;stroke:#000000;" x="184.472487" xlink:href="#mcb9f71fbb4" y="196.615097"/>
     <use style="fill:#0000ff;stroke:#000000;" x="240.888555" xlink:href="#mcb9f71fbb4" y="139.54884"/>
     <use style="fill:#0000ff;stroke:#000000;" x="192.374921" xlink:href="#mcb9f71fbb4" y="115.338969"/>
     <use style="fill:#0000ff;stroke:#000000;" x="164.112643" xlink:href="#mcb9f71fbb4" y="251.725138"/>
     <use style="fill:#0000ff;stroke:#000000;" x="184.314624" xlink:href="#mcb9f71fbb4" y="260.41036"/>
     <use style="fill:#0000ff;stroke:#000000;" x="143.394026" xlink:href="#mcb9f71fbb4" y="133.284057"/>
     <use style="fill:#0000ff;stroke:#000000;" x="178.959755" xlink:href="#mcb9f71fbb4" y="185.504778"/>
     <use style="fill:#0000ff;stroke:#000000;" x="179.771139" xlink:href="#mcb9f71fbb4" y="187.172436"/>
     <use style="fill:#0000ff;stroke:#000000;" x="180.91637" xlink:href="#mcb9f71fbb4" y="194.332448"/>
     <use style="fill:#0000ff;stroke:#000000;" x="234.102607" xlink:href="#mcb9f71fbb4" y="67.228193"/>
     <use style="fill:#0000ff;stroke:#000000;" x="231.674855" xlink:href="#mcb9f71fbb4" y="198.669632"/>
     <use style="fill:#0000ff;stroke:#000000;" x="164.720885" xlink:href="#mcb9f71fbb4" y="119.630561"/>
     <use style="fill:#0000ff;stroke:#000000;" x="189.762167" xlink:href="#mcb9f71fbb4" y="200.314566"/>
     <use style="fill:#0000ff;stroke:#000000;" x="250.975954" xlink:href="#mcb9f71fbb4" y="170.621299"/>
     <use style="fill:#0000ff;stroke:#000000;" x="173.157756" xlink:href="#mcb9f71fbb4" y="116.701363"/>
     <use style="fill:#0000ff;stroke:#000000;" x="132.969053" xlink:href="#mcb9f71fbb4" y="144.054294"/>
     <use style="fill:#0000ff;stroke:#000000;" x="126.635176" xlink:href="#mcb9f71fbb4" y="211.318433"/>
     <use style="fill:#0000ff;stroke:#000000;" x="180.846077" xlink:href="#mcb9f71fbb4" y="191.288959"/>
     <use style="fill:#0000ff;stroke:#000000;" x="244.906114" xlink:href="#mcb9f71fbb4" y="187.641244"/>
     <use style="fill:#0000ff;stroke:#000000;" x="163.614991" xlink:href="#mcb9f71fbb4" y="250.584742"/>
     <use style="fill:#0000ff;stroke:#000000;" x="168.057785" xlink:href="#mcb9f71fbb4" y="116.726851"/>
     <use style="fill:#0000ff;stroke:#000000;" x="180.84422" xlink:href="#mcb9f71fbb4" y="189.682841"/>
     <use style="fill:#0000ff;stroke:#000000;" x="226.990743" xlink:href="#mcb9f71fbb4" y="260.846843"/>
     <use style="fill:#0000ff;stroke:#000000;" x="203.680521" xlink:href="#mcb9f71fbb4" y="116.371029"/>
     <use style="fill:#0000ff;stroke:#000000;" x="235.240188" xlink:href="#mcb9f71fbb4" y="131.61282"/>
     <use style="fill:#0000ff;stroke:#000000;" x="180.775137" xlink:href="#mcb9f71fbb4" y="187.25419"/>
     <use style="fill:#0000ff;stroke:#000000;" x="180.956635" xlink:href="#mcb9f71fbb4" y="186.590199"/>
     <use style="fill:#0000ff;stroke:#000000;" x="145.15831" xlink:href="#mcb9f71fbb4" y="237.339741"/>
     <use style="fill:#0000ff;stroke:#000000;" x="190.045233" xlink:href="#mcb9f71fbb4" y="199.607642"/>
     <use style="fill:#0000ff;stroke:#000000;" x="217.267923" xlink:href="#mcb9f71fbb4" y="118.29377"/>
     <use style="fill:#0000ff;stroke:#000000;" x="291.905771" xlink:href="#mcb9f71fbb4" y="108.696185"/>
     <use style="fill:#0000ff;stroke:#000000;" x="122.640912" xlink:href="#mcb9f71fbb4" y="176.405482"/>
     <use style="fill:#0000ff;stroke:#000000;" x="186.076308" xlink:href="#mcb9f71fbb4" y="197.869383"/>
     <use style="fill:#0000ff;stroke:#000000;" x="283.843443" xlink:href="#mcb9f71fbb4" y="228.942775"/>
     <use style="fill:#0000ff;stroke:#000000;" x="274.294895" xlink:href="#mcb9f71fbb4" y="238.549725"/>
     <use style="fill:#0000ff;stroke:#000000;" x="305.460312" xlink:href="#mcb9f71fbb4" y="191.639423"/>
     <use style="fill:#0000ff;stroke:#000000;" x="130.543328" xlink:href="#mcb9f71fbb4" y="148.926104"/>
     <use style="fill:#0000ff;stroke:#000000;" x="296.928589" xlink:href="#mcb9f71fbb4" y="212.429648"/>
     <use style="fill:#0000ff;stroke:#000000;" x="225.919426" xlink:href="#mcb9f71fbb4" y="203.761639"/>
     <use style="fill:#0000ff;stroke:#000000;" x="122.366662" xlink:href="#mcb9f71fbb4" y="168.685647"/>
     <use style="fill:#0000ff;stroke:#000000;" x="150.13787" xlink:href="#mcb9f71fbb4" y="128.302523"/>
     <use style="fill:#0000ff;stroke:#000000;" x="247.369452" xlink:href="#mcb9f71fbb4" y="178.2648"/>
     <use style="fill:#0000ff;stroke:#000000;" x="184.425616" xlink:href="#mcb9f71fbb4" y="196.060319"/>
     <use style="fill:#0000ff;stroke:#000000;" x="120.68032" xlink:href="#mcb9f71fbb4" y="183.089876"/>
     <use style="fill:#0000ff;stroke:#000000;" x="122.934625" xlink:href="#mcb9f71fbb4" y="167.448233"/>
     <use style="fill:#0000ff;stroke:#000000;" x="197.264833" xlink:href="#mcb9f71fbb4" y="261.795091"/>
     <use style="fill:#0000ff;stroke:#000000;" x="140.622835" xlink:href="#mcb9f71fbb4" y="138.443904"/>
     <use style="fill:#0000ff;stroke:#000000;" x="205.727803" xlink:href="#mcb9f71fbb4" y="206.109136"/>
     <use style="fill:#0000ff;stroke:#000000;" x="188.534968" xlink:href="#mcb9f71fbb4" y="258.906799"/>
     <use style="fill:#0000ff;stroke:#000000;" x="221.691321" xlink:href="#mcb9f71fbb4" y="62.866006"/>
     <use style="fill:#0000ff;stroke:#000000;" x="227.119767" xlink:href="#mcb9f71fbb4" y="202.897267"/>
     <use style="fill:#0000ff;stroke:#000000;" x="269.556677" xlink:href="#mcb9f71fbb4" y="85.098126"/>
     <use style="fill:#0000ff;stroke:#000000;" x="283.902086" xlink:href="#mcb9f71fbb4" y="230.913109"/>
     <use style="fill:#0000ff;stroke:#000000;" x="204.494632" xlink:href="#mcb9f71fbb4" y="207.191623"/>
     <use style="fill:#0000ff;stroke:#000000;" x="246.037081" xlink:href="#mcb9f71fbb4" y="181.765822"/>
     <use style="fill:#0000ff;stroke:#000000;" x="191.362322" xlink:href="#mcb9f71fbb4" y="114.380557"/>
     <use style="fill:#0000ff;stroke:#000000;" x="191.453503" xlink:href="#mcb9f71fbb4" y="202.787996"/>
     <use style="fill:#0000ff;stroke:#000000;" x="125.957929" xlink:href="#mcb9f71fbb4" y="164.212671"/>
     <use style="fill:#0000ff;stroke:#000000;" x="122.529785" xlink:href="#mcb9f71fbb4" y="167.033702"/>
     <use style="fill:#0000ff;stroke:#000000;" x="301.132379" xlink:href="#mcb9f71fbb4" y="202.460035"/>
     <use style="fill:#0000ff;stroke:#000000;" x="254.314799" xlink:href="#mcb9f71fbb4" y="75.847016"/>
     <use style="fill:#0000ff;stroke:#000000;" x="308.381993" xlink:href="#mcb9f71fbb4" y="150.438406"/>
     <use style="fill:#0000ff;stroke:#000000;" x="129.459443" xlink:href="#mcb9f71fbb4" y="216.258942"/>
     <use style="fill:#0000ff;stroke:#000000;" x="238.129034" xlink:href="#mcb9f71fbb4" y="134.27593"/>
     <use style="fill:#0000ff;stroke:#000000;" x="195.768579" xlink:href="#mcb9f71fbb4" y="114.226087"/>
     <use style="fill:#0000ff;stroke:#000000;" x="145.950173" xlink:href="#mcb9f71fbb4" y="238.972652"/>
     <use style="fill:#0000ff;stroke:#000000;" x="206.990574" xlink:href="#mcb9f71fbb4" y="206.463156"/>
     <use style="fill:#0000ff;stroke:#000000;" x="195.359097" xlink:href="#mcb9f71fbb4" y="204.086527"/>
     <use style="fill:#0000ff;stroke:#000000;" x="297.767768" xlink:href="#mcb9f71fbb4" y="213.547656"/>
     <use style="fill:#0000ff;stroke:#000000;" x="242.068969" xlink:href="#mcb9f71fbb4" y="189.38743"/>
     <use style="fill:#0000ff;stroke:#000000;" x="234.923495" xlink:href="#mcb9f71fbb4" y="130.831326"/>
     <use style="fill:#0000ff;stroke:#000000;" x="218.346079" xlink:href="#mcb9f71fbb4" y="119.933385"/>
     <use style="fill:#0000ff;stroke:#000000;" x="203.324587" xlink:href="#mcb9f71fbb4" y="206.552763"/>
     <use style="fill:#0000ff;stroke:#000000;" x="182.866448" xlink:href="#mcb9f71fbb4" y="194.453666"/>
     <use style="fill:#0000ff;stroke:#000000;" x="307.38593" xlink:href="#mcb9f71fbb4" y="148.098554"/>
     <use style="fill:#0000ff;stroke:#000000;" x="232.782492" xlink:href="#mcb9f71fbb4" y="130.821344"/>
     <use style="fill:#0000ff;stroke:#000000;" x="231.209803" xlink:href="#mcb9f71fbb4" y="127.695856"/>
     <use style="fill:#0000ff;stroke:#000000;" x="179.142819" xlink:href="#mcb9f71fbb4" y="179.907426"/>
     <use style="fill:#0000ff;stroke:#000000;" x="257.506742" xlink:href="#mcb9f71fbb4" y="78.530556"/>
     <use style="fill:#0000ff;stroke:#000000;" x="183.391093" xlink:href="#mcb9f71fbb4" y="194.96398"/>
     <use style="fill:#0000ff;stroke:#000000;" x="302.939213" xlink:href="#mcb9f71fbb4" y="202.138484"/>
     <use style="fill:#0000ff;stroke:#000000;" x="218.973064" xlink:href="#mcb9f71fbb4" y="206.660998"/>
     <use style="fill:#0000ff;stroke:#000000;" x="204.148558" xlink:href="#mcb9f71fbb4" y="116.02016"/>
     <use style="fill:#0000ff;stroke:#000000;" x="133.072129" xlink:href="#mcb9f71fbb4" y="144.382058"/>
     <use style="fill:#0000ff;stroke:#000000;" x="139.165618" xlink:href="#mcb9f71fbb4" y="231.171436"/>
     <use style="fill:#0000ff;stroke:#000000;" x="211.329606" xlink:href="#mcb9f71fbb4" y="207.910811"/>
     <use style="fill:#0000ff;stroke:#000000;" x="300.921767" xlink:href="#mcb9f71fbb4" y="126.573364"/>
     <use style="fill:#0000ff;stroke:#000000;" x="257.016063" xlink:href="#mcb9f71fbb4" y="250.915092"/>
     <use style="fill:#0000ff;stroke:#000000;" x="288.995534" xlink:href="#mcb9f71fbb4" y="220.5815"/>
     <use style="fill:#0000ff;stroke:#000000;" x="198.809166" xlink:href="#mcb9f71fbb4" y="113.880382"/>
     <use style="fill:#0000ff;stroke:#000000;" x="298.227047" xlink:href="#mcb9f71fbb4" y="210.230841"/>
     <use style="fill:#0000ff;stroke:#000000;" x="249.234483" xlink:href="#mcb9f71fbb4" y="165.26599"/>
     <use style="fill:#0000ff;stroke:#000000;" x="121.494451" xlink:href="#mcb9f71fbb4" y="184.730647"/>
     <use style="fill:#0000ff;stroke:#000000;" x="308.181516" xlink:href="#mcb9f71fbb4" y="177.978397"/>
     <use style="fill:#0000ff;stroke:#000000;" x="235.122476" xlink:href="#mcb9f71fbb4" y="196.851493"/>
     <use style="fill:#0000ff;stroke:#000000;" x="130.748351" xlink:href="#mcb9f71fbb4" y="218.949905"/>
     <use style="fill:#0000ff;stroke:#000000;" x="206.0518" xlink:href="#mcb9f71fbb4" y="206.399182"/>
     <use style="fill:#0000ff;stroke:#000000;" x="191.645221" xlink:href="#mcb9f71fbb4" y="201.515486"/>
     <use style="fill:#0000ff;stroke:#000000;" x="160.87249" xlink:href="#mcb9f71fbb4" y="247.843762"/>
     <use style="fill:#0000ff;stroke:#000000;" x="180.407781" xlink:href="#mcb9f71fbb4" y="115.43163"/>
     <use style="fill:#0000ff;stroke:#000000;" x="179.576713" xlink:href="#mcb9f71fbb4" y="185.903559"/>
     <use style="fill:#0000ff;stroke:#000000;" x="239.137408" xlink:href="#mcb9f71fbb4" y="191.86249"/>
     <use style="fill:#0000ff;stroke:#000000;" x="228.146881" xlink:href="#mcb9f71fbb4" y="126.066875"/>
     <use style="fill:#0000ff;stroke:#000000;" x="135.448402" xlink:href="#mcb9f71fbb4" y="224.983514"/>
     <use style="fill:#0000ff;stroke:#000000;" x="188.336938" xlink:href="#mcb9f71fbb4" y="199.902281"/>
     <use style="fill:#0000ff;stroke:#000000;" x="248.311163" xlink:href="#mcb9f71fbb4" y="177.749599"/>
     <use style="fill:#0000ff;stroke:#000000;" x="256.811949" xlink:href="#mcb9f71fbb4" y="76.789791"/>
     <use style="fill:#0000ff;stroke:#000000;" x="170.465082" xlink:href="#mcb9f71fbb4" y="253.705805"/>
     <use style="fill:#0000ff;stroke:#000000;" x="257.485218" xlink:href="#mcb9f71fbb4" y="251.670794"/>
     <use style="fill:#0000ff;stroke:#000000;" x="228.82631" xlink:href="#mcb9f71fbb4" y="201.581679"/>
     <use style="fill:#0000ff;stroke:#000000;" x="180.954762" xlink:href="#mcb9f71fbb4" y="116.115384"/>
     <use style="fill:#0000ff;stroke:#000000;" x="226.375755" xlink:href="#mcb9f71fbb4" y="64.507076"/>
     <use style="fill:#0000ff;stroke:#000000;" x="236.827713" xlink:href="#mcb9f71fbb4" y="133.719855"/>
     <use style="fill:#0000ff;stroke:#000000;" x="237.022539" xlink:href="#mcb9f71fbb4" y="194.546705"/>
     <use style="fill:#0000ff;stroke:#000000;" x="121.234233" xlink:href="#mcb9f71fbb4" y="186.44074"/>
     <use style="fill:#0000ff;stroke:#000000;" x="129.96849" xlink:href="#mcb9f71fbb4" y="146.875528"/>
     <use style="fill:#0000ff;stroke:#000000;" x="141.274884" xlink:href="#mcb9f71fbb4" y="135.529835"/>
     <use style="fill:#0000ff;stroke:#000000;" x="199.353139" xlink:href="#mcb9f71fbb4" y="204.916718"/>
     <use style="fill:#0000ff;stroke:#000000;" x="307.666365" xlink:href="#mcb9f71fbb4" y="141.210784"/>
     <use style="fill:#0000ff;stroke:#000000;" x="214.317076" xlink:href="#mcb9f71fbb4" y="261.213781"/>
     <use style="fill:#0000ff;stroke:#000000;" x="200.009859" xlink:href="#mcb9f71fbb4" y="261.540816"/>
     <use style="fill:#0000ff;stroke:#000000;" x="133.811071" xlink:href="#mcb9f71fbb4" y="228.667775"/>
     <use style="fill:#0000ff;stroke:#000000;" x="164.88653" xlink:href="#mcb9f71fbb4" y="119.687908"/>
     <use style="fill:#0000ff;stroke:#000000;" x="171.219767" xlink:href="#mcb9f71fbb4" y="118.002062"/>
     <use style="fill:#0000ff;stroke:#000000;" x="233.226511" xlink:href="#mcb9f71fbb4" y="200.195028"/>
     <use style="fill:#0000ff;stroke:#000000;" x="299.039425" xlink:href="#mcb9f71fbb4" y="210.462228"/>
     <use style="fill:#0000ff;stroke:#000000;" x="219.368541" xlink:href="#mcb9f71fbb4" y="122.554933"/>
     <use style="fill:#0000ff;stroke:#000000;" x="231.073756" xlink:href="#mcb9f71fbb4" y="258.597757"/>
     <use style="fill:#0000ff;stroke:#000000;" x="145.718068" xlink:href="#mcb9f71fbb4" y="238.514148"/>
     <use style="fill:#0000ff;stroke:#000000;" x="191.02358" xlink:href="#mcb9f71fbb4" y="201.837132"/>
     <use style="fill:#0000ff;stroke:#000000;" x="293.585184" xlink:href="#mcb9f71fbb4" y="221.493419"/>
     <use style="fill:#0000ff;stroke:#000000;" x="180.87659" xlink:href="#mcb9f71fbb4" y="189.139387"/>
     <use style="fill:#0000ff;stroke:#000000;" x="223.087919" xlink:href="#mcb9f71fbb4" y="205.715218"/>
     <use style="fill:#0000ff;stroke:#000000;" x="183.632709" xlink:href="#mcb9f71fbb4" y="261.278674"/>
     <use style="fill:#0000ff;stroke:#000000;" x="232.905241" xlink:href="#mcb9f71fbb4" y="200.391008"/>
     <use style="fill:#0000ff;stroke:#000000;" x="246.023358" xlink:href="#mcb9f71fbb4" y="177.104496"/>
     <use style="fill:#0000ff;stroke:#000000;" x="202.2521" xlink:href="#mcb9f71fbb4" y="205.520689"/>
     <use style="fill:#0000ff;stroke:#000000;" x="236.840834" xlink:href="#mcb9f71fbb4" y="134.567105"/>
     <use style="fill:#0000ff;stroke:#000000;" x="238.08295" xlink:href="#mcb9f71fbb4" y="193.74443"/>
     <use style="fill:#0000ff;stroke:#000000;" x="133.735903" xlink:href="#mcb9f71fbb4" y="143.856477"/>
     <use style="fill:#0000ff;stroke:#000000;" x="305.261216" xlink:href="#mcb9f71fbb4" y="136.201124"/>
     <use style="fill:#0000ff;stroke:#000000;" x="240.100961" xlink:href="#mcb9f71fbb4" y="137.715721"/>
     <use style="fill:#0000ff;stroke:#000000;" x="148.916972" xlink:href="#mcb9f71fbb4" y="242.846701"/>
     <use style="fill:#0000ff;stroke:#000000;" x="175.589838" xlink:href="#mcb9f71fbb4" y="114.784332"/>
     <use style="fill:#0000ff;stroke:#000000;" x="297.628686" xlink:href="#mcb9f71fbb4" y="118.249569"/>
     <use style="fill:#0000ff;stroke:#000000;" x="181.314204" xlink:href="#mcb9f71fbb4" y="261.223501"/>
     <use style="fill:#0000ff;stroke:#000000;" x="179.493372" xlink:href="#mcb9f71fbb4" y="183.971576"/>
     <use style="fill:#0000ff;stroke:#000000;" x="247.552695" xlink:href="#mcb9f71fbb4" y="148.108566"/>
     <use style="fill:#0000ff;stroke:#000000;" x="198.247691" xlink:href="#mcb9f71fbb4" y="113.902546"/>
     <use style="fill:#0000ff;stroke:#000000;" x="243.934795" xlink:href="#mcb9f71fbb4" y="186.229313"/>
     <use style="fill:#0000ff;stroke:#000000;" x="153.141484" xlink:href="#mcb9f71fbb4" y="127.104865"/>
     <use style="fill:#0000ff;stroke:#000000;" x="156.417132" xlink:href="#mcb9f71fbb4" y="125.110273"/>
     <use style="fill:#0000ff;stroke:#000000;" x="243.842363" xlink:href="#mcb9f71fbb4" y="142.091303"/>
     <use style="fill:#0000ff;stroke:#000000;" x="126.06863" xlink:href="#mcb9f71fbb4" y="156.072231"/>
     <use style="fill:#0000ff;stroke:#000000;" x="124.814551" xlink:href="#mcb9f71fbb4" y="206.669699"/>
     <use style="fill:#0000ff;stroke:#000000;" x="262.345181" xlink:href="#mcb9f71fbb4" y="249.772302"/>
     <use style="fill:#0000ff;stroke:#000000;" x="300.828722" xlink:href="#mcb9f71fbb4" y="209.02147"/>
     <use style="fill:#0000ff;stroke:#000000;" x="243.096824" xlink:href="#mcb9f71fbb4" y="186.619605"/>
     <use style="fill:#0000ff;stroke:#000000;" x="248.748095" xlink:href="#mcb9f71fbb4" y="174.660109"/>
     <use style="fill:#0000ff;stroke:#000000;" x="188.766988" xlink:href="#mcb9f71fbb4" y="199.312182"/>
     <use style="fill:#0000ff;stroke:#000000;" x="246.2415" xlink:href="#mcb9f71fbb4" y="185.599456"/>
     <use style="fill:#0000ff;stroke:#000000;" x="220.931593" xlink:href="#mcb9f71fbb4" y="120.399882"/>
     <use style="fill:#0000ff;stroke:#000000;" x="208.085189" xlink:href="#mcb9f71fbb4" y="61.409691"/>
     <use style="fill:#0000ff;stroke:#000000;" x="141.459385" xlink:href="#mcb9f71fbb4" y="135.541146"/>
     <use style="fill:#0000ff;stroke:#000000;" x="124.433337" xlink:href="#mcb9f71fbb4" y="202.397166"/>
     <use style="fill:#0000ff;stroke:#000000;" x="181.71134" xlink:href="#mcb9f71fbb4" y="190.715697"/>
    </g>
   </g>
   <g id="patch_3">
    <path d="M 57.6 307.584 
L 57.6 41.472 
" style="fill:none;stroke:#000000;stroke-linecap:square;stroke-linejoin:miter;stroke-width:0.8;"/>
   </g>
   <g id="patch_4">
    <path d="M 343.296 307.584 
L 343.296 41.472 
" style="fill:none;stroke:#000000;stroke-linecap:square;stroke-linejoin:miter;stroke-width:0.8;"/>
   </g>
   <g id="patch_5">
    <path d="M 57.6 307.584 
L 343.296 307.584 
" style="fill:none;stroke:#000000;stroke-linecap:square;stroke-linejoin:miter;stroke-width:0.8;"/>
   </g>
   <g id="patch_6">
    <path d="M 57.6 41.472 
L 343.296 41.472 
" style="fill:none;stroke:#000000;stroke-linecap:square;stroke-linejoin:miter;stroke-width:0.8;"/>
   </g>
   <g id="text_17">
    <!-- Spirals -->
    <g transform="translate(180.227063 35.472)scale(0.12 -0.12)">
     <defs>
      <path d="M 53.515625 70.515625 
L 53.515625 60.890625 
Q 47.90625 63.578125 42.921875 64.890625 
Q 37.9375 66.21875 33.296875 66.21875 
Q 25.25 66.21875 20.875 63.09375 
Q 16.5 59.96875 16.5 54.203125 
Q 16.5 49.359375 19.40625 46.890625 
Q 22.3125 44.4375 30.421875 42.921875 
L 36.375 41.703125 
Q 47.40625 39.59375 52.65625 34.296875 
Q 57.90625 29 57.90625 20.125 
Q 57.90625 9.515625 50.796875 4.046875 
Q 43.703125 -1.421875 29.984375 -1.421875 
Q 24.8125 -1.421875 18.96875 -0.25 
Q 13.140625 0.921875 6.890625 3.21875 
L 6.890625 13.375 
Q 12.890625 10.015625 18.65625 8.296875 
Q 24.421875 6.59375 29.984375 6.59375 
Q 38.421875 6.59375 43.015625 9.90625 
Q 47.609375 13.234375 47.609375 19.390625 
Q 47.609375 24.75 44.3125 27.78125 
Q 41.015625 30.8125 33.5 32.328125 
L 27.484375 33.5 
Q 16.453125 35.6875 11.515625 40.375 
Q 6.59375 45.0625 6.59375 53.421875 
Q 6.59375 63.09375 13.40625 68.65625 
Q 20.21875 74.21875 32.171875 74.21875 
Q 37.3125 74.21875 42.625 73.28125 
Q 47.953125 72.359375 53.515625 70.515625 
z
" id="DejaVuSans-83"/>
      <path d="M 18.109375 8.203125 
L 18.109375 -20.796875 
L 9.078125 -20.796875 
L 9.078125 54.6875 
L 18.109375 54.6875 
L 18.109375 46.390625 
Q 20.953125 51.265625 25.265625 53.625 
Q 29.59375 56 35.59375 56 
Q 45.5625 56 51.78125 48.09375 
Q 58.015625 40.1875 58.015625 27.296875 
Q 58.015625 14.40625 51.78125 6.484375 
Q 45.5625 -1.421875 35.59375 -1.421875 
Q 29.59375 -1.421875 25.265625 0.953125 
Q 20.953125 3.328125 18.109375 8.203125 
z
M 48.6875 27.296875 
Q 48.6875 37.203125 44.609375 42.84375 
Q 40.53125 48.484375 33.40625 48.484375 
Q 26.265625 48.484375 22.1875 42.84375 
Q 18.109375 37.203125 18.109375 27.296875 
Q 18.109375 17.390625 22.1875 11.75 
Q 26.265625 6.109375 33.40625 6.109375 
Q 40.53125 6.109375 44.609375 11.75 
Q 48.6875 17.390625 48.6875 27.296875 
z
" id="DejaVuSans-112"/>
      <path d="M 9.421875 54.6875 
L 18.40625 54.6875 
L 18.40625 0 
L 9.421875 0 
z
M 9.421875 75.984375 
L 18.40625 75.984375 
L 18.40625 64.59375 
L 9.421875 64.59375 
z
" id="DejaVuSans-105"/>
      <path d="M 41.109375 46.296875 
Q 39.59375 47.171875 37.8125 47.578125 
Q 36.03125 48 33.890625 48 
Q 26.265625 48 22.1875 43.046875 
Q 18.109375 38.09375 18.109375 28.8125 
L 18.109375 0 
L 9.078125 0 
L 9.078125 54.6875 
L 18.109375 54.6875 
L 18.109375 46.1875 
Q 20.953125 51.171875 25.484375 53.578125 
Q 30.03125 56 36.53125 56 
Q 37.453125 56 38.578125 55.875 
Q 39.703125 55.765625 41.0625 55.515625 
z
" id="DejaVuSans-114"/>
      <path d="M 34.28125 27.484375 
Q 23.390625 27.484375 19.1875 25 
Q 14.984375 22.515625 14.984375 16.5 
Q 14.984375 11.71875 18.140625 8.90625 
Q 21.296875 6.109375 26.703125 6.109375 
Q 34.1875 6.109375 38.703125 11.40625 
Q 43.21875 16.703125 43.21875 25.484375 
L 43.21875 27.484375 
z
M 52.203125 31.203125 
L 52.203125 0 
L 43.21875 0 
L 43.21875 8.296875 
Q 40.140625 3.328125 35.546875 0.953125 
Q 30.953125 -1.421875 24.3125 -1.421875 
Q 15.921875 -1.421875 10.953125 3.296875 
Q 6 8.015625 6 15.921875 
Q 6 25.140625 12.171875 29.828125 
Q 18.359375 34.515625 30.609375 34.515625 
L 43.21875 34.515625 
L 43.21875 35.40625 
Q 43.21875 41.609375 39.140625 45 
Q 35.0625 48.390625 27.6875 48.390625 
Q 23 48.390625 18.546875 47.265625 
Q 14.109375 46.140625 10.015625 43.890625 
L 10.015625 52.203125 
Q 14.9375 54.109375 19.578125 55.046875 
Q 24.21875 56 28.609375 56 
Q 40.484375 56 46.34375 49.84375 
Q 52.203125 43.703125 52.203125 31.203125 
z
" id="DejaVuSans-97"/>
      <path d="M 9.421875 75.984375 
L 18.40625 75.984375 
L 18.40625 0 
L 9.421875 0 
z
" id="DejaVuSans-108"/>
      <path d="M 44.28125 53.078125 
L 44.28125 44.578125 
Q 40.484375 46.53125 36.375 47.5 
Q 32.28125 48.484375 27.875 48.484375 
Q 21.1875 48.484375 17.84375 46.4375 
Q 14.5 44.390625 14.5 40.28125 
Q 14.5 37.15625 16.890625 35.375 
Q 19.28125 33.59375 26.515625 31.984375 
L 29.59375 31.296875 
Q 39.15625 29.25 43.1875 25.515625 
Q 47.21875 21.78125 47.21875 15.09375 
Q 47.21875 7.46875 41.1875 3.015625 
Q 35.15625 -1.421875 24.609375 -1.421875 
Q 20.21875 -1.421875 15.453125 -0.5625 
Q 10.6875 0.296875 5.421875 2 
L 5.421875 11.28125 
Q 10.40625 8.6875 15.234375 7.390625 
Q 20.0625 6.109375 24.8125 6.109375 
Q 31.15625 6.109375 34.5625 8.28125 
Q 37.984375 10.453125 37.984375 14.40625 
Q 37.984375 18.0625 35.515625 20.015625 
Q 33.0625 21.96875 24.703125 23.78125 
L 21.578125 24.515625 
Q 13.234375 26.265625 9.515625 29.90625 
Q 5.8125 33.546875 5.8125 39.890625 
Q 5.8125 47.609375 11.28125 51.796875 
Q 16.75 56 26.8125 56 
Q 31.78125 56 36.171875 55.265625 
Q 40.578125 54.546875 44.28125 53.078125 
z
" id="DejaVuSans-115"/>
     </defs>
     <use xlink:href="#DejaVuSans-83"/>
     <use x="63.476562" xlink:href="#DejaVuSans-112"/>
     <use x="126.953125" xlink:href="#DejaVuSans-105"/>
     <use x="154.736328" xlink:href="#DejaVuSans-114"/>
     <use x="195.849609" xlink:href="#DejaVuSans-97"/>
     <use x="257.128906" xlink:href="#DejaVuSans-108"/>
     <use x="284.912109" xlink:href="#DejaVuSans-115"/>
    </g>
   </g>
  </g>
  <g id="axes_2">
   <g id="patch_7">
    <path clip-path="url(#p1b466a960d)" d="M 361.152 307.584 
L 361.152 41.472 
L 361.152 307.584 
L 361.152 41.472 
L 374.4576 41.472 
L 374.4576 307.584 
L 374.4576 41.472 
L 374.4576 307.584 
z
" style="fill:#ffffff;stroke:#ffffff;stroke-linejoin:miter;stroke-width:0.01;"/>
   </g>
   <g id="QuadMesh_1">
    <path clip-path="url(#p1b466a960d)" d="M 361.152 307.584 
L 374.4576 307.584 
L 374.4576 41.472 
L 361.152 41.472 
L 361.152 307.584 
" style="fill:#21918c;"/>
   </g>
   <g id="matplotlib.axis_3"/>
   <g id="matplotlib.axis_4">
    <g id="ytick_8">
     <g id="line2d_17">
      <defs>
       <path d="M 0 0 
L 3.5 0 
" id="m4bc6b2fd23" style="stroke:#000000;stroke-width:0.8;"/>
      </defs>
      <g>
       <use style="stroke:#000000;stroke-width:0.8;" x="374.4576" xlink:href="#m4bc6b2fd23" y="307.584"/>
      </g>
     </g>
     <g id="text_18">
      <!-- 0.5 -->
      <g transform="translate(381.4576 311.383219)scale(0.1 -0.1)">
       <defs>
        <path d="M 10.6875 12.40625 
L 21 12.40625 
L 21 0 
L 10.6875 0 
z
" id="DejaVuSans-46"/>
       </defs>
       <use xlink:href="#DejaVuSans-48"/>
       <use x="63.623047" xlink:href="#DejaVuSans-46"/>
       <use x="95.410156" xlink:href="#DejaVuSans-53"/>
      </g>
     </g>
    </g>
    <g id="ytick_9">
     <g id="line2d_18">
      <g>
       <use style="stroke:#000000;stroke-width:0.8;" x="374.4576" xlink:href="#m4bc6b2fd23" y="41.472"/>
      </g>
     </g>
     <g id="text_19">
      <!-- 1.0 -->
      <g transform="translate(381.4576 45.271219)scale(0.1 -0.1)">
       <use xlink:href="#DejaVuSans-49"/>
       <use x="63.623047" xlink:href="#DejaVuSans-46"/>
       <use x="95.410156" xlink:href="#DejaVuSans-48"/>
      </g>
     </g>
    </g>
   </g>
   <g id="patch_8">
    <path d="M 361.152 307.584 
L 361.152 41.472 
L 361.152 307.584 
L 361.152 41.472 
L 374.4576 41.472 
L 374.4576 307.584 
L 374.4576 41.472 
L 374.4576 307.584 
z
" style="fill:none;stroke:#000000;stroke-linejoin:miter;stroke-width:0.8;"/>
   </g>
  </g>
 </g>
 <defs>
  <clipPath id="p2fcf69b1ce">
   <rect height="266.112" width="285.696" x="57.6" y="41.472"/>
  </clipPath>
  <clipPath id="p1b466a960d">
   <rect height="266.112" width="13.3056" x="361.152" y="41.472"/>
  </clipPath>
 </defs>
</svg>
