<?xml version="1.0" encoding="utf-8" standalone="no"?>
<!DOCTYPE svg PUBLIC "-//W3C//DTD SVG 1.1//EN"
  "http://www.w3.org/Graphics/SVG/1.1/DTD/svg11.dtd">
<!-- Created with matplotlib (https://matplotlib.org/) -->
<svg height="345.6pt" version="1.1" viewBox="0 0 460.8 345.6" width="460.8pt" xmlns="http://www.w3.org/2000/svg" xmlns:xlink="http://www.w3.org/1999/xlink">
 <metadata>
  <rdf:RDF xmlns:cc="http://creativecommons.org/ns#" xmlns:dc="http://purl.org/dc/elements/1.1/" xmlns:rdf="http://www.w3.org/1999/02/22-rdf-syntax-ns#">
   <cc:Work>
    <dc:type rdf:resource="http://purl.org/dc/dcmitype/StillImage"/>
    <dc:date>2020-09-16T17:15:51.791804</dc:date>
    <dc:format>image/svg+xml</dc:format>
    <dc:creator>
     <cc:Agent>
      <dc:title>Matplotlib v3.3.1, https://matplotlib.org/</dc:title>
     </cc:Agent>
    </dc:creator>
   </cc:Work>
  </rdf:RDF>
 </metadata>
 <defs>
  <style type="text/css">*{stroke-linecap:butt;stroke-linejoin:round;}</style>
 </defs>
 <g id="figure_1">
  <g id="patch_1">
   <path d="M 0 345.6 
L 460.8 345.6 
L 460.8 0 
L 0 0 
z
" style="fill:#ffffff;"/>
  </g>
  <g id="axes_1">
   <g id="patch_2">
    <path d="M 57.6 307.584 
L 343.296 307.584 
L 343.296 41.472 
L 57.6 41.472 
z
" style="fill:#ffffff;"/>
   </g>
   <g id="PathCollection_1">
    <path clip-path="url(#p0174a91110)" d="M 233.634909 305.823611 
L 235.094804 307.584 
L 236.520727 307.584 
L 239.406545 307.584 
L 242.292365 307.584 
L 245.17818 307.584 
L 248.064 307.584 
L 250.94982 307.584 
L 253.835635 307.584 
L 256.721455 307.584 
L 259.607271 307.584 
L 262.493091 307.584 
L 265.378911 307.584 
L 268.264726 307.584 
L 271.150546 307.584 
L 274.036362 307.584 
L 276.922182 307.584 
L 279.807997 307.584 
L 282.693821 307.584 
L 285.579637 307.584 
L 288.465452 307.584 
L 291.351277 307.584 
L 294.237092 307.584 
L 297.122908 307.584 
L 300.008723 307.584 
L 302.894548 307.584 
L 305.780363 307.584 
L 308.666179 307.584 
L 311.552003 307.584 
L 314.437818 307.584 
L 317.323634 307.584 
L 320.209458 307.584 
L 323.095274 307.584 
L 325.981089 307.584 
L 328.866905 307.584 
L 331.752729 307.584 
L 334.638545 307.584 
L 337.52436 307.584 
L 340.410185 307.584 
L 343.296 307.584 
L 343.296 304.896003 
L 343.296 302.207997 
L 343.296 299.519999 
L 343.296 296.832002 
L 343.296 294.143996 
L 343.296 291.455998 
L 343.296 288.768001 
L 343.296 286.080004 
L 343.296 283.391998 
L 343.296 280.704 
L 343.296 278.016003 
L 343.296 275.327997 
L 343.296 272.639999 
L 343.296 269.952002 
L 343.296 267.263996 
L 343.296 264.575999 
L 343.296 261.888001 
L 343.296 259.200004 
L 343.296 256.511998 
L 343.296 253.824001 
L 343.296 251.136003 
L 343.296 248.447997 
L 343.296 245.76 
L 343.296 243.071998 
L 343.296 240.384001 
L 343.296 237.695999 
L 343.296 235.008002 
L 343.296 232.32 
L 343.296 229.631998 
L 343.296 226.944001 
L 343.296 224.255999 
L 343.296 221.568002 
L 343.296 218.88 
L 343.296 216.191998 
L 343.296 213.504001 
L 343.296 210.815999 
L 343.296 208.128 
L 343.296 205.44 
L 343.296 202.752001 
L 343.296 200.064001 
L 343.296 197.375999 
L 343.296 194.688 
L 343.296 192 
L 343.296 189.312 
L 343.296 186.624 
L 343.296 183.935999 
L 343.296 181.248 
L 343.296 178.56 
L 343.296 175.872 
L 343.296 173.184 
L 343.296 170.496 
L 343.296 167.808 
L 343.296 165.120001 
L 343.296 162.432 
L 343.296 159.744 
L 343.296 157.056 
L 343.296 154.368 
L 343.296 151.680001 
L 343.296 148.991999 
L 343.296 146.303999 
L 343.296 143.616 
L 343.296 140.928 
L 343.296 138.240001 
L 343.296 135.551999 
L 343.296 132.864002 
L 343.296 130.176 
L 343.296 127.487998 
L 343.296 124.800001 
L 343.296 122.111999 
L 343.296 119.424002 
L 343.296 116.736 
L 343.296 114.047998 
L 343.296 111.360001 
L 343.296 108.671999 
L 343.296 105.984002 
L 343.296 103.296 
L 343.296 100.608003 
L 343.296 97.919997 
L 343.296 95.231999 
L 343.296 92.544002 
L 343.296 89.855996 
L 343.296 87.167999 
L 343.296 84.480001 
L 343.296 81.792004 
L 343.296 79.103998 
L 343.296 76.416001 
L 343.296 73.728003 
L 343.296 71.039997 
L 343.296 68.352 
L 343.296 65.664002 
L 343.296 62.975996 
L 343.296 60.287999 
L 343.296 57.600002 
L 343.296 54.912004 
L 343.296 52.223998 
L 343.296 49.536001 
L 343.296 46.848003 
L 343.296 44.159997 
L 343.296 41.472 
L 340.410185 41.472 
L 337.52436 41.472 
L 334.638545 41.472 
L 331.752729 41.472 
L 328.866905 41.472 
L 325.981089 41.472 
L 323.095274 41.472 
L 320.209458 41.472 
L 317.323634 41.472 
L 314.437818 41.472 
L 311.552003 41.472 
L 308.666179 41.472 
L 305.780363 41.472 
L 302.894548 41.472 
L 300.008723 41.472 
L 297.122908 41.472 
L 294.237092 41.472 
L 291.351277 41.472 
L 288.465452 41.472 
L 285.579637 41.472 
L 282.693821 41.472 
L 279.807997 41.472 
L 276.922182 41.472 
L 274.036362 41.472 
L 271.150546 41.472 
L 268.264726 41.472 
L 265.378911 41.472 
L 262.493091 41.472 
L 259.607271 41.472 
L 256.721455 41.472 
L 253.835635 41.472 
L 250.94982 41.472 
L 248.064 41.472 
L 245.17818 41.472 
L 242.292365 41.472 
L 239.406545 41.472 
L 236.520727 41.472 
L 233.634909 41.472 
L 230.749092 41.472 
L 227.863274 41.472 
L 224.977454 41.472 
L 222.091636 41.472 
L 219.205818 41.472 
L 216.32 41.472 
L 213.434182 41.472 
L 210.548363 41.472 
L 207.662545 41.472 
L 204.776727 41.472 
L 201.890909 41.472 
L 199.005091 41.472 
L 196.119273 41.472 
L 193.233455 41.472 
L 190.347637 41.472 
L 189.735335 41.472 
L 190.347637 43.493609 
L 190.557279 44.159997 
L 191.341779 46.848003 
L 192.100911 49.536001 
L 192.957821 52.223998 
L 193.233455 53.014728 
L 193.89094 54.912004 
L 194.756151 57.600002 
L 195.660117 60.287999 
L 196.119273 61.553597 
L 196.615492 62.975996 
L 197.480538 65.664002 
L 198.337256 68.352 
L 199.005091 70.324952 
L 199.361432 71.039997 
L 201.890909 73.010924 
L 203.484932 73.728003 
L 204.776727 74.208264 
L 207.662545 75.410848 
L 210.373567 76.416001 
L 210.548363 76.48334 
L 213.434182 77.375905 
L 216.32 78.073556 
L 219.205818 78.326816 
L 222.091636 78.499621 
L 224.977454 78.729039 
L 227.392696 79.103998 
L 227.863274 79.181436 
L 230.749092 79.819353 
L 233.634909 80.49163 
L 236.520727 81.215896 
L 238.454884 81.792004 
L 239.406545 82.113827 
L 242.292365 83.206539 
L 245.17818 84.41275 
L 245.318416 84.480001 
L 248.064 85.818376 
L 250.388436 87.167999 
L 250.94982 87.511994 
L 253.835635 89.271002 
L 254.628654 89.855996 
L 256.721455 91.438361 
L 258.09091 92.544002 
L 259.607271 93.803362 
L 261.108887 95.231999 
L 262.493091 96.551339 
L 263.747447 97.919997 
L 265.378911 99.704894 
L 266.188169 100.608003 
L 268.264726 103.010778 
L 268.516363 103.296 
L 270.738469 105.984002 
L 271.150546 106.470478 
L 272.924902 108.671999 
L 274.036362 110.06419 
L 275.008871 111.360001 
L 276.673868 114.047998 
L 276.922182 114.435292 
L 278.268949 116.736 
L 279.807997 119.39683 
L 279.824991 119.424002 
L 281.368263 122.111999 
L 282.693821 124.529961 
L 282.849671 124.800001 
L 284.182738 127.487998 
L 285.555897 130.176 
L 285.579637 130.212043 
L 287.03464 132.864002 
L 288.465452 135.224039 
L 288.678713 135.551999 
L 290.182161 138.240001 
L 291.344305 140.928 
L 291.351277 140.946217 
L 292.258822 143.616 
L 292.883779 146.303999 
L 293.338935 148.991999 
L 293.61983 151.680001 
L 293.770251 154.368 
L 293.879566 157.056 
L 293.944289 159.744 
L 293.969023 162.432 
L 293.969814 165.120001 
L 293.94604 167.808 
L 293.889706 170.496 
L 293.781295 173.184 
L 293.586621 175.872 
L 293.355291 178.56 
L 293.060187 181.248 
L 292.709574 183.935999 
L 292.226872 186.624 
L 291.626745 189.312 
L 291.351277 190.345237 
L 290.905904 192 
L 290.141776 194.688 
L 289.206067 197.375999 
L 288.465452 199.064571 
L 287.996663 200.064001 
L 286.635263 202.752001 
L 285.579637 204.672182 
L 285.110626 205.44 
L 283.344289 208.128 
L 282.693821 208.964428 
L 281.210484 210.815999 
L 279.807997 212.451955 
L 278.963163 213.504001 
L 276.944485 216.191998 
L 276.922182 216.220498 
L 274.941587 218.88 
L 274.036362 219.969599 
L 272.690025 221.568002 
L 271.150546 223.34554 
L 270.306283 224.255999 
L 268.264726 226.34803 
L 267.599749 226.944001 
L 265.378911 228.627651 
L 263.986317 229.631998 
L 262.493091 230.650178 
L 259.644205 232.32 
L 259.607271 232.341783 
L 256.721455 233.831864 
L 254.42188 235.008002 
L 253.835635 235.350876 
L 250.94982 237.181373 
L 250.239826 237.695999 
L 248.064 239.232226 
L 246.424658 240.384001 
L 245.17818 241.234597 
L 242.292365 242.944496 
L 242.071713 243.071998 
L 239.406545 244.466616 
L 236.847697 245.76 
L 236.520727 245.932833 
L 233.634909 247.237369 
L 231.021385 248.447997 
L 230.749092 248.580573 
L 227.863274 249.690931 
L 224.977454 250.375482 
L 222.091636 250.004395 
L 219.205818 249.554412 
L 216.32 249.105276 
L 213.714389 248.447997 
L 213.434182 248.361741 
L 210.548363 247.758016 
L 207.662545 247.336285 
L 204.776727 246.82635 
L 201.890909 246.304379 
L 199.244273 245.76 
L 199.005091 245.709427 
L 196.119273 245.154439 
L 193.233455 244.586048 
L 190.347637 243.962942 
L 187.461818 243.252081 
L 186.863624 243.071998 
L 184.576 242.410382 
L 181.690182 241.582386 
L 178.804364 240.694719 
L 178.034198 240.384001 
L 175.918546 239.525918 
L 173.032726 238.245239 
L 172.036123 237.695999 
L 170.146908 236.671781 
L 167.582066 235.008002 
L 167.261091 234.7882 
L 164.375273 232.711506 
L 163.887141 232.32 
L 161.489455 230.411785 
L 160.539503 229.631998 
L 158.603635 228.020363 
L 157.372381 226.944001 
L 155.71782 225.427844 
L 154.468544 224.255999 
L 152.832 222.651082 
L 151.781034 221.568002 
L 149.94618 219.574728 
L 149.33623 218.88 
L 147.160042 216.191998 
L 147.060365 216.070414 
L 145.220306 213.504001 
L 144.174545 211.974345 
L 143.394802 210.815999 
L 141.776299 208.128 
L 141.288729 207.326519 
L 140.216549 205.44 
L 139.1404 202.752001 
L 138.402909 200.677245 
L 138.188645 200.064001 
L 137.473234 197.375999 
L 136.956555 194.688 
L 136.469919 192 
L 135.952312 189.312 
L 135.549198 186.624 
L 135.517089 186.342524 
L 135.254204 183.935999 
L 135.04877 181.248 
L 134.927471 178.56 
L 135.036219 175.872 
L 135.257191 173.184 
L 135.517089 170.599002 
L 135.527757 170.496 
L 135.983023 167.808 
L 136.78155 165.120001 
L 137.8602 162.432 
L 138.402909 161.472738 
L 139.36533 159.744 
L 140.986978 157.056 
L 141.288729 156.643095 
L 142.870695 154.368 
L 144.174545 152.640699 
L 145.013767 151.680001 
L 147.060365 149.549316 
L 147.611468 148.991999 
L 149.94618 146.692732 
L 150.377744 146.303999 
L 152.832 144.436337 
L 153.994983 143.616 
L 155.71782 142.397752 
L 157.880539 140.928 
L 158.603635 140.433263 
L 161.489455 138.696906 
L 162.204665 138.240001 
L 164.375273 136.938669 
L 166.95511 135.551999 
L 167.261091 135.381137 
L 170.146908 134.068119 
L 172.674939 132.864002 
L 173.032726 132.67258 
L 175.918546 131.584004 
L 178.804364 130.668176 
L 180.440972 130.176 
L 181.690182 129.792262 
L 184.576 129.184152 
L 187.461818 128.664105 
L 190.347637 128.563132 
L 193.233455 128.895745 
L 196.119273 129.278013 
L 199.005091 129.563354 
L 201.521534 130.176 
L 201.890909 130.270355 
L 204.776727 131.136461 
L 207.662545 132.49381 
L 208.327678 132.864002 
L 210.548363 134.018983 
L 213.434182 135.391769 
L 213.749042 135.551999 
L 216.32 136.795645 
L 219.205818 138.168676 
L 219.351082 138.240001 
L 222.091636 139.575032 
L 224.655346 140.928 
L 224.977454 141.131549 
L 227.863274 143.326781 
L 228.164498 143.616 
L 230.529563 146.303999 
L 230.749092 146.761759 
L 231.453373 148.991999 
L 232.014639 151.680001 
L 232.436005 154.368 
L 232.767999 157.056 
L 232.969223 159.744 
L 232.919282 162.432 
L 232.626348 165.120001 
L 232.311564 167.808 
L 231.980711 170.496 
L 231.637974 173.184 
L 231.074477 175.872 
L 230.749092 176.826556 
L 230.020071 178.56 
L 227.863274 180.981936 
L 227.359615 181.248 
L 224.977454 182.299157 
L 222.091636 182.610925 
L 219.205818 182.67259 
L 216.32 182.389134 
L 213.434182 181.795196 
L 211.266967 181.248 
L 210.548363 181.050963 
L 207.662545 180.123687 
L 204.776727 179.265872 
L 202.903556 178.56 
L 201.890909 178.168761 
L 199.005091 177.129495 
L 196.119273 176.03278 
L 195.603381 175.872 
L 193.233455 175.186455 
L 190.347637 174.134541 
L 187.928987 173.184 
L 187.461818 172.993036 
L 184.576 171.915273 
L 181.690182 170.870708 
L 180.717811 170.496 
L 178.804364 169.793823 
L 175.918546 168.920005 
L 173.032726 168.451641 
L 170.146908 168.827921 
L 167.36959 170.496 
L 167.261091 170.575964 
L 164.575483 173.184 
L 164.375273 173.521529 
L 163.238181 175.872 
L 162.320795 178.56 
L 161.641019 181.248 
L 161.489455 182.632763 
L 161.370147 183.935999 
L 161.489455 185.255613 
L 161.646732 186.624 
L 162.406186 189.312 
L 163.358827 192 
L 164.375273 194.237067 
L 164.60965 194.688 
L 166.085975 197.375999 
L 167.261091 199.428976 
L 167.666907 200.064001 
L 169.534251 202.752001 
L 170.146908 203.457389 
L 172.246216 205.44 
L 173.032726 206.076359 
L 175.480486 208.128 
L 175.918546 208.419637 
L 178.804364 210.175653 
L 179.731193 210.815999 
L 181.690182 211.975342 
L 184.576 213.478597 
L 184.625384 213.504001 
L 187.461818 214.788983 
L 190.347637 215.939736 
L 190.948689 216.191998 
L 193.233455 217.071299 
L 196.119273 217.914782 
L 199.005091 218.701488 
L 199.63911 218.88 
L 201.890909 219.475408 
L 204.776727 220.092668 
L 207.662545 220.552545 
L 210.548363 220.908777 
L 213.434182 221.315285 
L 215.280768 221.568002 
L 216.32 221.71057 
L 219.205818 221.982075 
L 222.091636 222.139277 
L 224.977454 222.131406 
L 227.863274 221.883555 
L 229.75413 221.568002 
L 230.749092 221.387041 
L 233.634909 220.737474 
L 236.520727 219.864366 
L 237.950827 218.88 
L 239.406545 217.507931 
L 240.527927 216.191998 
L 242.292365 214.020267 
L 242.712626 213.504001 
L 244.765875 210.815999 
L 245.17818 210.275852 
L 246.71311 208.128 
L 248.064 206.505769 
L 249.092168 205.44 
L 250.94982 203.734514 
L 252.033914 202.752001 
L 253.835635 201.194 
L 254.954594 200.064001 
L 256.721455 197.986119 
L 257.199734 197.375999 
L 259.112971 194.688 
L 259.607271 194.079187 
L 261.127824 192 
L 262.493091 189.948903 
L 262.886873 189.312 
L 264.081905 186.624 
L 265.065148 183.935999 
L 265.378911 182.770998 
L 265.76722 181.248 
L 266.150105 178.56 
L 266.332797 175.872 
L 266.479827 173.184 
L 266.624962 170.496 
L 266.667867 167.808 
L 266.675729 165.120001 
L 266.603552 162.432 
L 266.44527 159.744 
L 266.184267 157.056 
L 265.625671 154.368 
L 265.378911 153.457928 
L 264.836435 151.680001 
L 264.040516 148.991999 
L 263.177571 146.303999 
L 262.493091 144.705506 
L 261.994507 143.616 
L 260.750018 140.928 
L 259.607271 138.902072 
L 259.211459 138.240001 
L 257.538304 135.551999 
L 256.721455 134.503782 
L 255.410562 132.864002 
L 253.835635 131.30587 
L 252.626064 130.176 
L 250.952898 127.487998 
L 250.94982 127.483896 
L 248.669255 124.800001 
L 248.064 124.159846 
L 246.097157 122.111999 
L 245.17818 121.172821 
L 243.472223 119.424002 
L 242.292365 118.25551 
L 240.729083 116.736 
L 239.406545 115.491513 
L 237.703265 114.047998 
L 236.520727 113.099526 
L 234.283641 111.360001 
L 233.634909 110.854932 
L 230.749092 108.757755 
L 230.63145 108.671999 
L 227.863274 106.792948 
L 226.654511 105.984002 
L 224.977454 104.938643 
L 222.091636 103.494253 
L 221.466606 103.296 
L 219.205818 102.598523 
L 216.32 102.15067 
L 213.434182 102.033807 
L 210.548363 102.116397 
L 207.662545 102.116171 
L 204.776727 102.060986 
L 201.890909 101.882767 
L 199.005091 101.289449 
L 197.382437 100.608003 
L 196.119273 100.110656 
L 193.233455 99.146082 
L 190.347637 98.471461 
L 187.461818 97.999428 
L 186.88251 97.919997 
L 184.576 97.630636 
L 181.690182 97.616359 
L 180.831481 97.919997 
L 178.804364 98.571654 
L 175.918546 99.675537 
L 173.786088 100.608003 
L 173.032726 100.976758 
L 170.146908 102.319784 
L 168.221364 103.296 
L 167.261091 103.818 
L 164.375273 105.149287 
L 162.314912 105.984002 
L 161.489455 106.321658 
L 158.603635 107.446735 
L 155.724787 108.671999 
L 155.71782 108.67526 
L 152.832 109.913515 
L 149.94618 111.182223 
L 149.60139 111.360001 
L 147.060365 112.577543 
L 144.174545 113.932472 
L 143.959855 114.047998 
L 141.288729 115.394193 
L 138.797054 116.736 
L 138.402909 117.007726 
L 135.517089 119.058483 
L 135.027277 119.424002 
L 132.631274 121.767831 
L 132.298727 122.111999 
L 130.097364 124.800001 
L 129.745454 125.247209 
L 128.179913 127.487998 
L 126.859638 129.619424 
L 126.500784 130.176 
L 124.92478 132.864002 
L 123.973818 134.50673 
L 123.373463 135.551999 
L 122.016601 138.240001 
L 121.088003 139.933866 
L 120.541013 140.928 
L 119.171638 143.616 
L 118.202179 145.530075 
L 117.803532 146.303999 
L 116.124039 148.991999 
L 115.316363 150.409566 
L 114.639964 151.680001 
L 113.508738 154.368 
L 112.430548 156.83235 
L 112.327296 157.056 
L 111.161543 159.744 
L 109.975244 162.432 
L 109.544723 163.357638 
L 108.757427 165.120001 
L 107.812453 167.808 
L 107.068011 170.496 
L 106.658908 172.243317 
L 106.441121 173.184 
L 105.889954 175.872 
L 105.494207 178.56 
L 105.335866 181.248 
L 105.312578 183.935999 
L 105.406546 186.624 
L 105.577745 189.312 
L 105.850192 192 
L 106.371809 194.688 
L 106.658908 195.739499 
L 107.115171 197.375999 
L 107.887395 200.064001 
L 108.743813 202.752001 
L 109.544723 204.764853 
L 109.829595 205.44 
L 110.903559 208.128 
L 111.957097 210.815999 
L 112.430548 211.951376 
L 113.089065 213.504001 
L 114.1917 216.191998 
L 115.316363 218.564361 
L 115.48275 218.88 
L 116.853042 221.568002 
L 118.202179 224.179086 
L 118.244862 224.255999 
L 119.659005 226.944001 
L 121.088003 229.606031 
L 121.103314 229.631998 
L 122.632839 232.32 
L 123.973818 234.567355 
L 124.253604 235.008002 
L 125.968809 237.695999 
L 126.859638 238.988597 
L 127.823365 240.384001 
L 129.637216 243.071998 
L 129.745454 243.219538 
L 131.577275 245.76 
L 132.631274 247.093181 
L 133.743309 248.447997 
L 135.517089 250.525971 
L 136.064173 251.136003 
L 138.402909 253.523818 
L 138.763872 253.824001 
L 141.288729 255.761036 
L 142.301526 256.511998 
L 144.174545 257.79844 
L 146.319295 259.200004 
L 147.060365 259.661601 
L 149.94618 261.275748 
L 151.02674 261.888001 
L 152.832 262.701283 
L 155.71782 263.749266 
L 157.832566 264.575999 
L 158.603635 264.884437 
L 161.489455 265.8401 
L 164.375273 266.723751 
L 165.733163 267.263996 
L 167.261091 267.847138 
L 170.146908 268.601631 
L 173.032726 269.186707 
L 175.918546 269.746163 
L 176.985901 269.952002 
L 178.804364 270.293378 
L 181.690182 270.665545 
L 184.576 271.014411 
L 187.461818 271.409152 
L 190.347637 272.069078 
L 191.427974 272.639999 
L 193.233455 273.90251 
L 195.202745 275.327997 
L 196.119273 275.998673 
L 199.005091 277.989477 
L 199.041889 278.016003 
L 201.890909 280.002009 
L 202.832947 280.704 
L 204.776727 282.129357 
L 206.36995 283.391998 
L 207.662545 284.417196 
L 209.668669 286.080004 
L 210.548363 286.814676 
L 212.922546 288.768001 
L 213.434182 289.192463 
L 216.24979 291.455998 
L 216.32 291.5138 
L 219.205818 293.811183 
L 219.623582 294.143996 
L 222.091636 296.04752 
L 223.107848 296.832002 
L 224.977454 298.257925 
L 226.521344 299.519999 
L 227.863274 300.621511 
L 229.906188 302.207997 
L 230.749092 302.9108 
L 232.81314 304.896003 
z
" style="fill:#21918c;"/>
   </g>
   <g id="matplotlib.axis_1">
    <g id="xtick_1">
     <g id="line2d_1">
      <defs>
       <path d="M 0 0 
L 0 3.5 
" id="m2cf0db81ab" style="stroke:#000000;stroke-width:0.8;"/>
      </defs>
      <g>
       <use style="stroke:#000000;stroke-width:0.8;" x="57.6" xlink:href="#m2cf0db81ab" y="307.584"/>
      </g>
     </g>
     <g id="text_1">
      <!-- −15 -->
      <g transform="translate(47.047656 322.182437)scale(0.1 -0.1)">
       <defs>
        <path d="M 10.59375 35.5 
L 73.1875 35.5 
L 73.1875 27.203125 
L 10.59375 27.203125 
z
" id="DejaVuSans-8722"/>
        <path d="M 12.40625 8.296875 
L 28.515625 8.296875 
L 28.515625 63.921875 
L 10.984375 60.40625 
L 10.984375 69.390625 
L 28.421875 72.90625 
L 38.28125 72.90625 
L 38.28125 8.296875 
L 54.390625 8.296875 
L 54.390625 0 
L 12.40625 0 
z
" id="DejaVuSans-49"/>
        <path d="M 10.796875 72.90625 
L 49.515625 72.90625 
L 49.515625 64.59375 
L 19.828125 64.59375 
L 19.828125 46.734375 
Q 21.96875 47.46875 24.109375 47.828125 
Q 26.265625 48.1875 28.421875 48.1875 
Q 40.625 48.1875 47.75 41.5 
Q 54.890625 34.8125 54.890625 23.390625 
Q 54.890625 11.625 47.5625 5.09375 
Q 40.234375 -1.421875 26.90625 -1.421875 
Q 22.3125 -1.421875 17.546875 -0.640625 
Q 12.796875 0.140625 7.71875 1.703125 
L 7.71875 11.625 
Q 12.109375 9.234375 16.796875 8.0625 
Q 21.484375 6.890625 26.703125 6.890625 
Q 35.15625 6.890625 40.078125 11.328125 
Q 45.015625 15.765625 45.015625 23.390625 
Q 45.015625 31 40.078125 35.4375 
Q 35.15625 39.890625 26.703125 39.890625 
Q 22.75 39.890625 18.8125 39.015625 
Q 14.890625 38.140625 10.796875 36.28125 
z
" id="DejaVuSans-53"/>
       </defs>
       <use xlink:href="#DejaVuSans-8722"/>
       <use x="83.789062" xlink:href="#DejaVuSans-49"/>
       <use x="147.412109" xlink:href="#DejaVuSans-53"/>
      </g>
     </g>
    </g>
    <g id="xtick_2">
     <g id="line2d_2">
      <g>
       <use style="stroke:#000000;stroke-width:0.8;" x="105.216" xlink:href="#m2cf0db81ab" y="307.584"/>
      </g>
     </g>
     <g id="text_2">
      <!-- −10 -->
      <g transform="translate(94.663656 322.182437)scale(0.1 -0.1)">
       <defs>
        <path d="M 31.78125 66.40625 
Q 24.171875 66.40625 20.328125 58.90625 
Q 16.5 51.421875 16.5 36.375 
Q 16.5 21.390625 20.328125 13.890625 
Q 24.171875 6.390625 31.78125 6.390625 
Q 39.453125 6.390625 43.28125 13.890625 
Q 47.125 21.390625 47.125 36.375 
Q 47.125 51.421875 43.28125 58.90625 
Q 39.453125 66.40625 31.78125 66.40625 
z
M 31.78125 74.21875 
Q 44.046875 74.21875 50.515625 64.515625 
Q 56.984375 54.828125 56.984375 36.375 
Q 56.984375 17.96875 50.515625 8.265625 
Q 44.046875 -1.421875 31.78125 -1.421875 
Q 19.53125 -1.421875 13.0625 8.265625 
Q 6.59375 17.96875 6.59375 36.375 
Q 6.59375 54.828125 13.0625 64.515625 
Q 19.53125 74.21875 31.78125 74.21875 
z
" id="DejaVuSans-48"/>
       </defs>
       <use xlink:href="#DejaVuSans-8722"/>
       <use x="83.789062" xlink:href="#DejaVuSans-49"/>
       <use x="147.412109" xlink:href="#DejaVuSans-48"/>
      </g>
     </g>
    </g>
    <g id="xtick_3">
     <g id="line2d_3">
      <g>
       <use style="stroke:#000000;stroke-width:0.8;" x="152.832" xlink:href="#m2cf0db81ab" y="307.584"/>
      </g>
     </g>
     <g id="text_3">
      <!-- −5 -->
      <g transform="translate(145.460906 322.182437)scale(0.1 -0.1)">
       <use xlink:href="#DejaVuSans-8722"/>
       <use x="83.789062" xlink:href="#DejaVuSans-53"/>
      </g>
     </g>
    </g>
    <g id="xtick_4">
     <g id="line2d_4">
      <g>
       <use style="stroke:#000000;stroke-width:0.8;" x="200.448" xlink:href="#m2cf0db81ab" y="307.584"/>
      </g>
     </g>
     <g id="text_4">
      <!-- 0 -->
      <g transform="translate(197.26675 322.182437)scale(0.1 -0.1)">
       <use xlink:href="#DejaVuSans-48"/>
      </g>
     </g>
    </g>
    <g id="xtick_5">
     <g id="line2d_5">
      <g>
       <use style="stroke:#000000;stroke-width:0.8;" x="248.064" xlink:href="#m2cf0db81ab" y="307.584"/>
      </g>
     </g>
     <g id="text_5">
      <!-- 5 -->
      <g transform="translate(244.88275 322.182437)scale(0.1 -0.1)">
       <use xlink:href="#DejaVuSans-53"/>
      </g>
     </g>
    </g>
    <g id="xtick_6">
     <g id="line2d_6">
      <g>
       <use style="stroke:#000000;stroke-width:0.8;" x="295.68" xlink:href="#m2cf0db81ab" y="307.584"/>
      </g>
     </g>
     <g id="text_6">
      <!-- 10 -->
      <g transform="translate(289.3175 322.182437)scale(0.1 -0.1)">
       <use xlink:href="#DejaVuSans-49"/>
       <use x="63.623047" xlink:href="#DejaVuSans-48"/>
      </g>
     </g>
    </g>
    <g id="xtick_7">
     <g id="line2d_7">
      <g>
       <use style="stroke:#000000;stroke-width:0.8;" x="343.296" xlink:href="#m2cf0db81ab" y="307.584"/>
      </g>
     </g>
     <g id="text_7">
      <!-- 15 -->
      <g transform="translate(336.9335 322.182437)scale(0.1 -0.1)">
       <use xlink:href="#DejaVuSans-49"/>
       <use x="63.623047" xlink:href="#DejaVuSans-53"/>
      </g>
     </g>
    </g>
    <g id="text_8">
     <!-- x -->
     <g transform="translate(197.488625 335.860562)scale(0.1 -0.1)">
      <defs>
       <path d="M 54.890625 54.6875 
L 35.109375 28.078125 
L 55.90625 0 
L 45.3125 0 
L 29.390625 21.484375 
L 13.484375 0 
L 2.875 0 
L 24.125 28.609375 
L 4.6875 54.6875 
L 15.28125 54.6875 
L 29.78125 35.203125 
L 44.28125 54.6875 
z
" id="DejaVuSans-120"/>
      </defs>
      <use xlink:href="#DejaVuSans-120"/>
     </g>
    </g>
   </g>
   <g id="matplotlib.axis_2">
    <g id="ytick_1">
     <g id="line2d_8">
      <defs>
       <path d="M 0 0 
L -3.5 0 
" id="mf39981a3b8" style="stroke:#000000;stroke-width:0.8;"/>
      </defs>
      <g>
       <use style="stroke:#000000;stroke-width:0.8;" x="57.6" xlink:href="#mf39981a3b8" y="307.584"/>
      </g>
     </g>
     <g id="text_9">
      <!-- −15 -->
      <g transform="translate(29.495313 311.383219)scale(0.1 -0.1)">
       <use xlink:href="#DejaVuSans-8722"/>
       <use x="83.789062" xlink:href="#DejaVuSans-49"/>
       <use x="147.412109" xlink:href="#DejaVuSans-53"/>
      </g>
     </g>
    </g>
    <g id="ytick_2">
     <g id="line2d_9">
      <g>
       <use style="stroke:#000000;stroke-width:0.8;" x="57.6" xlink:href="#mf39981a3b8" y="263.232"/>
      </g>
     </g>
     <g id="text_10">
      <!-- −10 -->
      <g transform="translate(29.495313 267.031219)scale(0.1 -0.1)">
       <use xlink:href="#DejaVuSans-8722"/>
       <use x="83.789062" xlink:href="#DejaVuSans-49"/>
       <use x="147.412109" xlink:href="#DejaVuSans-48"/>
      </g>
     </g>
    </g>
    <g id="ytick_3">
     <g id="line2d_10">
      <g>
       <use style="stroke:#000000;stroke-width:0.8;" x="57.6" xlink:href="#mf39981a3b8" y="218.88"/>
      </g>
     </g>
     <g id="text_11">
      <!-- −5 -->
      <g transform="translate(35.857813 222.679219)scale(0.1 -0.1)">
       <use xlink:href="#DejaVuSans-8722"/>
       <use x="83.789062" xlink:href="#DejaVuSans-53"/>
      </g>
     </g>
    </g>
    <g id="ytick_4">
     <g id="line2d_11">
      <g>
       <use style="stroke:#000000;stroke-width:0.8;" x="57.6" xlink:href="#mf39981a3b8" y="174.528"/>
      </g>
     </g>
     <g id="text_12">
      <!-- 0 -->
      <g transform="translate(44.2375 178.327219)scale(0.1 -0.1)">
       <use xlink:href="#DejaVuSans-48"/>
      </g>
     </g>
    </g>
    <g id="ytick_5">
     <g id="line2d_12">
      <g>
       <use style="stroke:#000000;stroke-width:0.8;" x="57.6" xlink:href="#mf39981a3b8" y="130.176"/>
      </g>
     </g>
     <g id="text_13">
      <!-- 5 -->
      <g transform="translate(44.2375 133.975219)scale(0.1 -0.1)">
       <use xlink:href="#DejaVuSans-53"/>
      </g>
     </g>
    </g>
    <g id="ytick_6">
     <g id="line2d_13">
      <g>
       <use style="stroke:#000000;stroke-width:0.8;" x="57.6" xlink:href="#mf39981a3b8" y="85.824"/>
      </g>
     </g>
     <g id="text_14">
      <!-- 10 -->
      <g transform="translate(37.875 89.623219)scale(0.1 -0.1)">
       <use xlink:href="#DejaVuSans-49"/>
       <use x="63.623047" xlink:href="#DejaVuSans-48"/>
      </g>
     </g>
    </g>
    <g id="ytick_7">
     <g id="line2d_14">
      <g>
       <use style="stroke:#000000;stroke-width:0.8;" x="57.6" xlink:href="#mf39981a3b8" y="41.472"/>
      </g>
     </g>
     <g id="text_15">
      <!-- 15 -->
      <g transform="translate(37.875 45.271219)scale(0.1 -0.1)">
       <use xlink:href="#DejaVuSans-49"/>
       <use x="63.623047" xlink:href="#DejaVuSans-53"/>
      </g>
     </g>
    </g>
    <g id="text_16">
     <!-- y -->
     <g transform="translate(22.535937 172.448312)scale(0.1 -0.1)">
      <defs>
       <path d="M 32.171875 -5.078125 
Q 28.375 -14.84375 24.75 -17.8125 
Q 21.140625 -20.796875 15.09375 -20.796875 
L 7.90625 -20.796875 
L 7.90625 -13.28125 
L 13.1875 -13.28125 
Q 16.890625 -13.28125 18.9375 -11.515625 
Q 21 -9.765625 23.484375 -3.21875 
L 25.09375 0.875 
L 2.984375 54.6875 
L 12.5 54.6875 
L 29.59375 11.921875 
L 46.6875 54.6875 
L 56.203125 54.6875 
z
" id="DejaVuSans-121"/>
      </defs>
      <use xlink:href="#DejaVuSans-121"/>
     </g>
    </g>
   </g>
   <g id="line2d_15">
    <defs>
     <path d="M 0 3 
C 0.795609 3 1.55874 2.683901 2.12132 2.12132 
C 2.683901 1.55874 3 0.795609 3 0 
C 3 -0.795609 2.683901 -1.55874 2.12132 -2.12132 
C 1.55874 -2.683901 0.795609 -3 0 -3 
C -0.795609 -3 -1.55874 -2.683901 -2.12132 -2.12132 
C -2.683901 -1.55874 -3 -0.795609 -3 0 
C -3 0.795609 -2.683901 1.55874 -2.12132 2.12132 
C -1.55874 2.683901 -0.795609 3 0 3 
z
" id="m1518d4331e" style="stroke:#000000;"/>
    </defs>
    <g clip-path="url(#p0174a91110)">
     <use style="fill:#ff0000;stroke:#000000;" x="162.084624" xlink:href="#m1518d4331e" y="280.253051"/>
     <use style="fill:#ff0000;stroke:#000000;" x="171.484085" xlink:href="#m1518d4331e" y="85.339847"/>
     <use style="fill:#ff0000;stroke:#000000;" x="221.001924" xlink:href="#m1518d4331e" y="169.248841"/>
     <use style="fill:#ff0000;stroke:#000000;" x="204.127863" xlink:href="#m1518d4331e" y="235.442167"/>
     <use style="fill:#ff0000;stroke:#000000;" x="272.202758" xlink:href="#m1518d4331e" y="138.884917"/>
     <use style="fill:#ff0000;stroke:#000000;" x="218.578235" xlink:href="#m1518d4331e" y="155.607514"/>
     <use style="fill:#ff0000;stroke:#000000;" x="126.215645" xlink:href="#m1518d4331e" y="261.979558"/>
     <use style="fill:#ff0000;stroke:#000000;" x="96.630129" xlink:href="#m1518d4331e" y="215.240616"/>
     <use style="fill:#ff0000;stroke:#000000;" x="253.477858" xlink:href="#m1518d4331e" y="107.781839"/>
     <use style="fill:#ff0000;stroke:#000000;" x="219.553034" xlink:href="#m1518d4331e" y="169.681981"/>
     <use style="fill:#ff0000;stroke:#000000;" x="198.500109" xlink:href="#m1518d4331e" y="230.637512"/>
     <use style="fill:#ff0000;stroke:#000000;" x="257.827747" xlink:href="#m1518d4331e" y="110.528054"/>
     <use style="fill:#ff0000;stroke:#000000;" x="223.036474" xlink:href="#m1518d4331e" y="160.646608"/>
     <use style="fill:#ff0000;stroke:#000000;" x="173.127177" xlink:href="#m1518d4331e" y="145.680854"/>
     <use style="fill:#ff0000;stroke:#000000;" x="207.448582" xlink:href="#m1518d4331e" y="147.032404"/>
     <use style="fill:#ff0000;stroke:#000000;" x="209.877501" xlink:href="#m1518d4331e" y="151.887934"/>
     <use style="fill:#ff0000;stroke:#000000;" x="183.28909" xlink:href="#m1518d4331e" y="142.345"/>
     <use style="fill:#ff0000;stroke:#000000;" x="149.736535" xlink:href="#m1518d4331e" y="192.373685"/>
     <use style="fill:#ff0000;stroke:#000000;" x="169.956733" xlink:href="#m1518d4331e" y="218.479013"/>
     <use style="fill:#ff0000;stroke:#000000;" x="247.64649" xlink:href="#m1518d4331e" y="107.039376"/>
     <use style="fill:#ff0000;stroke:#000000;" x="274.073321" xlink:href="#m1518d4331e" y="185.986506"/>
     <use style="fill:#ff0000;stroke:#000000;" x="216.56603" xlink:href="#m1518d4331e" y="151.075125"/>
     <use style="fill:#ff0000;stroke:#000000;" x="111.332566" xlink:href="#m1518d4331e" y="240.051569"/>
     <use style="fill:#ff0000;stroke:#000000;" x="200.158055" xlink:href="#m1518d4331e" y="88.831689"/>
     <use style="fill:#ff0000;stroke:#000000;" x="91.800069" xlink:href="#m1518d4331e" y="199.968428"/>
     <use style="fill:#ff0000;stroke:#000000;" x="216.970717" xlink:href="#m1518d4331e" y="153.947482"/>
     <use style="fill:#ff0000;stroke:#000000;" x="150.226874" xlink:href="#m1518d4331e" y="196.233765"/>
     <use style="fill:#ff0000;stroke:#000000;" x="258.715938" xlink:href="#m1518d4331e" y="216.0731"/>
     <use style="fill:#ff0000;stroke:#000000;" x="99.581063" xlink:href="#m1518d4331e" y="214.170709"/>
     <use style="fill:#ff0000;stroke:#000000;" x="208.597512" xlink:href="#m1518d4331e" y="89.340061"/>
     <use style="fill:#ff0000;stroke:#000000;" x="223.755739" xlink:href="#m1518d4331e" y="168.375174"/>
     <use style="fill:#ff0000;stroke:#000000;" x="230.198804" xlink:href="#m1518d4331e" y="229.348246"/>
     <use style="fill:#ff0000;stroke:#000000;" x="272.0719" xlink:href="#m1518d4331e" y="190.457627"/>
     <use style="fill:#ff0000;stroke:#000000;" x="150.503467" xlink:href="#m1518d4331e" y="171.454144"/>
     <use style="fill:#ff0000;stroke:#000000;" x="154.050809" xlink:href="#m1518d4331e" y="198.163432"/>
     <use style="fill:#ff0000;stroke:#000000;" x="260.36122" xlink:href="#m1518d4331e" y="209.757474"/>
     <use style="fill:#ff0000;stroke:#000000;" x="239.479523" xlink:href="#m1518d4331e" y="95.672518"/>
     <use style="fill:#ff0000;stroke:#000000;" x="102.537209" xlink:href="#m1518d4331e" y="138.946659"/>
     <use style="fill:#ff0000;stroke:#000000;" x="219.828117" xlink:href="#m1518d4331e" y="166.662732"/>
     <use style="fill:#ff0000;stroke:#000000;" x="175.233309" xlink:href="#m1518d4331e" y="283.493901"/>
     <use style="fill:#ff0000;stroke:#000000;" x="234.756263" xlink:href="#m1518d4331e" y="97.456156"/>
     <use style="fill:#ff0000;stroke:#000000;" x="152.695633" xlink:href="#m1518d4331e" y="166.331448"/>
     <use style="fill:#ff0000;stroke:#000000;" x="146.847623" xlink:href="#m1518d4331e" y="275.917038"/>
     <use style="fill:#ff0000;stroke:#000000;" x="211.691281" xlink:href="#m1518d4331e" y="147.560032"/>
     <use style="fill:#ff0000;stroke:#000000;" x="160.049077" xlink:href="#m1518d4331e" y="155.14087"/>
     <use style="fill:#ff0000;stroke:#000000;" x="97.179465" xlink:href="#m1518d4331e" y="208.478736"/>
     <use style="fill:#ff0000;stroke:#000000;" x="235.428238" xlink:href="#m1518d4331e" y="99.392182"/>
     <use style="fill:#ff0000;stroke:#000000;" x="93.064996" xlink:href="#m1518d4331e" y="172.77206"/>
     <use style="fill:#ff0000;stroke:#000000;" x="158.27893" xlink:href="#m1518d4331e" y="158.456913"/>
     <use style="fill:#ff0000;stroke:#000000;" x="220.445729" xlink:href="#m1518d4331e" y="167.804781"/>
     <use style="fill:#ff0000;stroke:#000000;" x="240.15944" xlink:href="#m1518d4331e" y="102.800284"/>
     <use style="fill:#ff0000;stroke:#000000;" x="172.298603" xlink:href="#m1518d4331e" y="280.034357"/>
     <use style="fill:#ff0000;stroke:#000000;" x="282.392788" xlink:href="#m1518d4331e" y="158.29143"/>
     <use style="fill:#ff0000;stroke:#000000;" x="167.434172" xlink:href="#m1518d4331e" y="214.379387"/>
     <use style="fill:#ff0000;stroke:#000000;" x="159.671514" xlink:href="#m1518d4331e" y="280.664588"/>
     <use style="fill:#ff0000;stroke:#000000;" x="109.115025" xlink:href="#m1518d4331e" y="123.887198"/>
     <use style="fill:#ff0000;stroke:#000000;" x="277.748855" xlink:href="#m1518d4331e" y="151.282441"/>
     <use style="fill:#ff0000;stroke:#000000;" x="195.015821" xlink:href="#m1518d4331e" y="141.356096"/>
     <use style="fill:#ff0000;stroke:#000000;" x="93.722526" xlink:href="#m1518d4331e" y="208.065262"/>
     <use style="fill:#ff0000;stroke:#000000;" x="119.405039" xlink:href="#m1518d4331e" y="115.191284"/>
     <use style="fill:#ff0000;stroke:#000000;" x="105.359478" xlink:href="#m1518d4331e" y="135.730562"/>
     <use style="fill:#ff0000;stroke:#000000;" x="96.297227" xlink:href="#m1518d4331e" y="145.552312"/>
     <use style="fill:#ff0000;stroke:#000000;" x="279.412356" xlink:href="#m1518d4331e" y="161.90743"/>
     <use style="fill:#ff0000;stroke:#000000;" x="90.606463" xlink:href="#m1518d4331e" y="179.39337"/>
     <use style="fill:#ff0000;stroke:#000000;" x="194.850356" xlink:href="#m1518d4331e" y="140.455133"/>
     <use style="fill:#ff0000;stroke:#000000;" x="132.529764" xlink:href="#m1518d4331e" y="103.330371"/>
     <use style="fill:#ff0000;stroke:#000000;" x="98.818281" xlink:href="#m1518d4331e" y="134.032323"/>
     <use style="fill:#ff0000;stroke:#000000;" x="151.886674" xlink:href="#m1518d4331e" y="201.417502"/>
     <use style="fill:#ff0000;stroke:#000000;" x="212.92984" xlink:href="#m1518d4331e" y="145.214563"/>
     <use style="fill:#ff0000;stroke:#000000;" x="168.777431" xlink:href="#m1518d4331e" y="145.261171"/>
     <use style="fill:#ff0000;stroke:#000000;" x="94.23418" xlink:href="#m1518d4331e" y="203.085316"/>
     <use style="fill:#ff0000;stroke:#000000;" x="192.443796" xlink:href="#m1518d4331e" y="84.018579"/>
     <use style="fill:#ff0000;stroke:#000000;" x="93.075731" xlink:href="#m1518d4331e" y="159.281413"/>
     <use style="fill:#ff0000;stroke:#000000;" x="224.611391" xlink:href="#m1518d4331e" y="233.424363"/>
     <use style="fill:#ff0000;stroke:#000000;" x="221.009047" xlink:href="#m1518d4331e" y="90.792477"/>
     <use style="fill:#ff0000;stroke:#000000;" x="116.270358" xlink:href="#m1518d4331e" y="251.807787"/>
     <use style="fill:#ff0000;stroke:#000000;" x="238.62752" xlink:href="#m1518d4331e" y="228.269279"/>
     <use style="fill:#ff0000;stroke:#000000;" x="216.424941" xlink:href="#m1518d4331e" y="231.466456"/>
     <use style="fill:#ff0000;stroke:#000000;" x="210.59889" xlink:href="#m1518d4331e" y="147.433707"/>
     <use style="fill:#ff0000;stroke:#000000;" x="187.614142" xlink:href="#m1518d4331e" y="230.221458"/>
     <use style="fill:#ff0000;stroke:#000000;" x="182.081963" xlink:href="#m1518d4331e" y="142.940173"/>
     <use style="fill:#ff0000;stroke:#000000;" x="276.972714" xlink:href="#m1518d4331e" y="185.469231"/>
     <use style="fill:#ff0000;stroke:#000000;" x="158.721293" xlink:href="#m1518d4331e" y="155.475146"/>
     <use style="fill:#ff0000;stroke:#000000;" x="219.929765" xlink:href="#m1518d4331e" y="235.595871"/>
     <use style="fill:#ff0000;stroke:#000000;" x="226.970531" xlink:href="#m1518d4331e" y="230.280023"/>
     <use style="fill:#ff0000;stroke:#000000;" x="139.035745" xlink:href="#m1518d4331e" y="268.288988"/>
     <use style="fill:#ff0000;stroke:#000000;" x="148.039049" xlink:href="#m1518d4331e" y="180.538384"/>
     <use style="fill:#ff0000;stroke:#000000;" x="204.28694" xlink:href="#m1518d4331e" y="146.858336"/>
     <use style="fill:#ff0000;stroke:#000000;" x="94.043848" xlink:href="#m1518d4331e" y="199.138344"/>
     <use style="fill:#ff0000;stroke:#000000;" x="99.241658" xlink:href="#m1518d4331e" y="144.040684"/>
     <use style="fill:#ff0000;stroke:#000000;" x="157.973492" xlink:href="#m1518d4331e" y="212.644641"/>
     <use style="fill:#ff0000;stroke:#000000;" x="106.471409" xlink:href="#m1518d4331e" y="232.361202"/>
     <use style="fill:#ff0000;stroke:#000000;" x="113.334382" xlink:href="#m1518d4331e" y="119.991764"/>
     <use style="fill:#ff0000;stroke:#000000;" x="92.727462" xlink:href="#m1518d4331e" y="204.145035"/>
     <use style="fill:#ff0000;stroke:#000000;" x="218.960213" xlink:href="#m1518d4331e" y="89.990553"/>
     <use style="fill:#ff0000;stroke:#000000;" x="157.938849" xlink:href="#m1518d4331e" y="162.123625"/>
     <use style="fill:#ff0000;stroke:#000000;" x="123.5089" xlink:href="#m1518d4331e" y="110.221914"/>
     <use style="fill:#ff0000;stroke:#000000;" x="195.316064" xlink:href="#m1518d4331e" y="88.898688"/>
     <use style="fill:#ff0000;stroke:#000000;" x="89.68441" xlink:href="#m1518d4331e" y="170.712078"/>
     <use style="fill:#ff0000;stroke:#000000;" x="264.680571" xlink:href="#m1518d4331e" y="119.241497"/>
     <use style="fill:#ff0000;stroke:#000000;" x="268.696059" xlink:href="#m1518d4331e" y="128.93802"/>
     <use style="fill:#ff0000;stroke:#000000;" x="161.715766" xlink:href="#m1518d4331e" y="214.638319"/>
     <use style="fill:#ff0000;stroke:#000000;" x="192.191211" xlink:href="#m1518d4331e" y="144.462015"/>
     <use style="fill:#ff0000;stroke:#000000;" x="227.167933" xlink:href="#m1518d4331e" y="233.848906"/>
     <use style="fill:#ff0000;stroke:#000000;" x="207.271725" xlink:href="#m1518d4331e" y="90.356188"/>
     <use style="fill:#ff0000;stroke:#000000;" x="179.197223" xlink:href="#m1518d4331e" y="226.055951"/>
     <use style="fill:#ff0000;stroke:#000000;" x="164.796119" xlink:href="#m1518d4331e" y="218.562457"/>
     <use style="fill:#ff0000;stroke:#000000;" x="92.749032" xlink:href="#m1518d4331e" y="195.297405"/>
     <use style="fill:#ff0000;stroke:#000000;" x="221.247927" xlink:href="#m1518d4331e" y="168.095252"/>
     <use style="fill:#ff0000;stroke:#000000;" x="204.382286" xlink:href="#m1518d4331e" y="233.287814"/>
     <use style="fill:#ff0000;stroke:#000000;" x="94.235261" xlink:href="#m1518d4331e" y="171.734884"/>
     <use style="fill:#ff0000;stroke:#000000;" x="93.684145" xlink:href="#m1518d4331e" y="163.46546"/>
     <use style="fill:#ff0000;stroke:#000000;" x="100.934594" xlink:href="#m1518d4331e" y="144.997749"/>
     <use style="fill:#ff0000;stroke:#000000;" x="152.963331" xlink:href="#m1518d4331e" y="168.31505"/>
     <use style="fill:#ff0000;stroke:#000000;" x="104.505095" xlink:href="#m1518d4331e" y="228.268293"/>
     <use style="fill:#ff0000;stroke:#000000;" x="263.917203" xlink:href="#m1518d4331e" y="120.507305"/>
     <use style="fill:#ff0000;stroke:#000000;" x="169.088511" xlink:href="#m1518d4331e" y="218.085186"/>
     <use style="fill:#ff0000;stroke:#000000;" x="185.182513" xlink:href="#m1518d4331e" y="145.054791"/>
     <use style="fill:#ff0000;stroke:#000000;" x="254.879819" xlink:href="#m1518d4331e" y="218.488047"/>
     <use style="fill:#ff0000;stroke:#000000;" x="191.985561" xlink:href="#m1518d4331e" y="144.960477"/>
     <use style="fill:#ff0000;stroke:#000000;" x="94.776142" xlink:href="#m1518d4331e" y="186.311314"/>
     <use style="fill:#ff0000;stroke:#000000;" x="276.578091" xlink:href="#m1518d4331e" y="148.856643"/>
     <use style="fill:#ff0000;stroke:#000000;" x="278.53664" xlink:href="#m1518d4331e" y="154.395037"/>
     <use style="fill:#ff0000;stroke:#000000;" x="234.757725" xlink:href="#m1518d4331e" y="96.03751"/>
     <use style="fill:#ff0000;stroke:#000000;" x="118.05821" xlink:href="#m1518d4331e" y="120.394358"/>
     <use style="fill:#ff0000;stroke:#000000;" x="148.488936" xlink:href="#m1518d4331e" y="97.16383"/>
     <use style="fill:#ff0000;stroke:#000000;" x="129.0197" xlink:href="#m1518d4331e" y="107.229511"/>
     <use style="fill:#ff0000;stroke:#000000;" x="230.816494" xlink:href="#m1518d4331e" y="232.595622"/>
     <use style="fill:#ff0000;stroke:#000000;" x="241.771542" xlink:href="#m1518d4331e" y="227.777394"/>
     <use style="fill:#ff0000;stroke:#000000;" x="189.459736" xlink:href="#m1518d4331e" y="143.350097"/>
     <use style="fill:#ff0000;stroke:#000000;" x="152.0689" xlink:href="#m1518d4331e" y="191.075297"/>
     <use style="fill:#ff0000;stroke:#000000;" x="220.207287" xlink:href="#m1518d4331e" y="170.330654"/>
     <use style="fill:#ff0000;stroke:#000000;" x="166.67688" xlink:href="#m1518d4331e" y="92.878227"/>
     <use style="fill:#ff0000;stroke:#000000;" x="97.875248" xlink:href="#m1518d4331e" y="146.319188"/>
     <use style="fill:#ff0000;stroke:#000000;" x="204.861767" xlink:href="#m1518d4331e" y="232.851593"/>
     <use style="fill:#ff0000;stroke:#000000;" x="244.599414" xlink:href="#m1518d4331e" y="224.959908"/>
     <use style="fill:#ff0000;stroke:#000000;" x="252.724054" xlink:href="#m1518d4331e" y="220.078229"/>
     <use style="fill:#ff0000;stroke:#000000;" x="135.950416" xlink:href="#m1518d4331e" y="265.264854"/>
     <use style="fill:#ff0000;stroke:#000000;" x="175.020015" xlink:href="#m1518d4331e" y="225.927709"/>
     <use style="fill:#ff0000;stroke:#000000;" x="260.945953" xlink:href="#m1518d4331e" y="113.695809"/>
     <use style="fill:#ff0000;stroke:#000000;" x="275.983699" xlink:href="#m1518d4331e" y="152.219874"/>
     <use style="fill:#ff0000;stroke:#000000;" x="153.237885" xlink:href="#m1518d4331e" y="173.354483"/>
     <use style="fill:#ff0000;stroke:#000000;" x="172.2547" xlink:href="#m1518d4331e" y="216.992865"/>
     <use style="fill:#ff0000;stroke:#000000;" x="152.008791" xlink:href="#m1518d4331e" y="197.466759"/>
     <use style="fill:#ff0000;stroke:#000000;" x="219.120889" xlink:href="#m1518d4331e" y="161.436645"/>
     <use style="fill:#ff0000;stroke:#000000;" x="222.237228" xlink:href="#m1518d4331e" y="163.049477"/>
     <use style="fill:#ff0000;stroke:#000000;" x="104.303946" xlink:href="#m1518d4331e" y="237.56063"/>
     <use style="fill:#ff0000;stroke:#000000;" x="145.435199" xlink:href="#m1518d4331e" y="98.496163"/>
     <use style="fill:#ff0000;stroke:#000000;" x="237.155627" xlink:href="#m1518d4331e" y="230.914573"/>
     <use style="fill:#ff0000;stroke:#000000;" x="125.047682" xlink:href="#m1518d4331e" y="113.390461"/>
     <use style="fill:#ff0000;stroke:#000000;" x="196.107422" xlink:href="#m1518d4331e" y="287.856789"/>
     <use style="fill:#ff0000;stroke:#000000;" x="185.208588" xlink:href="#m1518d4331e" y="232.502526"/>
     <use style="fill:#ff0000;stroke:#000000;" x="126.213829" xlink:href="#m1518d4331e" y="112.382239"/>
     <use style="fill:#ff0000;stroke:#000000;" x="172.66049" xlink:href="#m1518d4331e" y="221.15666"/>
     <use style="fill:#ff0000;stroke:#000000;" x="202.059266" xlink:href="#m1518d4331e" y="142.905098"/>
     <use style="fill:#ff0000;stroke:#000000;" x="89.988994" xlink:href="#m1518d4331e" y="167.098959"/>
     <use style="fill:#ff0000;stroke:#000000;" x="185.755416" xlink:href="#m1518d4331e" y="289.381719"/>
     <use style="fill:#ff0000;stroke:#000000;" x="257.916365" xlink:href="#m1518d4331e" y="215.779599"/>
     <use style="fill:#ff0000;stroke:#000000;" x="92.123217" xlink:href="#m1518d4331e" y="187.979835"/>
     <use style="fill:#ff0000;stroke:#000000;" x="180.388572" xlink:href="#m1518d4331e" y="285.687543"/>
     <use style="fill:#ff0000;stroke:#000000;" x="219.252393" xlink:href="#m1518d4331e" y="162.199585"/>
     <use style="fill:#ff0000;stroke:#000000;" x="169.26468" xlink:href="#m1518d4331e" y="220.934451"/>
     <use style="fill:#ff0000;stroke:#000000;" x="174.23882" xlink:href="#m1518d4331e" y="226.53117"/>
     <use style="fill:#ff0000;stroke:#000000;" x="177.889168" xlink:href="#m1518d4331e" y="89.819739"/>
     <use style="fill:#ff0000;stroke:#000000;" x="107.474411" xlink:href="#m1518d4331e" y="130.270332"/>
     <use style="fill:#ff0000;stroke:#000000;" x="153.827404" xlink:href="#m1518d4331e" y="184.493821"/>
     <use style="fill:#ff0000;stroke:#000000;" x="156.104465" xlink:href="#m1518d4331e" y="278.836673"/>
     <use style="fill:#ff0000;stroke:#000000;" x="153.500678" xlink:href="#m1518d4331e" y="199.360054"/>
     <use style="fill:#ff0000;stroke:#000000;" x="117.921662" xlink:href="#m1518d4331e" y="249.668005"/>
     <use style="fill:#ff0000;stroke:#000000;" x="212.591909" xlink:href="#m1518d4331e" y="148.888072"/>
     <use style="fill:#ff0000;stroke:#000000;" x="258.203616" xlink:href="#m1518d4331e" y="116.699485"/>
     <use style="fill:#ff0000;stroke:#000000;" x="276.233001" xlink:href="#m1518d4331e" y="178.729622"/>
     <use style="fill:#ff0000;stroke:#000000;" x="113.063883" xlink:href="#m1518d4331e" y="245.116737"/>
     <use style="fill:#ff0000;stroke:#000000;" x="272.744652" xlink:href="#m1518d4331e" y="190.004228"/>
     <use style="fill:#ff0000;stroke:#000000;" x="201.874964" xlink:href="#m1518d4331e" y="145.955863"/>
     <use style="fill:#ff0000;stroke:#000000;" x="152.844079" xlink:href="#m1518d4331e" y="171.966783"/>
     <use style="fill:#ff0000;stroke:#000000;" x="107.807294" xlink:href="#m1518d4331e" y="138.081284"/>
     <use style="fill:#ff0000;stroke:#000000;" x="194.17532" xlink:href="#m1518d4331e" y="141.441215"/>
     <use style="fill:#ff0000;stroke:#000000;" x="258.982086" xlink:href="#m1518d4331e" y="217.861657"/>
     <use style="fill:#ff0000;stroke:#000000;" x="233.951289" xlink:href="#m1518d4331e" y="96.628811"/>
     <use style="fill:#ff0000;stroke:#000000;" x="158.144343" xlink:href="#m1518d4331e" y="210.613348"/>
     <use style="fill:#ff0000;stroke:#000000;" x="168.740831" xlink:href="#m1518d4331e" y="92.298364"/>
     <use style="fill:#ff0000;stroke:#000000;" x="201.036268" xlink:href="#m1518d4331e" y="232.140359"/>
     <use style="fill:#ff0000;stroke:#000000;" x="221.610313" xlink:href="#m1518d4331e" y="169.274306"/>
     <use style="fill:#ff0000;stroke:#000000;" x="200.421928" xlink:href="#m1518d4331e" y="289.771574"/>
     <use style="fill:#ff0000;stroke:#000000;" x="95.141929" xlink:href="#m1518d4331e" y="177.483964"/>
     <use style="fill:#ff0000;stroke:#000000;" x="179.9159" xlink:href="#m1518d4331e" y="90.256383"/>
     <use style="fill:#ff0000;stroke:#000000;" x="276.707891" xlink:href="#m1518d4331e" y="142.946259"/>
     <use style="fill:#ff0000;stroke:#000000;" x="215.614867" xlink:href="#m1518d4331e" y="91.473109"/>
     <use style="fill:#ff0000;stroke:#000000;" x="123.426045" xlink:href="#m1518d4331e" y="109.153314"/>
     <use style="fill:#ff0000;stroke:#000000;" x="275.630453" xlink:href="#m1518d4331e" y="142.34592"/>
     <use style="fill:#ff0000;stroke:#000000;" x="187.638954" xlink:href="#m1518d4331e" y="290.573346"/>
     <use style="fill:#ff0000;stroke:#000000;" x="197.559864" xlink:href="#m1518d4331e" y="233.364432"/>
     <use style="fill:#ff0000;stroke:#000000;" x="200.372606" xlink:href="#m1518d4331e" y="144.833384"/>
     <use style="fill:#ff0000;stroke:#000000;" x="220.115774" xlink:href="#m1518d4331e" y="156.493969"/>
     <use style="fill:#ff0000;stroke:#000000;" x="202.343333" xlink:href="#m1518d4331e" y="88.95628"/>
     <use style="fill:#ff0000;stroke:#000000;" x="136.439796" xlink:href="#m1518d4331e" y="269.412922"/>
     <use style="fill:#ff0000;stroke:#000000;" x="94.608405" xlink:href="#m1518d4331e" y="158.140435"/>
     <use style="fill:#ff0000;stroke:#000000;" x="170.204089" xlink:href="#m1518d4331e" y="146.934945"/>
     <use style="fill:#ff0000;stroke:#000000;" x="184.348909" xlink:href="#m1518d4331e" y="227.830147"/>
    </g>
   </g>
   <g id="line2d_16">
    <defs>
     <path d="M 0 3 
C 0.795609 3 1.55874 2.683901 2.12132 2.12132 
C 2.683901 1.55874 3 0.795609 3 0 
C 3 -0.795609 2.683901 -1.55874 2.12132 -2.12132 
C 1.55874 -2.683901 0.795609 -3 0 -3 
C -0.795609 -3 -1.55874 -2.683901 -2.12132 -2.12132 
C -2.683901 -1.55874 -3 -0.795609 -3 0 
C -3 0.795609 -2.683901 1.55874 -2.12132 2.12132 
C -1.55874 2.683901 -0.795609 3 0 3 
z
" id="m6adcf2f5a8" style="stroke:#000000;"/>
    </defs>
    <g clip-path="url(#p0174a91110)">
     <use style="fill:#0000ff;stroke:#000000;" x="240.746812" xlink:href="#m6adcf2f5a8" y="137.073752"/>
     <use style="fill:#0000ff;stroke:#000000;" x="120.517334" xlink:href="#m6adcf2f5a8" y="175.159728"/>
     <use style="fill:#0000ff;stroke:#000000;" x="178.542715" xlink:href="#m6adcf2f5a8" y="116.22331"/>
     <use style="fill:#0000ff;stroke:#000000;" x="131.174371" xlink:href="#m6adcf2f5a8" y="144.608529"/>
     <use style="fill:#0000ff;stroke:#000000;" x="245.609218" xlink:href="#m6adcf2f5a8" y="187.114149"/>
     <use style="fill:#0000ff;stroke:#000000;" x="179.832606" xlink:href="#m6adcf2f5a8" y="184.155229"/>
     <use style="fill:#0000ff;stroke:#000000;" x="194.030307" xlink:href="#m6adcf2f5a8" y="112.116523"/>
     <use style="fill:#0000ff;stroke:#000000;" x="275.169935" xlink:href="#m6adcf2f5a8" y="92.366776"/>
     <use style="fill:#0000ff;stroke:#000000;" x="244.470104" xlink:href="#m6adcf2f5a8" y="189.846967"/>
     <use style="fill:#0000ff;stroke:#000000;" x="252.772407" xlink:href="#m6adcf2f5a8" y="166.438545"/>
     <use style="fill:#0000ff;stroke:#000000;" x="232.738329" xlink:href="#m6adcf2f5a8" y="257.329741"/>
     <use style="fill:#0000ff;stroke:#000000;" x="228.941917" xlink:href="#m6adcf2f5a8" y="200.131154"/>
     <use style="fill:#0000ff;stroke:#000000;" x="220.646319" xlink:href="#m6adcf2f5a8" y="123.182571"/>
     <use style="fill:#0000ff;stroke:#000000;" x="217.638914" xlink:href="#m6adcf2f5a8" y="208.617852"/>
     <use style="fill:#0000ff;stroke:#000000;" x="172.059909" xlink:href="#m6adcf2f5a8" y="255.596996"/>
     <use style="fill:#0000ff;stroke:#000000;" x="130.074764" xlink:href="#m6adcf2f5a8" y="153.523227"/>
     <use style="fill:#0000ff;stroke:#000000;" x="192.298448" xlink:href="#m6adcf2f5a8" y="201.02104"/>
     <use style="fill:#0000ff;stroke:#000000;" x="187.485205" xlink:href="#m6adcf2f5a8" y="114.665929"/>
     <use style="fill:#0000ff;stroke:#000000;" x="199.64724" xlink:href="#m6adcf2f5a8" y="203.129555"/>
     <use style="fill:#0000ff;stroke:#000000;" x="254.882648" xlink:href="#m6adcf2f5a8" y="256.195766"/>
     <use style="fill:#0000ff;stroke:#000000;" x="218.030681" xlink:href="#m6adcf2f5a8" y="118.920274"/>
     <use style="fill:#0000ff;stroke:#000000;" x="275.959663" xlink:href="#m6adcf2f5a8" y="236.049033"/>
     <use style="fill:#0000ff;stroke:#000000;" x="311.061946" xlink:href="#m6adcf2f5a8" y="170.371403"/>
     <use style="fill:#0000ff;stroke:#000000;" x="249.456502" xlink:href="#m6adcf2f5a8" y="160.786791"/>
     <use style="fill:#0000ff;stroke:#000000;" x="194.529122" xlink:href="#m6adcf2f5a8" y="261.298494"/>
     <use style="fill:#0000ff;stroke:#000000;" x="250.618321" xlink:href="#m6adcf2f5a8" y="161.259106"/>
     <use style="fill:#0000ff;stroke:#000000;" x="246.769806" xlink:href="#m6adcf2f5a8" y="183.589788"/>
     <use style="fill:#0000ff;stroke:#000000;" x="188.500573" xlink:href="#m6adcf2f5a8" y="116.250503"/>
     <use style="fill:#0000ff;stroke:#000000;" x="229.840457" xlink:href="#m6adcf2f5a8" y="62.737439"/>
     <use style="fill:#0000ff;stroke:#000000;" x="189.526285" xlink:href="#m6adcf2f5a8" y="201.753992"/>
     <use style="fill:#0000ff;stroke:#000000;" x="310.001737" xlink:href="#m6adcf2f5a8" y="160.655757"/>
     <use style="fill:#0000ff;stroke:#000000;" x="216.618753" xlink:href="#m6adcf2f5a8" y="59.027309"/>
     <use style="fill:#0000ff;stroke:#000000;" x="180.052078" xlink:href="#m6adcf2f5a8" y="192.352278"/>
     <use style="fill:#0000ff;stroke:#000000;" x="151.147624" xlink:href="#m6adcf2f5a8" y="240.706658"/>
     <use style="fill:#0000ff;stroke:#000000;" x="243.191558" xlink:href="#m6adcf2f5a8" y="140.460411"/>
     <use style="fill:#0000ff;stroke:#000000;" x="175.410466" xlink:href="#m6adcf2f5a8" y="260.502788"/>
     <use style="fill:#0000ff;stroke:#000000;" x="305.563075" xlink:href="#m6adcf2f5a8" y="193.987266"/>
     <use style="fill:#0000ff;stroke:#000000;" x="224.586375" xlink:href="#m6adcf2f5a8" y="120.824472"/>
     <use style="fill:#0000ff;stroke:#000000;" x="240.111778" xlink:href="#m6adcf2f5a8" y="191.649829"/>
     <use style="fill:#0000ff;stroke:#000000;" x="216.198072" xlink:href="#m6adcf2f5a8" y="261.936229"/>
     <use style="fill:#0000ff;stroke:#000000;" x="306.336665" xlink:href="#m6adcf2f5a8" y="192.193164"/>
     <use style="fill:#0000ff;stroke:#000000;" x="216.113449" xlink:href="#m6adcf2f5a8" y="208.178179"/>
     <use style="fill:#0000ff;stroke:#000000;" x="242.986282" xlink:href="#m6adcf2f5a8" y="143.057808"/>
     <use style="fill:#0000ff;stroke:#000000;" x="211.247438" xlink:href="#m6adcf2f5a8" y="261.872224"/>
     <use style="fill:#0000ff;stroke:#000000;" x="256.857046" xlink:href="#m6adcf2f5a8" y="75.661229"/>
     <use style="fill:#0000ff;stroke:#000000;" x="122.155768" xlink:href="#m6adcf2f5a8" y="161.042266"/>
     <use style="fill:#0000ff;stroke:#000000;" x="249.51925" xlink:href="#m6adcf2f5a8" y="170.203643"/>
     <use style="fill:#0000ff;stroke:#000000;" x="293.064911" xlink:href="#m6adcf2f5a8" y="111.688757"/>
     <use style="fill:#0000ff;stroke:#000000;" x="189.727887" xlink:href="#m6adcf2f5a8" y="202.626458"/>
     <use style="fill:#0000ff;stroke:#000000;" x="185.136123" xlink:href="#m6adcf2f5a8" y="198.32419"/>
     <use style="fill:#0000ff;stroke:#000000;" x="124.740873" xlink:href="#m6adcf2f5a8" y="185.500103"/>
     <use style="fill:#0000ff;stroke:#000000;" x="186.523414" xlink:href="#m6adcf2f5a8" y="114.9627"/>
     <use style="fill:#0000ff;stroke:#000000;" x="181.186199" xlink:href="#m6adcf2f5a8" y="179.205575"/>
     <use style="fill:#0000ff;stroke:#000000;" x="128.136681" xlink:href="#m6adcf2f5a8" y="158.928094"/>
     <use style="fill:#0000ff;stroke:#000000;" x="308.390893" xlink:href="#m6adcf2f5a8" y="187.638471"/>
     <use style="fill:#0000ff;stroke:#000000;" x="181.934274" xlink:href="#m6adcf2f5a8" y="260.033448"/>
     <use style="fill:#0000ff;stroke:#000000;" x="191.074865" xlink:href="#m6adcf2f5a8" y="260.297265"/>
     <use style="fill:#0000ff;stroke:#000000;" x="180.63774" xlink:href="#m6adcf2f5a8" y="186.248385"/>
     <use style="fill:#0000ff;stroke:#000000;" x="213.505568" xlink:href="#m6adcf2f5a8" y="206.03156"/>
     <use style="fill:#0000ff;stroke:#000000;" x="241.462989" xlink:href="#m6adcf2f5a8" y="186.242677"/>
     <use style="fill:#0000ff;stroke:#000000;" x="181.825746" xlink:href="#m6adcf2f5a8" y="189.585716"/>
     <use style="fill:#0000ff;stroke:#000000;" x="244.990986" xlink:href="#m6adcf2f5a8" y="189.764552"/>
     <use style="fill:#0000ff;stroke:#000000;" x="222.124429" xlink:href="#m6adcf2f5a8" y="120.956444"/>
     <use style="fill:#0000ff;stroke:#000000;" x="214.83631" xlink:href="#m6adcf2f5a8" y="263.281082"/>
     <use style="fill:#0000ff;stroke:#000000;" x="223.975899" xlink:href="#m6adcf2f5a8" y="204.569738"/>
     <use style="fill:#0000ff;stroke:#000000;" x="176.767459" xlink:href="#m6adcf2f5a8" y="186.139829"/>
     <use style="fill:#0000ff;stroke:#000000;" x="134.035451" xlink:href="#m6adcf2f5a8" y="224.849769"/>
     <use style="fill:#0000ff;stroke:#000000;" x="305.206742" xlink:href="#m6adcf2f5a8" y="134.820623"/>
     <use style="fill:#0000ff;stroke:#000000;" x="225.294551" xlink:href="#m6adcf2f5a8" y="204.725285"/>
     <use style="fill:#0000ff;stroke:#000000;" x="203.895291" xlink:href="#m6adcf2f5a8" y="207.177292"/>
     <use style="fill:#0000ff;stroke:#000000;" x="164.637074" xlink:href="#m6adcf2f5a8" y="248.508702"/>
     <use style="fill:#0000ff;stroke:#000000;" x="276.332154" xlink:href="#m6adcf2f5a8" y="89.381149"/>
     <use style="fill:#0000ff;stroke:#000000;" x="225.522732" xlink:href="#m6adcf2f5a8" y="122.847508"/>
     <use style="fill:#0000ff;stroke:#000000;" x="120.466229" xlink:href="#m6adcf2f5a8" y="177.184004"/>
     <use style="fill:#0000ff;stroke:#000000;" x="182.052716" xlink:href="#m6adcf2f5a8" y="257.747495"/>
     <use style="fill:#0000ff;stroke:#000000;" x="131.513435" xlink:href="#m6adcf2f5a8" y="214.904454"/>
     <use style="fill:#0000ff;stroke:#000000;" x="254.41966" xlink:href="#m6adcf2f5a8" y="251.215776"/>
     <use style="fill:#0000ff;stroke:#000000;" x="203.725086" xlink:href="#m6adcf2f5a8" y="58.025293"/>
     <use style="fill:#0000ff;stroke:#000000;" x="248.572435" xlink:href="#m6adcf2f5a8" y="173.487535"/>
     <use style="fill:#0000ff;stroke:#000000;" x="147.983653" xlink:href="#m6adcf2f5a8" y="129.109438"/>
     <use style="fill:#0000ff;stroke:#000000;" x="192.259687" xlink:href="#m6adcf2f5a8" y="200.828025"/>
     <use style="fill:#0000ff;stroke:#000000;" x="308.75451" xlink:href="#m6adcf2f5a8" y="145.839858"/>
     <use style="fill:#0000ff;stroke:#000000;" x="130.357265" xlink:href="#m6adcf2f5a8" y="146.268047"/>
     <use style="fill:#0000ff;stroke:#000000;" x="248.094838" xlink:href="#m6adcf2f5a8" y="74.742192"/>
     <use style="fill:#0000ff;stroke:#000000;" x="123.937717" xlink:href="#m6adcf2f5a8" y="211.039905"/>
     <use style="fill:#0000ff;stroke:#000000;" x="193.345389" xlink:href="#m6adcf2f5a8" y="261.609202"/>
     <use style="fill:#0000ff;stroke:#000000;" x="141.781012" xlink:href="#m6adcf2f5a8" y="234.836333"/>
     <use style="fill:#0000ff;stroke:#000000;" x="289.487562" xlink:href="#m6adcf2f5a8" y="104.159344"/>
     <use style="fill:#0000ff;stroke:#000000;" x="250.026677" xlink:href="#m6adcf2f5a8" y="156.723915"/>
     <use style="fill:#0000ff;stroke:#000000;" x="251.994017" xlink:href="#m6adcf2f5a8" y="167.590215"/>
     <use style="fill:#0000ff;stroke:#000000;" x="253.892843" xlink:href="#m6adcf2f5a8" y="73.769048"/>
     <use style="fill:#0000ff;stroke:#000000;" x="311.580539" xlink:href="#m6adcf2f5a8" y="144.835983"/>
     <use style="fill:#0000ff;stroke:#000000;" x="210.074483" xlink:href="#m6adcf2f5a8" y="260.729832"/>
     <use style="fill:#0000ff;stroke:#000000;" x="183.736147" xlink:href="#m6adcf2f5a8" y="194.054692"/>
     <use style="fill:#0000ff;stroke:#000000;" x="311.611354" xlink:href="#m6adcf2f5a8" y="156.202342"/>
     <use style="fill:#0000ff;stroke:#000000;" x="308.486681" xlink:href="#m6adcf2f5a8" y="166.963659"/>
     <use style="fill:#0000ff;stroke:#000000;" x="253.667581" xlink:href="#m6adcf2f5a8" y="75.724489"/>
     <use style="fill:#0000ff;stroke:#000000;" x="165.605911" xlink:href="#m6adcf2f5a8" y="120.098941"/>
     <use style="fill:#0000ff;stroke:#000000;" x="215.450374" xlink:href="#m6adcf2f5a8" y="114.923499"/>
     <use style="fill:#0000ff;stroke:#000000;" x="215.295472" xlink:href="#m6adcf2f5a8" y="206.255656"/>
     <use style="fill:#0000ff;stroke:#000000;" x="307.626023" xlink:href="#m6adcf2f5a8" y="180.527351"/>
     <use style="fill:#0000ff;stroke:#000000;" x="251.228938" xlink:href="#m6adcf2f5a8" y="250.520466"/>
     <use style="fill:#0000ff;stroke:#000000;" x="121.808208" xlink:href="#m6adcf2f5a8" y="189.709155"/>
     <use style="fill:#0000ff;stroke:#000000;" x="208.526298" xlink:href="#m6adcf2f5a8" y="113.4188"/>
     <use style="fill:#0000ff;stroke:#000000;" x="295.810463" xlink:href="#m6adcf2f5a8" y="115.019793"/>
     <use style="fill:#0000ff;stroke:#000000;" x="295.630103" xlink:href="#m6adcf2f5a8" y="117.073533"/>
     <use style="fill:#0000ff;stroke:#000000;" x="307.845272" xlink:href="#m6adcf2f5a8" y="180.828854"/>
     <use style="fill:#0000ff;stroke:#000000;" x="124.590311" xlink:href="#m6adcf2f5a8" y="210.477828"/>
     <use style="fill:#0000ff;stroke:#000000;" x="247.715132" xlink:href="#m6adcf2f5a8" y="166.943509"/>
     <use style="fill:#0000ff;stroke:#000000;" x="204.25314" xlink:href="#m6adcf2f5a8" y="209.864947"/>
     <use style="fill:#0000ff;stroke:#000000;" x="226.473791" xlink:href="#m6adcf2f5a8" y="203.426333"/>
     <use style="fill:#0000ff;stroke:#000000;" x="306.768261" xlink:href="#m6adcf2f5a8" y="143.290575"/>
     <use style="fill:#0000ff;stroke:#000000;" x="188.660443" xlink:href="#m6adcf2f5a8" y="116.236185"/>
     <use style="fill:#0000ff;stroke:#000000;" x="215.254652" xlink:href="#m6adcf2f5a8" y="115.575661"/>
     <use style="fill:#0000ff;stroke:#000000;" x="226.327023" xlink:href="#m6adcf2f5a8" y="261.640875"/>
     <use style="fill:#0000ff;stroke:#000000;" x="249.526266" xlink:href="#m6adcf2f5a8" y="252.704719"/>
     <use style="fill:#0000ff;stroke:#000000;" x="245.196916" xlink:href="#m6adcf2f5a8" y="145.771429"/>
     <use style="fill:#0000ff;stroke:#000000;" x="119.365541" xlink:href="#m6adcf2f5a8" y="180.007624"/>
     <use style="fill:#0000ff;stroke:#000000;" x="243.271907" xlink:href="#m6adcf2f5a8" y="192.198776"/>
     <use style="fill:#0000ff;stroke:#000000;" x="123.375385" xlink:href="#m6adcf2f5a8" y="177.453985"/>
     <use style="fill:#0000ff;stroke:#000000;" x="252.571998" xlink:href="#m6adcf2f5a8" y="154.758688"/>
     <use style="fill:#0000ff;stroke:#000000;" x="182.213102" xlink:href="#m6adcf2f5a8" y="189.81174"/>
     <use style="fill:#0000ff;stroke:#000000;" x="125.026558" xlink:href="#m6adcf2f5a8" y="186.962227"/>
     <use style="fill:#0000ff;stroke:#000000;" x="175.777336" xlink:href="#m6adcf2f5a8" y="116.720469"/>
     <use style="fill:#0000ff;stroke:#000000;" x="218.019218" xlink:href="#m6adcf2f5a8" y="122.505018"/>
     <use style="fill:#0000ff;stroke:#000000;" x="188.567925" xlink:href="#m6adcf2f5a8" y="259.613063"/>
     <use style="fill:#0000ff;stroke:#000000;" x="160.949302" xlink:href="#m6adcf2f5a8" y="119.669052"/>
     <use style="fill:#0000ff;stroke:#000000;" x="159.14739" xlink:href="#m6adcf2f5a8" y="245.315806"/>
     <use style="fill:#0000ff;stroke:#000000;" x="209.960077" xlink:href="#m6adcf2f5a8" y="120.974953"/>
     <use style="fill:#0000ff;stroke:#000000;" x="132.465876" xlink:href="#m6adcf2f5a8" y="146.323809"/>
     <use style="fill:#0000ff;stroke:#000000;" x="179.972953" xlink:href="#m6adcf2f5a8" y="191.690239"/>
     <use style="fill:#0000ff;stroke:#000000;" x="239.240412" xlink:href="#m6adcf2f5a8" y="130.969867"/>
     <use style="fill:#0000ff;stroke:#000000;" x="189.872926" xlink:href="#m6adcf2f5a8" y="262.271317"/>
     <use style="fill:#0000ff;stroke:#000000;" x="212.677298" xlink:href="#m6adcf2f5a8" y="119.371079"/>
     <use style="fill:#0000ff;stroke:#000000;" x="178.573401" xlink:href="#m6adcf2f5a8" y="179.826225"/>
     <use style="fill:#0000ff;stroke:#000000;" x="253.562852" xlink:href="#m6adcf2f5a8" y="73.102899"/>
     <use style="fill:#0000ff;stroke:#000000;" x="195.673754" xlink:href="#m6adcf2f5a8" y="260.09313"/>
     <use style="fill:#0000ff;stroke:#000000;" x="134.900369" xlink:href="#m6adcf2f5a8" y="225.373381"/>
     <use style="fill:#0000ff;stroke:#000000;" x="270.405511" xlink:href="#m6adcf2f5a8" y="91.478396"/>
     <use style="fill:#0000ff;stroke:#000000;" x="120.563852" xlink:href="#m6adcf2f5a8" y="176.690066"/>
     <use style="fill:#0000ff;stroke:#000000;" x="200.913232" xlink:href="#m6adcf2f5a8" y="264.85731"/>
     <use style="fill:#0000ff;stroke:#000000;" x="242.390214" xlink:href="#m6adcf2f5a8" y="135.708859"/>
     <use style="fill:#0000ff;stroke:#000000;" x="123.421422" xlink:href="#m6adcf2f5a8" y="199.005345"/>
     <use style="fill:#0000ff;stroke:#000000;" x="260.431279" xlink:href="#m6adcf2f5a8" y="248.896095"/>
     <use style="fill:#0000ff;stroke:#000000;" x="141.530802" xlink:href="#m6adcf2f5a8" y="133.704704"/>
     <use style="fill:#0000ff;stroke:#000000;" x="247.244769" xlink:href="#m6adcf2f5a8" y="155.712246"/>
     <use style="fill:#0000ff;stroke:#000000;" x="309.446125" xlink:href="#m6adcf2f5a8" y="174.538551"/>
     <use style="fill:#0000ff;stroke:#000000;" x="160.901526" xlink:href="#m6adcf2f5a8" y="122.664267"/>
     <use style="fill:#0000ff;stroke:#000000;" x="214.254538" xlink:href="#m6adcf2f5a8" y="208.190228"/>
     <use style="fill:#0000ff;stroke:#000000;" x="205.509619" xlink:href="#m6adcf2f5a8" y="206.570165"/>
     <use style="fill:#0000ff;stroke:#000000;" x="248.426396" xlink:href="#m6adcf2f5a8" y="155.11653"/>
     <use style="fill:#0000ff;stroke:#000000;" x="121.085587" xlink:href="#m6adcf2f5a8" y="180.416893"/>
     <use style="fill:#0000ff;stroke:#000000;" x="220.40179" xlink:href="#m6adcf2f5a8" y="205.493794"/>
     <use style="fill:#0000ff;stroke:#000000;" x="167.449196" xlink:href="#m6adcf2f5a8" y="117.772218"/>
     <use style="fill:#0000ff;stroke:#000000;" x="208.054645" xlink:href="#m6adcf2f5a8" y="262.616235"/>
     <use style="fill:#0000ff;stroke:#000000;" x="300.740181" xlink:href="#m6adcf2f5a8" y="123.170262"/>
     <use style="fill:#0000ff;stroke:#000000;" x="293.018465" xlink:href="#m6adcf2f5a8" y="115.532107"/>
     <use style="fill:#0000ff;stroke:#000000;" x="242.312023" xlink:href="#m6adcf2f5a8" y="192.370089"/>
     <use style="fill:#0000ff;stroke:#000000;" x="188.633233" xlink:href="#m6adcf2f5a8" y="201.584722"/>
     <use style="fill:#0000ff;stroke:#000000;" x="210.189685" xlink:href="#m6adcf2f5a8" y="115.525395"/>
     <use style="fill:#0000ff;stroke:#000000;" x="121.38969" xlink:href="#m6adcf2f5a8" y="179.618284"/>
     <use style="fill:#0000ff;stroke:#000000;" x="239.02752" xlink:href="#m6adcf2f5a8" y="67.526076"/>
     <use style="fill:#0000ff;stroke:#000000;" x="305.564401" xlink:href="#m6adcf2f5a8" y="183.079656"/>
     <use style="fill:#0000ff;stroke:#000000;" x="196.047584" xlink:href="#m6adcf2f5a8" y="205.430674"/>
     <use style="fill:#0000ff;stroke:#000000;" x="228.137463" xlink:href="#m6adcf2f5a8" y="205.291403"/>
     <use style="fill:#0000ff;stroke:#000000;" x="180.63351" xlink:href="#m6adcf2f5a8" y="192.061868"/>
     <use style="fill:#0000ff;stroke:#000000;" x="126.114817" xlink:href="#m6adcf2f5a8" y="209.67937"/>
     <use style="fill:#0000ff;stroke:#000000;" x="248.098262" xlink:href="#m6adcf2f5a8" y="69.803112"/>
     <use style="fill:#0000ff;stroke:#000000;" x="173.271867" xlink:href="#m6adcf2f5a8" y="256.931808"/>
     <use style="fill:#0000ff;stroke:#000000;" x="247.630674" xlink:href="#m6adcf2f5a8" y="177.507042"/>
     <use style="fill:#0000ff;stroke:#000000;" x="128.572242" xlink:href="#m6adcf2f5a8" y="152.58785"/>
     <use style="fill:#0000ff;stroke:#000000;" x="283.341979" xlink:href="#m6adcf2f5a8" y="230.165854"/>
     <use style="fill:#0000ff;stroke:#000000;" x="310.86057" xlink:href="#m6adcf2f5a8" y="175.431933"/>
     <use style="fill:#0000ff;stroke:#000000;" x="250.889951" xlink:href="#m6adcf2f5a8" y="160.352232"/>
     <use style="fill:#0000ff;stroke:#000000;" x="192.724188" xlink:href="#m6adcf2f5a8" y="261.93617"/>
     <use style="fill:#0000ff;stroke:#000000;" x="140.093793" xlink:href="#m6adcf2f5a8" y="228.495671"/>
     <use style="fill:#0000ff;stroke:#000000;" x="305.728932" xlink:href="#m6adcf2f5a8" y="157.42278"/>
     <use style="fill:#0000ff;stroke:#000000;" x="243.613582" xlink:href="#m6adcf2f5a8" y="144.774605"/>
     <use style="fill:#0000ff;stroke:#000000;" x="151.848575" xlink:href="#m6adcf2f5a8" y="241.230455"/>
     <use style="fill:#0000ff;stroke:#000000;" x="122.660866" xlink:href="#m6adcf2f5a8" y="199.577723"/>
     <use style="fill:#0000ff;stroke:#000000;" x="202.908702" xlink:href="#m6adcf2f5a8" y="260.516687"/>
     <use style="fill:#0000ff;stroke:#000000;" x="122.757943" xlink:href="#m6adcf2f5a8" y="191.845123"/>
     <use style="fill:#0000ff;stroke:#000000;" x="232.858984" xlink:href="#m6adcf2f5a8" y="131.193175"/>
     <use style="fill:#0000ff;stroke:#000000;" x="122.911212" xlink:href="#m6adcf2f5a8" y="167.220981"/>
     <use style="fill:#0000ff;stroke:#000000;" x="139.480865" xlink:href="#m6adcf2f5a8" y="232.062257"/>
     <use style="fill:#0000ff;stroke:#000000;" x="180.027639" xlink:href="#m6adcf2f5a8" y="183.704864"/>
     <use style="fill:#0000ff;stroke:#000000;" x="237.380105" xlink:href="#m6adcf2f5a8" y="133.970348"/>
     <use style="fill:#0000ff;stroke:#000000;" x="200.941089" xlink:href="#m6adcf2f5a8" y="116.086994"/>
     <use style="fill:#0000ff;stroke:#000000;" x="224.449545" xlink:href="#m6adcf2f5a8" y="123.101999"/>
     <use style="fill:#0000ff;stroke:#000000;" x="125.449462" xlink:href="#m6adcf2f5a8" y="209.675108"/>
     <use style="fill:#0000ff;stroke:#000000;" x="221.130346" xlink:href="#m6adcf2f5a8" y="259.540938"/>
     <use style="fill:#0000ff;stroke:#000000;" x="132.726612" xlink:href="#m6adcf2f5a8" y="220.828348"/>
     <use style="fill:#0000ff;stroke:#000000;" x="233.826186" xlink:href="#m6adcf2f5a8" y="201.907096"/>
     <use style="fill:#0000ff;stroke:#000000;" x="230.351539" xlink:href="#m6adcf2f5a8" y="124.517374"/>
     <use style="fill:#0000ff;stroke:#000000;" x="209.469224" xlink:href="#m6adcf2f5a8" y="207.347161"/>
     <use style="fill:#0000ff;stroke:#000000;" x="204.283951" xlink:href="#m6adcf2f5a8" y="116.00459"/>
     <use style="fill:#0000ff;stroke:#000000;" x="147.607212" xlink:href="#m6adcf2f5a8" y="240.775044"/>
     <use style="fill:#0000ff;stroke:#000000;" x="250.530484" xlink:href="#m6adcf2f5a8" y="176.470037"/>
     <use style="fill:#0000ff;stroke:#000000;" x="181.143464" xlink:href="#m6adcf2f5a8" y="189.042146"/>
     <use style="fill:#0000ff;stroke:#000000;" x="295.542934" xlink:href="#m6adcf2f5a8" y="114.189166"/>
    </g>
   </g>
   <g id="patch_3">
    <path d="M 57.6 307.584 
L 57.6 41.472 
" style="fill:none;stroke:#000000;stroke-linecap:square;stroke-linejoin:miter;stroke-width:0.8;"/>
   </g>
   <g id="patch_4">
    <path d="M 343.296 307.584 
L 343.296 41.472 
" style="fill:none;stroke:#000000;stroke-linecap:square;stroke-linejoin:miter;stroke-width:0.8;"/>
   </g>
   <g id="patch_5">
    <path d="M 57.6 307.584 
L 343.296 307.584 
" style="fill:none;stroke:#000000;stroke-linecap:square;stroke-linejoin:miter;stroke-width:0.8;"/>
   </g>
   <g id="patch_6">
    <path d="M 57.6 41.472 
L 343.296 41.472 
" style="fill:none;stroke:#000000;stroke-linecap:square;stroke-linejoin:miter;stroke-width:0.8;"/>
   </g>
   <g id="text_17">
    <!-- Spirals -->
    <g transform="translate(180.227063 35.472)scale(0.12 -0.12)">
     <defs>
      <path d="M 53.515625 70.515625 
L 53.515625 60.890625 
Q 47.90625 63.578125 42.921875 64.890625 
Q 37.9375 66.21875 33.296875 66.21875 
Q 25.25 66.21875 20.875 63.09375 
Q 16.5 59.96875 16.5 54.203125 
Q 16.5 49.359375 19.40625 46.890625 
Q 22.3125 44.4375 30.421875 42.921875 
L 36.375 41.703125 
Q 47.40625 39.59375 52.65625 34.296875 
Q 57.90625 29 57.90625 20.125 
Q 57.90625 9.515625 50.796875 4.046875 
Q 43.703125 -1.421875 29.984375 -1.421875 
Q 24.8125 -1.421875 18.96875 -0.25 
Q 13.140625 0.921875 6.890625 3.21875 
L 6.890625 13.375 
Q 12.890625 10.015625 18.65625 8.296875 
Q 24.421875 6.59375 29.984375 6.59375 
Q 38.421875 6.59375 43.015625 9.90625 
Q 47.609375 13.234375 47.609375 19.390625 
Q 47.609375 24.75 44.3125 27.78125 
Q 41.015625 30.8125 33.5 32.328125 
L 27.484375 33.5 
Q 16.453125 35.6875 11.515625 40.375 
Q 6.59375 45.0625 6.59375 53.421875 
Q 6.59375 63.09375 13.40625 68.65625 
Q 20.21875 74.21875 32.171875 74.21875 
Q 37.3125 74.21875 42.625 73.28125 
Q 47.953125 72.359375 53.515625 70.515625 
z
" id="DejaVuSans-83"/>
      <path d="M 18.109375 8.203125 
L 18.109375 -20.796875 
L 9.078125 -20.796875 
L 9.078125 54.6875 
L 18.109375 54.6875 
L 18.109375 46.390625 
Q 20.953125 51.265625 25.265625 53.625 
Q 29.59375 56 35.59375 56 
Q 45.5625 56 51.78125 48.09375 
Q 58.015625 40.1875 58.015625 27.296875 
Q 58.015625 14.40625 51.78125 6.484375 
Q 45.5625 -1.421875 35.59375 -1.421875 
Q 29.59375 -1.421875 25.265625 0.953125 
Q 20.953125 3.328125 18.109375 8.203125 
z
M 48.6875 27.296875 
Q 48.6875 37.203125 44.609375 42.84375 
Q 40.53125 48.484375 33.40625 48.484375 
Q 26.265625 48.484375 22.1875 42.84375 
Q 18.109375 37.203125 18.109375 27.296875 
Q 18.109375 17.390625 22.1875 11.75 
Q 26.265625 6.109375 33.40625 6.109375 
Q 40.53125 6.109375 44.609375 11.75 
Q 48.6875 17.390625 48.6875 27.296875 
z
" id="DejaVuSans-112"/>
      <path d="M 9.421875 54.6875 
L 18.40625 54.6875 
L 18.40625 0 
L 9.421875 0 
z
M 9.421875 75.984375 
L 18.40625 75.984375 
L 18.40625 64.59375 
L 9.421875 64.59375 
z
" id="DejaVuSans-105"/>
      <path d="M 41.109375 46.296875 
Q 39.59375 47.171875 37.8125 47.578125 
Q 36.03125 48 33.890625 48 
Q 26.265625 48 22.1875 43.046875 
Q 18.109375 38.09375 18.109375 28.8125 
L 18.109375 0 
L 9.078125 0 
L 9.078125 54.6875 
L 18.109375 54.6875 
L 18.109375 46.1875 
Q 20.953125 51.171875 25.484375 53.578125 
Q 30.03125 56 36.53125 56 
Q 37.453125 56 38.578125 55.875 
Q 39.703125 55.765625 41.0625 55.515625 
z
" id="DejaVuSans-114"/>
      <path d="M 34.28125 27.484375 
Q 23.390625 27.484375 19.1875 25 
Q 14.984375 22.515625 14.984375 16.5 
Q 14.984375 11.71875 18.140625 8.90625 
Q 21.296875 6.109375 26.703125 6.109375 
Q 34.1875 6.109375 38.703125 11.40625 
Q 43.21875 16.703125 43.21875 25.484375 
L 43.21875 27.484375 
z
M 52.203125 31.203125 
L 52.203125 0 
L 43.21875 0 
L 43.21875 8.296875 
Q 40.140625 3.328125 35.546875 0.953125 
Q 30.953125 -1.421875 24.3125 -1.421875 
Q 15.921875 -1.421875 10.953125 3.296875 
Q 6 8.015625 6 15.921875 
Q 6 25.140625 12.171875 29.828125 
Q 18.359375 34.515625 30.609375 34.515625 
L 43.21875 34.515625 
L 43.21875 35.40625 
Q 43.21875 41.609375 39.140625 45 
Q 35.0625 48.390625 27.6875 48.390625 
Q 23 48.390625 18.546875 47.265625 
Q 14.109375 46.140625 10.015625 43.890625 
L 10.015625 52.203125 
Q 14.9375 54.109375 19.578125 55.046875 
Q 24.21875 56 28.609375 56 
Q 40.484375 56 46.34375 49.84375 
Q 52.203125 43.703125 52.203125 31.203125 
z
" id="DejaVuSans-97"/>
      <path d="M 9.421875 75.984375 
L 18.40625 75.984375 
L 18.40625 0 
L 9.421875 0 
z
" id="DejaVuSans-108"/>
      <path d="M 44.28125 53.078125 
L 44.28125 44.578125 
Q 40.484375 46.53125 36.375 47.5 
Q 32.28125 48.484375 27.875 48.484375 
Q 21.1875 48.484375 17.84375 46.4375 
Q 14.5 44.390625 14.5 40.28125 
Q 14.5 37.15625 16.890625 35.375 
Q 19.28125 33.59375 26.515625 31.984375 
L 29.59375 31.296875 
Q 39.15625 29.25 43.1875 25.515625 
Q 47.21875 21.78125 47.21875 15.09375 
Q 47.21875 7.46875 41.1875 3.015625 
Q 35.15625 -1.421875 24.609375 -1.421875 
Q 20.21875 -1.421875 15.453125 -0.5625 
Q 10.6875 0.296875 5.421875 2 
L 5.421875 11.28125 
Q 10.40625 8.6875 15.234375 7.390625 
Q 20.0625 6.109375 24.8125 6.109375 
Q 31.15625 6.109375 34.5625 8.28125 
Q 37.984375 10.453125 37.984375 14.40625 
Q 37.984375 18.0625 35.515625 20.015625 
Q 33.0625 21.96875 24.703125 23.78125 
L 21.578125 24.515625 
Q 13.234375 26.265625 9.515625 29.90625 
Q 5.8125 33.546875 5.8125 39.890625 
Q 5.8125 47.609375 11.28125 51.796875 
Q 16.75 56 26.8125 56 
Q 31.78125 56 36.171875 55.265625 
Q 40.578125 54.546875 44.28125 53.078125 
z
" id="DejaVuSans-115"/>
     </defs>
     <use xlink:href="#DejaVuSans-83"/>
     <use x="63.476562" xlink:href="#DejaVuSans-112"/>
     <use x="126.953125" xlink:href="#DejaVuSans-105"/>
     <use x="154.736328" xlink:href="#DejaVuSans-114"/>
     <use x="195.849609" xlink:href="#DejaVuSans-97"/>
     <use x="257.128906" xlink:href="#DejaVuSans-108"/>
     <use x="284.912109" xlink:href="#DejaVuSans-115"/>
    </g>
   </g>
  </g>
  <g id="axes_2">
   <g id="patch_7">
    <path clip-path="url(#p5cd6b18061)" d="M 361.152 307.584 
L 361.152 41.472 
L 361.152 307.584 
L 361.152 41.472 
L 374.4576 41.472 
L 374.4576 307.584 
L 374.4576 41.472 
L 374.4576 307.584 
z
" style="fill:#ffffff;stroke:#ffffff;stroke-linejoin:miter;stroke-width:0.01;"/>
   </g>
   <g id="QuadMesh_1">
    <path clip-path="url(#p5cd6b18061)" d="M 361.152 307.584 
L 374.4576 307.584 
L 374.4576 41.472 
L 361.152 41.472 
L 361.152 307.584 
" style="fill:#21918c;"/>
   </g>
   <g id="matplotlib.axis_3"/>
   <g id="matplotlib.axis_4">
    <g id="ytick_8">
     <g id="line2d_17">
      <defs>
       <path d="M 0 0 
L 3.5 0 
" id="m4ea5e0e0d6" style="stroke:#000000;stroke-width:0.8;"/>
      </defs>
      <g>
       <use style="stroke:#000000;stroke-width:0.8;" x="374.4576" xlink:href="#m4ea5e0e0d6" y="307.584"/>
      </g>
     </g>
     <g id="text_18">
      <!-- 0.5 -->
      <g transform="translate(381.4576 311.383219)scale(0.1 -0.1)">
       <defs>
        <path d="M 10.6875 12.40625 
L 21 12.40625 
L 21 0 
L 10.6875 0 
z
" id="DejaVuSans-46"/>
       </defs>
       <use xlink:href="#DejaVuSans-48"/>
       <use x="63.623047" xlink:href="#DejaVuSans-46"/>
       <use x="95.410156" xlink:href="#DejaVuSans-53"/>
      </g>
     </g>
    </g>
    <g id="ytick_9">
     <g id="line2d_18">
      <g>
       <use style="stroke:#000000;stroke-width:0.8;" x="374.4576" xlink:href="#m4ea5e0e0d6" y="41.472"/>
      </g>
     </g>
     <g id="text_19">
      <!-- 1.0 -->
      <g transform="translate(381.4576 45.271219)scale(0.1 -0.1)">
       <use xlink:href="#DejaVuSans-49"/>
       <use x="63.623047" xlink:href="#DejaVuSans-46"/>
       <use x="95.410156" xlink:href="#DejaVuSans-48"/>
      </g>
     </g>
    </g>
   </g>
   <g id="patch_8">
    <path d="M 361.152 307.584 
L 361.152 41.472 
L 361.152 307.584 
L 361.152 41.472 
L 374.4576 41.472 
L 374.4576 307.584 
L 374.4576 41.472 
L 374.4576 307.584 
z
" style="fill:none;stroke:#000000;stroke-linejoin:miter;stroke-width:0.8;"/>
   </g>
  </g>
 </g>
 <defs>
  <clipPath id="p0174a91110">
   <rect height="266.112" width="285.696" x="57.6" y="41.472"/>
  </clipPath>
  <clipPath id="p5cd6b18061">
   <rect height="266.112" width="13.3056" x="361.152" y="41.472"/>
  </clipPath>
 </defs>
</svg>
